<svg width="480" height="360" viewBox="0 0 480 360" fill="none" xmlns="http://www.w3.org/2000/svg">
<path d="M210.895 240.535C210.32 240.879 209.646 241.012 209.31 240.374C209.172 240.125 209.091 239.849 209.073 239.565C209.054 239.281 209.099 238.996 209.205 238.732C209.865 237.894 210.639 237.153 211.505 236.53C215.321 233.689 219.221 230.918 223.016 228.112C224.907 226.803 226.688 225.342 228.34 223.742C228.857 223.184 229.495 222.754 230.206 222.485C230.917 222.216 231.681 222.115 232.437 222.192C237.958 222.43 243.485 222.633 249.006 222.893C257.283 223.305 265.56 223.751 273.838 224.233C275.059 224.314 276.275 224.468 277.478 224.696C278.18 224.822 278.951 225.987 278.664 226.414C278.355 226.927 277.89 227.328 277.338 227.558C276.593 227.731 275.824 227.772 275.065 227.677C263.449 226.807 251.816 225.921 240.167 225.018C237.565 224.815 234.983 224.429 232.388 224.156C231.937 224.084 231.476 224.109 231.035 224.23C230.595 224.351 230.185 224.565 229.835 224.857C224.546 229.304 219.214 233.696 213.925 238.143C213.671 238.474 213.54 238.883 213.554 239.3C213.554 239.406 213.996 239.651 214.255 239.672C224.651 240.619 235.039 241.58 245.442 242.478C250.184 242.878 254.954 242.962 259.682 243.474C262.754 243.804 265.006 242.73 267.033 240.605C270.744 236.719 274.532 232.889 278.257 229.045C279.786 227.474 280.565 227.13 281.245 227.894C282.227 229.01 281.385 229.894 280.81 230.749C280.326 231.51 280.132 232.418 280.263 233.31C280.501 237.589 280.551 241.882 280.621 246.175C280.572 246.617 280.397 247.036 280.116 247.381C280.031 247.507 279.414 247.493 279.414 247.381C278.932 246.453 278.6 245.454 278.432 244.421C278.334 241.973 278.488 239.511 278.53 237.056C278.567 236.587 278.548 236.116 278.474 235.653C278.446 235.507 278.387 235.369 278.301 235.248C278.215 235.127 278.104 235.026 277.976 234.951C277.844 234.902 277.701 234.885 277.561 234.902C277.42 234.919 277.286 234.97 277.169 235.049C275.5 236.628 273.873 238.255 272.203 239.84C270.421 241.524 268.619 243.191 266.795 244.842C266.057 245.516 265.185 246.026 264.236 246.341C263.287 246.655 262.283 246.766 261.288 246.666C257.15 246.371 252.99 246.336 248.872 245.908C238.35 244.814 227.828 243.649 217.306 242.338C211.933 241.636 212.586 242.338 212.558 246.687C212.558 251.597 212.256 256.507 212.059 261.418C212.006 262.024 211.857 262.618 211.618 263.178C211.548 263.309 211.448 263.42 211.326 263.503C211.203 263.586 211.063 263.638 210.916 263.655C210.509 263.655 209.927 263.522 209.752 263.241C209.426 262.733 209.253 262.141 209.254 261.537C209.345 259.082 209.506 256.627 209.681 254.185C209.941 250.369 210.727 246.582 210.158 242.709C210.06 242.057 210.607 241.307 210.86 240.605L210.972 240.395L211.021 240.675L210.895 240.535Z" fill="#1B2B36" stroke="#1B2B36"/>
<path d="M318.198 221.56C318.768 221.499 319.329 221.382 319.875 221.209C323.565 219.687 327.296 218.242 330.909 216.552C338.141 213.171 345.303 209.635 352.507 206.191C353.741 205.577 355.025 205.068 356.344 204.669C356.632 204.64 356.923 204.675 357.196 204.772C357.469 204.869 357.717 205.026 357.922 205.23C358.42 205.763 358.042 206.409 357.509 206.78C356.754 207.31 355.959 207.779 355.131 208.183C347.639 211.733 340.175 215.345 332.614 218.747C328.98 220.389 325.164 221.609 321.432 223.019C320.029 223.566 318.577 224.107 317.153 224.668C316.15 225.061 315.315 224.71 315.126 223.594C314.663 221.338 314.351 219.053 314.193 216.755C313.877 208.464 313.674 200.173 313.492 191.874C313.351 185.729 313.225 179.585 313.204 173.433C313.25 172.599 313.048 171.77 312.622 171.052C312.196 170.334 311.566 169.758 310.812 169.399C301.651 164.068 292.574 158.646 283.455 153.223C281.477 152.045 279.548 150.775 277.64 149.478C277.148 149.124 276.768 148.637 276.545 148.075C276.454 147.857 277.043 147.072 277.198 147.107C278.081 147.265 278.934 147.563 279.723 147.991C290.75 154.69 301.784 161.381 312.741 168.193C313.286 168.603 313.922 168.875 314.596 168.985C315.269 169.095 315.959 169.04 316.606 168.824C318.633 168.123 320.668 167.421 322.625 166.544C330.628 162.995 338.597 159.368 346.58 155.798C347.835 155.231 349.124 154.739 350.438 154.325C350.66 154.32 350.881 154.366 351.083 154.46C351.284 154.554 351.462 154.692 351.602 154.865C351.703 154.982 351.778 155.118 351.823 155.266C351.868 155.413 351.882 155.569 351.864 155.722C351.845 155.875 351.795 156.023 351.716 156.155C351.637 156.288 351.532 156.403 351.406 156.492C350.543 157.124 349.622 157.674 348.656 158.134C338.485 162.841 328.314 167.596 317.616 170.999C317.476 171.041 317.329 171.104 317.188 171.153C315.084 171.896 314.993 171.946 315.035 174.036C315.119 177.719 315.245 181.408 315.379 185.091C315.568 190.317 315.743 195.536 315.989 200.755C316.269 206.745 316.613 212.729 316.957 218.705C317.025 219.465 317.183 220.213 317.427 220.936C317.469 221.174 317.848 221.301 318.198 221.56Z" fill="#1B2B36" stroke="#1B2B36"/>
<path d="M272.512 172.969C272.512 179.876 272.512 186.788 272.512 193.705C272.512 194.778 272.512 195.851 272.512 196.924C272.496 197.299 272.601 197.668 272.81 197.979C273.02 198.289 273.323 198.524 273.676 198.65C286.373 204.851 298.88 211.389 310.573 219.371C310.985 219.575 311.369 219.829 311.717 220.129C312.11 220.548 312.4 221.052 312.566 221.602C312.685 222.093 311.436 222.303 310.63 221.904C310.076 221.638 309.538 221.343 309.016 221.02C299.61 214.875 289.543 209.951 279.555 204.886C278.187 204.185 276.812 203.483 275.451 202.782C272.358 201.182 270.674 198.734 270.618 195.15C270.401 180.566 270.113 165.983 269.917 151.392C269.955 150.028 270.105 148.67 270.365 147.331C270.365 147.155 270.856 146.945 271.123 146.938C271.273 146.938 271.421 146.973 271.556 147.038C271.69 147.104 271.809 147.199 271.902 147.317C272.184 147.853 272.358 148.439 272.414 149.042C272.498 151.652 272.526 154.261 272.533 156.871C272.533 162.244 272.533 167.624 272.533 173.004L272.512 172.969Z" fill="#1B2B36" stroke="#1B2B36"/>
<path d="M121.774 197.612C122.202 197.622 122.626 197.688 123.037 197.808C140.258 204.921 158.222 209.656 176.18 214.412C178.403 215.001 180.557 215.815 182.773 216.453C184.632 216.972 185.979 218.186 187.284 219.491C187.364 219.61 187.415 219.746 187.432 219.889C187.449 220.032 187.432 220.177 187.382 220.311C187.291 220.543 186.947 220.852 186.744 220.831C185.674 220.763 184.613 220.599 183.573 220.34C174.124 217.646 164.634 215.001 155.262 212.16C144.65 209.057 134.237 205.309 124.082 200.937C123.101 200.514 122.161 199.999 121.276 199.401C121.016 199.225 120.974 198.608 121.002 198.201C121.03 198.026 121.451 197.865 121.774 197.612Z" fill="#1B2B36" stroke="#1B2B36"/>
<path d="M190.013 196.616C179.142 197.442 168.234 197.676 157.338 197.317C156.125 197.317 154.904 197.149 153.698 196.995C153.529 196.995 153.291 196.553 153.305 196.342C153.341 196.217 153.408 196.103 153.5 196.011C153.592 195.919 153.706 195.852 153.831 195.816C155.199 195.669 156.574 195.55 157.949 195.486C161.779 195.311 165.616 195.164 169.446 195.009L223.718 192.905C224.946 192.856 226.173 192.842 227.401 192.905C228.172 192.905 228.93 193.172 229.105 194.105C229.26 194.897 228.516 195.578 227.274 195.697C226.033 195.816 224.826 195.893 223.599 195.928C215.623 196.181 207.654 196.44 199.679 196.63C196.459 196.679 193.232 196.616 190.013 196.616Z" fill="#1B2B36" stroke="#1B2B36"/>
<path d="M184.534 140.898L153.67 141.256C153.212 141.278 152.754 141.235 152.309 141.13C152.181 141.079 152.066 141 151.974 140.897C151.881 140.795 151.813 140.673 151.776 140.541C151.727 140.288 151.846 139.839 152.014 139.748C152.83 139.357 153.7 139.093 154.596 138.962C158.271 138.745 161.954 138.598 165.637 138.499C182.528 138.032 199.417 137.578 216.303 137.139C217.854 137.096 219.376 137.089 220.793 137.84C220.909 137.929 221.003 138.042 221.07 138.172C221.137 138.302 221.174 138.445 221.179 138.591C221.168 138.731 221.125 138.868 221.054 138.99C220.982 139.111 220.883 139.215 220.765 139.292C219.095 140.218 217.257 140.323 215.406 140.344C208.496 140.435 201.58 140.541 194.67 140.618C191.296 140.618 187.915 140.618 184.541 140.618L184.534 140.898Z" fill="#1B2B36" stroke="#1B2B36"/>
<path d="M103.143 258.955C103.844 259.102 104.623 259.201 105.353 259.418C120.224 263.788 135.102 268.13 149.945 272.591C152.557 273.475 155.105 274.539 157.57 275.776C158.195 276.192 158.717 276.743 159.099 277.389C159.168 277.525 159.204 277.676 159.204 277.828C159.204 277.98 159.168 278.13 159.099 278.266C159.009 278.385 158.895 278.484 158.764 278.557C158.634 278.629 158.49 278.674 158.341 278.687C157.887 278.732 157.427 278.679 156.995 278.533C145.259 273.924 133.018 270.908 121.016 267.148C114.703 265.177 108.502 262.981 102.259 260.835C101.887 260.709 101.635 260.246 101.333 259.937C101.775 259.607 102.21 259.236 102.673 258.948C102.75 258.892 102.947 258.955 103.143 258.955Z" fill="#1B2B36" stroke="#1B2B36"/>
<path d="M100.106 222.521C100.729 222.608 101.347 222.727 101.958 222.879C117.109 227.389 132.275 231.871 147.399 236.452C150.331 237.343 153.151 238.612 155.992 239.77C156.689 240.062 157.327 240.48 157.871 241.004C157.996 241.183 158.078 241.388 158.109 241.604C158.141 241.819 158.122 242.039 158.054 242.246C157.821 242.621 157.475 242.911 157.065 243.074C156.78 243.184 156.468 243.199 156.174 243.116C155.271 242.949 154.383 242.715 153.515 242.414C141.703 237.595 129.455 234.046 117.348 230.076C111.519 228.168 105.696 226.204 99.8813 224.246C99.5166 224.127 98.8291 224.127 99.1799 223.454C99.3201 223.061 99.7621 222.865 100.106 222.521Z" fill="#1B2B36" stroke="#1B2B36"/>
<path d="M97.2658 245.498C97.3838 248.835 97.4864 251.392 97.5531 253.963C97.5626 254.764 97.5283 255.564 97.4505 256.357C97.3684 257.322 96.8912 257.963 96.3934 257.868C96.1126 257.813 95.8547 257.616 95.6664 257.312C95.4781 257.008 95.372 256.617 95.3672 256.21C95.2747 255.098 95.2336 253.978 95.244 252.858C95.1824 244.518 95.244 236.171 94.5975 227.86C94.4794 226.306 94.9669 224.913 95.4441 225.186C96.1779 225.613 96.2959 226.585 96.3421 227.551C96.6808 233.791 96.9938 240.031 97.2658 245.498Z" fill="#1B2B36" stroke="#1B2B36"/>
<path d="M189.69 241.889C189.69 246.336 189.69 250.776 189.69 255.216C189.668 255.958 189.816 256.695 190.125 257.37C190.462 258.001 191.437 258.415 191.079 259.257C190.725 259.931 190.218 260.512 189.599 260.954C183.426 266.005 177.239 271.032 171.038 276.036C169.946 276.874 168.798 277.636 167.601 278.316C167.43 278.401 167.241 278.448 167.05 278.452C166.858 278.457 166.668 278.419 166.493 278.341C166.318 278.263 166.163 278.147 166.038 278.002C165.913 277.857 165.821 277.686 165.77 277.502C165.658 277.004 165.931 275.945 166.086 275.938C167.945 275.804 169.116 274.535 170.393 273.468C175.527 269.098 180.634 264.686 185.825 260.358C186.296 259.988 186.659 259.499 186.879 258.942C187.098 258.385 187.165 257.779 187.073 257.187C186.631 247.688 186.765 238.17 187.473 228.687C187.484 228.229 187.565 227.774 187.712 227.34C187.845 226.996 187.922 226.309 188.554 226.639C188.933 226.851 189.215 227.203 189.339 227.621C189.445 228.378 189.48 229.144 189.444 229.907C189.444 233.892 189.444 237.883 189.444 241.832L189.69 241.889Z" fill="#1B2B36" stroke="#1B2B36"/>
<path d="M227.099 143.431C227.352 143.627 227.73 143.774 227.8 143.992C228.017 144.878 228.174 145.778 228.27 146.685C229.309 157.362 230.34 168.043 231.364 178.728C231.63 181.471 231.946 184.214 232.269 186.957C232.269 187.216 232.514 187.658 232.69 187.658C233.101 187.758 233.535 187.698 233.903 187.49C234.918 186.564 235.857 185.558 236.709 184.48C239.431 180.924 242.777 177.992 246.088 175.032C246.554 174.638 247.074 174.312 247.631 174.064C247.764 174.028 247.904 174.025 248.038 174.056C248.173 174.086 248.298 174.149 248.403 174.239C248.506 174.349 248.584 174.479 248.633 174.622C248.681 174.765 248.698 174.917 248.683 175.067C248.592 175.66 248.384 176.23 248.073 176.743C247.497 177.46 246.871 178.135 246.2 178.763C243.52 181.499 240.883 184.27 238.147 186.942C236.183 188.864 234.1 190.653 232.058 192.491C231.93 192.568 231.787 192.617 231.639 192.634C231.49 192.652 231.34 192.637 231.198 192.591C231.055 192.545 230.924 192.469 230.814 192.369C230.704 192.268 230.616 192.145 230.557 192.007C230.408 191.575 230.293 191.132 230.214 190.681C228.551 175.901 226.987 161.108 226.482 146.229C226.458 145.466 226.491 144.701 226.58 143.943C226.601 143.753 226.924 143.599 227.099 143.431Z" fill="#1B2B36" stroke="#1B2B36"/>
<path d="M210.187 117.589L236.422 116.593C236.73 116.593 237.039 116.593 237.34 116.537C238.316 116.488 239.22 116.642 239.613 117.68C239.915 118.473 238.975 119.35 237.509 119.574C236.142 119.772 234.765 119.889 233.384 119.925C228.32 120.065 223.248 120.262 218.183 120.247C207.437 120.247 196.684 120.114 185.916 120.009C184.689 120.007 183.463 119.92 182.247 119.749C182.048 119.686 181.866 119.577 181.716 119.431C181.566 119.285 181.453 119.106 181.385 118.908C181.328 118.69 181.798 118.262 182.086 118.059C182.372 117.949 182.68 117.91 182.984 117.947L210.159 117.428L210.187 117.589Z" fill="#1B2B36" stroke="#1B2B36"/>
<path d="M342.006 91.5856C342.557 91.709 343.098 91.8707 343.626 92.0696C346.713 93.4234 349.855 94.672 352.844 96.2083C362.945 101.387 372.741 107.139 382.186 113.436C383.45 114.292 384.657 115.229 385.799 116.242C385.916 116.427 385.984 116.638 385.997 116.856C386.011 117.075 385.969 117.293 385.876 117.491C385.741 117.658 385.566 117.788 385.368 117.87C385.169 117.951 384.952 117.979 384.739 117.954C383.768 117.52 382.831 117.016 381.933 116.446C371.945 110.441 361.991 104.38 351.96 98.453C348.937 96.6712 345.647 95.2683 342.539 93.69C342.12 93.5077 341.726 93.2719 341.368 92.9885C341.28 92.8815 341.219 92.7547 341.191 92.6191C341.163 92.4835 341.168 92.343 341.206 92.2099C341.291 91.9784 341.627 91.8522 342.006 91.5856Z" fill="#1B2B36" stroke="#1B2B36"/>
<path d="M249.399 150.298C249.476 154.212 249.574 159.263 249.651 164.327C249.682 165.09 249.621 165.853 249.469 166.6C249.399 166.909 248.844 167.379 248.62 167.302C248.429 167.223 248.257 167.103 248.118 166.95C247.978 166.797 247.874 166.616 247.813 166.418C247.648 165.673 247.549 164.915 247.519 164.152C247.385 162.476 247.273 160.792 247.161 159.109C246.399 147.647 245.629 136.189 244.853 124.737C244.741 123.06 244.425 121.405 244.222 119.728C244.095 118.641 244.664 117.624 245.379 117.533C246.095 117.442 246.782 118.094 247.063 119.392C247.301 120.435 247.463 121.495 247.547 122.562C248.157 131.429 248.739 140.295 249.399 150.298Z" fill="#1B2B36" stroke="#1B2B36"/>
<path d="M314.459 128.413C314.888 128.454 315.307 128.562 315.701 128.735C323.382 133.519 330.993 138.436 338.751 143.101C342.553 145.388 346.622 147.233 350.578 149.274C351.658 149.835 352.781 150.333 353.819 150.972C354.129 151.273 354.318 151.677 354.352 152.108C354.436 152.585 353.559 153.104 352.949 152.901C351.048 152.297 349.126 151.743 347.288 150.979C343.467 149.362 339.813 147.374 336.38 145.044C329.871 140.695 323.326 136.402 316.823 132.039C315.842 131.315 314.927 130.505 314.088 129.619C313.947 129.486 314.046 129.065 314.088 128.791C314.067 128.665 314.256 128.581 314.459 128.413Z" fill="#1B2B36" stroke="#1B2B36"/>
<path d="M236.239 262.357L253.004 263.592C255.144 263.753 257.29 263.9 259.416 264.146C260 264.267 260.554 264.506 261.043 264.847C261.464 265.093 261.359 266.25 260.924 266.433C260.52 266.642 260.083 266.782 259.633 266.847C258.567 266.847 257.494 266.783 256.427 266.699C250.465 266.229 244.503 265.633 238.554 265.296C233.202 265.016 227.836 265.03 222.477 264.903C220.94 264.868 219.411 264.812 217.882 264.756C217.422 264.788 216.96 264.731 216.521 264.588C216.19 264.367 215.942 264.041 215.82 263.662C215.778 263.55 216.114 263.15 216.332 263.087C216.916 262.917 217.519 262.815 218.127 262.785C223.332 262.666 228.537 262.547 236.239 262.357Z" fill="#1B2B36" stroke="#1B2B36"/>
<path d="M152.112 168.613C151.944 162.16 151.761 155.706 151.621 149.253C151.642 148.647 151.765 148.05 151.986 147.485C152.042 147.338 152.449 147.275 152.687 147.233C152.757 147.235 152.826 147.254 152.887 147.288C152.948 147.322 153 147.371 153.038 147.429C153.275 147.815 153.439 148.24 153.522 148.685C154.118 160.806 155.76 172.871 155.409 185.042C155.367 186.445 155.332 187.806 155.227 189.187C155.232 189.573 155.112 189.95 154.884 190.262C154.657 190.573 154.333 190.802 153.964 190.913C153.431 191.074 152.75 190.212 152.673 189.342C152.624 188.731 152.603 188.114 152.596 187.504C152.596 186.424 152.596 185.35 152.596 184.277C152.512 179.049 152.421 173.825 152.323 168.606L152.112 168.613Z" fill="#1B2B36" stroke="#1B2B36"/>
<path d="M384.017 121.713C383.952 122.068 383.824 122.408 383.638 122.717C382.53 124.176 381.428 125.656 380.201 127.01C373.411 134.492 366.6 141.932 359.767 149.33C359.353 149.774 358.881 150.161 358.364 150.481C358.21 150.586 357.845 150.41 357.607 150.298C357.553 150.25 357.512 150.19 357.486 150.123C357.46 150.056 357.451 149.984 357.459 149.912C357.579 149.329 357.794 148.769 358.098 148.257C359.971 145.844 361.844 143.431 363.836 141.109C366.929 137.518 370.149 134.038 373.242 130.454C375.641 127.648 377.914 124.842 380.299 122.036C380.923 121.374 381.63 120.797 382.404 120.318C382.909 119.96 384.101 120.823 384.017 121.713Z" fill="#1B2B36" stroke="#1B2B36"/>
<path d="M309.262 131.232C308.848 131.821 308.672 132.327 308.315 132.537C307.521 133 306.687 133.393 305.824 133.708L276.131 144.932C275.571 145.182 274.982 145.362 274.378 145.465C274.157 145.478 273.937 145.444 273.731 145.364C273.525 145.284 273.339 145.161 273.185 145.002C273.107 144.87 273.058 144.723 273.043 144.571C273.027 144.418 273.046 144.264 273.097 144.12C273.148 143.975 273.23 143.843 273.337 143.734C273.444 143.625 273.575 143.54 273.718 143.487C275.06 142.747 276.447 142.093 277.871 141.53C287.004 137.952 296.149 134.403 305.305 130.882C306.141 130.534 307.031 130.332 307.936 130.285C308.364 130.271 308.806 130.874 309.262 131.232Z" fill="#1B2B36" stroke="#1B2B36"/>
<path d="M356.807 179.374C357.017 185.687 357.249 191.958 357.41 198.25C357.417 199.62 357.305 200.989 357.073 202.34C357.073 202.606 356.435 202.873 356.049 202.964C355.9 202.952 355.757 202.9 355.634 202.815C355.511 202.731 355.412 202.615 355.348 202.48C355.108 201.605 354.96 200.707 354.906 199.8C354.775 193.501 354.67 187.204 354.59 180.91C354.506 173.082 354.452 165.251 354.429 157.418C354.472 156.819 354.587 156.228 354.773 155.657C354.773 155.587 354.99 155.538 355.109 155.531C355.229 155.524 355.502 155.531 355.551 155.615C355.812 155.976 355.996 156.387 356.091 156.822C356.232 158.351 356.323 159.88 356.351 161.416C356.47 167.4 356.561 173.39 356.667 179.381L356.807 179.374Z" fill="#1B2B36" stroke="#1B2B36"/>
<path d="M339.712 97.4077C339.677 97.9829 339.761 98.3406 339.621 98.5651C339.084 99.49 338.489 100.38 337.839 101.231C331.358 109.438 324.035 116.88 316.845 124.449C316.669 124.632 316.311 124.632 316.031 124.716C315.926 124.351 315.687 123.958 315.75 123.628C315.876 123.186 316.094 122.775 316.389 122.422C317.497 120.942 318.57 119.448 319.756 118.045C321.86 115.576 324.007 113.191 326.069 110.736C329.45 106.765 332.789 102.753 336.177 98.8106C336.745 98.1074 337.434 97.5111 338.211 97.0499C338.548 96.8465 339.221 97.3025 339.712 97.4077Z" fill="#1B2B36" stroke="#1B2B36"/>
<path d="M261.849 89.6985C262.235 89.6407 262.628 89.6407 263.014 89.6985C263.586 89.9052 264.123 90.1985 264.606 90.5683C270.686 95.7124 276.744 100.856 282.781 106.001C283.121 106.308 283.444 106.633 283.749 106.976C284.5 107.789 284.633 108.561 284.128 108.947C283.363 109.529 282.648 109.129 282.024 108.764C281.369 108.367 280.749 107.914 280.172 107.41C274.756 102.921 269.327 98.4387 263.954 93.9003C263.041 93.1099 262.245 92.1935 261.59 91.1786C261.337 90.898 261.723 90.1825 261.849 89.6985Z" fill="#1B2B36" stroke="#1B2B36"/>
<path d="M178.375 121.152C178.287 121.487 178.126 121.798 177.905 122.064C176.927 123.027 175.876 123.913 174.763 124.716C169.067 128.555 163.345 132.355 157.598 136.114C156.937 136.509 156.23 136.82 155.493 137.04C155.363 137.052 155.231 137.033 155.109 136.984C154.987 136.935 154.879 136.858 154.792 136.76C154.712 136.638 154.659 136.5 154.637 136.356C154.616 136.212 154.625 136.065 154.666 135.925C154.809 135.493 155.049 135.1 155.367 134.775C156.166 134.066 157.002 133.402 157.871 132.783C163.82 128.504 169.775 124.234 175.738 119.974C176.121 119.735 176.537 119.553 176.972 119.434C177.54 119.209 178.516 120.184 178.375 121.152Z" fill="#1B2B36" stroke="#1B2B36"/>
<path d="M117.067 202.312C116.721 202.86 116.319 203.37 115.868 203.834C110.906 207.711 105.935 211.573 100.954 215.422C99.3762 216.636 97.7558 217.807 96.1284 218.929C95.6511 219.302 95.1018 219.572 94.515 219.722C94.2963 219.744 94.0755 219.716 93.869 219.641C93.6625 219.566 93.4757 219.445 93.3225 219.287C93.2013 219.111 93.1251 218.907 93.1006 218.694C93.0762 218.482 93.1042 218.266 93.1822 218.067C93.5586 217.408 94.0616 216.832 94.6623 216.369C96.3879 215.085 98.1696 213.928 99.9443 212.672C103.929 209.796 107.864 206.857 111.869 204.002C113.119 203.14 114.426 202.367 115.783 201.687C115.98 201.603 116.464 202.017 117.067 202.312Z" fill="#1B2B36" stroke="#1B2B36"/>
<path d="M166.45 270.508C166.413 271.288 166.307 272.062 166.135 272.823C166.022 273.188 165.545 273.489 165.167 273.714C164.788 273.938 163.967 273.286 163.897 272.725C163.672 270.74 163.448 268.762 163.273 266.776C162.69 260.351 161.919 253.94 162.199 247.472C162.271 246.258 162.416 245.049 162.634 243.853C162.669 243.621 162.999 243.383 163.252 243.263C163.953 242.955 164.037 243.635 164.058 243.965C164.192 246.259 164.149 248.573 164.367 250.86C164.865 256.212 165.482 261.551 166.05 266.889C166.149 268.102 166.282 269.323 166.45 270.508Z" fill="#1B2B36" stroke="#1B2B36"/>
<path d="M315.259 85.995C314.621 91.0876 313.954 96.3977 313.274 101.708C313.251 102.319 313.123 102.922 312.895 103.49C312.657 103.938 312.102 104.191 311.689 104.577C311.312 104.126 310.987 103.634 310.721 103.111C310.599 102.667 310.58 102.202 310.664 101.75C311.099 97.492 311.492 93.2271 312.018 88.9762C312.299 86.7035 312.804 84.4588 313.26 82.2071C313.408 81.7817 313.629 81.3854 313.912 81.0356C313.955 80.9799 314.01 80.935 314.074 80.9045C314.137 80.874 314.207 80.8589 314.277 80.8603C314.53 80.9374 314.978 81.0637 314.978 81.204C315.091 82.7121 315.161 84.2343 315.259 85.995Z" fill="#1B2B36" stroke="#1B2B36"/>
<path d="M312.152 148.306C312.152 151.814 312.152 155.665 312.152 159.481C312.141 160.242 312.057 161.001 311.899 161.746C311.864 161.936 311.464 162.167 311.198 162.174C311.06 162.171 310.926 162.137 310.804 162.074C310.683 162.011 310.577 161.92 310.496 161.809C310.203 161.107 310.018 160.365 309.949 159.607C309.9 157.622 309.949 155.637 310.026 153.651C310.314 147.85 310.643 142.049 310.973 136.255C310.987 135.492 311.07 134.731 311.219 133.982C311.289 133.681 311.724 133.428 312.039 133.281C312.102 133.281 312.573 133.66 312.587 133.884C312.727 135.395 312.783 136.912 312.755 138.43C312.601 141.607 312.355 144.813 312.152 148.306Z" fill="#1B2B36" stroke="#1B2B36"/>
<path d="M242.91 119.799C242.871 120.224 242.752 120.638 242.559 121.019C241.9 121.858 241.175 122.644 240.392 123.369C235.715 127.727 230.999 132.067 226.243 136.388C225.941 136.731 225.583 137.02 225.184 137.244C224.99 137.342 224.779 137.401 224.562 137.416C224.345 137.432 224.127 137.404 223.921 137.335C223.22 136.907 223.613 136.241 223.921 135.771C224.337 135.13 224.824 134.54 225.373 134.01C227.019 132.425 228.689 130.861 230.382 129.317C233.885 126.142 237.392 122.981 240.904 119.834C241.241 119.56 241.646 119.383 242.075 119.322C242.307 119.286 242.58 119.595 242.91 119.799Z" fill="#1B2B36" stroke="#1B2B36"/>
<path d="M288.162 87.98C288.512 87.6433 288.863 87.0049 289.326 86.9418C289.903 86.9742 290.45 87.2104 290.869 87.6082C291.173 87.9544 291.396 88.3643 291.522 88.8077C293.074 92.4834 294.61 96.1661 296.13 99.8558C296.306 100.279 296.417 100.726 296.46 101.182C296.472 101.329 296.454 101.478 296.409 101.619C296.363 101.759 296.29 101.89 296.193 102.002C296.082 102.085 295.953 102.14 295.816 102.16C295.678 102.181 295.538 102.168 295.408 102.122C294.72 101.797 294.106 101.333 293.605 100.761C291.461 97.5743 289.746 94.119 288.505 90.4842C288.317 89.6613 288.202 88.8232 288.162 87.98V87.98Z" fill="#1B2B36" stroke="#1B2B36"/>
<path d="M186.218 224.969C186.011 225.495 185.73 225.989 185.383 226.435C183.847 227.922 182.303 229.409 180.648 230.763C177.099 233.667 173.486 236.487 169.88 239.321C169.51 239.557 169.102 239.728 168.674 239.826C168.601 239.842 168.525 239.84 168.453 239.821C168.381 239.801 168.315 239.765 168.26 239.714C168.085 239.49 167.832 239.195 167.874 239.013C167.924 238.564 168.107 238.142 168.4 237.799C169.41 236.873 170.505 236.003 171.557 235.162C175.766 231.879 180.185 228.848 183.959 224.99C184.286 224.678 184.675 224.438 185.102 224.289C185.32 224.205 185.649 224.373 185.909 224.485C186.014 224.478 186.091 224.668 186.218 224.969Z" fill="#1B2B36" stroke="#1B2B36"/>
<path d="M280.144 249.107C280.537 249.464 280.937 249.668 280.922 249.808C280.94 250.4 280.807 250.986 280.537 251.513C277.224 256.09 273.525 260.375 269.482 264.321C269.267 264.534 268.989 264.672 268.689 264.714C268.394 264.75 268.097 264.675 267.854 264.504C267.658 264.349 267.454 263.957 267.525 263.802C267.723 263.234 268.015 262.704 268.387 262.231C271.839 258.163 275.311 254.11 278.804 250.075C279.211 249.701 279.661 249.376 280.144 249.107V249.107Z" fill="#1B2B36" stroke="#1B2B36"/>
<path d="M259.486 117.582C259.64 117.582 259.808 117.498 259.935 117.582C263.529 118.824 266.86 120.728 269.755 123.194C270.022 123.425 270.211 124.176 270.057 124.365C269.72 124.822 269.215 125.128 268.654 125.214C266.97 125.059 260.005 120.886 258.974 119.476C258.798 119.073 258.77 118.62 258.896 118.199C258.924 117.954 259.275 117.778 259.486 117.582Z" fill="#1B2B36" stroke="#1B2B36"/>
<path d="M265.104 256.458C265.21 258.436 265.329 260.414 265.406 262.392C265.421 262.847 265.357 263.3 265.217 263.732C265.164 263.853 265.084 263.959 264.983 264.043C264.882 264.127 264.762 264.187 264.634 264.216C264.389 264.216 263.933 264.055 263.933 263.88C263.54 262.42 262.951 260.947 262.923 259.474C262.867 256.29 263.077 253.091 263.238 249.906C263.328 249.466 263.551 249.065 263.877 248.756C264.024 248.588 264.403 248.595 264.677 248.581C264.745 248.58 264.813 248.596 264.875 248.628C264.936 248.66 264.988 248.706 265.027 248.763C265.205 249.176 265.321 249.614 265.371 250.061C265.371 252.165 265.371 254.326 265.371 256.458H265.104Z" fill="#1B2B36" stroke="#1B2B36"/>
</svg>
