<svg width="1400" height="860" viewBox="0 0 1400 860" fill="none" xmlns="http://www.w3.org/2000/svg">
<path d="M353.822 166.496C351.932 171.19 351.254 180.009 351.254 190.789C351.254 216.936 355.212 254.636 355.212 272.796C355.212 281.199 353.501 312.588 353.501 395.701C353.501 440.068 354.214 516.299 354.214 554.45C354.214 569.687 351.041 592.411 351.041 614.53C351.041 677.366 375.702 682.941 415.22 682.941C461.739 682.941 455.832 677.473 558.163 677.473C634.145 677.473 710.495 680.266 786.358 680.266C823.095 680.266 853.271 679.541 888.57 679.541C971.528 679.541 977.566 683.773 1001.03 683.773C1034.59 683.773 1044.22 674.847 1044.22 636.232C1044.22 623.551 1043.03 611 1043.03 603.108V602.086C1043.03 527.602 1034.71 449.481 1034.71 377.374C1034.71 354.019 1041.25 298.195 1041.25 246.566C1041.25 152.305 1024.61 134.204 969.638 134.204C947.722 134.204 924.475 137.472 908.323 137.472H903.224C814.43 137.472 725.767 138.565 636.997 138.565H631.221C563.689 138.565 496.194 143.046 428.686 143.32C407.626 143.45 363.318 142.939 353.822 166.496Z" fill="#F1FBFB"/>
<path d="M607.379 407.573C601.556 394.416 589.706 377.207 588.256 363.051C595.114 358.975 598.561 357.584 598.561 350.81C598.55 349.461 598.447 348.115 598.252 346.781C605.157 341.242 614.189 344.404 621.38 339.566C627.869 335.169 630.662 323.426 639.208 323.426C643.7 323.426 647.967 326.754 652.555 326.754C659.115 326.754 661.73 318.958 668.267 318.958C674.209 318.958 676.004 325.066 684.906 325.066C692.037 325.066 698.087 322.749 704.849 322.749C723.355 322.749 715.867 334.432 728.037 334.432C732.791 334.432 736.82 331.96 741.479 331.96C751.831 331.96 753.365 342.217 759.307 346.959C767.543 353.591 786.928 350.002 786.928 363.04C786.928 368.21 776.659 374.782 775.043 379.679C771.905 389.377 770.931 396.579 764.988 405.469C754.993 396.104 740.457 352.913 685.821 352.913C652.84 352.901 620.762 372.75 607.379 407.573Z" fill="#BCD4E0"/>
<path d="M867.64 256.597C864.384 259.14 862.969 264.274 862.969 269.765C862.969 277.99 866.131 287.011 871.051 289.352C874.617 287.213 878.836 286.892 883.115 286.892C885.04 286.892 886.965 286.951 888.831 286.951C895.309 286.951 901.144 286.167 903.878 279.119C906.591 278.149 909.447 277.638 912.328 277.609C914.919 277.628 917.491 278.057 919.947 278.881C921.929 276.381 923.531 273.601 924.701 270.633C931.059 268.256 932.486 267.234 936.8 262.313C936.693 261.41 936.586 260.519 936.491 259.615C937.666 258.767 938.629 257.658 939.305 256.375C939.982 255.093 940.353 253.672 940.389 252.223C940.389 246.779 935.124 241.681 928.825 241.681C912.186 241.681 909.262 261.018 891.351 261.018C885.848 261.053 878.384 259.782 867.64 256.597Z" fill="#DBDFC9"/>
<path d="M823.808 136.058C817.318 139.469 810.829 144.246 809.45 151.437C811.235 153.57 812.598 156.022 813.468 158.663L812.148 154.907L813.04 157.38C804.471 170.239 801.309 179.747 801.309 185.904C801.309 191.502 803.924 194.307 807.477 194.307C814.882 194.307 826.315 182.065 826.315 157.463C826.263 150.258 825.422 143.08 823.808 136.058V136.058Z" fill="#DBDFC9"/>
<path d="M979.657 153.077C979.527 160.458 977.922 172.093 977.922 182.243C977.922 187.734 978.398 192.773 979.848 196.386C981.453 196.632 983.073 196.759 984.697 196.767C994.811 196.767 997.854 190.824 997.854 182.968C997.854 171.665 991.412 156.191 991.412 151.615C991.412 147.824 993.266 144.139 993.266 140.467C993.266 130.567 982.13 131.315 977.245 130.697C976.33 131.648 975.438 132.587 974.499 133.502C975.403 140.514 979.657 145.625 979.657 152.756V153.077Z" fill="#DBDFC9"/>
<path d="M363.568 623.086C366.349 618.332 367.026 613.4 367.204 607.885L370.77 607.541C374.787 611.106 378.555 616.621 383.844 618.237C383.935 617.937 383.979 617.624 383.974 617.31C383.974 615.611 383.119 612.889 383.119 610.928C383.119 607.362 390.119 606.614 393.28 606.614C416.433 606.614 452.872 636.243 475.181 637.515C478.354 634.425 478.509 631.834 478.639 627.436C479.432 627.153 480.269 627.012 481.112 627.02C487.363 627.02 495.302 633.569 500.461 633.569C502.576 633.569 504.228 632.476 505.108 629.385C503.361 627.163 502.041 625.44 502.041 623.288C502.067 622.276 502.315 621.283 502.766 620.377C503.547 620.203 504.344 620.116 505.143 620.115C511.811 620.115 517.171 626.177 524.766 626.426C525.5 625.514 525.918 624.388 525.954 623.217C525.954 621.446 525.015 619.925 525.015 617.821C525.012 617.515 525.032 617.209 525.075 616.906C571.177 603.832 599.036 544.407 668.029 544.407C792.978 544.407 830.392 629.183 882.556 629.695C884.636 631.917 886.585 633.415 886.585 640.962C886.585 645.216 885.979 650.03 885.979 654.487C885.979 662.248 888.094 668.571 895.879 668.571C906.576 668.571 895.713 652.954 900.8 636.219C902.285 631.358 907.693 629.944 908.977 634.865C911.603 644.836 910.082 658.373 911.591 660.311C918.235 668.785 923.061 636.54 926.127 630.004C927.981 625.998 935.065 625.974 938.381 622.528C947.663 612.901 953.071 592.91 968.319 592.91C969.508 592.91 970.803 592.969 972.051 592.969C982.308 592.969 984.744 585.446 991.899 585.446C992.149 585.446 992.387 585.446 992.636 585.446C994.11 587.324 1000.23 599.958 998.852 595.81L1005.18 604.7C980.418 631.608 1002.1 619.663 989.808 633.735C972.348 653.75 972.348 662.735 972.348 662.735C963.922 663.829 954.247 683.059 949.588 688.229C944.169 694.255 938.107 693.173 935.908 693.173C923.025 693.173 927.066 693.102 831.319 693.102C800.572 693.102 801.19 691.378 769.243 691.378C756.074 691.378 742.894 691.022 729.761 691.022C694.783 691.022 695.603 693.696 654.48 693.696C637.045 693.696 612.383 693.054 600.141 693.054C580.733 693.054 561.217 694.956 541.904 694.956C517.266 694.956 510.563 693.625 493.448 693.625C480.375 693.625 466.113 693.339 452.73 693.339C425.144 693.339 361.095 642.661 355.7 631.917C357.708 628.28 361.488 626.64 363.568 623.086Z" fill="#DBDFC9"/>
<path d="M612.561 498.281C612.332 498.266 612.101 498.266 611.872 498.281C604.574 498.281 568.919 510.772 568.919 518.248C568.919 522.788 575.919 525.058 578.487 528.302C576.668 534.709 570.69 529.348 570.69 548.353C570.69 553.653 571.878 565.17 577.239 565.17C589.492 565.17 607.748 543.777 636.664 543.777C643.795 543.777 651.2 544.324 657.226 544.324C658.046 544.324 658.83 544.324 659.603 544.324C663.786 539.165 664.82 532.593 666.864 526.365C663.846 521.017 647.504 518.129 634.014 509.524C627.976 505.661 622.568 498.435 616.959 498.435C616.127 498.435 615.295 498.506 614.439 498.506C613.807 498.491 613.179 498.415 612.561 498.281V498.281Z" fill="#DBDFC9"/>
<path d="M779.975 560.987C783.541 554.902 786.536 552.347 786.536 548.864C786.536 546.559 785.229 543.849 781.96 539.428C783.22 533.64 791.754 529.848 791.754 524.322C791.754 505.377 754.125 499.672 746.447 499.672C740.029 499.672 695.876 516.573 695.876 533.937C695.876 549.554 716.449 543.742 744.249 552.561C754.85 555.924 767.793 560.999 779.013 560.999L779.975 560.987Z" fill="#DBDFC9"/>
<path d="M822.726 697.417C822.726 693.197 795.961 692.663 758.653 692.663C694.474 692.663 623.602 693.435 621.867 693.435C614.439 693.435 602.138 692.912 590.027 692.912C576.775 692.912 563.737 693.53 557.521 696.145C557.521 696.608 557.462 697.084 557.426 697.547C569.014 708.517 572.877 729.922 572.877 749.842C572.919 759.824 571.915 769.782 569.882 779.555C574.365 780.655 578.969 781.182 583.585 781.124C597.277 781.124 611.789 777.558 624.791 777.558C756.312 777.558 737.427 779.163 777.503 779.163C810.948 779.163 815.108 779.626 815.108 769.845C815.108 759.445 802.319 748.142 802.319 738.313C802.414 717.17 822.726 697.417 822.726 697.417ZM737.842 742.747C648.276 742.747 614.451 741.796 614.451 728.104C614.451 726.024 616.103 724.539 619.336 724.539C621.61 724.623 623.849 725.123 625.944 726.012C634.822 729.435 651.497 730.41 669.36 730.41C695.103 730.41 743.191 727.819 744.605 727.819C752.651 727.819 760.567 729.162 760.567 735.164C760.614 742.402 745.58 742.735 737.842 742.735V742.747Z" fill="#E0D7B7"/>
<path d="M456.093 694.315C455.214 693.531 454.199 692.914 453.098 692.496C452.723 693.615 452.527 694.786 452.516 695.967C452.516 706.259 468.882 711.798 485.592 711.798C500.77 711.798 516.232 707.222 519.917 697.452C515.246 693.887 500.021 692.698 485.319 692.698C475.553 692.615 465.791 693.155 456.093 694.315V694.315Z" fill="#E0D7B7"/>
<path d="M889.556 694.921C895.237 692.805 902.036 692.211 909.107 692.211C918.14 692.211 927.624 693.186 935.801 693.186C937.275 693.186 938.701 693.15 940.08 693.079C940.264 694.19 940.359 695.315 940.365 696.442C940.365 706.853 931.13 710.704 919.994 710.704C905.898 710.704 888.748 704.453 883.364 697.215C885.967 695.432 886.775 695.955 889.556 694.921Z" fill="#E0D7B7"/>
<path d="M952.357 688.169C948.958 693.851 963.482 690.546 1003.62 691.735C1009.81 691.925 1013.74 689.608 1017.26 684.937C1037.76 657.601 1029.93 635.566 1034.25 627.163C1035 627.822 1035.69 628.551 1036.31 629.338C1036.81 630.099 1043.45 657.078 1026.88 682.061C1025.3 684.438 1023.86 686.922 1022.49 689.429C1022.31 689.75 1022.96 690.986 1023.3 691.022C1029.66 691.676 1030.57 691.509 1031.51 688.954C1031.87 687.979 1031.51 686.779 1031.83 685.769C1031.97 685.347 1032.21 684.966 1032.53 684.665C1032.86 684.364 1033.25 684.151 1033.68 684.048C1034.11 683.945 1034.56 683.956 1034.99 684.078C1035.42 684.2 1035.8 684.431 1036.11 684.747C1041.91 692.222 1060.25 718.881 1061.14 709.468C1061.45 706.104 1061.57 702.966 1056.9 702.337C1056.54 702.313 1056.21 702.17 1055.95 701.931C1055.68 701.692 1055.51 701.372 1055.45 701.021C1055.4 700.671 1055.46 700.311 1055.64 700.002C1055.81 699.693 1056.08 699.451 1056.41 699.318C1058.91 697.891 1062.84 697.737 1062.09 694.124C1058.37 676.296 1069.22 677.247 1080.44 594.74C1081.91 584.044 1080.27 584.59 1058.52 579.29C1050.34 577.317 1051.76 581.465 1051.25 615.088C1050.48 666.408 1051.36 658.896 1049.89 662.402C1048.44 660.132 1048.9 668.856 1048.5 598.223C1048.4 582.13 1048.83 582.487 1043.34 582.915C1031.81 583.83 1029.93 583.64 1028.78 580.3C1028.42 579.278 1032.26 580.407 1044.4 577.661C1048.19 576.806 1048.31 573.656 1048.27 569.793C1047.45 491.756 1047.68 499.433 1046.96 495.297C1046.78 494.251 1044.74 494.644 1044.44 495.107C1040.88 500.669 1036.65 510.712 1026.77 512.935C1006.41 517.523 1021.29 487.738 991.84 482.972C984.542 481.784 979.265 488.428 982.094 495.392C985.089 502.773 993.718 509.548 995.893 511.699C1012.08 527.779 994.704 532.486 1012 565.182C1013.59 568.201 1016.25 569.936 1018.82 571.945C1019.37 572.361 1019.28 573.609 1019.48 574.464C1018.47 574.68 1017.44 574.803 1016.41 574.833C1012.75 574.583 1011.07 569.068 1007.31 570.53C1002.9 572.23 1000.73 578.446 998.127 576.699C996 575.272 999.636 573.133 1004.22 566.537C1006.28 563.589 1003.57 559.62 1003.15 558.621C992.541 532.854 1006.57 527.459 989.998 512.483C986.079 508.792 982.543 504.715 979.444 500.313C976.508 496.308 976.306 491.53 977.899 486.859C981.119 477.351 988.773 476.864 998.496 479.55C1011.7 483.21 1013.95 497.092 1005.51 431.676C1005.56 430.991 1005.74 430.321 1006.04 429.703C1011.45 432.96 1012.26 446.2 1015.55 473.001C1016.63 481.665 1010.2 485.884 1012.79 489.486C1016.01 493.966 1017.55 499.077 1018.83 504.378C1019.63 507.729 1023.28 509.132 1026.68 507.943C1032.5 505.851 1035.55 502.428 1045.96 481.499C1047.7 478.016 1047.88 475.307 1046.92 415.821C1046.8 408.857 1039.61 394.559 1036.96 389.852C1005.38 333.659 969.484 312.433 965.039 307.583C964.694 307.215 965.229 304.981 966.12 305.301C978.148 309.77 996.701 327.408 1005.79 337.891C1044.38 382.436 1038.96 389.234 1046.2 392.871C1050.08 382.115 1043.15 163.797 1050.65 163.298C1053.51 163.108 1052.8 156.737 1053.02 342.395C1053.12 429.727 1050.14 401.072 1062.87 438.986C1063.27 440.715 1063.46 442.487 1063.42 444.263C1063.44 444.441 1063.4 444.62 1063.3 444.773C1063.21 444.925 1063.07 445.043 1062.9 445.109C1062.73 445.174 1062.55 445.184 1062.37 445.136C1062.2 445.089 1062.05 444.987 1061.94 444.845C1056 435.848 1055.32 429.085 1053.31 431.7C1052.89 432.235 1052.81 429.87 1052.94 465.121C1052.94 465.455 1053.04 465.782 1053.22 466.063C1053.4 466.344 1053.66 466.567 1053.96 466.706C1054.27 466.845 1054.6 466.894 1054.93 466.847C1055.27 466.8 1055.58 466.658 1055.83 466.44C1059.2 462.875 1058.04 462.78 1070.46 452.178C1078.49 445.308 1093.48 449.135 1088.6 463.077C1080.28 486.752 1059.91 500.919 1062.45 511.687C1067.2 514.349 1070.77 510.986 1074.06 508.692C1084.92 501.026 1100.11 486.966 1104.82 483.258C1118.96 472.109 1127.4 480.037 1126.71 488.511C1124.64 513.351 1098.19 515.728 1076.15 532.652C1075.11 533.472 1076.01 536.051 1077.34 536.051C1080.91 536.051 1084.58 536.337 1088.04 535.612C1103.29 532.427 1116.42 524.523 1131.12 530.37C1137.17 532.747 1138.92 539.379 1134.85 544.561C1126.69 554.973 1114.38 553.832 1090.09 555.626C1084.15 556.066 1081.3 555.412 1080.59 558.455C1078.84 565.586 1102.89 565.182 1111.4 572.242C1118.37 578.006 1119.91 586.504 1111.86 590.711C1104.72 594.455 1098.43 590.997 1086.68 588.417C1083.84 587.788 1083.34 591.008 1083.37 593.908C1083.81 653.952 1060.79 683.13 1068.63 695.098C1070.19 697.475 1069.95 699.757 1067.81 701.897C1064.24 705.462 1065.43 710.692 1063.72 714.97C1062.47 718.203 1071.13 721.804 1067.87 738.741C1066.18 747.548 1063.64 756.2 1061.3 764.888C1060.68 766.588 1059.83 768.189 1058.75 769.642C1057.83 771.128 1054.65 772.102 1054.18 771.092C1051.25 764.864 1056.38 766.255 1061.31 733.547C1062.34 726.665 1058.14 723.373 1052.58 717.038C1037.06 699.33 1036.84 697.464 1032.04 697.475C1020.25 697.475 1016.32 695.895 1007.52 702.467C950.848 744.731 860.842 731.574 842.313 719.511C841.885 719.225 841.564 716.932 842.824 717.134C855.339 719.059 888.76 732.061 945.428 722.149C975.521 716.884 1012.76 697.416 994.752 697.416C947.009 697.416 946.403 695.752 941.684 702.729C939.486 705.997 936.764 708.921 934.292 712.011C931.475 715.577 927.886 716.313 923.595 715.315C902.749 710.407 902.38 711.5 871.788 700.435C858.714 695.681 852.106 698.331 842.978 697.464C832.947 696.501 817.069 703.81 813.658 715.386C810.092 727.272 805.267 736.411 811.435 752.088C815.429 762.25 814.644 759.777 814.05 762.143C800.644 756.592 796.305 720.723 819.184 701.623C819.866 700.903 820.46 700.105 820.955 699.246C819.852 698.545 818.65 698.012 817.39 697.666C817.39 697.666 563.594 696.275 562.905 698.462C562.632 699.341 562.81 699.389 566.744 701.279C589.421 712.177 586.224 710.002 589.754 714.352C589.92 714.566 589.266 715.945 588.91 715.969C582.432 716.563 577.357 711.678 568.705 710.026C568.622 711.381 568.135 712.867 568.527 714.067C571.307 722.263 573.072 730.769 573.78 739.394C575.468 762.404 574.101 761.56 572.591 764.817C572.349 764.959 572.076 765.042 571.795 765.058C571.514 765.075 571.233 765.025 570.975 764.912C566.518 759.563 571.225 745.159 564.07 715.065C562.691 709.289 564.343 707.792 561.253 706.58C514.628 688.265 501.756 732.917 455.047 707.768C429.399 693.946 446.336 697.38 381.003 696.525C378.882 696.326 376.785 695.928 374.739 695.336C374.566 694.698 374.566 694.025 374.739 693.387C379.779 690.713 376.392 692.805 415.434 691.759C418.382 691.676 421.84 693.268 424.301 690.13C423.017 686.886 419.927 685.543 417.372 683.748C398.771 670.675 387.659 671.863 376.071 658.789C371.697 653.81 374.312 650.232 379.636 655.129C394.184 668.618 403.573 664.875 427.747 683.653C434.878 689.203 438.337 691.901 449.14 691.878C844.749 691.248 822.405 693.589 827.528 688.407C828.514 687.421 830.951 687.753 832.722 687.647C840.72 687.171 848.553 688.502 856.29 690.154C865.715 692.151 866.761 691.64 933.971 691.616C941.304 691.616 944.097 692.199 946.688 688.051C962.65 662.664 963.494 664.554 969.27 662.723C968.771 659.99 963.506 669.534 952.357 688.169ZM1052.67 525.343C1052.42 525.343 1051.92 521.076 1052.34 559.929C1052.34 564.184 1051.15 568.522 1052.95 572.693C1057.04 573.882 1061.07 575.617 1065.25 576.176C1074.47 577.364 1073.57 579.111 1101.28 587.039C1111.34 589.927 1119.11 578.993 1099.94 573.026C1090.68 570.138 1081.75 569.58 1077.08 564.528C1072.65 559.774 1075.42 552.501 1081.83 551.36C1094.82 549.066 1121.54 552.94 1131.06 540.96C1136.91 533.615 1117.2 531.511 1105.45 535.636C1091.19 540.615 1085.67 540.722 1076.93 540.39C1071.1 540.199 1067.8 532.64 1073.1 528.504C1084.2 519.912 1090.93 518.069 1101.97 511.865C1128.46 496.771 1123.6 477.327 1113.38 483.091C1097.34 492.136 1082.77 513.874 1064.51 517.665C1056.33 519.353 1053.51 509.75 1061.07 498.126C1067.81 487.75 1082.98 467.486 1083.93 457.015C1084.13 454.745 1080.99 452.059 1078.77 452.642C1068.58 455.339 1061.91 464.764 1056.19 473.227C1051.53 480.179 1052.67 480.952 1052.67 525.402V525.343ZM460.443 697.06C454.738 697.06 454.715 697.452 453.681 698.842C452.647 700.233 471.259 711.857 491.844 708.172C500.056 706.698 507.461 703.097 515.079 700.019C515.316 699.82 515.498 699.564 515.609 699.275C515.719 698.986 515.753 698.673 515.709 698.367C515.246 697.226 519.501 696.786 460.443 697.06ZM890.471 698.783C891.791 700.494 890.697 701.16 899.338 703.537C927.862 711.179 928.694 711.441 930.37 709.8C933.11 706.987 935.7 704.031 938.131 700.946C938.318 700.64 938.42 700.289 938.427 699.93C938.435 699.572 938.347 699.217 938.173 698.903C938 698.589 937.746 698.327 937.438 698.143C937.13 697.959 936.778 697.86 936.419 697.856C886.87 697.416 894.037 697.333 890.471 698.783V698.783Z" fill="#1B2B36"/>
<path d="M810.449 302.52C814.359 300.607 821.966 300.345 821.977 289.447C821.977 288.258 823.427 287.474 823.95 287.45C826.862 287.355 823.618 329.226 826.327 329.048C830.25 328.858 829.263 326.73 838.213 317.769C857.645 298.372 866.951 321.608 876.245 341.777C876.314 342.089 876.302 342.415 876.208 342.721C876.114 343.027 875.943 343.304 875.71 343.524C875.416 343.654 875.094 343.707 874.773 343.678C874.453 343.649 874.146 343.539 873.88 343.358C857.716 319.92 857.526 314.619 851.785 316.723C851.441 316.854 851.013 318.755 852.13 320.598C872.05 353.46 869.887 352.378 876.281 350.31C881.332 348.682 885.979 345.794 891.648 346.02C893.134 346.091 894.988 344.629 896.153 343.381C903.89 334.99 912.091 326.992 918.734 317.686C918.283 318.149 917.677 317.995 923.251 318.042L922.87 317.626C923.386 319.361 923.419 321.204 922.967 322.956C922.514 324.709 921.594 326.305 920.303 327.574C914.955 333.422 909.821 339.459 904.258 345.105C889.996 359.486 901.239 366.498 890.293 379.108C887.56 382.27 887.916 380.879 895.475 448.505C899.171 481.582 898.791 493.978 901.727 589.832C902.262 607.267 902.987 606.197 910.807 605.9C921.646 605.484 916.631 610.25 927.375 606.518C931.38 605.128 931.868 605.829 930.94 610.904L931.226 610.607C929.871 610.607 928.29 610.084 927.185 610.607C902.416 622.314 912.316 657.72 911.413 660.275C910.95 660.001 910.225 659.835 910.058 659.443C899.433 633.842 913.374 618.617 916.001 613.661C918.069 609.68 900.11 607.018 893.158 618.784C888.404 626.854 885.599 640.272 887.56 652.229C889.663 664.981 885.872 663.71 884.363 657.957C879.668 640.13 884.446 630.681 886.074 622.896C887.607 615.551 879.513 626.307 853.497 610.429C809.962 583.853 789.317 563.993 747.874 555.757C724.662 551.134 720.538 546.998 700.083 549.28C689.161 550.468 702.116 555.127 703.376 568.938C704.029 576.176 698.622 581.06 686.202 572.907C675.826 566.061 675.41 555.614 679.605 598.508C683.314 636.457 682.933 632.262 681.198 634.235C678.132 631.382 680.378 637.111 674.174 586.694C673.544 581.595 674.447 576.128 671.167 571.54C652.971 622.361 660.221 632.155 658.652 662.45C658.652 662.985 657.012 663.579 656.061 663.828C655.788 663.9 654.872 662.866 654.872 662.319C654.314 630.645 648.49 622.326 662.229 579.218C666.056 567.226 662.372 572.289 655.098 578.113C646.077 585.387 638.911 581.607 640.064 576.782C642.084 568.343 645.697 561.414 656.394 552.132C656.645 551.917 656.826 551.632 656.914 551.313C657.003 550.994 656.994 550.656 656.889 550.342C656.785 550.029 656.589 549.753 656.327 549.551C656.065 549.349 655.749 549.23 655.419 549.208C589.896 542.648 582.516 572.396 536.176 604.831C532.075 607.695 526.965 608.824 523.447 612.592L523.72 612.889C522.175 601.812 528.628 610.809 567.838 572.872C588.672 552.667 606.559 550.67 612.038 545.464C610.125 545.025 584.346 543.872 573.946 535.956C573.566 535.659 573.78 534.28 574.446 534.292C586.105 534.589 575.824 533.936 607.284 539.296C621.047 541.673 622.628 539.866 624.363 541.198C629.688 545.322 628.166 542.279 669.028 544.228C705.872 545.987 706.811 540.152 721.726 544.133C724.9 544.778 728.111 545.219 731.341 545.453L731.009 545.155C737.391 549.624 763.907 551.561 786.132 562.876C787.038 563.459 788.13 563.68 789.191 563.495C790.252 563.311 791.205 562.733 791.861 561.878C800.846 552.37 802.771 554.45 795.426 541.174C790.268 531.915 796.127 530.739 804.934 522.835C812.184 516.358 805.433 508.383 797.28 503.664C786.263 497.294 776.077 496.082 765.713 493.158C764.525 492.837 765.796 491.149 766.248 491.149C782.174 491.435 806.776 498.185 811.982 512.329C815.892 522.954 809.011 525.89 799.859 533.627C794.463 538.191 814.05 547.889 800.418 561.474C799.091 562.606 797.706 563.669 796.27 564.659C796.006 564.893 795.802 565.187 795.676 565.516C795.55 565.845 795.506 566.2 795.547 566.55C795.588 566.901 795.712 567.236 795.911 567.527C796.109 567.819 796.375 568.058 796.686 568.224C832.781 590.093 859.225 608.812 865.62 610.12C872.905 611.605 863.029 569.211 875.912 394C876.851 381.176 871.634 382.353 869.791 370.539C866.773 351.285 858.346 351.321 847.733 321.727C846.746 318.981 845.356 318.66 843.038 320.538C828.217 332.768 828.229 346.139 824.022 349.74C823.225 350.417 821.407 348.159 821.276 345.925C818.899 302.817 820.242 304.731 817.093 304.648C815.31 304.648 784.932 320.182 770.265 333.113C760.935 341.301 757.275 328.513 810.449 302.52ZM646.22 577.067C646.916 577.078 647.608 576.966 648.264 576.734C657.05 571.262 664.067 563.366 668.469 553.998C669.111 552.702 667.696 551.098 666.175 551.407C654.397 553.784 643.344 574.322 644.639 575.807C645.123 576.293 645.652 576.731 646.22 577.115V577.067ZM682.636 551.823C681.473 552.095 680.353 552.527 679.308 553.107C678.619 553.653 677.716 554.949 677.941 555.484C682.696 567.214 692.893 574.5 696.292 571.921C699.691 569.342 694.723 558.633 688.198 554.093C686.43 553.153 684.565 552.408 682.636 551.87V551.823Z" fill="#1B2B36"/>
<path d="M967 130.067C979.063 129.52 929.859 48.4519 851.441 96.1826C837.274 104.799 834.944 113.666 829.548 124.707C827.445 129.021 823.035 128.106 825.151 122.211C830.618 106.962 840.209 95.4457 855.018 88.3265C864.764 83.5725 874.427 78.9967 885.266 77.1901C915.121 72.2578 938.892 82.9544 960.534 103.753C969.27 112.18 971.112 121.225 974.797 127.738C976.449 130.697 980.644 130.281 985.624 130.281C1022.11 130.352 1019.53 129.936 1025.46 131.196C1025.84 131.279 1026.81 133.573 1025.77 133.918C1016.26 137.697 989.677 132.004 994.431 138.434C995.358 139.694 1001.49 143.188 997.224 150.759C990.937 161.907 1008.24 157.653 1002.23 183.8C1000.85 189.011 999.191 194.141 997.248 199.167C995.786 203.303 984.839 202.234 978.041 202.733C967.761 203.505 970.328 199.94 966.156 236.011C965.395 242.691 961.402 243.142 948.328 243.142C942.671 243.142 931.404 241.526 927.898 242.37C924.392 243.214 924.558 247.54 922.763 250.143C911.092 266.913 885.991 268.957 868.27 258.617C863.148 255.622 862.684 251.189 861.781 246.732C859.214 234.086 860.283 237.224 834.338 236.558C812.671 235.999 811.447 238.139 811.673 205.419C811.744 195.911 792.181 207.737 789.757 201.033C788.069 196.339 796.888 197.468 791.956 190.265C786.655 182.492 785.93 174.708 792.027 167.398C797.007 161.456 800.346 160.267 798.457 156.072C795.699 149.796 801.88 145.09 803.448 142.808C804.756 140.906 808.036 140.253 807.192 136.972C792.585 134.999 404.892 136.438 385.044 135.558C382.94 135.463 380.825 133.573 381.478 132.527C383.368 129.746 384.842 129.972 395.455 129.972C1007.94 129.901 956.47 130.495 967 130.067ZM869.352 135.831C817.913 135.915 819.161 135.404 815.726 138.042C804.34 146.79 798.92 150.391 802.925 156.345C806.075 161.004 801.119 163.761 795.628 170.488C789.971 177.441 794.131 184.263 799.194 192.108C799.559 192.695 800.046 193.198 800.622 193.581C801.198 193.965 801.85 194.22 802.533 194.33C807.442 194.104 812.457 195.994 817.295 193.023C826.125 187.591 936.966 190.456 948.827 191.074C966.358 191.989 965.467 196.042 974.024 194.996C986.408 193.486 989.926 197.373 992.874 193.807C995.251 190.883 995.477 186.201 996.998 180.627C1002.41 160.802 986.099 162.347 991.376 151.734C993.361 147.74 995.168 144.496 991.198 142.428C986.967 140.217 982.201 138.315 977.887 140.562C974.749 142.202 973.572 142.392 972.526 139.052C970.672 133.157 970.387 135.653 869.352 135.831ZM823.19 198.656C820.599 198.656 818.828 200.154 818.982 202.495C819.434 209.626 820.064 216.757 820.801 223.888C821.134 227.133 824.366 227.323 827.694 227.454C862.85 228.928 862.339 229.617 864.728 226.741C869.815 220.632 870.588 224.792 870.184 225.22C866.998 228.571 866.25 233.064 865.774 237.105C864.467 248.467 867.735 255.063 877.921 257.88C908.893 266.437 931.677 243.273 914.099 227.074C911.722 224.875 910.141 223.758 910.938 222.094C911.734 220.43 916.25 219.622 920.303 223.865C923.156 226.86 925.925 232.838 928.742 233.123C954.283 235.643 957.016 236.499 957.718 231.162C960.903 206.845 964.421 200.689 955.875 200.261C942.944 199.69 930.005 199.235 917.059 198.894C910.676 198.728 913.707 201.081 910.783 214.844C910.53 215.445 910.126 215.97 909.609 216.368C909.092 216.766 908.481 217.023 907.836 217.114C907.198 216.9 906.624 216.53 906.165 216.039C905.707 215.547 905.378 214.948 905.209 214.297C903.616 197.658 910.843 198.24 889.568 198.597C886.003 198.656 881.807 197.729 879.074 199.298C874.379 201.972 879.264 207.428 875.508 215.379C875.033 216.413 872.121 217.637 871.289 215.818C868.71 210.09 869.684 210.339 869.245 202.174C868.983 196.79 868.092 198.24 823.19 198.656Z" fill="#1B2B36"/>
<path d="M356.425 597.581C353.453 594.943 351.314 596.642 348.771 598.152C346.227 599.661 345.3 601.408 345.823 604.344C346.18 606.4 345.752 608.587 345.942 610.691C346.655 618.713 350.256 616.372 346.405 622.267C344.492 625.202 345.312 626.771 348.913 628.756C354.059 631.597 357.875 635.887 361.749 640.142C362.118 640.546 361.999 641.402 362.106 642.055C361.131 642.055 359.812 642.555 359.229 642.055C340.594 627.128 346.952 626.189 345.288 667.894C345.217 669.677 343.482 671.578 342.911 670.699C342.323 669.913 341.95 668.987 341.83 668.013C341.307 611.166 343.898 617.002 334.782 617.679C303.821 619.949 308.694 640.166 286.623 655.355C280.906 659.289 271.065 657.138 272.646 649.603C274.952 638.597 287.241 627.876 292.566 616.645C293.505 614.672 291.793 612.176 289.594 611.891C285.934 611.38 282.523 612.248 279.005 613.282C269.699 616.027 260.25 618.285 250.932 621.019C240.865 623.966 223.026 617.536 233.164 606.127C243.302 594.717 255.46 597.344 262.877 596.286C278.422 594.075 287.003 593.077 281.75 585.518C276.675 578.208 262.389 576.271 254.165 575.154C238.714 573.038 229.206 572.777 223.691 559.216C221.314 553.202 223.691 547.723 234.935 546.832C256.328 545.144 276.723 563.316 293.231 558.42C293.674 558.306 294.082 558.085 294.419 557.776C294.756 557.467 295.011 557.08 295.163 556.648C295.315 556.217 295.358 555.755 295.288 555.303C295.219 554.851 295.039 554.424 294.764 554.058C279.777 534.436 260.298 527.911 249.482 512.959C244.371 505.935 244.098 492.386 252.893 492.992C278.208 494.727 293.219 530.24 325.048 537.823C328.756 538.702 331.145 537.11 332.738 533.532C345.55 504.782 341.782 554.521 341.33 182.005C341.33 171.535 342.234 168.135 343.814 169.669C347.38 173.115 345.657 177.703 345.657 181.744C345.657 425.389 345.157 493.135 345.431 501.597C345.657 508.811 350.375 502.441 357.435 499.22C369.047 493.883 380.456 505.685 371.115 516.667C365.172 523.596 359.788 526.282 355.557 535.802C351.635 544.585 355.711 549.09 359.123 554.819C366.123 566.585 364.792 579.433 358.552 588.537C356.425 591.651 357.779 593.897 360.216 595.953C359.61 595.287 359.348 600.184 356.425 597.581ZM341.746 550.041C341.628 532.498 342.103 518.854 336.101 536.789C333.213 545.405 321.482 543.433 313.579 539.023C292.316 527.138 290.308 522.253 272.86 507.29C264.648 500.254 248.757 492.528 250.825 503.95C254.022 521.671 284.484 530.846 299.186 553.06C301.753 556.946 299.697 561.997 295.287 563.649C277.602 570.293 251.122 545.917 229.729 553.428C229.384 553.549 229.067 553.739 228.797 553.986C228.527 554.233 228.311 554.532 228.159 554.866C228.008 555.199 227.926 555.559 227.918 555.925C227.91 556.29 227.976 556.654 228.113 556.993C234.269 578.624 268.213 563.281 285.161 582.38C295.692 594.265 278.684 600.006 262.758 600.992C245.501 602.05 241.079 604.011 235.992 609.787C230.906 615.564 242.351 618.808 251.253 616.265C274.215 609.728 281.417 607.232 287.74 607.173C296.642 607.089 301.729 613.733 293.196 625.523C287.586 633.237 285.209 635.352 277.816 648.878C276.972 650.423 278.838 653.18 281.251 652.514C285.589 651.326 288.834 648.438 291.484 644.979C295.418 639.833 299.352 634.663 302.87 629.243C312.913 613.793 327.33 614.779 336.149 611.962C343.042 609.752 342.151 613.353 341.746 550.041ZM345.538 590.783C345.764 600.873 366.384 581.275 356.71 560.619C353.762 554.379 339.88 541.483 360.085 521.516C368.298 513.399 371.519 510.332 368.88 505.852C363.793 497.187 345.55 507.504 345.371 521.837C345.324 529.301 345.312 580.823 345.538 590.819V590.783Z" fill="#1B2B36"/>
<path d="M764.441 334.729C769.196 341.313 777.682 340.232 787.13 343.251C796.84 346.353 796.032 350.964 794.998 361.59C793.905 372.88 786.893 371.3 783.743 377.801C768.197 409.891 765.915 411.008 767.627 419.399C769.623 429.24 777.23 415.679 783.077 426.364C789.745 438.641 787.772 456.076 770.895 459.987C761.28 462.245 769.861 468.924 748.551 494.133C744.439 499.006 754.613 497.437 771.192 502.072C777.004 503.7 787.677 508.169 789.757 513.47C786.548 514.183 790.945 514.825 775.839 508.918C767.116 505.531 744.831 498.518 737.462 504.306C711.612 524.618 699.81 517.38 699.941 526.567C699.941 529.681 701.058 533.27 699.156 532.985C697.255 532.7 697.267 531.654 695.793 526.876C694.414 522.431 695.793 523.382 668.671 524.701C661.457 525.046 666.294 532.914 661.54 538.631C661.324 538.88 661.055 539.077 660.753 539.209C660.45 539.34 660.122 539.403 659.793 539.391C656.156 538.607 664.416 524.464 656.929 523.548C643.986 521.968 632.897 516.334 623.008 508.098C620.453 505.982 618.076 506.089 615.033 506.909C601.96 510.677 588.482 513.434 576.312 519.983C575.988 520.046 575.654 520.031 575.337 519.937C575.021 519.844 574.731 519.676 574.493 519.448C574.327 518.557 574.255 517.071 574.743 516.738C600.985 499.885 619.906 506.897 614.617 499.933C598.489 478.539 602.602 466.274 596.148 464.206C579.045 458.751 575.943 419.209 596.148 422.441C596.849 422.548 597.491 423 598.18 423.119C610.469 425.139 578.344 383.137 573.352 356.645C571.403 346.305 582.361 351.475 583.003 351.416C588.149 350.929 588.114 348.349 593.83 336.702C598.834 326.552 603.338 338.295 620.417 325.375C628.487 319.278 628.024 320.621 629.605 320.74C629.605 321.275 629.723 322.048 629.438 322.285C621.558 328.905 613.512 334.919 602.673 335.038C597.55 335.038 597.158 338.069 592.963 347.803C583.455 369.969 561.372 327.027 600.533 406.123C607.023 419.197 601.722 379.976 661.148 350.976C686.107 338.782 735.953 346.626 758.297 391.231C760.222 395.07 762.124 398.921 764.037 402.772C768.673 400.323 768.494 394.999 770.895 391.184C775.554 383.767 780.082 373.071 783.446 371.193C790.458 367.306 790.315 360.888 790.256 354.375C790.197 349.407 786.762 348.076 774.461 346.246C762.409 344.451 755.955 337.296 750.785 326.433C747.885 320.36 743.583 322.369 731.02 321.988C707.571 321.251 709.627 311.375 699.382 313.669C684.573 316.961 686.392 309.402 674.126 311.541C673.033 311.731 666.817 312.872 666.995 311.779C667.138 311.173 667.304 310.198 667.696 310.079C673.912 308.142 680.128 306.514 686.499 309.794C694.688 314.096 700.369 305.361 710.507 311.613C719.29 317.008 728.441 316.367 742.097 316.367C755.326 316.367 755.171 325.815 759.105 330.343C760.21 331.449 766.248 336.429 764.441 334.729ZM751.106 388.165C727.705 346.959 668.267 336.488 630.627 375.186C621.285 384.777 612.799 394.999 608.865 408.227C556.38 586.528 833.34 532.902 751.106 388.165ZM598.145 451.869C597.836 447.721 599.107 443.312 595.15 439.913C593.224 438.261 593.426 437.654 596.469 436.466C598.668 435.622 598.763 434.089 598.846 432.33C599.004 431.449 598.826 430.541 598.346 429.786C597.866 429.031 597.119 428.484 596.255 428.253C579.818 422.465 588.161 463.005 596.92 459.701C598.477 459.131 598.145 457.788 598.156 451.869H598.145ZM782.008 437.131C780.344 429.073 779.738 426.815 776.707 426.649C772.904 426.447 770.325 432.924 770.467 433.162C771.822 435.372 771.929 433.911 774.603 433.221C775.275 433.154 775.954 433.198 776.612 433.352C776.665 434.038 776.584 434.729 776.374 435.384C771.882 443.229 770.194 436.941 768.78 451.097C768.197 456.671 780.249 454.615 782.008 437.131Z" fill="#1B2B36"/>
<path d="M710.483 783.809C-494.171 780.933 1178.64 773.695 1177.12 780.244C1175.98 785.212 1205.12 783.809 710.483 783.809Z" fill="#1B2B36"/>
<path d="M812.279 241.538C817.449 237.01 812.101 248.61 834.362 280.153C854.864 309.2 941.518 329.845 975.058 251.629C979.028 242.37 984.911 235.512 984.447 222.26C984.352 219.503 985.636 216.686 986.385 213.941C986.557 213.66 986.795 213.425 987.079 213.257C987.363 213.089 987.684 212.993 988.013 212.978C988.56 212.978 989.201 213.584 989.617 214.024C989.843 214.238 989.819 214.701 989.95 215.034C992.446 221.595 992.85 218.005 1000.87 217.768C1001.91 217.923 1002.92 218.257 1003.84 218.754C1003.26 219.479 1002.82 220.525 1002.07 220.87C997.057 223.128 992.054 222.95 989.784 229.962C977.899 266.568 952.69 304.066 914.777 309.878C903.046 311.684 900.764 310.46 899.326 316.189C899.303 316.558 899.144 316.907 898.881 317.167C898.617 317.427 898.267 317.582 897.897 317.601C897.527 317.62 897.163 317.502 896.874 317.27C896.586 317.039 896.392 316.708 896.331 316.343C895.142 312.92 893.49 311.126 889.509 311.054C877.529 310.84 871.039 305.67 869.304 313.265C869.161 313.835 868.448 314.287 867.997 314.786C867.569 314.239 866.808 313.705 866.808 313.146C866.606 308.166 864.027 305.254 859.356 303.792C839.056 297.469 817.758 274.923 812.279 241.538Z" fill="#1B2B36"/>
<path d="M360.24 595.953C365.386 591.282 364.4 591.876 371.875 598.805C372.398 599.293 372.957 599.994 373.575 600.077C374.503 600.292 375.478 600.178 376.332 599.756C394.885 586.255 420.129 591.769 434.569 603.143C450.353 615.599 463.094 618.024 477.356 625.583C478.069 625.951 478.224 627.389 478.628 628.34C471.497 630.717 445.528 618.713 433.155 608.587C417.372 595.62 399.306 594.016 380.54 602.002C376.855 603.583 379.91 607.577 380.599 608.064C392.912 616.704 378.816 648.901 374.526 644.825C371.614 642.067 379.648 640.582 382.156 617.489C382.477 614.494 382.75 611.772 378.59 610.904C376.986 610.56 375.726 608.801 374.193 607.874C372.85 607.065 371.887 604.451 369.89 606.162C368.179 607.636 368.06 612.711 369.439 614.161C375.037 620.103 375.049 618.582 377.259 622.896C377.509 623.396 376.38 624.346 376.071 624.156C369.047 619.759 368.833 618.547 367.086 619.89C366.27 620.589 365.715 621.545 365.512 622.6C365.309 623.656 365.47 624.749 365.968 625.701C366.979 627.187 368.274 628.459 369.379 629.873C370.188 630.895 368.191 631.62 367.739 631.406C365.517 630.408 363.948 628.185 361.024 628.447C358.849 628.637 358.909 626.854 359.598 625.547C362.415 620.21 366.729 606.804 362.938 598.473C362.664 597.748 359.146 594.8 360.24 595.953Z" fill="#1B2B36"/>
<path d="M890.163 342.74C889.806 343.227 888.415 343.12 887.536 343.013C884.969 342.669 895.095 322.404 916.88 312.647C937.346 303.483 937.168 355.766 942.873 345.319C953.059 326.659 953.748 299.799 958.122 298.848C959.798 298.48 959.572 299.965 959.714 300.869C960.463 305.48 956.149 343.227 941.043 356.8C936.396 360.984 935.825 348.944 929.063 325.815C928.1 322.535 929.467 319.029 925.152 318.007C923.225 318.576 921.217 318.817 919.21 318.72C917.177 316.569 921.373 315.903 918.58 318.019C920.279 316.189 906.885 319.469 890.163 342.74Z" fill="#1B2B36"/>
<path d="M620.917 725.608C623.294 723.932 625.742 725.251 628.166 725.608C687.295 733.191 747.862 725.525 749.823 731.099C751.522 735.829 622.961 736.792 620.917 725.608Z" fill="#1B2B36"/>
<path d="M915.478 280.628C906.612 277.479 910.51 288.674 898.993 289.602C896.141 289.827 892.86 290.529 890.46 289.471C884.018 286.642 879.169 287.926 874.272 292.751C869.958 296.994 857.74 291.063 856.195 278.489C855.868 274.203 855.904 269.897 856.302 265.617C856.397 263.526 858.679 260.863 858.821 261.553C860.164 266.437 856.67 272.582 860.01 280.462C865.144 292.608 871.36 292.347 875.27 287.367C876.946 285.24 876.459 280.937 880.096 281.08C882.306 281.163 884.315 283.671 886.633 284.36C910.95 291.491 900.217 271.073 907.824 273.877C915.846 276.837 921.397 279.285 922.716 270.478C923.417 265.807 923.334 266.604 930.501 265.926C937.489 265.273 928.777 258.296 936.954 255.824C942.398 254.172 942.576 251.379 939.712 249.549C935.112 246.613 935.065 248.158 934.268 245.151C934.149 244.699 940.211 242.299 945.749 248.194C946.671 249.31 947.185 250.705 947.209 252.152C947.233 253.599 946.764 255.011 945.88 256.157C944.692 257.476 939.688 260.221 939.415 262.729C938.903 267.317 936.717 270.003 932.01 270.478C924.415 271.251 933.008 280.628 915.478 280.628Z" fill="#1B2B36"/>
<path d="M922.977 458.525C922.977 497.746 916.298 497.33 968.604 509.096C969.068 509.191 969.603 510.083 969.627 510.63C969.817 514.659 949.909 514.041 930.406 504.152C916.357 497.021 916.488 485.207 917.332 468.33C919.174 431.07 919.614 430.726 921.135 430.547C921.551 430.488 922.466 431.201 922.478 431.593C923.5 461.33 923.215 458.525 922.977 458.525Z" fill="#1B2B36"/>
<path d="M560.314 544.265C567.053 531.429 543.307 528.279 551.84 516.81C560.374 505.341 587.84 490.948 600.284 491.851C601.318 491.922 602.197 494.608 601.021 495.119C599.419 495.868 597.742 496.442 596.017 496.831C578.772 500.278 560.362 513.054 556.202 518.997C553.302 523.097 557.973 524.69 564.046 531.5C569.81 537.954 566.922 542.529 564.581 547.248C558.508 559.478 566.899 559.87 563.761 563.887C562.513 565.491 552.47 559.192 560.314 544.265Z" fill="#1B2B36"/>
<path d="M931.047 610.916C954.711 588.192 957.278 581.536 968.533 583.58C979.788 585.625 982.415 572.278 987.05 577.448C989.344 579.991 983.782 581.394 983.485 584.246C981.013 586.433 982.427 585.53 976.96 588.275L977.257 587.99C955.043 587.063 962.995 584.329 930.715 618.796C929.413 619.972 927.977 620.989 926.436 621.827C926.27 621.946 925.247 620.757 925.378 620.294C926.781 615.979 932.735 609.133 931.047 610.916Z" fill="#1B2B36"/>
<path d="M523.541 612.592C523.47 613.78 523.387 614.969 523.316 616.062C520.998 618.083 512.952 600.968 492.783 609.347C488.361 611.189 493.555 614.375 501.316 622.837C503.8 625.547 502.992 627.959 499.165 624.952C493.341 620.365 487.482 611.772 473.755 613.685C465.34 614.874 468.43 610.227 472.293 609.727C481.587 608.539 482.989 610.334 487.743 606.946C494.981 601.836 509.042 600.683 517.979 608.135C524.231 613.222 524.1 613.257 523.541 612.592Z" fill="#1B2B36"/>
<path d="M955.673 417.771C994.633 417.771 985.707 417.462 995.144 419.162C996.178 419.34 995.501 421.134 995.001 421.301C992.268 422.168 932.878 421.586 932.818 421.586C929.324 421.586 925.83 420.552 922.336 419.958C922.098 419.958 921.908 419.471 921.718 419.197C920.101 416.82 921.718 418.187 955.673 418.187V417.771Z" fill="#1B2B36"/>
<path d="M1018.61 227.311C1018.61 236.189 1010.1 242.631 1000.68 240.967C998.531 240.575 996.487 238.59 997.378 237.687C1000 235.132 1004.07 235.928 1007.15 234.989C1018.64 231.423 1013.51 216.412 1001.99 212.015C1000.41 211.367 998.893 210.571 997.462 209.638C997.424 209.34 997.445 209.037 997.525 208.748C997.605 208.458 997.741 208.187 997.925 207.95C1001.18 204.955 1018.69 212.158 1018.61 227.311Z" fill="#1B2B36"/>
<path d="M797.732 206.893C798.469 207.154 804.031 208.081 803.044 212.063C802.712 213.453 801.19 214.06 799.693 212.966C788.758 205.027 768.791 231.044 799.372 239.922C800.81 240.338 802.878 239.423 803.52 241.704C801.814 242.108 800.067 242.311 798.314 242.311C790.743 241.467 784.741 237.889 781.045 231.115C774.437 219.016 786.916 206.477 797.732 206.893Z" fill="#1B2B36"/>
<path d="M731.436 545.405C725.589 535.707 735.204 544.609 770.812 536.824C777.444 535.374 778.918 538.215 771.418 540.663C747.79 548.365 728.988 543.183 731.436 545.405Z" fill="#1B2B36"/>
<path d="M1026.75 740.488C1025.21 761.24 1025.56 761.739 1023.99 762.262C1022.42 762.785 1022.31 761.275 1022.27 760.467C1021.95 755.297 1020.8 725.287 1024.1 721.341C1026.89 718.013 1026.1 733.999 1026.1 740.464L1026.75 740.488Z" fill="#1B2B36"/>
<path d="M934.138 431.308C933.603 431.178 933.092 430.358 932.89 429.751C932.89 429.537 933.603 428.088 936.122 428.563C957.634 432.128 976.532 428.955 984.138 430.369C985.137 430.56 984.602 431.772 984.138 431.843C967.559 433.959 951.49 435.658 934.138 431.308Z" fill="#1B2B36"/>
<path d="M988.453 598.211C975.284 606.138 978.029 604.914 975.688 604.154C976.472 602.525 988.987 592.791 989.487 592.411C993.611 589.226 991.721 587.657 991.567 576.402C991.567 575.903 992.303 575.213 992.862 574.94C993.207 574.797 994.288 575.356 994.312 575.653C995.75 595.085 1003.68 594.812 1000.78 598.163C999.815 599.269 994.395 593.219 993.028 593.516C991.787 593.731 990.646 594.335 989.77 595.241C988.894 596.147 988.329 597.308 988.155 598.556L988.453 598.211Z" fill="#1B2B36"/>
<path d="M1008.42 602.335C1007.9 604.89 1011.26 601.004 988.31 625.511C986.052 627.888 983.342 625.761 984.388 624.18C985.551 622.388 986.855 620.691 988.286 619.105C1006.97 598.983 1005.45 600.873 1008.42 602.335Z" fill="#1B2B36"/>
<path d="M963.541 597.961C964.54 602.918 962.923 616.098 970.423 631.145C971.267 632.832 973.418 634.496 971.504 636.802C970.185 635.614 968.545 634.675 967.63 633.237C960.832 622.778 959.643 611.368 962.27 599.4C962.388 598.877 963.102 598.449 963.541 597.961Z" fill="#1B2B36"/>
<path d="M614.427 767.788C614.154 768.358 613.393 768.691 612.87 769.131C611.813 766.588 611.515 766.754 612.086 764.377C619.324 733.915 617.874 738.586 619.883 736.898C623.519 743.4 617.684 760.918 614.427 767.788Z" fill="#1B2B36"/>
<path d="M970.28 656.59C972.194 654.011 973.846 651.099 976.223 649.043C987.217 639.535 986.991 632.856 989.57 630.027C990.58 628.91 991.65 630.598 991.614 630.871C989.701 645.799 979.135 646.262 969.389 662.723C969.077 661.698 968.995 660.617 969.149 659.557C969.303 658.497 969.689 657.484 970.28 656.59V656.59Z" fill="#1B2B36"/>
<path d="M763.289 739.015C763.717 738.943 764.691 739.549 764.703 739.894C765.024 747.845 768.791 754.786 771.157 762.143C771.335 762.702 770.871 763.462 770.705 764.128C770.054 763.963 769.437 763.681 768.887 763.296C759.901 753.859 759.141 739.692 763.289 739.015Z" fill="#1B2B36"/>
<path d="M898.482 769.012C895.962 765.637 897.163 750.329 897.484 746.121C897.638 744.113 901.049 741.486 901.049 746.609C901.525 766.932 901.097 767.324 898.482 769.012Z" fill="#1B2B36"/>
<path d="M981.464 585.957C982.985 584.602 983.52 583.758 985.517 584.103C986.444 584.258 988.001 584.531 986.896 585.886C982.664 591.042 977.549 595.405 971.79 598.769C971.172 599.126 968.878 598.484 969.924 596.642C971.813 593.314 976.235 592.102 977.197 587.978C976.781 588.346 975.949 588.714 981.464 585.957Z" fill="#1B2B36"/>
<path d="M1037.54 134.809C1040.03 134.679 1046.75 139.397 1049.72 147.051C1050.11 148.073 1047.95 148.537 1047.66 148.239C1035.78 137.198 1034.65 136.663 1037.54 134.809Z" fill="#1B2B36"/>
<path d="M1018.24 585.149C1016.82 587.315 1015.23 589.362 1013.48 591.27C1011.43 593.183 1010.76 597.295 1006.54 596.19C1006.1 592.173 1013.38 585.743 1016.05 583.2C1016.29 582.986 1017.16 583.319 1017.67 583.544C1017.88 583.639 1017.9 584.15 1018.24 585.149Z" fill="#1B2B36"/>
<path d="M990.806 601.491C985.042 608.741 976.674 613.103 977.934 610.845C981.69 604.106 987.977 602.834 988.453 598.211C987.24 599.518 992.993 598.769 990.806 601.491Z" fill="#1B2B36"/>
<path d="M356.936 136.616C349.21 145.316 348.093 147.17 346.786 145.839C346.557 145.582 346.391 145.275 346.3 144.943C346.21 144.611 346.197 144.263 346.263 143.925C348.141 139.385 351.159 136.212 356.448 136.045L356.936 136.616Z" fill="#1B2B36"/>
<path d="M801.927 221.773C800.299 222.64 794.368 221.107 792.562 219.336C791.801 218.576 794.796 214.428 801.844 220.026C802.212 220.323 802.284 221.583 801.927 221.773Z" fill="#1B2B36"/>
<path d="M349.662 681.074L352.788 685.9C352.241 686.209 351.35 686.922 351.183 686.779C346.762 683.13 347.332 682.976 348.093 681.466C348.2 681.276 348.723 681.3 349.662 681.074Z" fill="#1B2B36"/>
<path d="M987.621 613.626C987.11 613.216 986.651 612.745 986.254 612.223C987.846 610.215 989.558 608.301 991.234 606.376C993.825 609.133 994.823 607.992 987.621 613.626Z" fill="#1B2B36"/>
<path d="M523.316 616.062C525.253 618.44 525.039 617.786 524.231 618.665C522.745 616.003 522.828 616.49 523.316 616.062Z" fill="#1B2B36"/>
<path d="M1046.69 678.507C1049.92 680.967 1050.11 679.434 1047.12 684.212C1045.38 682.167 1045.31 683.748 1046.69 678.507Z" fill="#1B2B36"/>
<path d="M356.448 136.045C357.875 134.477 357.375 134.453 358.623 135.879L356.936 136.616L356.448 136.045Z" fill="#1B2B36"/>
<path d="M916.167 156.322C944.323 159.483 964.041 182.992 952.155 180.841C950.491 180.544 939.474 166.424 916.857 161.361C915.038 160.945 911.782 159.911 912.388 158.14C912.994 156.369 915.216 156.441 916.167 156.322Z" fill="#1B2B36"/>
<path d="M874.783 155.537C876.077 155.844 877.348 156.241 878.586 156.726C878.848 156.844 878.907 158.092 878.586 158.592C877.897 159.887 876.043 160.386 867.486 162.003C841.826 166.852 838.415 174.791 832.246 176.99C831.295 177.323 830.38 175.468 830.523 174.969C830.715 173.932 831.226 172.981 831.985 172.248C837.868 167.755 846.187 159.019 874.783 155.537Z" fill="#1B2B36"/>
<path d="M982.558 167.814C980.965 178.808 981.167 178.82 980.335 178.867C977.079 179.034 977.59 166.59 977.495 159.566C977.364 150.973 977.732 149.262 979.277 150.45C981.94 152.471 981.809 154.693 982.558 167.814Z" fill="#1B2B36"/>
<path d="M826.042 151.591C823.047 175.124 823.891 171.404 822.227 172.854C821.686 172.431 821.249 171.89 820.95 171.272C820.651 170.653 820.499 169.975 820.504 169.288C820.246 161.082 821.118 152.88 823.095 144.912C823.225 144.412 824.093 144.092 824.616 143.723C825.911 145.518 825.674 143.378 825.674 151.615L826.042 151.591Z" fill="#1B2B36"/>
<path d="M929.55 223.401C928.884 223.282 927.815 221.856 927.969 221.393C932.081 209.365 932.985 208.093 935.183 208.319C937.834 208.58 938.38 212.633 938.666 215.284C938.712 216.707 939.231 218.075 940.142 219.171C941.052 220.266 942.302 221.027 943.693 221.333C944.323 221.511 944.632 222.926 944.882 223.829C944.415 224.246 943.844 224.53 943.23 224.649C939.462 224.97 932.141 223.888 929.55 223.401Z" fill="#1B2B36"/>
<path d="M849.907 220.679C842.776 220.679 841.754 221.309 841.398 219.182C841.267 218.374 843.145 217.328 843.941 216.27C844.558 215.469 845.007 214.551 845.26 213.572C845.664 211.718 845.451 204.397 849.872 205.526C853.592 206.477 853.212 211.171 853.782 213.323C854.971 217.708 859.534 216.638 858.001 219.491C857.264 220.822 849.907 220.263 849.907 220.679Z" fill="#1B2B36"/>
<path d="M646.648 460.486C647.599 458.786 648.252 457.301 648.942 457.396C650.356 457.598 651.545 458.085 651.687 459.903C652.281 467.748 657.891 471.301 664.309 472.894C681.376 477.113 697.861 474.796 713.561 466.892C720.086 463.612 715.76 455.898 719.789 457.063C723.105 458.014 725.732 463.778 722.047 467.76C706.311 484.541 646.743 488.701 646.648 460.486Z" fill="#1B2B36"/>
<path d="M702.377 499.85C700.917 499.99 699.443 499.866 698.027 499.482C691.693 496.867 685.441 498.293 679.071 499.113C677.098 499.339 664.072 499.802 664.808 497.984C665.854 495.274 665.462 495.464 672.653 494.894C698.218 492.861 710.911 484.019 716.485 481.654C716.825 481.572 717.178 481.565 717.522 481.631C717.865 481.698 718.19 481.837 718.475 482.04C718.76 482.242 718.998 482.504 719.173 482.806C719.349 483.109 719.457 483.445 719.492 483.793C718.482 499.327 712.979 499.886 702.377 499.85ZM713.074 490.805C712.48 489.95 713.49 489.153 705.788 492.814C705.551 492.933 705.491 494.205 705.681 494.311C707.963 495.559 713.074 493.729 713.074 490.805Z" fill="#1B2B36"/>
<path d="M734.895 399.158C735.442 399.717 735.359 401.072 735.192 401.999C734.931 403.485 729.606 401.844 728.192 401.345C709.283 394.701 695.745 391.837 703.233 386.727C705.456 385.181 723.105 386.869 734.895 399.158Z" fill="#1B2B36"/>
<path d="M663.251 389.805C662.99 390.482 662.526 392.835 660.708 393.228C646.802 396.235 635.238 403.865 632.635 402.95C623.947 399.871 652.329 382.911 661.599 387.499C662.384 387.939 662.776 389.115 663.251 389.805Z" fill="#1B2B36"/>
<path d="M724.472 450.039C706.644 449.172 706.121 449.504 706.014 447.781C705.907 446.058 706.799 446.177 717.412 444.679C720.764 435.29 720.692 435.1 721.37 434.802C730.652 430.69 722.713 445.499 730.474 446.878C737.7 448.209 734.729 446.878 738.163 449.255C735.739 450.206 739.221 450.039 724.472 450.039Z" fill="#1B2B36"/>
<path d="M628.059 449.017C627.679 449.017 626.764 448.244 626.776 447.828C626.776 447.258 627.406 446.247 627.81 446.224C635.583 445.701 638.506 441.612 636.926 434.101C636.7 432.972 638.281 430.809 639.101 430.928C639.921 431.046 641.478 431.427 641.727 432.116C642.685 434.431 643.302 436.874 643.558 439.366C643.843 443.966 646.862 442.825 650.57 444.239C647.884 447.032 644.77 446.354 628.059 449.017Z" fill="#1B2B36"/>
<path d="M697.766 509.786C697.671 508.395 699.596 508.134 712.028 504.259C714.631 503.451 713.502 503.534 716.116 503.926C715.891 504.794 715.95 505.983 715.392 506.458C709.259 511.842 698.099 514.385 697.766 509.786Z" fill="#1B2B36"/>
</svg>
