<svg width="480" height="360" viewBox="0 0 480 360" fill="none" xmlns="http://www.w3.org/2000/svg">
<path d="M243.736 315.339C229.825 315.307 216.037 312.739 203.048 307.762C202.463 307.541 201.877 307.292 201.292 307.052C200.42 306.725 199.643 306.185 199.031 305.481C198.42 304.778 197.994 303.933 197.791 303.023C196.08 296.96 194.855 290.77 194.127 284.511C192.267 270.124 189.456 255.919 186.684 241.704C185.917 237.79 185.399 233.829 184.766 229.896C184.698 229.374 184.46 228.888 184.089 228.514C183.718 228.14 183.235 227.898 182.713 227.825C180.878 227.402 179.062 226.923 177.265 226.386C177.108 226.291 176.977 226.158 176.886 225.998C176.796 225.839 176.748 225.658 176.747 225.475C176.805 225.129 177.189 224.611 177.476 224.583C178.703 224.412 179.945 224.38 181.179 224.487C200.579 226.949 220.138 227.946 239.688 227.47C255.226 227.048 270.775 226.213 285.987 222.674C293.958 220.842 301.823 218.559 309.707 216.372C310.685 216.061 311.511 215.393 312.019 214.502C313.144 212.249 314.106 209.919 314.896 207.529C316.93 201.294 317.601 194.82 318.014 188.345C318.273 184.221 318.714 183.07 319.606 183.693C321.275 184.854 320.949 186.657 320.997 188.278C321.06 194.795 320.221 201.29 318.503 207.576C317.862 210.569 316.484 213.354 314.494 215.679C312.504 218.004 309.965 219.795 307.108 220.89C301.506 223.144 301.708 223.125 300.47 229.522C297.276 246.01 294.111 262.508 290.879 278.977C290.063 283.082 288.874 287.111 287.79 291.168C287.713 291.446 287.157 291.734 286.831 291.753C286.505 291.772 286.035 291.35 286.045 291.139C286.051 287.795 286.256 284.455 286.658 281.135C289.44 263.918 293.286 246.922 297.507 230.011C297.708 229.196 298.034 228.419 298.226 227.604C298.888 224.88 298.312 224.314 295.406 225.024C287.474 227.051 279.419 228.567 271.293 229.561C266.497 230.107 261.701 230.654 256.905 230.942C240.336 231.997 223.716 231.959 207.153 230.827C201.503 230.414 195.883 229.637 190.243 229.071C188.593 228.908 187.826 229.714 188.171 231.268C189.83 238.644 191.595 245.991 193.187 253.377C195.931 266.102 198.082 278.932 199.643 291.868C200.026 294.986 199.921 298.16 200.045 301.306C200.029 301.833 200.19 302.35 200.501 302.776C200.812 303.202 201.256 303.512 201.762 303.656C205.954 305.009 210.107 306.534 214.356 307.637C226.316 310.994 238.782 312.177 251.16 311.128C256.739 310.529 262.253 309.435 267.638 307.858C269.652 307.292 271.599 306.4 273.652 306.035C275.705 305.671 277.633 303.589 279.887 305.431C278.793 307.752 276.462 308.443 274.4 309.325C267.806 312.087 260.847 313.883 253.74 314.658C249.989 315.08 246.201 315.176 243.736 315.339Z" fill="#1B2B36" stroke="#1B2B36"/>
<path d="M223.938 90.021C223.756 91.4118 223.411 93.8577 223.085 96.3899C222.739 99.1044 222.279 101.8 222.125 104.524C221.792 108.739 222.51 112.971 224.216 116.839C227.286 123.506 230.134 130.268 235.228 135.821C237.568 138.354 238.757 141.48 239.669 144.761C240.244 146.804 240.781 146.785 242.728 145.518C248.013 142.085 253.212 138.507 258.698 135.457C264.704 132.296 269.296 126.987 271.561 120.59C273.355 115.669 275.474 110.854 277.604 106.058C278.563 103.919 278.611 102.068 277.114 100.198C271.858 93.6083 270.458 85.887 270.4 77.7149C270.4 74.4249 271.033 71.5091 273.278 68.9673C274.021 67.9546 274.706 66.9011 275.33 65.8116C276.568 63.9988 277.767 63.8357 279.445 65.4471C286.159 71.8544 289.881 79.5757 289.526 88.9947C289.381 90.6611 289.06 92.3073 288.567 93.9056C288.183 95.4307 286.524 97.0038 286.409 96.505C286.135 95.5277 286.089 94.5006 286.275 93.5028C288.519 84.3428 285.785 76.5351 279.896 69.5236C278.879 68.315 277.882 68.4589 276.75 69.6195C275.637 70.7378 274.776 72.082 274.227 73.5613C273.678 75.0406 273.452 76.6205 273.566 78.1945C273.892 85.4362 274.995 92.4094 279.512 98.4137C280.171 99.2344 280.684 100.162 281.028 101.157C281.306 102.136 281.365 103.164 281.2 104.169C280.957 105.192 280.597 106.183 280.126 107.123C277.968 112.36 275.657 117.54 273.661 122.844C271.444 129.047 266.967 134.185 261.125 137.231C257.615 139.15 254.229 141.241 250.824 143.322C249.04 144.415 247.342 145.653 245.606 146.833C242.182 149.154 240.963 152.089 241.242 156.424C241.807 165.22 241.539 174.054 241.587 182.878C241.587 185.516 241.587 185.516 244.157 186.139C244.359 186.187 244.579 186.139 244.781 186.226C246.603 186.676 247.917 187.712 247.419 188.144C246.689 188.849 245.785 189.349 244.8 189.592C240.963 190.168 237.309 189.113 233.693 187.99C233.405 187.904 233.127 187.338 233.108 186.983C233.113 186.795 233.162 186.611 233.25 186.444C233.338 186.278 233.464 186.134 233.616 186.024C234.397 185.778 235.2 185.608 236.014 185.516C238.604 185.132 238.892 184.96 238.978 182.475C239.083 178.274 238.978 174.073 238.978 169.872C238.978 169.033 238.778 168.206 238.394 167.461C238.011 166.715 237.454 166.072 236.772 165.584C231.909 161.556 226.998 157.614 220.83 155.676C219.83 155.38 218.865 154.975 217.953 154.468C217.55 154.218 217.397 153.508 217.128 153.058C217.493 152.904 217.924 152.54 218.231 152.626C220.648 153.278 223.238 153.662 225.415 154.803C228.744 156.539 231.784 158.822 235.007 160.865C235.871 161.441 236.768 161.966 237.693 162.438C237.894 162.534 238.537 162.189 238.652 161.92C238.876 161.334 238.962 160.704 238.901 160.079C238.239 155.091 237.597 150.103 236.791 145.135C236.281 142.22 234.872 139.537 232.762 137.461C227.007 131.63 223.861 124.273 220.677 116.964C218.26 111.401 218.269 105.454 219.238 99.5935C220.197 93.9632 220.821 88.3808 220.082 82.6834C219.99 82.2746 220.033 81.8467 220.207 81.4652C220.541 81.0057 221.001 80.6526 221.531 80.4485C221.733 80.4398 221.934 80.4797 222.118 80.5648C222.301 80.6499 222.462 80.7778 222.586 80.9377C224.092 83.4123 223.842 86.1748 223.938 90.021Z" fill="#1B2B36" stroke="#1B2B36"/>
<path d="M226.576 201.774C215.066 201.774 203.479 201.467 192.046 199.855C187.894 199.247 183.784 198.382 179.74 197.266C177.519 196.598 175.414 195.595 173.495 194.292C173.04 194.02 172.666 193.631 172.412 193.165C172.159 192.699 172.035 192.174 172.053 191.644C172.072 191.114 172.233 190.598 172.518 190.151C172.804 189.705 173.204 189.343 173.678 189.103C174.394 188.661 175.152 188.292 175.941 188C183.67 185.308 191.653 183.412 199.767 182.341C200.387 182.33 201.005 182.414 201.599 182.59C201.676 182.59 201.762 182.869 201.743 183.012C201.724 183.156 201.676 183.521 201.542 183.588C200.636 184.07 199.689 184.468 198.712 184.777C192.209 186.398 185.677 187.952 179.174 189.573C178.167 189.846 177.187 190.212 176.248 190.667C176.062 190.765 175.899 190.901 175.768 191.066C175.638 191.231 175.543 191.422 175.491 191.626C175.499 191.806 175.554 191.981 175.65 192.133C175.746 192.286 175.879 192.412 176.037 192.499C178.554 193.512 181.149 194.32 183.797 194.916C189.786 195.997 195.828 196.768 201.896 197.227C219.724 198.365 237.613 198.154 255.408 196.594C268.165 195.405 280.826 193.63 293.401 191.175C295.252 190.81 297.094 190.369 298.916 189.88C299.426 189.653 299.896 189.345 300.307 188.969C299.923 188.528 299.626 187.837 299.147 187.674C297.756 187.193 296.324 186.843 294.869 186.628C287.387 185.625 279.896 184.665 272.395 183.751C271.388 183.626 270.045 183.463 269.614 184.585C268.866 186.504 267.446 186.456 266.017 186.024C262.257 184.873 258.2 184.547 255.159 181.459C253.634 179.895 251.265 180.173 249.183 179.905C248.908 179.826 248.655 179.685 248.444 179.492C248.232 179.299 248.068 179.059 247.965 178.792C247.649 177.833 248.445 177.248 249.241 176.998C250.548 176.57 251.939 176.462 253.296 176.685C254.653 176.907 255.937 177.452 257.039 178.274C259.072 179.703 261.202 179.962 263.552 180.077C274.458 180.586 285.344 181.334 296.068 183.578C298.523 184.096 300.95 184.768 303.348 185.497C304.332 185.854 305.252 186.369 306.072 187.022C306.457 187.301 306.763 187.677 306.958 188.111C307.154 188.544 307.233 189.022 307.187 189.496C307.142 189.97 306.973 190.423 306.699 190.812C306.424 191.201 306.052 191.511 305.621 191.712C303.706 192.552 301.71 193.195 299.664 193.63C293.497 194.916 287.339 196.201 281.124 197.199C263.094 200.194 244.852 201.724 226.576 201.774V201.774Z" fill="#1B2B36" stroke="#1B2B36"/>
<path d="M187.567 178.37C188.094 178.418 188.929 178.476 189.753 178.581C189.857 178.602 189.955 178.643 190.042 178.703C190.13 178.762 190.204 178.838 190.262 178.926C190.262 179.003 190.118 179.31 189.974 179.377C189.606 179.556 189.216 179.685 188.813 179.761C184.468 180.499 180.123 181.286 175.769 181.919C171.829 182.609 168.066 184.076 164.7 186.235C161.928 187.875 161.765 188.297 162.312 191.309C163.386 197.526 165.286 203.571 167.961 209.284C169.592 212.686 171.139 216.133 172.604 219.624C173.038 220.798 173.337 222.017 173.496 223.259C173.496 223.499 173.122 223.854 172.853 224.084C172.767 224.161 172.412 224.084 172.277 223.931C171.788 223.536 171.35 223.081 170.973 222.578C166.014 214.962 162.024 206.896 160.154 197.928C159.425 194.417 159.348 190.954 160.95 187.521C161.506 186.322 161.966 185.228 163.089 184.643C164.865 183.553 166.745 182.641 168.7 181.919C174.821 179.974 181.157 178.783 187.567 178.37V178.37Z" fill="#1B2B36" stroke="#1B2B36"/>
<path d="M203.834 95.0665C206.827 94.7212 209.733 94.3759 212.649 94.1073C212.879 94.1073 213.368 94.5773 213.349 94.8075C213.328 95.0007 213.265 95.1869 213.164 95.3528C213.063 95.5186 212.926 95.66 212.764 95.7667C203.172 99.7952 191.538 96.6491 186.473 87.4602C185.498 85.5982 184.643 83.676 183.912 81.7052C182.397 77.9357 184.353 74.9911 187.902 73.8688C190.063 73.0719 192.368 72.7449 194.664 72.9097C200.899 73.7441 206.366 76.3339 209.896 81.8395C210.932 83.4509 213.052 84.8417 211.929 87.3164C209.858 86.8272 209.052 84.976 208.045 83.4797C205.398 79.643 201.609 77.6288 197.36 76.1229C193.945 74.9144 190.751 75.5378 187.557 76.7751C187.25 76.864 186.967 77.0183 186.726 77.2274C186.485 77.4365 186.292 77.6954 186.16 77.9863C186.029 78.2772 185.963 78.5932 185.965 78.9123C185.968 79.2315 186.04 79.5462 186.176 79.8349C187.567 82.8659 188.813 86.0598 190.741 88.7263C193.887 93.1481 198.655 94.7691 203.834 95.0665Z" fill="#1B2B36" stroke="#1B2B36"/>
<path d="M229.597 179.329C229.541 179.717 229.415 180.091 229.223 180.432C227.238 182.706 224.773 184.528 221.732 184.384C217.167 184.154 213.781 186.235 210.51 188.94C209.24 189.997 207.893 190.959 206.481 191.818C206.207 191.881 205.921 191.875 205.65 191.8C205.378 191.724 205.13 191.582 204.928 191.386C204.763 191.154 204.658 190.884 204.623 190.601C204.588 190.318 204.623 190.031 204.726 189.765C205.762 188.47 206.971 187.329 208.112 186.139C209.071 185.18 208.697 184.471 207.968 183.492C207.239 182.514 207.661 181.324 208.697 181.2C209.728 181.069 210.766 181.005 211.805 181.008C216.812 181.104 221.79 181.171 226.394 178.639C227.179 178.388 228.018 178.355 228.82 178.543C229.127 178.572 229.338 179.032 229.597 179.329Z" fill="#1B2B36" stroke="#1B2B36"/>
<path d="M293.977 137.059C288.471 137.059 284.577 136.368 281.028 134.402C279.816 133.608 278.708 132.668 277.728 131.601C277.517 131.39 277.469 130.642 277.623 130.488C278.083 130.182 278.879 129.76 279.206 129.961C282.651 131.957 286.484 133.19 290.447 133.577C295.905 134.191 300.864 133.376 305.026 129.51C305.477 129.074 305.995 128.714 306.561 128.445C306.751 128.401 306.948 128.403 307.137 128.452C307.326 128.5 307.5 128.593 307.645 128.724C307.774 128.867 307.866 129.04 307.913 129.227C307.96 129.415 307.96 129.61 307.913 129.798C307.387 130.924 306.709 131.972 305.899 132.915C303.592 135.08 300.649 136.446 297.506 136.809C296.338 136.984 295.158 137.067 293.977 137.059Z" fill="#1B2B36" stroke="#1B2B36"/>
<path d="M205.033 55.9612C205.311 53.5825 205.637 50.4652 206.05 47.3287C206.194 46.2065 207.076 45.4967 207.594 45.9379C208.112 46.3791 208.553 46.8491 208.553 47.3287C208.764 49.411 208.719 51.5112 208.419 53.5825C206.827 60.853 208.726 66.8094 214.462 71.5573C214.729 71.8667 214.92 72.2347 215.018 72.6316C215.085 72.8042 215.095 73.1303 215.018 73.1974C214.692 73.4181 214.251 73.7538 213.953 73.677C213.142 73.513 212.372 73.1867 211.69 72.7179C209.647 71.2328 207.978 69.2936 206.812 67.0532C205.647 64.8128 205.018 62.3324 204.975 59.8075C205.004 58.81 205.033 57.7645 205.033 55.9612Z" fill="#1B2B36" stroke="#1B2B36"/>
<path d="M251.102 66.2145C245.011 65.2553 239.688 67.8643 235.065 72.1422C232.935 74.0605 231.123 76.42 229.127 78.5302C228.967 78.6348 228.781 78.6959 228.59 78.7077C228.398 78.7195 228.207 78.6814 228.034 78.5973C227.882 78.472 227.763 78.3111 227.687 78.1287C227.612 77.9463 227.583 77.7482 227.602 77.5519C227.868 76.569 228.285 75.6336 228.84 74.7799C231.346 71.4257 234.484 68.5942 238.077 66.4447C243.381 63.1835 249.069 62.8766 254.958 64.3154C255.363 64.4245 255.74 64.6209 256.061 64.8908C256.38 65.1285 256.609 65.4663 256.713 65.85C256.713 66.0227 256.205 66.4639 255.927 66.4639C254.469 66.4351 253.011 66.32 251.102 66.2145Z" fill="#1B2B36" stroke="#1B2B36"/>
<path d="M239.007 88.2082C236.215 87.7861 233.472 87.8054 231.266 85.8391C231.12 85.7002 231.004 85.5336 230.923 85.3492C230.842 85.1647 230.799 84.966 230.796 84.7647C230.796 84.5729 231.487 84.2276 231.755 84.314C235.345 85.4649 239.164 85.712 242.872 85.0333C248.57 84.1701 253.174 81.7338 254.967 75.7102C255.221 74.9206 255.586 74.1713 256.051 73.485C256.185 73.2739 256.761 73.3027 257.125 73.3123C257.25 73.3123 257.423 73.6288 257.461 73.811C257.969 76.4679 256.914 78.722 255.543 80.8226C253.816 83.4879 251.176 85.4319 248.119 86.2898C245.145 87.1723 242.047 87.6231 239.007 88.2082Z" fill="#1B2B36" stroke="#1B2B36"/>
<path d="M284.558 174.802C287.713 175.224 291.051 175.512 294.331 176.164C299.837 177.258 305.611 176.97 310.896 179.224C311.797 179.68 312.648 180.226 313.438 180.854C313.502 180.938 313.547 181.034 313.57 181.137C313.594 181.24 313.594 181.346 313.572 181.449C313.545 181.539 313.496 181.62 313.429 181.685C313.362 181.751 313.279 181.798 313.189 181.823C312.591 181.914 311.983 181.914 311.386 181.823C302.462 179.617 293.399 178.015 284.26 177.027C283.441 176.902 282.649 176.636 281.92 176.241C281.632 176.107 281.507 175.608 281.316 175.282C281.498 175.18 281.691 175.099 281.891 175.042C282.716 174.927 283.55 174.879 284.558 174.802Z" fill="#1B2B36" stroke="#1B2B36"/>
<path d="M192.151 138.382C195.47 138.785 198.386 139.044 201.273 139.504C204.818 140.021 208.124 141.596 210.759 144.022C211.48 144.766 212.082 145.617 212.543 146.545C212.601 146.735 212.613 146.937 212.58 147.133C212.546 147.329 212.468 147.515 212.352 147.677C212.188 147.897 211.699 147.916 211.392 147.945C211.184 147.927 210.991 147.827 210.855 147.667C206.855 142.996 201.484 141.739 195.662 141.49C192.967 141.365 190.271 141.058 187.576 140.771C187.416 140.695 187.278 140.58 187.175 140.435C187.072 140.291 187.009 140.122 186.991 139.946C187.039 139.591 187.394 139.063 187.691 138.986C189.264 138.718 190.895 138.545 192.151 138.382Z" fill="#1B2B36" stroke="#1B2B36"/>
<path d="M309.323 123.438C309.323 123.601 309.323 123.813 309.218 123.918C309.112 124.024 308.844 124.263 308.69 124.225C307.872 124.133 307.069 123.933 306.302 123.63C304.624 122.738 302.983 121.779 301.362 120.82C299.696 119.919 297.862 119.369 295.975 119.204C294.088 119.039 292.187 119.263 290.389 119.861C286.737 120.852 283.286 122.475 280.194 124.657C279.81 124.944 279.148 124.858 278.62 124.935C278.678 124.388 278.515 123.573 278.822 123.323C283.599 119.155 289.747 116.898 296.087 116.983C298.177 117.128 300.218 117.686 302.091 118.623C304.337 119.765 306.509 121.046 308.594 122.46C308.949 122.642 309.093 123.103 309.323 123.438Z" fill="#1B2B36" stroke="#1B2B36"/>
<path d="M226.326 64.2287C226.22 64.7919 226.053 65.3418 225.828 65.8689C225.665 66.1663 225.185 66.3101 224.868 66.454C224.782 66.454 224.504 66.2813 224.466 66.1375C224.201 65.3535 224.005 64.548 223.881 63.7299C223.084 56.5554 219.535 51.1265 213.886 46.9637C213.045 46.3743 212.241 45.7336 211.478 45.0454C211.315 44.8919 211.478 44.3644 211.536 44.0382C211.536 43.9231 211.872 43.856 212.064 43.8272C212.267 43.7644 212.484 43.7644 212.687 43.8272C220.015 47.6063 224.753 53.371 226.192 61.6198C226.282 62.4865 226.327 63.3573 226.326 64.2287V64.2287Z" fill="#1B2B36" stroke="#1B2B36"/>
<path d="M205.388 158.419C197.427 157.681 191.001 154.295 186.588 147.494C186.261 146.734 186.088 145.915 186.08 145.087C186.08 144.953 186.301 144.722 186.473 144.636C186.557 144.596 186.649 144.575 186.742 144.575C186.835 144.575 186.927 144.596 187.01 144.636C187.509 144.988 187.949 145.415 188.315 145.902C192.43 152.54 198.578 155.494 206.184 155.791C206.808 155.791 207.429 155.865 208.035 156.012C208.187 156.093 208.314 156.213 208.404 156.359C208.493 156.506 208.541 156.674 208.544 156.846C208.503 157.047 208.42 157.237 208.299 157.403C208.178 157.568 208.023 157.706 207.843 157.806C207.039 158.062 206.219 158.267 205.388 158.419V158.419Z" fill="#1B2B36" stroke="#1B2B36"/>
<path d="M296.816 99.6508C296.375 99.3342 295.857 99.152 295.809 98.8642C295.787 98.6742 295.811 98.4816 295.88 98.3029C295.948 98.1243 296.059 97.9647 296.202 97.8379C297.223 97.1278 298.29 96.4869 299.396 95.9196C303.994 93.7468 307.551 89.849 309.295 85.0714C309.477 84.4764 309.738 83.9086 310.072 83.3832C310.2 83.2505 310.359 83.152 310.535 83.0967C310.711 83.0414 310.898 83.0311 311.079 83.0668C311.252 83.15 311.401 83.2753 311.513 83.4311C311.626 83.5869 311.697 83.7683 311.721 83.9588C311.46 86.8907 310.339 89.6803 308.498 91.9774C305.645 95.8477 301.501 98.5694 296.816 99.6508V99.6508Z" fill="#1B2B36" stroke="#1B2B36"/>
<path d="M304.902 79.1533C300.413 78.8656 296.883 79.1533 293.679 81.0717C292.855 81.5704 291.761 81.4937 291.531 80.736C291.522 80.3348 291.616 79.9379 291.802 79.5823C291.988 79.2268 292.261 78.9242 292.596 78.7026C294.407 77.6961 296.37 76.9899 298.408 76.6115C301.127 76.4089 303.859 76.4506 306.571 76.7362C308.23 76.8417 310.005 78.2997 309.448 78.5395C308.504 78.8966 307.511 79.11 306.504 79.1725C305.97 79.2153 305.434 79.2088 304.902 79.1533Z" fill="#1B2B36" stroke="#1B2B36"/>
<path d="M218.039 192.297C217.607 191.884 217.23 191.417 216.917 190.906C216.821 190.705 217.147 190.158 217.416 189.947C218.442 189.272 219.609 188.84 220.828 188.686C222.047 188.531 223.284 188.657 224.447 189.055C224.617 189.157 224.762 189.296 224.87 189.462C224.978 189.629 225.047 189.817 225.07 190.014C225.07 190.331 224.888 190.974 224.677 190.974C222.5 191.463 220.313 191.866 218.039 192.297Z" fill="#1B2B36" stroke="#1B2B36"/>
<path d="M280.702 189.228C280.462 189.506 280.251 190.014 279.982 190.033C277.721 190.301 275.441 189.727 273.575 188.422C273.433 188.295 273.321 188.138 273.248 187.962C273.175 187.786 273.142 187.596 273.153 187.405C273.153 187.079 273.556 186.504 273.757 186.513C276.201 186.477 278.593 187.219 280.587 188.633C280.711 188.729 280.663 189.026 280.702 189.228Z" fill="#1B2B36" stroke="#1B2B36"/>
<path d="M255.485 190.475C255.198 190.734 254.824 191.319 254.411 191.357C253.999 191.396 253.356 190.964 252.828 190.743C253.049 190.225 253.145 189.525 253.538 189.247C254.238 188.739 255.159 189.285 255.485 190.475Z" fill="#1B2B36" stroke="#1B2B36"/>
<path d="M189.801 191.673C189.66 191.935 189.461 192.162 189.219 192.336C188.977 192.51 188.699 192.628 188.406 192.679C188.113 192.731 187.812 192.716 187.525 192.635C187.238 192.553 186.974 192.408 186.751 192.211C186.654 192.059 186.597 191.886 186.586 191.706C186.574 191.527 186.608 191.347 186.684 191.184C187.442 190.455 188.334 189.88 189.37 190.618C189.638 190.839 189.667 191.309 189.801 191.673Z" fill="#1B2B36" stroke="#1B2B36"/>
</svg>
