<svg width="1400" height="860" viewBox="0 0 1400 860" fill="none" xmlns="http://www.w3.org/2000/svg">
<path d="M573.169 720.131C572.734 718.989 572.522 717.774 572.545 716.552C572.545 700.965 581.748 689.73 605.278 689.73C612.086 689.73 618.995 690.366 625.08 690.366H626.676C651.615 690.366 676.554 690.839 701.494 690.839C749.278 690.839 754.029 689.168 774.042 689.168C794.056 689.168 808.957 690.415 809.868 717.849C802.598 721.091 792.66 722.026 782.085 722.026C767.82 722.026 752.407 720.33 740.873 720.33C737.307 720.33 732.144 720.642 718.702 720.642C693.476 720.642 668.212 719.395 642.986 719.395C608.645 719.395 605.889 721.889 589.653 721.889C584.106 722.01 578.566 721.419 573.169 720.131Z" fill="#E0D7B7"/>
<path d="M704.312 411.544C709.412 396.581 715.173 385.707 727.792 385.707C747.245 385.707 744.14 396.842 757.483 396.842C785.228 396.842 910.61 346.141 912.942 344.769C935.699 331.414 965.315 299.691 991.588 297.26C993.072 299.829 995.441 309.892 995.441 317.149C995.441 331.364 958.319 343.697 930.599 359.858C924.202 363.598 920.736 369.709 914.152 373.113C904.799 377.939 892.878 378.537 884.224 384.498C863.425 398.937 856.305 413.589 827.575 413.589C825.081 413.589 734.227 411.607 730.087 411.607C724.475 411.607 718.714 412.305 713.028 412.305C710.105 412.339 707.185 412.084 704.312 411.544Z" fill="#E0D7B7"/>
<path d="M612.922 411.482C623.733 406.008 636.427 399.012 648.735 399.012C652.127 399.012 653.984 403.738 653.984 407.554C653.984 411.37 652.064 411.906 633.01 411.906C622.499 411.943 615.964 412.018 612.922 411.482Z" fill="#E0D7B7"/>
<path d="M912.007 713.896C908.365 715.791 906.819 717.387 906.819 718.709C906.819 722.063 916.795 723.697 927.868 723.697C939.403 723.697 952.147 722.001 956.087 718.858C956.087 718.322 956 717.861 956 717.4C955.988 717.184 955.988 716.967 956 716.751C949.553 712.349 939.951 710.018 930.674 710.018C923.828 709.955 917.119 711.24 912.007 713.896Z" fill="#BCD4E0"/>
<path d="M916.097 795.722C915.257 795.483 914.498 795.017 913.905 794.376C913.312 793.735 912.906 792.944 912.732 792.088C912.558 791.232 912.623 790.344 912.92 789.523C913.216 788.701 913.733 787.977 914.413 787.429C938.43 767.814 946.074 730.455 958.194 730.455C964.217 730.455 965.676 740.431 965.676 749.322C965.676 759.298 964.429 760.919 964.429 767.453C964.429 769.61 964.504 771.855 964.504 774.087C964.504 792.155 951.523 798.091 933.604 798.091C927.688 798.098 921.798 797.301 916.097 795.722Z" fill="#BCD4E0"/>
<path d="M974.318 786.88C976.385 786.616 978.468 786.495 980.552 786.518C993.097 786.518 1013.66 789.998 1016.38 800.036C1007.97 805.024 977.535 813.141 956.436 813.141C947.059 813.141 939.515 811.533 936.584 807.343C936.896 806.482 937.183 805.697 937.432 804.849C944.914 801.607 953.468 802.642 960.825 799.038C968.183 795.434 966.113 788.077 974.318 786.88Z" fill="#BCD4E0"/>
<path d="M437.561 755.732C527.554 752.44 640.006 745.619 725.872 745.619C781.873 745.619 837.525 748.774 893.34 749.884C894.384 751.799 894.953 753.937 894.998 756.118C884.449 760.308 865.27 761.493 844.883 761.493C815.704 761.493 795.977 759.56 771.598 759.56C549.202 759.56 534.6 771.144 478.811 771.144C457.226 771.144 437.349 768.812 429.53 760.957C431.039 756.904 433.359 755.881 437.561 755.732Z" fill="#BCD4E0"/>
<path d="M650.904 53.0909C633.098 55.3354 613.034 71.122 613.034 88.7541C613.034 110.065 642.001 133.645 642.001 144.444C642.001 153.634 602.323 183.424 602.323 280.226C602.323 292.696 603.769 302.671 607.31 307.534L608.932 307.36C611.313 300.377 612.024 292.334 612.024 283.742C612.024 270.924 610.44 256.908 610.44 243.478C610.44 171.74 652.363 211.93 652.363 184.87C652.363 182.376 651.977 179.995 651.977 177.8C651.977 173.049 653.822 169.458 665.544 169.458C687.029 169.458 698.95 184.534 716.994 188.387L718.602 187.003C717.916 182.376 714.662 178.274 713.166 173.71C714.309 173.211 715.546 172.96 716.794 172.974C749.527 172.974 759.59 240.697 763.256 248.528C766.211 246.259 769.354 242.829 769.354 238.939C769.354 174.982 707.068 135.179 688.563 135.179C684.573 135.179 680.47 135.628 676.904 135.628C672.29 135.628 666.928 134.518 666.928 129.892C666.928 121.088 694.735 116.262 694.735 98.044C694.735 78.0053 675.42 52.8789 654.259 52.8789C653.137 52.8795 652.017 52.9503 650.904 53.0909Z" fill="#BCD4E0"/>
<path d="M1033.07 405.022C1031.94 410.646 1031.05 430.984 1031.05 450.811C1031.05 494.38 1030.34 499.816 1056.54 499.816C1074 499.816 1174.66 485.327 1193.47 447.88C1195.97 443.042 1196.39 429.936 1196.39 415.26C1196.39 405.284 1196.17 394.622 1196.17 385.332C1196.17 365.269 1197.24 367.775 1197.24 360.568C1197.24 353.909 1196.13 343.634 1190.88 343.634C1181.19 343.634 1193.92 362.039 1119.91 384.971C1104.8 389.647 1035.81 391.343 1033.07 405.022Z" fill="#F1FBFB"/>
<path d="M1038.41 537.35L1037.93 537.101C1034.4 541.141 1031.69 562.402 1031.69 581.568C1031.69 615.398 1036.82 617.555 1057.15 617.555C1065.26 617.555 1194.32 600.409 1194.32 538.273C1194.32 534.532 1194.23 530.903 1194.23 527.736C1194.23 520.791 1195.11 516.214 1195.11 509.58C1195.11 503.844 1194.33 498.358 1191.29 494.617C1171.13 499.729 1204.1 505.927 1108.92 527.574C1088.86 532.188 1055.42 528.073 1038.41 537.35Z" fill="#F1FBFB"/>
<path d="M1010.52 132.635C1002.82 137.049 1001.03 154.37 1001.03 172.613C1001.03 188.599 1002.41 205.296 1002.41 214.661C1002.41 221.943 999.469 249.152 999.469 275.587C999.469 319.343 1005.7 326.077 1021.04 326.077C1059.26 326.077 1130.46 298.868 1130.46 238.852C1130.46 220.97 1127.37 201.655 1127.37 182.127C1127.37 168.024 1129.13 163.897 1129.13 142.686C1129.13 121.013 1128.54 99.9771 1114.16 99.9771C1106.26 99.9771 1097.21 105.613 1091.05 108.431C1065.48 120.128 1032.19 120.19 1010.52 132.635Z" fill="#F1FBFB"/>
<path d="M169.637 353.984C169.139 577.602 166.408 515.341 166.408 546.142C166.408 601.183 255.042 626.022 289.533 626.022C321.256 626.022 327.042 613.228 327.042 581.53C327.042 577.253 326.93 573.4 326.93 570.445V570.195C326.93 533.123 323.788 494.23 323.788 458.742C323.788 451.796 324.785 443.092 324.785 434.525C324.785 374.671 265.205 410.833 190.936 368.698C183.703 364.596 177.331 356.977 169.637 353.984Z" fill="#F1FBFB"/>
<path d="M377.332 250.111C377.332 247.226 377.332 244.354 377.332 241.494C377.332 222.478 377.869 203.474 377.869 184.421C377.869 171.477 375.287 159.294 375.287 145.466C375.287 121.324 379.976 110.039 428.209 110.039C457.737 110.039 465.244 105.962 465.244 201.828C465.244 261.172 464.77 273.741 415.614 273.741C400.9 273.741 386.934 271.247 381.809 266.259C377.756 262.394 377.382 255.161 377.332 250.111Z" fill="#F1FBFB"/>
<path d="M782.11 491.063C785.963 482.447 825.031 427.181 835.318 423.303C841.182 421.22 847.378 420.231 853.599 420.385C903.477 420.385 918.591 420.448 918.591 469.615C918.591 493.208 915.311 504.044 915.311 524.482C915.311 543.062 917.194 557.389 917.194 580.147C917.194 603.839 915.299 633.766 915.299 639.764C915.299 647.495 916.695 656.985 916.695 665.663C916.695 682.41 915.723 690.428 862.652 690.428C845.755 690.428 829.831 689.431 823.784 689.431C819.656 689.431 810.903 691.6 803.957 691.6C791.712 691.6 795.34 684.206 789.829 678.707C769.241 658.219 768.481 613.864 768.481 583.251C768.393 547.675 772.808 511.788 782.11 491.063Z" fill="#F1FBFB"/>
<path d="M441.426 584.822C461.69 570.382 512.84 578.063 529.163 565.88C541.82 556.453 570.413 505.44 590.264 505.44C601.849 505.44 604.168 573.3 604.168 574.584C604.168 602.217 593.918 690.826 569.49 690.826C558.267 690.826 548.042 684.055 531.196 684.055C521.22 684.055 481.117 686.811 474.633 686.811C452.288 686.811 439.905 681.599 439.905 661.71C439.905 650.662 442.062 651.41 442.062 611.108C442 602.304 441.825 593.526 441.426 584.822Z" fill="#F1FBFB"/>
<path d="M461.64 537.35C461.64 531.826 458.784 529.868 455.068 529.868C451.31 530.131 447.673 531.304 444.469 533.285C443.147 528.721 442.349 514.73 442.349 498.283C442.349 413.489 441.987 417.766 535.036 417.766C556.646 417.766 586.486 417.704 596.025 420.384C596.025 421.731 543.578 495.352 540.074 503.844C534.151 518.246 532.754 558.711 470.368 558.711C464.134 558.711 458.859 556.865 458.859 550.543C458.822 546.179 461.64 541.577 461.64 537.35Z" fill="#F1FBFB"/>
<path d="M1173.66 348.622C1173.66 344.096 1175.22 335.155 1179.38 335.155C1180.63 335.155 1182.04 335.915 1183.75 337.786C1182.71 341.976 1178.15 347.737 1173.66 348.622Z" fill="#F1FBFB"/>
<path d="M1176.68 495.764C1176.3 494.759 1176.1 493.695 1176.09 492.621C1176.07 490.947 1176.68 489.326 1177.81 488.091C1178.94 486.856 1180.5 486.099 1182.17 485.975C1183.42 485.975 1184.41 486.611 1184.41 487.933C1184.41 489.616 1182.84 492.434 1178.32 496.512L1176.68 495.764Z" fill="#F1FBFB"/>
<path d="M173.79 336.152C173.521 334.952 173.329 333.736 173.216 332.511C175.885 330.092 178.204 329.094 180.237 329.094C184.464 329.094 186.945 333.646 186.945 338.621C187.009 340.618 186.602 342.602 185.757 344.413C184.912 346.224 183.653 347.811 182.082 349.046C176.833 346.29 174.937 342.113 173.79 336.152Z" fill="#F1FBFB"/>
<path d="M461.004 539.133C460.156 540.991 460.019 543.061 459.27 544.944C461.128 548.261 463.71 549.121 467.089 549.121C480.893 549.121 494.21 537.013 506.605 537.013C508.363 537.013 510.134 537.126 511.88 537.126C519.1 537.126 521.856 534.943 525.372 529.918C525.227 528.819 525.156 527.71 525.16 526.601C525.16 508.844 542.929 491.985 552.818 477.608C584.815 431.096 581.997 411.257 631.576 411.257C674.996 411.257 657.862 439.775 677.564 439.775C698.027 439.775 687.839 412.417 723.702 412.417C732.331 412.417 741.16 413.526 749.365 413.526C766.66 413.526 784.567 412.466 802.298 412.466C814.309 412.336 826.313 413.048 838.224 414.599C838.224 414.811 838.224 415.023 838.224 415.235C838.224 432.38 773.668 459.465 773.668 522.823C773.668 525.467 773.668 528.11 773.668 530.716C773.668 545.817 771.81 566.579 771.81 584.236C771.81 656.647 795.116 678.494 795.615 687.148C786.569 689.897 777.147 691.202 767.695 691.014C738.242 691.014 769.354 687.385 616.401 687.273C613.084 687.273 606.25 688.059 599.554 688.059C592.596 688.059 581.86 687.223 581.86 680.24C581.86 665.127 601.649 703.209 601.649 560.656C601.649 549.333 601.574 541.951 601.574 539.632C601.574 537.712 601.649 534.981 601.649 531.876C601.649 520.765 601.013 502.822 590.426 502.822C572.146 502.822 540.174 554.907 528.826 565.045C525.085 568.387 451.452 580.096 440.292 580.183C436.389 572.839 434.805 567.589 434.805 563.686C434.83 550.156 453.933 552.675 461.004 539.133Z" fill="#DBDFC9"/>
<path d="M644.42 389.161C645.081 388.949 646.166 388.375 646.353 388.6C648.697 391.206 650.755 392.752 653.934 389.311C655.181 387.951 657.8 387.889 659.695 387.041C661.591 386.193 663.948 385.532 664.92 384.023C666.579 381.455 667.414 378.3 668.362 375.295C668.512 374.858 667.963 373.886 667.477 373.599C665.98 372.701 664.272 372.127 662.788 371.217C657.127 367.713 651.241 364.496 645.941 360.506C627.112 346.315 616.476 327.025 611.849 304.168C611.089 300.427 610.316 296.599 609.355 292.87C609.175 292.395 608.896 291.962 608.537 291.601C608.178 291.24 607.748 290.959 607.273 290.775C606.849 290.626 605.552 291.735 605.328 292.471C604.555 294.965 602.921 297.634 606.575 299.766C607.896 300.539 606.824 302.572 605.565 303.133C601.899 304.791 600.801 308.046 599.791 311.45C599.416 312.441 599.354 313.523 599.612 314.551C599.871 315.579 600.438 316.503 601.238 317.199C602.878 318.51 604.42 319.939 605.851 321.476C606.682 322.582 607.12 323.933 607.098 325.316C607.099 325.991 606.956 326.658 606.678 327.273C606.401 327.888 605.996 328.436 605.49 328.883C603.333 330.055 603.569 327.785 603.47 326.713C603.406 325.657 603.079 324.635 602.519 323.737C601.96 322.84 601.185 322.097 600.265 321.575C595.277 318.583 594.03 314.156 595.539 308.881C596.412 305.789 595.539 303.706 593.444 301.399C586.873 294.08 585.601 285.189 586.71 275.787C587.446 269.664 589.965 265.225 596.823 264.215C600.028 263.741 600.265 262.893 599.966 259.925C599.205 252.269 597.971 244.613 597.809 236.944C597.721 229.928 598.209 222.918 599.267 215.982C601.681 198.526 608.081 181.86 617.972 167.276C619.966 164.391 622.149 161.642 624.506 159.046C627.823 155.305 630.267 154.37 629.918 155.891C629.439 157.837 628.593 159.674 627.424 161.303C618.546 174.047 610.877 187.352 606.799 202.527C603.887 213.745 602.095 225.223 601.45 236.794C601.088 242.306 602.347 247.792 601.637 253.354C601.437 254.875 602.659 256.633 603.445 258.18C603.675 258.411 603.956 258.585 604.266 258.689C604.575 258.793 604.905 258.823 605.228 258.778C605.568 258.733 605.894 258.613 606.183 258.428C606.471 258.242 606.716 257.996 606.899 257.706C607.475 256.087 607.893 254.417 608.146 252.718C609.393 243.989 610.353 235.26 611.887 226.694C613.313 218.016 616.268 209.661 620.615 202.016C621.246 201.212 622.02 200.531 622.897 200.009C623.033 199.959 623.178 199.942 623.321 199.959C623.464 199.977 623.601 200.028 623.72 200.108C623.995 200.295 624.381 200.707 624.331 200.919C623.959 202.599 623.45 204.247 622.81 205.844C615.765 221.431 613.77 238.178 612.622 255.1C612.548 256.347 613.495 257.656 614.219 258.778C614.942 259.9 617.348 259.938 617.959 258.99C619.057 257.207 619.93 255.249 621.114 253.541C625.367 246.98 631.881 242.21 639.42 240.136C643.137 239.054 647.049 238.81 650.872 239.421C654.696 240.032 658.336 241.483 661.531 243.671C664.726 245.858 667.396 248.727 669.349 252.07C671.303 255.413 672.49 259.148 672.826 263.005C673.188 266.41 671.729 270.051 674.073 273.206L683.438 272.432C685.844 272.233 688.924 272.881 690.471 271.634C692.017 270.387 691.792 267.27 692.329 264.976C694.947 253.753 700.958 245.348 711.32 239.824C723.665 233.24 741.895 241.146 745.549 251.483C745.972 252.826 746.541 254.118 747.245 255.337C748.28 257.02 748.155 260.324 750.512 260.063C753.131 259.788 755.737 258.155 757.994 256.596C758.729 256.085 758.642 253.977 758.505 252.631C757.158 239.7 755.263 226.881 751.111 214.486C750.161 212.217 749.451 209.856 748.991 207.441C748.679 204.672 745.125 202.203 748.093 199.111C751.547 200.233 752.17 203.737 753.717 206.281C755.231 209.058 756.276 212.066 756.809 215.184C758.567 223.402 760.101 231.682 761.622 239.949C762.209 243.054 762.333 246.184 765.712 247.967C767.932 249.214 767.122 251.645 767.109 253.703C767.109 258.978 767.284 259.938 771.648 260.137C777.883 260.486 780.377 264.153 781.487 269.29C783.294 277.566 782.864 286.175 780.24 294.229C779.877 295.604 779.138 296.85 778.104 297.826C777.071 298.802 775.785 299.47 774.391 299.753C769.69 300.639 768.057 303.594 767.857 307.921C767.789 309.321 767.589 310.711 767.259 312.073C767.159 312.485 766.324 313.108 766.012 313.009C765.356 312.788 764.814 312.317 764.503 311.699C763.98 310.415 763.693 309.046 763.655 307.659C763.805 304.168 764.254 300.689 764.478 297.197C764.464 296.203 764.352 295.213 764.141 294.242C763.336 295.232 762.669 296.327 762.159 297.496C761.786 299.21 761.503 300.941 761.311 302.684C759.21 313.729 755.487 324.402 750.263 334.357C739.988 353.66 723.889 365.893 703.664 373.187C701.681 373.898 699.611 374.372 697.628 375.07C696.119 375.594 693.887 375.332 693.887 377.814C693.887 380.295 695.521 383.001 697.728 383.537C702.155 384.585 706.619 385.495 711.083 386.368C711.418 386.429 711.762 386.411 712.089 386.315C712.416 386.22 712.716 386.05 712.966 385.819C715.098 382.889 717.717 384.098 720.522 384.398C724.662 384.834 729.027 383.762 732.992 384.585C747.781 387.602 762.321 385.507 776.973 383.55C787.048 382.215 796.905 379.561 806.289 375.656C821.252 369.421 836.216 363.586 851.267 357.762C861.068 354.021 871.006 350.505 880.882 346.901C883.513 345.941 886.369 345.355 888.751 343.971C893.806 340.794 899.451 338.673 905.348 337.736C909.376 337.2 912.443 334.619 915.324 332.037C920.003 327.777 925.322 324.276 931.085 321.663C942.994 316.201 953.244 308.195 963.856 300.726C971.898 295.077 979.68 289.054 987.76 283.481C989.24 282.578 990.444 281.287 991.242 279.748C992.04 278.209 992.401 276.481 992.286 274.752C992.137 254.376 992.078 234.009 992.112 213.65C992.112 197.141 992.112 180.643 992.286 164.146C992.286 158.884 992.922 153.646 993.346 148.397C993.346 148.01 994.331 147.312 994.494 147.399C995.03 147.698 995.74 148.259 995.74 148.771C996.214 154.357 996.9 159.993 996.987 165.542C997.125 198.899 997.1 232.255 997.15 265.624C997.15 268.417 997.27 271.206 997.511 273.991C997.511 274.452 998.359 275.113 998.895 275.238C999.223 275.29 999.559 275.264 999.875 275.162C1000.19 275.06 1000.48 274.886 1000.72 274.652C1001.81 272.894 1002.65 270.973 1003.73 269.203C1003.92 268.973 1004.17 268.797 1004.45 268.692C1004.73 268.587 1005.03 268.557 1005.33 268.604C1005.78 268.854 1005.94 269.664 1006.12 270.263C1006.17 270.611 1006.13 270.966 1006.02 271.298C1003.52 283.693 1005.79 295.738 1008.72 307.734C1009.41 310.527 1011.83 313.271 1009.12 316.226C1005.84 314.567 1005.38 311.088 1004.79 308.22C1003.4 302.085 1002.65 295.813 1001.81 289.516C1001.49 287.097 1001.7 284.603 1001.51 282.159C1001.51 281.635 1000.67 280.7 1000.42 280.762C999.481 281.012 998.247 281.361 997.848 282.084C997.237 283.339 996.884 284.705 996.813 286.099C996.451 290.301 996.227 294.504 995.977 298.706C995.84 301.2 995.84 303.619 995.616 306.063C995.616 306.649 994.917 307.198 994.531 307.759C994.144 307.26 993.471 306.786 993.396 306.25C993.207 304.507 993.112 302.754 993.109 301C993.109 298.195 993.109 295.377 992.985 292.571C992.748 286.797 991.451 286.012 986.962 289.03C982.872 291.76 978.869 294.616 974.904 297.509C967.808 302.684 960.95 308.183 953.705 313.059C947.537 317.085 941.169 320.798 934.627 324.182C928.392 327.486 922.282 330.79 917.094 335.679C913.015 339.611 907.842 342.218 902.255 343.16C900.159 343.385 898.137 344.066 896.332 345.156C890.172 349.545 882.94 351.178 876.044 353.685C869.148 356.191 862.19 358.673 855.344 361.428C836.977 368.711 818.709 375.931 800.615 383.537C790.378 387.852 779.492 388.363 768.818 390.233C765.363 390.832 761.847 390.969 758.38 391.48C753.164 392.264 747.857 392.218 742.656 391.343C735.735 390.183 728.777 389.286 721.832 388.276C720.803 388.016 719.715 388.131 718.763 388.599C717.81 389.067 717.055 389.859 716.632 390.832C713.976 396.169 711.195 401.456 708.614 406.83C707.18 409.823 708.178 411.083 711.844 411.195C713.951 411.195 716.058 411.195 718.166 411.195C757.146 411.195 796.13 411.195 835.119 411.195C847.701 411.195 844.134 411.968 854.272 404.773C864.41 397.578 875.059 390.408 885.446 383.213C891.56 379.044 898.372 376.007 905.56 374.247C907.929 373.636 910.236 372.763 912.605 372.152C916.521 371.142 919.576 369.297 921.409 365.381C922.43 363.582 923.956 362.121 925.798 361.179C934.988 356.091 944.415 351.39 953.556 346.215C966.674 338.734 979.542 330.89 992.66 323.458C996.239 321.438 1000.33 320.316 1004.19 318.844C1004.42 318.757 1004.89 319.057 1005.11 319.293C1005.18 319.425 1005.22 319.573 1005.22 319.724C1005.22 319.874 1005.18 320.022 1005.11 320.154C1004.26 321.214 1003.26 322.161 1002.45 323.259C1001.64 324.356 1001.08 325.478 1000.39 326.601C1001.64 327.249 1002.81 328.321 1004.13 328.471C1014.97 329.718 1025.82 330.217 1036.55 328.072C1063.76 322.66 1088.63 311.5 1112.08 297.023C1115.3 295.027 1117.91 292.035 1120.81 289.541C1121.72 288.768 1122.53 286.797 1123.98 288.631C1124.18 289.096 1124.25 289.603 1124.21 290.105C1124.16 290.608 1123.99 291.091 1123.7 291.511C1121.21 294.379 1118.82 297.609 1115.72 299.716C1091.66 316.076 1065.51 327.723 1036.77 332.985C1026.69 334.831 1016.45 333.846 1006.3 332.985C1004.21 332.898 1002.16 332.317 1000.33 331.289C995.341 328.022 991.364 329.905 986.862 332.536C972.11 341.365 957.159 349.857 942.258 358.448C938.916 360.368 935.574 362.326 932.058 363.91C928.481 365.346 925.476 367.918 923.504 371.23C922.257 373.424 919.439 375.045 916.982 376.155C913.423 377.638 909.749 378.826 905.996 379.709C899.175 381.446 892.724 384.403 886.955 388.438C878.052 394.673 869.099 400.907 860.22 407.142C859.447 407.691 858.524 408.763 858.562 409.549C858.674 411.532 860.544 411.133 861.791 411.145C869.872 411.207 878.002 411.145 886.02 411.145C890.222 411.145 892.504 412.317 891.756 413.789C890.509 416.158 888.239 415.584 886.319 415.597C875.782 415.659 865.245 415.734 854.721 415.509C850.86 415.343 847.086 416.685 844.197 419.25C831.278 430.149 819.182 441.833 809.194 455.562C800.727 467.196 792.36 478.893 783.918 490.552C782.896 491.967 781.771 493.305 780.551 494.555C780.302 494.816 779.429 494.555 778.893 494.43C778.681 494.43 778.457 493.844 778.494 493.557C778.544 492.864 778.726 492.187 779.03 491.562C782.771 485.177 786.038 478.544 790.253 472.496C803.034 453.978 816.726 436.172 833.735 421.208C834.772 420.378 835.732 419.455 836.603 418.452C836.927 418.028 836.752 417.205 836.677 416.532C836.677 416.332 836.204 416.046 835.929 416.021C834.183 415.871 832.438 415.709 830.692 415.709C791.014 415.709 751.331 415.709 711.644 415.709C710.584 415.709 709.537 415.784 708.477 415.709C707.08 415.569 705.673 415.851 704.437 416.517C703.202 417.184 702.194 418.205 701.544 419.45C697.528 425.685 693.351 431.707 688.949 437.618C686.776 440.358 684.35 442.888 681.704 445.175C680.557 446.222 679.136 446.122 678.475 444.252C678.138 443.304 677.851 441.758 677.228 441.608C666.978 438.366 661.778 429.999 656.541 421.657C656.176 421.055 655.843 420.435 655.543 419.799C655.06 418.472 654.14 417.348 652.935 416.612C651.73 415.876 650.31 415.571 648.909 415.746C645.767 415.933 642.587 415.746 639.432 415.746C624.331 415.746 609.231 415.871 594.13 415.684C592.026 415.556 589.919 415.878 587.949 416.628C585.98 417.378 584.193 418.54 582.708 420.036C579.173 423.429 575.947 427.131 573.069 431.096C561.347 448.554 549.792 466.157 538.403 483.905C533.253 491.874 528.577 500.116 523.539 508.146C521.468 511.389 519.22 514.515 516.806 517.511C515.372 519.344 515.858 520.641 517.379 521.913C518.794 522.936 520.136 524.057 521.394 525.267C521.669 525.646 521.845 526.087 521.906 526.551C521.967 527.015 521.911 527.487 521.744 527.923C521.395 528.282 520.964 528.549 520.487 528.702C520.011 528.854 519.505 528.886 519.013 528.796C516.219 527.425 513.576 525.729 510.895 524.12C508.463 522.674 505.533 522.624 504.398 524.993C501.406 531.228 495.595 532.475 489.958 534.258C486.616 535.318 483.3 536.527 479.895 537.338C477.838 537.7 475.745 537.813 473.661 537.675C473.346 537.614 473.052 537.478 472.802 537.278C472.552 537.078 472.354 536.821 472.226 536.527C472.154 536.197 472.161 535.855 472.245 535.528C472.33 535.201 472.49 534.898 472.713 534.645C473.722 533.697 474.897 532.945 476.179 532.425C478.836 531.525 481.547 530.796 484.297 530.243C490.632 528.996 496.256 526.764 500.395 521.314C502.752 518.222 506.057 516.115 510.434 516.613C510.922 516.557 511.392 516.394 511.81 516.135C512.228 515.877 512.584 515.529 512.853 515.117C514.598 512.498 516.17 509.755 517.753 507.012C534.985 476.816 553.993 447.669 574.677 419.724C574.877 419.437 575.139 419.188 575.338 418.901C576.298 417.467 575.775 415.921 574.241 415.871C571.09 415.755 567.935 415.696 564.776 415.696C538.079 415.696 511.394 415.696 484.709 415.547C481.947 415.397 479.198 415.068 476.479 414.562C476.366 414.562 476.279 413.988 476.254 413.676C476.229 413.365 476.129 412.791 476.254 412.679C476.793 412.231 477.437 411.926 478.125 411.793C481.279 411.631 484.434 411.532 487.589 411.519C517.092 411.457 546.583 411.332 576.124 411.432C581.705 411.427 587.211 410.148 592.222 407.691C602.684 402.778 613.558 398.738 624.269 394.361C630.759 391.689 637.586 389.923 644.557 389.111C644.03 390.414 643.233 391.591 642.218 392.565C641.204 393.538 639.995 394.286 638.672 394.76C635.454 396.156 632.175 397.366 628.92 398.65C620.79 401.88 612.71 405.097 604.555 408.389C604.283 408.564 604.056 408.801 603.893 409.081C603.731 409.361 603.637 409.675 603.619 409.998C603.708 410.281 603.87 410.537 604.089 410.738C604.308 410.94 604.576 411.08 604.866 411.145C618.882 411.245 632.898 411.286 646.914 411.27C649.832 411.27 650.655 410.023 649.907 407.317C648.099 401.182 646.191 395.171 644.42 389.161ZM612.124 271.946C613.134 287.596 615.004 302.509 619.942 316.924C627.935 340.217 644.208 355.954 665.706 366.678C675.174 371.605 686.195 372.625 696.406 369.521C716.669 363.536 733.391 352.874 744.402 334.357C748.199 328.04 751.27 321.313 753.555 314.306C756.464 304.913 758.296 295.22 759.016 285.413C759.602 278.493 757.557 271.522 758.892 264.539C758.966 264.178 757.408 262.968 756.872 263.118C753.268 264.09 750.637 265.973 750.225 270.188C749.504 276.847 747.379 283.277 743.99 289.054C738.778 298.494 729.887 303.021 719.35 301.138C714.554 300.145 709.845 298.765 705.272 297.01C701.082 295.551 700.858 295.239 699.299 299.03C696.306 306.275 690.57 309.767 683.363 311.375C680.946 311.89 678.444 311.843 676.048 311.237C673.653 310.632 671.428 309.485 669.546 307.884C666.94 305.864 665.182 303.158 665.469 299.766C665.619 298.145 666.716 295.264 667.377 295.264C670.519 295.264 668.449 297.758 668.536 299.093C668.576 300.143 668.836 301.173 669.3 302.117C669.764 303.06 670.422 303.895 671.23 304.567C675.981 308.594 682.278 308.694 688.949 304.966C693.812 302.247 696.219 298.482 694.224 292.783C693.935 292.14 693.886 291.414 694.087 290.738C694.498 289.99 695.496 288.867 695.97 288.98C699.149 289.765 702.417 288.88 705.584 291.573C711.482 296.624 719.051 296.885 726.545 296C728.654 295.8 730.693 295.138 732.516 294.061C734.34 292.983 735.903 291.516 737.095 289.765C745.749 276.996 746.921 266.41 740.424 253.217C736.945 246.134 723.565 240.56 715.821 243.864C709.296 246.597 703.866 251.423 700.384 257.581C697.129 263.143 695.209 269.053 697.553 275.65C698.252 277.62 696.892 279.054 694.735 278.642C686.827 276.965 678.613 277.448 670.956 280.039C670.581 280.164 669.197 278.879 669.135 278.181C668.699 273.654 668.711 269.103 668.187 264.601C667.464 258.479 665.082 253.129 659.982 249.264C656.15 246.431 651.522 244.878 646.757 244.824C641.991 244.77 637.33 246.219 633.434 248.964C620.192 257.868 618.733 274.502 623.234 285.538C624.167 287.82 625.576 289.878 627.367 291.572C629.159 293.267 631.291 294.559 633.621 295.364C641.552 298.432 648.809 296.611 655.78 292.696C658.498 291.162 660.905 289.054 663.536 287.334C663.854 287.247 664.189 287.244 664.508 287.326C664.827 287.407 665.119 287.571 665.355 287.8C665.592 288.029 665.765 288.316 665.857 288.632C665.949 288.948 665.957 289.283 665.88 289.603C665.356 290.888 664.646 292.09 663.773 293.169C660.195 297.1 655.5 299.841 650.318 301.025C646.077 302.224 641.622 302.464 637.276 301.728C632.931 300.993 628.803 299.3 625.192 296.773C617.984 291.972 616.289 284.565 616.027 276.572C615.939 274.078 616.027 271.659 616.027 269.203C616.038 268.165 615.895 267.131 615.603 266.135C615.461 265.876 615.254 265.659 615.002 265.503C614.751 265.348 614.464 265.261 614.169 265.25C613.861 265.306 613.572 265.435 613.325 265.626C613.077 265.817 612.879 266.064 612.747 266.347C612.386 268.342 612.273 270.437 612.124 271.984V271.946ZM678.699 411.145V411.207H694.423C695.122 411.207 695.82 411.145 696.518 411.207C697.742 411.35 698.98 411.101 700.053 410.496C701.126 409.891 701.98 408.961 702.491 407.841C703.565 406.044 704.535 404.187 705.397 402.279C706.843 398.538 710.06 395.321 709.661 390.832L699.461 388.812C698.775 388.675 698.102 388.475 697.404 388.4C693.962 388.001 691.318 386.218 690.371 382.964C688.787 377.539 684.759 376.467 679.984 376.28C678.936 376.28 677.901 375.981 676.866 375.868C676.007 375.694 675.114 375.821 674.337 376.227C673.561 376.634 672.948 377.295 672.602 378.1C671.417 380.594 670.17 383.088 669.06 385.682C668.601 386.818 667.898 387.839 667.002 388.675C666.106 389.511 665.038 390.141 663.873 390.52C662.227 391.094 660.556 391.63 658.96 392.303C656.179 393.475 652.924 393.55 650.618 395.832C651.702 398.775 652.75 401.718 653.872 404.648C654.246 405.621 654.82 406.519 655.206 407.479C655.596 408.648 656.367 409.652 657.396 410.331C658.425 411.009 659.652 411.322 660.88 411.22C666.828 411.133 672.764 411.182 678.699 411.182V411.145ZM678.288 415.709V415.534C674.098 415.534 669.896 415.435 665.693 415.534C664.135 415.534 661.84 414.749 661.316 417.068C661.251 418.427 661.695 419.761 662.563 420.809C665.244 424.475 667.664 428.515 671.018 431.458C681.879 440.947 679.597 441.658 688.475 429.949C691.219 426.345 693.463 422.393 695.882 418.539C696.054 418.233 696.138 417.885 696.127 417.534C696.115 417.182 696.008 416.841 695.817 416.546C695.626 416.251 695.358 416.014 695.042 415.859C694.726 415.705 694.375 415.64 694.024 415.671C688.787 415.709 683.6 415.746 678.288 415.746V415.709ZM779.616 278.543C778.955 275.5 778.22 271.397 777.122 267.407C776.78 266.406 776.085 265.562 775.168 265.035C774.25 264.507 773.172 264.331 772.134 264.539C769.914 265.025 767.915 266.228 766.448 267.964C764.98 269.7 764.126 271.87 764.017 274.141C763.867 275.874 764.578 276.51 766.511 276.148C769.603 275.562 769.591 275.699 769.079 277.907C768.63 279.902 767.832 281.972 768.032 283.929C768.529 287.372 769.228 290.782 770.127 294.142C770.389 295.277 772.359 295.9 773.631 295.476C774.647 295.185 775.566 294.624 776.29 293.854C777.015 293.084 777.517 292.132 777.746 291.1C778.519 287.359 778.905 283.518 779.616 278.543ZM590.277 282.533C590.938 285.388 591.923 290.102 593.207 294.753C593.691 296.048 594.562 297.162 595.701 297.945C596.116 298.087 596.558 298.128 596.992 298.065C597.425 298.002 597.838 297.837 598.195 297.584C599.829 293.107 602.896 288.668 600.689 283.755C599.642 281.423 599.729 280.488 601.512 278.642C604.006 276.024 603.457 271.984 600.988 270.662C596.212 268.093 591.599 270.2 590.838 275.35C590.589 277.059 590.551 278.792 590.277 282.533ZM606.986 266.035L606.637 265.2L606.462 266.759L606.986 266.035Z" fill="#1B2B36"/>
<path d="M416.949 572.752C415.994 573.778 414.913 574.679 413.731 575.433C404.267 579.885 395.551 586.082 385.126 588.351C380.562 589.337 377.981 591.88 376.085 596.108C374.091 600.594 371.535 604.81 368.479 608.652C363.117 615.261 356.084 618.877 347.28 617.905C343.714 617.518 341.532 615.186 341.831 611.495C341.932 609.064 342.552 606.683 343.652 604.512C345.638 601.226 347.917 598.125 350.46 595.247C353.864 591.232 357.618 587.516 360.997 583.488C361.359 582.925 361.605 582.295 361.718 581.635C361.832 580.975 361.811 580.299 361.658 579.648C361.425 578.781 360.896 578.023 360.162 577.506C359.429 576.989 358.537 576.745 357.643 576.817C353.44 576.817 349.238 576.979 345.036 577.216C341.033 577.428 340.123 578.276 340.048 582.354C339.948 590.783 340.048 599.213 340.048 607.63C340.034 609.356 339.85 611.077 339.499 612.767C339.412 613.191 338.477 613.69 337.903 613.715C337.33 613.74 336.407 613.266 336.32 612.867C335.906 611.188 335.676 609.47 335.634 607.742C335.547 600.372 335.634 592.99 335.534 585.621C335.434 577.765 335.31 577.665 327.03 577.628C323.526 577.628 320.009 577.864 316.505 577.902C313.7 577.902 310.882 577.902 308.088 577.74C306.335 577.552 304.646 576.97 303.15 576.037C301.653 575.104 300.387 573.845 299.447 572.353C298.594 571.223 298.08 569.875 297.963 568.465C297.846 567.054 298.131 565.64 298.786 564.385C299.739 562.291 301.237 560.492 303.123 559.175C305.01 557.859 307.216 557.074 309.51 556.903C316.468 556.055 323.476 555.656 330.459 555.045C334.437 554.721 335.16 554.01 335.384 549.883C335.384 549.533 335.384 549.184 335.384 548.835C335.247 544.284 336.22 539.283 334.636 535.306C333.24 531.764 328.987 529.37 326.032 526.427C323.538 523.933 321.044 521.527 318.7 518.945C316.126 516.006 314.786 512.187 314.959 508.284C315.096 502.647 319.224 499.206 324.735 500.178C326.112 500.41 327.451 500.83 328.713 501.425C335.883 504.892 335.247 502.56 335.31 496.438C335.559 468.007 335.788 439.572 335.995 411.133C335.995 408.639 336.145 406.232 336.382 403.788C336.473 403.482 336.633 403.2 336.849 402.965C337.065 402.729 337.332 402.546 337.629 402.429C339.075 401.905 339.462 403.202 339.549 404.1C339.761 406.594 339.774 409.013 339.786 411.457C339.936 439.547 340.077 467.633 340.21 495.714C340.21 497.822 340.335 499.942 340.21 502.036C339.948 503.767 340.188 505.537 340.902 507.135C341.616 508.733 342.774 510.093 344.238 511.052C354.214 518.197 364.027 525.604 373.966 532.812C375.711 533.978 377.57 534.964 379.515 535.754C379.822 535.839 380.145 535.845 380.455 535.771C380.764 535.697 381.05 535.545 381.285 535.33C381.439 535.04 381.52 534.717 381.52 534.389C381.52 534.061 381.439 533.737 381.285 533.447C377.706 528.26 374.178 523.023 370.362 517.998C364.222 509.879 358.798 501.242 354.151 492.185C352.019 488.045 350.56 483.806 351.308 479.067C352.081 474.079 355.049 471.935 360.187 472.284C363.027 472.413 365.723 473.575 367.768 475.551C370.704 478.545 373.46 481.709 376.023 485.028C385.587 497.148 394.952 509.418 404.641 521.452C407.696 525.193 411.499 528.46 415.003 531.876C420.066 536.864 426.051 535.168 431.875 534.046C432.333 533.824 432.73 533.495 433.034 533.087C433.338 532.679 433.539 532.204 433.62 531.702C433.918 528.915 434.06 526.113 434.044 523.31C434.207 503.358 434.306 483.295 434.481 463.281C434.544 460.847 434.757 458.419 435.117 456.011C435.117 455.637 436.089 455.101 436.576 455.138C436.898 455.173 437.208 455.281 437.483 455.454C437.757 455.627 437.989 455.86 438.159 456.136C438.553 457.09 438.768 458.109 438.795 459.141C438.895 461.635 438.795 464.054 438.795 466.51C438.854 484.799 438.912 503.055 438.97 521.277C438.97 523.771 438.97 526.19 439.132 528.647C439.109 529.077 439.193 529.507 439.377 529.897C439.562 530.287 439.84 530.625 440.188 530.88C440.536 531.135 440.942 531.299 441.37 531.358C441.797 531.416 442.232 531.367 442.636 531.215C445.629 530.23 448.547 528.983 451.564 528.098C453.074 527.604 454.673 527.443 456.251 527.626C457.828 527.809 459.348 528.332 460.705 529.158C461.631 529.659 462.425 530.373 463.023 531.239C463.621 532.106 464.006 533.102 464.146 534.146C464.521 536.406 464.363 538.722 463.686 540.911C463.008 543.099 461.83 545.1 460.243 546.753C456.912 550.405 452.655 553.089 447.923 554.521C445.591 555.257 443.197 555.868 440.953 556.816C440.51 557.046 440.125 557.375 439.829 557.777C439.533 558.179 439.333 558.644 439.244 559.135C439.12 562.277 439.307 565.445 439.394 568.587C439.457 568.913 439.566 569.228 439.718 569.522C440.031 568.947 440.314 568.356 440.566 567.752C440.691 567.44 440.566 567.041 440.666 566.717C441.252 564.946 440.404 561.878 443.559 562.252C445.716 562.514 445.23 564.996 445.354 566.617C445.498 568.718 445.498 570.826 445.354 572.927C445.055 578.787 444.482 580.408 451.876 578.588C476.092 572.739 500.508 568.026 525.522 566.742C526.375 566.806 527.228 566.627 527.983 566.225C528.738 565.823 529.364 565.215 529.787 564.472C541.009 545.618 556.783 530.43 571.111 514.095C576.174 508.334 583.144 505.777 590.19 503.508C594.08 502.261 596.05 504.543 597.385 507.76L597.634 507.473C595.352 508.284 593.083 509.144 590.776 509.967C586.478 511.405 582.167 512.81 577.845 514.182C574.862 515.235 572.258 517.149 570.363 519.681C558.167 534.645 544.788 548.548 534.001 564.572C531.295 568.612 527.766 571.418 522.903 571.405C507.341 571.405 492.34 575.021 477.214 577.902C467.588 579.722 458.036 581.917 448.41 583.763C447.04 583.947 445.738 584.472 444.622 585.289C443.507 586.105 442.614 587.188 442.025 588.439C439.817 592.398 438.674 596.862 438.708 601.395C438.87 620.66 438.795 639.939 438.708 659.204C438.608 662.321 438.308 665.428 437.81 668.507C437.81 668.881 436.763 669.379 436.227 669.367C435.94 669.306 435.675 669.172 435.456 668.977C435.237 668.783 435.073 668.535 434.98 668.257C434.693 664.778 434.394 661.287 434.369 657.795C434.256 638.18 434.219 618.553 434.132 598.938C434.132 596.831 434.02 594.736 433.87 592.703C433.892 592.359 433.811 592.016 433.637 591.718C433.463 591.42 433.204 591.181 432.894 591.031C432.583 590.881 432.235 590.827 431.893 590.876C431.552 590.925 431.233 591.075 430.977 591.307C430.166 591.955 429.63 592.965 428.782 593.539C425.191 595.958 421.687 595.048 420.403 591.107C419.443 587.75 418.676 584.34 418.108 580.895C417.56 578.189 417.136 575.445 416.662 572.727C419.53 573.55 421.65 574.984 421.837 578.351C421.88 580.441 422.076 582.524 422.423 584.586C422.809 586.518 423.196 589.174 425.578 589.187C427.959 589.199 428.495 586.568 429.318 584.685C429.648 584.076 429.883 583.42 430.017 582.74C430.848 575.167 431.634 567.598 432.373 560.033C432.373 559.634 431.688 558.861 431.214 558.786C430.886 558.73 430.551 558.746 430.23 558.832C429.91 558.918 429.611 559.073 429.356 559.285C428.109 560.532 427.099 561.903 425.927 563.175C422.984 566.255 419.966 569.497 416.949 572.752ZM352.318 561.33V561.105C349.525 561.105 346.707 560.993 343.914 561.105C342.89 561.219 341.929 561.656 341.17 562.352C339.923 563.512 339.499 568.861 340.796 570.258C341.785 571.19 343.069 571.746 344.425 571.829C347.567 571.991 350.747 571.542 353.877 571.829C356.641 572.043 359.368 572.6 361.995 573.488C363.511 573.97 364.785 575.013 365.557 576.404C366.329 577.795 366.54 579.428 366.147 580.969C365.6 583.344 364.587 585.586 363.167 587.566C360.673 590.895 357.58 593.801 354.775 596.956C352.443 599.562 349.999 602.093 347.904 604.874C345.809 607.655 345.148 611.47 346.57 612.58C349.064 614.563 352.044 613.914 354.588 612.929C360.241 610.823 364.894 606.665 367.619 601.283C369.863 596.931 371.945 592.466 374.452 588.264C375.519 586.496 377.091 585.089 378.966 584.224C386.618 580.799 394.438 577.761 402.396 575.121C411.212 572.415 417.809 567.103 423.52 560.232C425.528 557.813 427.386 554.758 430.042 553.524C434.319 551.529 434.119 548.374 433.932 544.795C433.77 541.715 432.523 540.692 429.119 540.717C428.068 540.734 427.018 540.813 425.977 540.954C420.689 541.653 416.624 539.458 412.609 536.178C405.907 530.518 399.867 524.117 394.603 517.1C386.66 506.862 378.916 496.463 370.985 486.2C368.653 483.182 366.646 479.816 363.042 477.945C362.516 477.628 361.916 477.453 361.302 477.436C360.688 477.419 360.079 477.561 359.536 477.848C358.993 478.136 358.533 478.558 358.201 479.076C357.87 479.593 357.677 480.187 357.643 480.801C357.397 484.682 358.431 488.536 360.586 491.774C365.1 499.256 369.651 506.737 374.452 514.07C377.719 519.058 381.634 523.597 384.864 528.597C386.711 531.545 388.154 534.729 389.154 538.061C389.441 539.741 389.075 541.468 388.131 542.887C387.084 544.533 385.014 544.234 383.343 543.66C381.679 543.104 380.089 542.35 378.604 541.416C372.369 537.463 366.135 533.522 360.149 529.333C354.974 525.741 350.049 521.776 344.974 518.023C344.156 517.386 343.231 516.901 342.243 516.589C341.781 516.464 340.672 517.037 340.634 517.387C340.335 519.806 340.347 522.262 340.073 524.681C339.499 529.669 341.195 533.323 345.797 535.904C350.332 538.541 354.701 541.457 358.877 544.633C361.439 546.454 363.735 548.624 365.698 551.08C366.339 551.921 366.749 552.916 366.887 553.964C367.025 555.013 366.887 556.079 366.486 557.058C366.086 558.037 365.437 558.894 364.603 559.545C363.769 560.196 362.78 560.618 361.733 560.769C358.606 561.119 355.464 561.306 352.318 561.33ZM321.144 573.138C323.962 573.138 326.768 573.138 329.574 573.138C334.674 573.026 335.571 572.054 335.509 566.841C335.447 562.215 334.524 561.043 330.122 561.018C325.215 560.957 320.308 561.153 315.42 561.604C311.949 562.055 308.524 562.806 305.183 563.849C303.175 564.422 302.614 567.303 303.687 569.223C304.25 570.323 305.093 571.255 306.13 571.927C307.168 572.599 308.363 572.986 309.597 573.051C313.413 573.313 317.266 573.138 321.119 573.138H321.144ZM439.02 544.57C439.02 551.578 439.631 552.052 445.454 550.805C449.585 550.118 453.432 548.262 456.54 545.456C457.993 543.987 459.141 542.245 459.919 540.331C460.285 539.535 460.424 538.652 460.319 537.782C460.214 536.912 459.869 536.088 459.324 535.402C458.779 534.716 458.054 534.194 457.23 533.896C456.406 533.597 455.515 533.532 454.657 533.709C451.315 534.445 448.198 536.129 444.893 537.089C440.641 538.311 438.11 540.543 438.995 544.57H439.02ZM351.171 556.703C354.426 556.703 356.857 556.703 359.264 556.703C359.862 556.703 360.847 556.217 360.922 555.818C361.186 554.872 361.084 553.861 360.635 552.988C355.822 547.426 349.413 543.822 343.328 539.994C343.03 539.823 342.694 539.73 342.35 539.723C342.007 539.716 341.667 539.796 341.363 539.955C341.058 540.114 340.799 540.348 340.608 540.633C340.418 540.919 340.302 541.248 340.273 541.59C340.16 543.324 340.123 545.057 340.123 546.778C340.123 556.018 340.123 556.018 348.852 556.579L351.171 556.703ZM335.509 518.908H335.384C335.384 517.511 335.384 516.127 335.384 514.743C335.454 513.525 335.165 512.314 334.553 511.259C333.942 510.204 333.034 509.352 331.943 508.807C330.167 507.753 328.312 506.84 326.394 506.077C325.745 505.828 325.041 505.762 324.357 505.884C323.673 506.007 323.036 506.313 322.513 506.772C321.991 507.23 321.604 507.822 321.393 508.484C321.183 509.146 321.157 509.853 321.319 510.528C322.566 517.586 327.341 521.963 333.102 525.492C333.427 525.679 335.01 524.719 335.147 524.095C335.4 522.378 335.513 520.643 335.484 518.908H335.509Z" fill="#1B2B36"/>
<path d="M691.493 688.221H783.158C786.313 688.221 789.467 688.109 792.622 687.947C792.966 687.935 793.302 687.838 793.6 687.664C793.897 687.49 794.146 687.244 794.324 686.949C794.503 686.655 794.605 686.32 794.621 685.976C794.637 685.632 794.567 685.289 794.418 684.979C792.93 682.194 791.388 679.446 789.792 676.736C788.644 674.791 787.41 674.853 785.814 676.425C785.452 676.774 783.544 676.312 783.133 675.701C781.913 673.988 780.978 672.089 780.364 670.077C778.843 664.316 777.397 658.518 776.274 652.62C772.515 632.61 769.946 612.394 768.581 592.08C768.094 585.441 767.986 578.779 768.256 572.128C769.081 551.788 770.937 531.503 773.818 511.351C774.043 509.985 774.463 508.658 775.065 507.411C775.252 507.037 776.237 506.974 776.861 506.899C777.072 506.899 777.509 507.298 777.521 507.523C777.774 509.558 777.828 511.613 777.684 513.658C774.667 535.554 773.312 557.647 773.631 579.747C773.818 599.138 776.449 618.241 779.367 637.32C780.801 646.684 782.833 655.949 784.567 665.264C784.991 667.596 786.051 669.005 788.632 669.217C791.213 669.429 792.024 671.374 793.096 673.195C795.39 677.135 797.785 681.026 800.029 684.991C800.477 685.931 801.185 686.723 802.069 687.273C802.953 687.824 803.976 688.109 805.017 688.096C806.775 688.096 808.533 688.171 810.292 688.196C833.46 688.429 856.637 688.67 879.823 688.919C882.616 688.919 885.421 689.131 888.202 689.405C888.689 689.405 889.1 690.266 889.549 690.727C889.013 691.151 888.526 691.862 887.953 691.974C885.886 692.262 883.804 692.42 881.718 692.448C859.597 692.697 837.471 692.926 815.342 693.134C813.945 693.134 812.536 693.134 811.127 693.134C804.892 693.246 802.137 692.959 807.249 700.466C808.474 702.184 809.347 704.127 809.818 706.184C810.289 708.24 810.348 710.37 809.992 712.449C809.897 712.732 809.733 712.987 809.515 713.191C809.298 713.396 809.033 713.543 808.745 713.622C808.412 713.623 808.083 713.544 807.788 713.389C807.492 713.235 807.239 713.011 807.05 712.736C805.665 709.532 804.556 706.215 803.059 703.06C802.21 701.527 801.194 700.092 800.029 698.783C798.296 696.538 797.261 696.513 795.041 698.596C794.031 699.518 793.084 700.528 792.049 701.414C791.89 701.487 791.714 701.517 791.539 701.499C791.365 701.481 791.199 701.416 791.058 701.311C790.918 701.206 790.808 701.066 790.741 700.904C790.674 700.742 790.652 700.565 790.677 700.391C791.113 699.144 791.612 697.798 792.148 696.526C792.784 694.992 792.535 693.695 790.752 693.483C788.312 693.235 785.859 693.131 783.407 693.171C723.353 693.171 663.299 693.205 603.245 693.271C597.41 693.271 591.561 694.443 585.788 695.191C584.57 695.429 583.428 695.962 582.463 696.742C581.498 697.522 580.739 698.527 580.251 699.668C578.281 703.409 576.76 707.287 574.927 711.065C574.777 711.389 573.755 711.377 573.131 711.352C572.932 711.352 572.607 710.803 572.595 710.504C572.458 709.478 572.504 708.435 572.732 707.424C573.892 704.132 575.226 700.878 576.535 697.648C577.845 694.418 577.246 693.383 573.505 693.284C570.7 693.196 567.894 693.284 565.088 693.284C535.585 693.159 506.073 693.013 476.554 692.847C472.015 692.847 467.463 692.373 462.924 692.012C462.376 692.012 461.877 691.251 461.365 690.839C461.939 690.278 462.475 689.293 463.111 689.231C465.892 688.944 468.71 688.832 471.516 688.807L564.215 688.096C566.323 688.096 568.442 688.208 570.537 688.096C572.632 687.984 575.151 688.308 576.623 687.248C578.094 686.188 578.381 683.757 578.88 681.824C580.189 676.836 583.256 673.095 587.01 669.803C590.291 666.635 593.287 663.184 595.963 659.491C596.07 659.373 596.201 659.279 596.347 659.217C596.494 659.154 596.652 659.124 596.811 659.129C597.132 659.164 597.429 659.314 597.646 659.553C597.891 659.799 598.034 660.129 598.046 660.476C597.272 666.012 596.612 671.574 595.626 677.073C595.165 679.567 593.806 679.978 591.424 678.12C590.177 677.11 588.93 676.524 587.883 677.721C586.489 679.245 585.336 680.974 584.466 682.846C584.296 683.344 584.235 683.872 584.287 684.396C584.339 684.919 584.504 685.425 584.769 685.879C585.034 686.333 585.393 686.725 585.823 687.028C586.253 687.331 586.742 687.538 587.259 687.635C590.391 687.963 593.537 688.129 596.686 688.134C628.276 688.134 659.887 688.134 691.518 688.134L691.493 688.221Z" fill="#1B2B36"/>
<path d="M1108.65 282.994C1102.42 282.683 1095.97 281.747 1090.34 285.601C1081.28 287.483 1072.43 288.606 1064.01 282.944C1057.91 278.842 1051.38 275.4 1045.11 271.547C1044.11 270.818 1042.9 270.452 1041.66 270.511C1040.43 270.57 1039.26 271.05 1038.34 271.871C1037.79 272.295 1037.09 272.62 1036.59 273.044L1025.78 281.411C1025.51 285.563 1025.22 289.716 1024.96 293.88C1024.63 298.793 1024.33 303.706 1021.48 307.996C1021.15 308.507 1020.7 308.932 1020.17 309.238C1019.65 309.544 1019.06 309.721 1018.45 309.755C1017.84 309.789 1017.23 309.679 1016.68 309.434C1016.12 309.189 1015.63 308.816 1015.24 308.345C1012.5 304.929 1011.5 300.789 1010.78 296.674C1009.8 290.789 1009.17 284.851 1008.88 278.892C1008.57 271.884 1010.69 265.911 1017.01 261.759C1020.75 259.121 1024.27 256.203 1027.56 253.03C1030.18 250.693 1032.62 248.158 1034.85 245.448C1037.6 242.056 1037.59 239.45 1035.32 235.834C1034.55 234.674 1033.71 233.554 1032.83 232.48C1031.09 230.26 1031.33 227.916 1032.45 225.559C1032.87 224.593 1033.37 223.663 1033.95 222.778C1035.31 220.954 1036.21 218.831 1036.59 216.587C1036.97 214.343 1036.81 212.041 1036.12 209.872C1034.93 205.392 1035.43 200.631 1037.51 196.492C1038.04 195.286 1038.84 194.223 1039.86 193.391C1040.88 192.56 1042.08 191.984 1043.37 191.712C1044.65 191.439 1045.99 191.479 1047.26 191.827C1048.52 192.175 1049.69 192.821 1050.66 193.712C1051.78 194.549 1052.71 195.616 1053.39 196.841C1056.51 203.949 1059.36 211.144 1057.58 219.175C1057.47 219.869 1057.3 220.553 1057.08 221.22C1054.82 226.943 1060.82 232.38 1066.16 232.717C1069.69 233.01 1073.22 232.172 1076.24 230.322C1081 227.355 1085.73 224.345 1090.42 221.294C1092.17 220.16 1093.79 218.8 1095.57 217.716C1095.96 217.479 1096.82 217.965 1097.43 218.214C1097.47 218.538 1097.4 218.865 1097.24 219.15C1096.11 220.892 1094.82 222.528 1093.39 224.038C1088.1 228.673 1082.07 232.372 1075.53 234.974C1073.13 236.062 1070.51 236.609 1067.87 236.577C1065.23 236.544 1062.63 235.933 1060.25 234.787C1054.19 231.944 1052.33 228.976 1053.52 222.317C1054.77 215.421 1053.52 209.074 1050.92 202.814C1050.64 202.166 1050.38 201.505 1050.06 200.882C1048.46 197.739 1045.78 196.068 1043.5 196.779C1041.22 197.49 1039.85 200.208 1039.93 203.75C1039.91 205.151 1040.08 206.549 1040.44 207.902C1041.41 210.555 1041.73 213.402 1041.37 216.203C1041.01 219.004 1039.98 221.678 1038.37 224C1037.62 224.972 1037.22 226.169 1037.24 227.397C1037.26 228.625 1037.69 229.81 1038.47 230.759C1043.65 238.041 1041.45 244.712 1036.44 250.935C1031.05 257.454 1024.77 263.179 1017.79 267.943C1015.87 269.138 1014.33 270.851 1013.35 272.883C1012.37 274.916 1011.98 277.185 1012.24 279.428C1012.61 287.172 1013.27 294.816 1016.28 302.048C1016.42 302.342 1016.63 302.598 1016.9 302.793C1017.16 302.988 1017.46 303.118 1017.79 303.17C1018.11 303.094 1018.42 302.941 1018.67 302.724C1018.93 302.507 1019.13 302.233 1019.26 301.923C1020.78 296.137 1021.69 290.264 1019.84 284.466C1019.25 282.558 1018.98 281.136 1020.65 279.889C1025.98 275.891 1031.32 271.917 1036.68 267.968C1040.21 265.375 1043.65 265.474 1047.41 267.806C1053.38 271.485 1059.67 274.64 1065.58 278.406C1069.72 281.126 1074.67 282.329 1079.59 281.81C1082.73 281.523 1086.15 281.81 1088.96 280.712C1096.13 277.819 1103.35 278.343 1110.7 279.179C1111.4 279.253 1112.09 279.341 1112.79 279.366C1116.26 279.44 1120.51 280.85 1122.88 278.119C1125.54 275.076 1127.1 270.899 1128.44 266.971C1129.03 265.225 1127.92 262.893 1127.53 260.836C1127.53 260.586 1127.1 260.162 1126.97 260.187C1126.35 260.374 1125.54 260.524 1125.19 260.985C1124.62 261.834 1124.14 262.746 1123.78 263.704C1122.32 266.983 1119.64 268.305 1116.21 268.342C1110.27 268.405 1104.34 268.455 1098.4 268.405C1098 268.405 1097.34 267.557 1097.29 267.071C1097.29 266.736 1097.36 266.405 1097.49 266.097C1097.61 265.788 1097.8 265.509 1098.04 265.275C1100.36 263.091 1103.43 261.885 1106.62 261.908C1110.76 261.908 1115.55 264.14 1118.82 261.759C1121.61 259.726 1122.31 255.025 1124.5 251.92C1126.43 249.411 1127.39 246.288 1127.2 243.129C1127.1 241.383 1127.2 239.625 1127.2 237.867C1126.8 223.751 1128.23 227.105 1119.48 216.045C1116.01 211.68 1113.34 206.68 1110.06 202.141C1109.07 201.235 1107.76 200.76 1106.42 200.819C1105.74 200.819 1104.8 202.066 1104.41 202.902C1101.92 208.314 1103.99 213.376 1106.6 217.865C1109.03 222.055 1112.54 225.609 1115.66 229.375C1116.77 230.709 1118.23 231.744 1119.34 233.116C1119.99 233.967 1120.32 235.023 1120.26 236.094C1120.2 237.164 1119.76 238.178 1119.02 238.951C1115.52 241.807 1111.81 244.413 1108.1 247.007C1107.79 247.11 1107.45 247.13 1107.12 247.067C1106.8 247.004 1106.49 246.859 1106.23 246.645C1105.89 245.86 1105.57 244.488 1106 244.027C1108.09 241.707 1110.41 239.575 1112.68 237.405C1113.77 236.37 1114.49 235.398 1112.99 234.088C1108.92 230.742 1105.47 226.713 1102.78 222.18C1100.88 219.011 1099.71 215.462 1099.34 211.786C1098.98 208.111 1099.43 204.4 1100.66 200.919C1101.91 197.24 1104.04 194.684 1108.23 195.033C1110.72 195.27 1112.11 194.123 1113.45 192.34C1117.19 187.352 1120.01 181.541 1125.16 177.538C1126.31 176.641 1126.81 174.508 1127 172.862C1127.21 170.062 1127.27 167.252 1127.2 164.445C1127.37 147.96 1127.52 131.463 1127.74 114.966C1127.74 111.474 1128.08 107.983 1128.36 104.491C1128.36 104.204 1129.15 103.88 1129.6 103.755C1129.8 103.755 1130.33 104.092 1130.35 104.316C1130.81 109.192 1131.5 114.068 1131.6 118.956C1131.83 133.346 1131.82 147.736 1131.92 162.126C1131.92 164.932 1132 167.737 1132.15 170.53C1132.13 171.23 1132.39 171.908 1132.87 172.42C1133.35 172.932 1134 173.238 1134.7 173.274C1135.75 173.311 1136.8 173.431 1137.83 173.635C1143.97 175.493 1146.56 179.783 1144.35 185.694C1143.14 188.581 1141.45 191.248 1139.37 193.587C1130.87 204.049 1132.21 199.51 1132.07 214.311C1132.07 218.489 1131.7 222.679 1133.51 226.781C1134.75 229.749 1134.3 232.879 1133.28 236.009C1132.6 238.335 1132.22 240.742 1132.17 243.166C1132.25 243.651 1132.43 244.112 1132.72 244.513C1133 244.913 1133.37 245.242 1133.8 245.473C1135.39 246.171 1137.22 246.259 1138.79 246.895C1142.91 248.516 1144.28 252.319 1142.25 256.334C1141.54 257.544 1140.76 258.714 1139.93 259.838C1135.87 265.973 1131.72 272.046 1127.83 278.281C1126 281.211 1123.68 282.994 1120.23 283.057C1116.36 283.044 1112.56 282.994 1108.65 282.994ZM1127.36 191.492C1126.98 190.008 1126.4 187.751 1125.81 185.444C1122.2 185.12 1121.66 188.524 1119.96 190.432C1118.34 192.273 1116.95 194.304 1115.81 196.48C1115.21 197.728 1115.04 199.141 1115.34 200.495C1116.2 204.236 1120.25 209.324 1121.09 208.376C1123.24 206.126 1125 203.535 1126.31 200.707C1127.26 198.213 1126.96 195.245 1127.32 191.504L1127.36 191.492ZM1132.07 189.085C1132.07 188.15 1131.98 189.198 1132.17 190.195C1132.21 190.51 1132.31 190.814 1132.48 191.089C1132.64 191.363 1132.85 191.602 1133.11 191.791C1133.42 191.874 1133.75 191.878 1134.06 191.804C1134.38 191.73 1134.67 191.58 1134.91 191.367C1136.77 189.394 1138.44 187.257 1139.9 184.983C1140.44 184.072 1140.05 182.289 1139.54 181.155C1138.84 179.583 1135.65 178.773 1134.09 179.845C1133.09 180.653 1132.4 181.773 1132.11 183.025C1131.77 184.309 1132.03 185.743 1132.03 189.085H1132.07ZM1131.65 256.11C1131.56 257.059 1131.56 258.016 1131.65 258.965C1131.71 259.27 1131.82 259.561 1131.99 259.82C1132.17 260.079 1132.39 260.301 1132.64 260.474C1132.94 260.535 1133.25 260.52 1133.54 260.43C1133.83 260.341 1134.09 260.18 1134.3 259.963C1135.6 258.434 1136.67 256.725 1137.48 254.888C1137.73 254.189 1136.52 252.581 1135.6 251.932C1135.33 251.73 1135.01 251.595 1134.67 251.54C1134.34 251.484 1133.99 251.509 1133.67 251.612C1133.35 251.716 1133.05 251.895 1132.81 252.135C1132.57 252.375 1132.39 252.669 1132.28 252.992C1131.93 254 1131.71 255.047 1131.61 256.11H1131.65ZM1125.97 213.389L1125.41 212.591L1124.66 213.189L1125.62 214.237C1125.7 213.95 1125.82 213.663 1125.94 213.389H1125.97Z" fill="#1B2B36"/>
<path d="M521.407 723.186H177.045C172.132 723.186 167.218 723.061 162.318 722.936C161.263 723 160.209 722.816 159.238 722.4C158.497 721.788 157.937 720.987 157.617 720.081C157.937 719.584 158.423 719.218 158.988 719.046C161.794 718.846 164.587 718.722 167.393 718.722C357.655 718.946 547.913 719.187 738.167 719.445C758.119 719.445 778.17 720.193 798.171 720.231C814.294 720.231 830.418 719.57 846.541 719.532C857.414 719.532 868.288 720.006 879.162 720.293C880.212 720.291 881.259 720.417 882.279 720.667C882.889 720.952 883.446 721.34 883.925 721.814C883.489 722.201 883.065 722.899 882.678 722.911C878.812 723.074 874.959 723.173 871.094 723.173H521.407V723.186Z" fill="#1B2B36"/>
<path d="M927.818 563.1C927.552 598.198 927.278 633.296 926.995 668.394C926.951 670.483 926.764 672.566 926.434 674.629C926.205 675.251 925.764 675.772 925.187 676.1C924.312 675.714 923.561 675.092 923.017 674.305C922.674 673.308 922.538 672.251 922.618 671.2C922.369 658.917 921.957 646.647 921.97 634.364C922.07 575.748 922.236 517.141 922.469 458.542C922.441 456.091 922.582 453.641 922.893 451.21C923.03 450.312 924.015 449.526 924.614 448.716C925.437 449.651 926.696 450.462 926.97 451.546C927.255 453.277 927.326 455.036 927.182 456.784V563.1H927.818Z" fill="#1B2B36"/>
<path d="M166.969 454.165C166.337 488.881 165.705 523.6 165.074 558.324C165.124 559.023 165.099 559.725 164.999 560.419C164.732 561.407 164.416 562.381 164.051 563.337C163.565 562.476 162.704 561.641 162.654 560.756C162.181 553.411 161.557 546.054 161.545 538.709C161.345 479.079 161.233 419.449 161.208 359.819C161.208 354.582 161.782 349.345 162.206 344.12C162.206 343.659 163.054 343.048 163.602 342.936C163.879 342.949 164.148 343.033 164.384 343.179C164.619 343.325 164.814 343.529 164.949 343.771C165.407 346.879 165.699 350.009 165.822 353.148C166.163 383.308 166.458 413.472 166.707 443.641C166.707 447.145 166.707 450.661 166.707 454.165H166.969Z" fill="#1B2B36"/>
<path d="M653.236 46.2076C660.718 46.1078 669.709 49.7614 677.353 56.5075C687.739 65.6065 694.832 77.88 697.528 91.4226C698.319 95.5643 698.487 99.8007 698.027 103.992C697.8 107.87 696.559 111.62 694.427 114.868C692.296 118.115 689.349 120.746 685.882 122.497C684.897 123.021 683.388 122.497 682.141 122.497C682.552 121.587 682.939 120.651 683.388 119.741C683.561 119.432 683.784 119.154 684.049 118.918C694.024 108.942 694.361 97.196 690.408 84.7264C687.154 74.4638 681.68 65.6104 672.951 58.9516C663.125 51.37 652.201 48.8885 640.243 52.7167C622.785 58.3405 610.59 69.4635 604.866 87.2702C603.662 90.7623 603.223 94.4724 603.578 98.1492C603.933 101.826 605.074 105.384 606.924 108.581C611.51 116.901 617.598 124.3 624.88 130.403C627.985 133.021 628.97 135.229 627.661 136.051C624.905 137.822 622.873 135.752 621.089 134.405C611.538 127.13 604.153 117.386 599.729 106.224C598.22 102.295 597.639 98.0698 598.033 93.8791C600.253 69.1268 625.429 46.432 653.236 46.2076Z" fill="#1B2B36"/>
<path d="M291.105 635.749C269.906 635.574 249.955 630.374 230.415 623.279C218.874 619.08 207.687 613.968 196.959 607.991C184.975 601.357 176.197 591.444 168.029 580.82C167.858 580.542 167.756 580.227 167.732 579.901C167.708 579.576 167.763 579.249 167.892 578.949C168.752 577.628 169.687 578.65 170.386 579.199C171.211 579.851 171.982 580.568 172.693 581.343C174.663 583.351 176.646 585.334 178.566 587.379C185.813 595.055 194.362 601.388 203.817 606.083C222.864 615.87 243.162 623.002 264.145 627.282C281.052 630.702 298.451 630.906 315.433 627.88C320.209 627.02 324.785 625 329.449 623.478C330.758 623.042 332.005 622.369 333.339 622.02C333.888 621.882 335.01 622.207 335.122 622.556C335.384 623.429 335.621 624.775 335.122 625.312C334.056 626.67 332.685 627.76 331.12 628.491C326.977 630.304 322.661 631.691 318.239 632.631C309.248 634.028 300.145 634.751 291.105 635.749Z" fill="#1B2B36"/>
<path d="M474.509 188.823C474.509 208.775 474.509 228.813 474.509 248.802C474.407 251.567 474.082 254.32 473.536 257.032C473.461 257.518 472.538 258.154 471.965 258.204C471.635 258.171 471.318 258.062 471.037 257.887C470.756 257.712 470.519 257.475 470.344 257.194C469.814 256.303 469.482 255.308 469.371 254.276C469.155 251.832 469.055 249.38 469.072 246.919C469.134 207.627 469.134 168.36 469.421 129.056C469.421 125.776 467.201 121.262 472.214 119.167C475.868 121.724 474.309 125.589 474.346 128.844C474.521 148.795 474.434 168.834 474.434 188.823H474.509Z" fill="#1B2B36"/>
<path d="M174.413 327.785C174.108 330.581 174.443 333.409 175.394 336.056C176.345 338.703 177.886 341.098 179.9 343.06C183.566 346.798 187.63 350.122 192.021 352.974C196.485 355.736 201.219 358.038 206.149 359.845C222.521 366.079 239.031 371.753 256.501 374.272C265.143 375.519 273.635 377.826 282.214 379.547C296.616 382.452 311.031 385.283 325.446 388.163C327.84 388.637 330.234 389.148 332.591 389.809C334.948 390.47 337.579 393.313 336.831 393.475C335.184 393.798 333.49 393.798 331.843 393.475C315.695 390.408 299.571 387.166 283.423 384.148C271.378 381.903 259.232 380.208 247.261 377.751C226.969 373.707 207.462 366.418 189.489 356.166C183.371 352.682 178.146 347.824 174.226 341.976C171.748 338.542 170.287 334.48 170.012 330.254C169.937 328.334 170.984 326.326 171.72 324.443C171.845 324.094 172.892 324.032 173.528 324.007C173.753 324.007 174.152 324.456 174.201 324.743C174.339 325.778 174.351 326.788 174.413 327.785Z" fill="#1B2B36"/>
<path d="M658.935 523.297C645.518 522.736 632.325 521.389 619.618 516.887C618.309 516.449 617.054 515.863 615.877 515.142C615.661 514.902 615.507 514.613 615.429 514.3C615.35 513.987 615.35 513.659 615.428 513.346C615.536 513.034 615.714 512.751 615.947 512.518C616.18 512.285 616.463 512.107 616.775 511.999C617.797 511.79 618.854 511.833 619.855 512.124C638.559 518.359 657.875 517.972 677.103 516.264C700.813 513.993 724.302 509.823 747.345 503.794C753.093 502.335 758.692 500.265 764.391 498.557C765.056 498.506 765.725 498.582 766.361 498.781C765.925 499.567 765.675 500.589 765.027 501.076C763.639 502.144 762.123 503.032 760.513 503.719C755.001 505.951 749.564 508.495 743.866 510.066C724.938 515.239 705.615 518.838 686.094 520.828C677.066 521.8 668 522.486 658.935 523.297Z" fill="#1B2B36"/>
<path d="M1028.2 399.872C1027.91 399.573 1027.66 399.238 1027.46 398.874C1027.34 398.549 1027.34 398.19 1027.46 397.864C1028.51 395.453 1030.1 393.316 1032.11 391.618C1034.12 389.921 1036.49 388.709 1039.05 388.075C1045.12 386.398 1051.29 385.091 1057.53 384.16C1073.83 381.816 1090.17 379.858 1106.47 377.613C1122.49 375.419 1138.17 372.027 1152.78 364.645C1162.95 359.52 1171.97 353.048 1178.97 344.045C1181.46 340.778 1183.47 337.025 1185.8 333.571C1186.05 333.377 1186.34 333.25 1186.65 333.202C1186.96 333.154 1187.28 333.187 1187.57 333.296C1188.1 333.558 1188.75 334.543 1188.62 334.905C1187.99 337.212 1187.54 339.731 1186.24 341.651C1180.08 351.088 1171.8 358.947 1162.05 364.595C1149.15 371.927 1135.49 377.314 1120.76 379.459C1103.79 381.953 1086.74 383.911 1069.75 386.242C1062.12 387.29 1054.57 388.961 1046.94 389.859C1040.31 390.632 1034.85 393.063 1030.73 398.363C1029.98 399.006 1029.12 399.516 1028.2 399.872Z" fill="#1B2B36"/>
<path d="M371.534 184.908C371.534 204.177 371.534 223.443 371.534 242.704C371.534 245.853 371.372 249 371.048 252.132C370.921 252.601 370.687 253.034 370.365 253.397C370.043 253.761 369.64 254.045 369.19 254.226C368.703 254.389 367.444 253.416 367.17 252.705C366.697 251.393 366.449 250.01 366.434 248.615C366.247 245.124 366.072 241.62 366.085 238.116C366.234 200.981 366.417 163.85 366.633 126.724C366.633 123.582 366.983 120.489 367.294 117.322C367.294 116.823 368.329 115.95 368.541 116.075C369.402 116.449 370.711 117.06 370.786 117.709C371.156 120.837 371.339 123.985 371.334 127.136C371.334 146.397 371.334 165.663 371.334 184.933L371.534 184.908Z" fill="#1B2B36"/>
<path d="M967.06 748.986C967.409 740.257 967.746 731.528 968.145 722.799C968.145 722.276 968.794 721.789 969.13 721.278C969.816 721.852 970.814 722.276 971.138 722.999C972.884 727.027 972.821 727.064 976.749 726.603C978.106 726.301 979.488 726.126 980.877 726.079C992.187 726.889 1001.13 738.948 998.658 750.046C996.85 758.226 992.424 763.974 983.795 765.745C981.413 766.231 979.031 766.755 976.637 767.142C972.609 767.778 972.135 768.239 972.335 772.441C972.485 775.571 972.859 778.676 973.008 781.831C972.911 782.469 972.604 783.057 972.135 783.502C971.275 783.215 969.891 782.828 969.766 782.255C968.948 778.884 968.406 775.451 968.145 771.992C967.734 764.323 967.659 756.642 967.447 748.961L967.06 748.986ZM977.497 730.867C976.124 731.051 974.773 731.381 973.47 731.852C973.06 732.107 972.716 732.456 972.469 732.87C972.222 733.285 972.077 733.752 972.048 734.234C972.13 734.684 972.322 735.106 972.607 735.463C972.892 735.82 973.261 736.1 973.682 736.279C976.363 736.903 979.268 736.815 981.824 737.726C986.638 739.459 988.658 743.499 987.71 748.549C987.584 748.85 987.392 749.118 987.148 749.333C986.904 749.549 986.614 749.707 986.301 749.796C986.012 749.802 985.726 749.736 985.469 749.603C985.211 749.47 984.992 749.275 984.83 749.036C984.406 748.1 984.381 746.991 983.994 746.03C982.485 742.29 979.355 740.943 975.614 741.117C974.943 741.166 974.289 741.355 973.695 741.67C973.1 741.986 972.577 742.422 972.16 742.95C971.707 743.667 971.425 744.478 971.336 745.321C971.247 746.164 971.354 747.017 971.649 747.812C971.943 748.607 972.417 749.323 973.033 749.905C973.65 750.487 974.392 750.92 975.203 751.168C976.23 751.366 977.242 751.633 978.233 751.966C979.231 752.49 981.4 752.353 980.478 754.46C979.886 755.311 978.996 755.908 977.984 756.131C976.662 756.505 975.141 756.28 973.881 756.742C973.463 756.946 973.101 757.248 972.823 757.621C972.545 757.994 972.361 758.428 972.285 758.887C972.331 759.385 972.488 759.867 972.745 760.296C973.002 760.726 973.352 761.092 973.769 761.368C974.899 762.189 976.263 762.626 977.66 762.615C981.426 762.031 985.124 761.066 988.695 759.735C990.53 758.739 992.028 757.22 992.997 755.37C998.708 745.943 992.611 730.518 977.497 730.867Z" fill="#1B2B36"/>
<path d="M768.518 225.558C768.518 236.245 767.458 241.432 766.024 239.761C762.421 235.634 763.967 230.447 763.767 225.733C763.474 214.861 761.069 204.15 756.685 194.197C750.574 180.767 741.721 169.919 728.915 162.213C715.759 154.244 702.728 146.002 689.797 137.71C689.199 137.336 689.136 136.089 688.837 135.216C689.451 134.93 690.101 134.728 690.77 134.617C691.465 134.628 692.152 134.776 692.79 135.054C694.095 135.55 695.369 136.125 696.606 136.774C702.728 140.141 708.901 143.458 714.924 147C720.049 150.005 724.899 153.409 730.049 156.452C754.989 171.353 766.91 193.861 768.531 222.366C768.568 223.451 768.518 224.499 768.518 225.558Z" fill="#1B2B36"/>
<path d="M1055.78 506.675C1048.01 506.401 1040.29 506.276 1033.06 502.934C1032.12 502.465 1031.25 501.888 1030.44 501.214C1030.27 501.076 1030.33 500.515 1030.44 500.191C1030.56 499.867 1030.74 499.543 1030.98 499.48C1031.61 499.231 1032.29 499.145 1032.96 499.231C1050.64 505.067 1068.46 502.785 1085.97 499.119C1109.66 494.131 1133.04 488.158 1155.58 479.167C1166.34 474.865 1177.05 470.576 1186.02 462.957C1186.49 462.545 1187.75 463.069 1188.65 463.156C1188.67 463.816 1188.57 464.475 1188.36 465.101C1187.88 466.053 1187.21 466.9 1186.4 467.595C1184.25 469.39 1181.96 471.008 1179.56 472.434C1174.57 475.102 1169.65 477.708 1164.52 479.915C1146.74 487.353 1128.35 493.248 1109.56 497.535C1097.99 500.316 1086.31 502.672 1074.65 504.792C1068.4 505.84 1062.05 506.052 1055.78 506.675Z" fill="#1B2B36"/>
<path d="M1111.22 719.894C1138.6 719.894 1165.96 719.894 1193.32 719.894C1207.71 719.894 1222.1 719.948 1236.49 720.056C1238.21 720.163 1239.92 720.414 1241.6 720.804C1241.78 720.804 1241.97 721.29 1241.99 721.565C1242.02 721.839 1241.99 722.475 1241.85 722.537C1241.21 722.807 1240.52 722.963 1239.82 722.999C1237.02 723.074 1234.21 723.099 1231.4 723.099C1161.22 723.223 1091.03 723.348 1020.85 723.473C1010.68 723.473 1000.52 723.897 990.341 724.096C987.889 724.188 985.433 724.154 982.984 723.996C981.5 723.859 979.555 724.346 978.882 722.188C980.154 721.713 981.476 721.382 982.822 721.203C1004.21 720.854 1025.61 720.48 1047 720.33C1068.4 720.181 1089.81 720.33 1111.22 720.33V719.894Z" fill="#1B2B36"/>
<path d="M717.268 177.314C716.507 180.431 719.251 182.401 719.762 185.095C720.225 186.764 720.592 188.458 720.859 190.17C720.877 190.788 720.751 191.403 720.49 191.964C720.23 192.525 719.842 193.018 719.358 193.404C718.875 193.79 718.308 194.058 717.703 194.187C717.097 194.316 716.47 194.303 715.871 194.148C713.587 193.323 711.39 192.275 709.312 191.018C704.773 188.387 700.421 185.419 695.82 182.912C687.181 178.219 677.719 175.234 667.95 174.121C664.481 173.733 660.982 173.674 657.501 173.947C652.837 174.296 651.391 176.441 652.151 180.892C652.193 181.241 652.273 181.584 652.388 181.915C653.885 185.768 653.86 189.521 651.141 192.813C649.646 194.774 647.674 196.32 645.413 197.305C643.152 198.289 640.677 198.679 638.223 198.437C637.62 198.27 637.05 198 636.539 197.639C636.968 197.124 637.477 196.681 638.048 196.33C639.993 195.544 642.076 195.083 643.959 194.16C648.523 191.953 650.031 188.96 649.271 183.972C649.059 182.601 648.473 181.279 648.286 179.895C647.413 173.747 649.533 170.642 655.955 169.919C660.47 169.439 665.024 169.464 669.534 169.994C682.099 171.533 694.112 176.066 704.561 183.212C707.479 185.145 710.422 187.027 713.415 188.836C713.998 189.104 714.659 189.149 715.273 188.96C715.572 188.1 715.996 186.915 715.634 186.254C714.251 183.832 712.727 181.492 711.071 179.246C709.824 177.55 708.315 176.079 707.068 174.383C706.058 172.999 704.761 171.104 706.344 169.782C707.064 169.35 707.863 169.066 708.693 168.946C709.524 168.826 710.37 168.873 711.183 169.084C716.991 170.508 722.301 173.487 726.545 177.7C726.99 178.23 727.321 178.845 727.518 179.508C727.547 179.662 727.544 179.819 727.509 179.971C727.475 180.124 727.41 180.267 727.318 180.394C727.144 180.63 726.72 180.942 726.545 180.867C724.937 180.207 723.391 179.371 721.769 178.797C720.148 178.224 718.552 177.95 716.944 177.55C716.964 177.239 716.926 176.926 716.832 176.628C716.769 176.503 716.358 176.553 716.096 176.528L717.268 177.314Z" fill="#1B2B36"/>
<path d="M1044.52 531.178C1043.45 530.941 1042.78 530.841 1042.13 530.629C1041.99 530.575 1041.87 530.49 1041.78 530.382C1041.68 530.274 1041.61 530.145 1041.57 530.006C1041.57 529.682 1041.68 529.158 1041.9 529.058C1043.05 528.337 1044.32 527.834 1045.64 527.574C1069.5 526.452 1092.94 521.988 1116.48 518.534C1137.35 515.475 1157.37 508.19 1175.32 497.123C1178.6 495.116 1181.88 493.071 1183.63 489.355C1184.61 487.285 1184.88 485.439 1183.17 483.594C1182.34 482.733 1180.39 481.698 1182.4 480.489C1183.22 480.002 1185.12 480.638 1186.14 481.312C1187.22 481.928 1188.06 482.904 1188.49 484.07C1188.93 485.237 1188.94 486.52 1188.53 487.696C1187.49 491.83 1184.92 495.415 1181.34 497.734C1176.28 500.839 1171.25 504.081 1165.93 506.712C1148.64 515.309 1129.99 520.825 1110.81 523.01C1097.61 524.532 1084.45 526.589 1071.26 528.248C1062.25 529.432 1053.19 530.23 1044.52 531.178Z" fill="#1B2B36"/>
<path d="M1058.08 624.975C1050.28 624.463 1042.54 624.974 1034.96 622.942C1033.6 622.603 1032.28 622.127 1031.02 621.52C1030.56 621.296 1030.39 620.423 1030.21 619.812C1030.21 619.7 1030.69 619.301 1030.99 619.251C1031.65 619.113 1032.33 619.079 1033 619.151C1061.75 623.74 1089.64 619.662 1116.97 610.597C1131.28 605.781 1145.14 599.735 1158.41 592.528C1165.83 588.509 1172.7 583.555 1178.86 577.789C1180.13 576.61 1181.5 575.526 1182.94 574.547C1183.21 574.36 1184.02 574.859 1184.51 575.171C1184.58 575.319 1184.62 575.484 1184.62 575.651C1184.62 575.818 1184.58 575.983 1184.51 576.131C1183.26 577.814 1182.37 579.872 1180.77 581.056C1174.66 585.745 1168.69 590.795 1162.06 594.586C1140.16 607.289 1116.27 616.217 1091.41 620.997C1080.48 623.042 1069.22 623.69 1058.08 624.975Z" fill="#1B2B36"/>
<path d="M597.459 507.697C598.706 508.757 600.527 508.944 600.652 511.314C601.101 518.982 601.687 526.651 602.485 534.295C604.742 556.242 607.585 578.151 605.403 600.285C605.028 604.113 604.567 607.941 604.156 611.769C603.058 621.155 601.94 630.54 600.801 639.926C600.502 642.357 600.19 644.776 599.729 647.171C599.633 647.502 599.461 647.806 599.228 648.059C598.994 648.312 598.704 648.508 598.382 648.63C598.008 648.729 597.035 647.981 596.948 647.507C596.371 645.139 596.074 642.712 596.063 640.275C596.33 635.024 596.88 629.792 597.709 624.601C601.127 603.473 602.33 582.046 601.3 560.669C600.764 548.099 598.993 535.567 597.709 523.035C597.173 517.823 595.975 512.623 597.709 507.411L597.459 507.697Z" fill="#1B2B36"/>
<path d="M420.103 277.657C411.375 277.22 402.646 277.083 393.917 276.272C388.034 275.596 382.203 274.534 376.46 273.093C374.726 272.79 373.088 272.083 371.678 271.031C370.268 269.978 369.125 268.608 368.342 267.032C368.205 266.737 368.135 266.416 368.135 266.091C368.135 265.766 368.205 265.445 368.342 265.149C368.629 264.738 369.801 264.364 370.038 264.576C376.684 270.661 385.001 271.709 393.393 272.195C404.903 272.868 416.45 272.943 427.972 273.23C431.463 273.317 434.98 273.03 438.459 273.305C448.796 274.115 458.672 272.793 467.787 267.481C468.056 267.308 468.358 267.193 468.674 267.146C468.99 267.099 469.313 267.12 469.62 267.207C470.094 267.456 470.643 268.454 470.468 268.865C469.993 270.111 469.217 271.22 468.211 272.095C461.902 276.285 454.707 277.781 447.312 278.031C438.234 278.317 429.144 278.093 420.053 278.093C420.091 277.943 420.103 277.794 420.103 277.657Z" fill="#1B2B36"/>
<path d="M1197.5 396.668C1197.5 412.055 1197.5 427.455 1197.5 442.805C1197.42 445.22 1197.16 447.625 1196.73 450C1196.66 450.362 1195.68 450.823 1195.16 450.774C1194.86 450.719 1194.59 450.591 1194.35 450.401C1194.12 450.212 1193.94 449.966 1193.83 449.689C1193.52 447.625 1193.34 445.542 1193.3 443.454C1193.21 435.76 1193.15 428.066 1193.17 420.372C1193.29 397.279 1193.43 374.193 1193.58 351.116C1193.58 348.31 1193.72 345.517 1193.92 342.724C1193.92 342.213 1194.52 341.726 1194.84 341.228C1195.5 341.851 1196.66 342.474 1196.74 343.123C1197.09 346.589 1197.3 350.093 1197.31 353.585C1197.31 367.925 1197.31 382.265 1197.31 396.605L1197.5 396.668Z" fill="#1B2B36"/>
<path d="M1027.84 452.407C1027.84 463.966 1027.84 475.538 1027.84 487.11C1027.69 488.459 1027.27 489.762 1026.59 490.938C1026.32 491.074 1026.01 491.144 1025.71 491.144C1025.4 491.144 1025.1 491.074 1024.82 490.938C1024.15 490.141 1023.72 489.174 1023.57 488.145C1023.39 483.943 1023.32 479.741 1023.34 475.526C1023.34 456.946 1023.37 438.362 1023.42 419.774C1023.48 417.331 1023.69 414.895 1024.06 412.479C1024.26 411.84 1024.71 411.307 1025.31 410.995C1026.82 410.222 1027.13 411.731 1027.19 412.479C1027.61 417.018 1028.04 421.557 1028.11 426.109C1028.25 434.837 1028.11 443.641 1028.11 452.407H1027.84Z" fill="#1B2B36"/>
<path d="M893.888 796.445C894.337 795.286 894.437 794.475 894.898 794.076C895.161 793.919 895.458 793.827 895.764 793.808C896.07 793.788 896.375 793.842 896.656 793.964C915.124 804.388 934.564 804.613 954.453 799.388C960.214 797.879 965.913 795.934 968.818 789.899C968.918 789.699 970.178 789.762 970.552 790.086C970.926 790.41 971.45 791.457 971.25 791.869C970.203 794.014 969.355 796.508 967.659 798.016C965.281 800.074 962.558 801.695 959.616 802.805C955.115 804.717 950.407 806.102 945.587 806.932C931.235 808.803 916.907 808.316 903.191 803.279C900.592 802.315 898.111 801.06 895.796 799.538C894.798 798.839 894.337 797.293 893.888 796.445Z" fill="#1B2B36"/>
<path d="M1020.77 120.427L1019.41 119.33C1019.84 118.806 1020.19 117.958 1020.72 117.834C1025.47 116.699 1030.21 115.514 1035.01 114.679C1053.26 111.484 1071.16 106.497 1088.44 99.7899C1095.92 96.9094 1102.94 92.9191 1110.12 89.3278C1113.59 87.607 1116.96 85.6493 1121.04 86.9212C1121.62 87.0958 1122.07 87.7691 1122.58 88.1682C1122.11 88.5921 1121.63 89.4151 1121.16 89.4151C1118.01 89.616 1114.99 90.7009 1112.43 92.545C1094.66 103.631 1074.85 109.317 1054.76 114.105C1044.56 116.537 1034.2 118.195 1023.9 120.165C1022.86 120.316 1021.81 120.403 1020.77 120.427Z" fill="#1B2B36"/>
<path d="M373.554 105.688C373.878 104.68 374.489 103.788 375.314 103.124C376.138 102.459 377.139 102.05 378.193 101.947C383.31 100.843 388.504 100.13 393.73 99.8149C413.993 99.3411 434.269 99.2164 454.532 98.9296C459.956 98.8548 465.094 99.4409 468.336 104.541C468.659 105.4 468.694 106.341 468.436 107.222C468.436 107.397 466.939 107.696 466.665 107.421C462.263 102.92 456.689 103.107 451.016 103.144C433.558 103.244 416.1 103.144 398.643 103.257C390.276 103.257 381.896 103.257 373.778 105.813L373.554 105.688Z" fill="#1B2B36"/>
<path d="M932.582 724.146C938.156 723.41 945.413 722.437 952.67 721.552C953.132 721.552 953.68 722.101 954.179 722.387C953.755 722.936 953.443 723.809 952.932 723.971C949.628 724.994 946.298 726.465 942.956 726.627C934.228 727.126 925.499 727.35 916.77 727.089C911.841 726.911 907.045 725.449 902.854 722.849C900.36 721.278 900.086 718.809 902.53 716.926C904.121 715.578 905.903 714.473 907.817 713.646C920.287 708.958 933.08 708.97 945.949 711.751C946.523 711.876 946.959 712.636 947.446 713.098C946.81 713.571 946.199 714.345 945.538 714.432C944.141 714.502 942.74 714.422 941.36 714.195C939.976 714.033 938.617 713.709 937.22 713.534C929.212 712.668 921.114 713.152 913.266 714.968C911.24 715.509 909.282 716.279 907.43 717.262C907.16 717.454 906.933 717.701 906.765 717.987C906.597 718.273 906.493 718.591 906.458 718.921C906.458 719.47 906.819 720.442 907.243 720.579C910.155 721.692 913.165 722.527 916.234 723.073C921.035 723.709 925.948 723.759 932.582 724.146Z" fill="#1B2B36"/>
<path d="M931.933 702.436C939.639 702.199 947.396 701.626 954.803 704.531C959.08 706.202 963.245 708.048 965.901 712.013C966.233 712.573 966.389 713.221 966.349 713.871C965.512 714.38 964.549 714.648 963.569 714.644C962.575 714.336 961.652 713.836 960.85 713.173C954.319 708.944 946.67 706.772 938.891 706.938C930.836 706.938 922.78 707.437 914.738 707.848C907.256 708.222 900.148 709.681 894.337 714.931C894.1 715.143 892.941 714.806 892.704 714.42C892.559 714.12 892.484 713.792 892.484 713.459C892.484 713.127 892.559 712.799 892.704 712.499C894.923 708.521 898.826 706.614 902.879 705.641C909.01 704.221 915.218 703.155 921.471 702.449C924.955 702.228 928.449 702.224 931.933 702.436Z" fill="#1B2B36"/>
<path d="M1195.82 527.288C1195.82 536.752 1195.82 546.204 1195.82 555.668C1195.66 557.363 1195.33 559.036 1194.81 560.656C1194.81 560.906 1194.31 561.255 1194.12 561.217C1193.5 561.08 1192.45 560.893 1192.37 560.544C1191.77 558.218 1191.39 555.837 1191.26 553.436C1191.26 540.119 1191.35 526.801 1191.41 513.533C1191.41 507.935 1191.41 502.311 1191.51 496.724C1191.64 495.708 1191.92 494.718 1192.36 493.794C1192.44 493.653 1192.55 493.532 1192.69 493.443C1192.82 493.354 1192.97 493.299 1193.14 493.283C1193.72 493.37 1194.73 493.52 1194.81 493.831C1195.27 495.486 1195.54 497.19 1195.6 498.907C1195.67 508.371 1195.6 517.823 1195.6 527.288H1195.82Z" fill="#1B2B36"/>
<path d="M1022.77 574.697C1022.77 565.968 1022.77 557.239 1022.77 548.411C1022.82 547.038 1023.07 545.68 1023.52 544.383C1023.65 543.997 1024.61 543.834 1025.21 543.697C1025.36 543.703 1025.51 543.746 1025.64 543.825C1025.78 543.903 1025.89 544.014 1025.97 544.146C1026.41 545.074 1026.7 546.068 1026.83 547.089C1027 565.681 1027.15 584.261 1027.16 602.841C1026.98 604.91 1026.56 606.951 1025.92 608.926C1025.92 609.076 1025.38 609.188 1025.08 609.2C1024.78 609.213 1024.17 609.2 1024.12 609.051C1023.39 607.499 1022.89 605.848 1022.65 604.15C1022.5 596.444 1022.58 588.725 1022.56 581.019V574.697H1022.77Z" fill="#1B2B36"/>
<path d="M898.814 758.188C898.352 766.568 897.978 774.947 897.355 783.315C897.013 785.377 896.435 787.394 895.634 789.325C895.634 789.437 895.06 789.437 894.761 789.4C894.462 789.362 893.963 789.263 893.863 789.051C893.439 788.128 892.716 787.08 892.853 786.207C895.41 770.184 894.312 754.086 893.888 738.012C893.739 732.451 892.828 726.914 892.354 721.365C892.354 721.091 893.115 720.667 893.601 720.492C893.826 720.405 894.325 720.692 894.487 720.941C895.132 721.75 895.611 722.678 895.896 723.672C896.719 729.558 897.654 735.443 898.028 741.379C898.39 746.953 898.103 752.602 898.103 758.163L898.814 758.188Z" fill="#1B2B36"/>
<path d="M710.447 217.828C717.674 218.946 724.464 221.996 730.099 226.657C731.592 228.076 732.907 229.671 734.015 231.408C734.169 231.691 734.249 232.008 734.249 232.33C734.249 232.653 734.169 232.97 734.015 233.253C733.804 233.505 733.535 233.701 733.23 233.822C732.925 233.944 732.595 233.989 732.269 233.951C730.347 233.229 728.494 232.336 726.732 231.283C721.245 227.623 715.044 225.166 708.539 224.075C707.588 223.787 706.681 223.367 705.846 222.828C706.338 221.583 706.966 220.396 707.716 219.287C708.536 218.647 709.46 218.154 710.447 217.828Z" fill="#1B2B36"/>
<path d="M652.563 221.058C653.473 221.245 654.857 221.444 656.179 221.843C656.715 222.005 657.426 222.566 657.501 223.09C657.525 223.416 657.469 223.743 657.339 224.043C657.208 224.342 657.007 224.606 656.753 224.811C655.522 225.432 654.225 225.913 652.887 226.245C645.792 228.128 638.834 230.31 632.936 234.911C631.813 235.797 630.117 236.221 629.419 234.612C628.983 233.577 629.481 232.118 629.793 230.871C630.029 230.207 630.465 229.632 631.04 229.225C637.081 224.142 644.67 221.262 652.563 221.058Z" fill="#1B2B36"/>
<path d="M645.867 136.825C641.964 136.962 639.769 139.905 637.063 142.074C636.259 142.571 635.297 142.745 634.37 142.561C633.235 142.349 633.247 140.241 634.37 138.92C634.987 138.077 635.671 137.284 636.415 136.55C642.504 131.18 650.168 127.925 658.261 127.273C660 127.228 661.735 127.464 663.399 127.971C663.698 128.119 663.964 128.327 664.178 128.582C664.393 128.837 664.552 129.135 664.646 129.455C664.758 129.767 664.185 130.627 663.786 130.702C659.708 131.675 655.543 132.348 651.528 133.508C649.296 134.144 646.677 134.593 645.53 137.186L645.867 136.825Z" fill="#1B2B36"/>
<path d="M645.517 137.199C649.944 138.159 653.436 134.966 657.601 134.455C660.73 134.081 663.761 133.121 666.828 134.455C667.45 134.742 667.941 135.255 668.2 135.889C668.312 136.201 667.689 137.049 667.24 137.223C665.269 137.934 663.212 138.47 661.242 139.119C655.98 140.964 650.767 142.935 645.48 144.718C645.018 144.874 644.529 144.931 644.043 144.886C643.558 144.841 643.087 144.695 642.662 144.456C641.253 143.321 642.113 142.062 642.999 140.902C643.884 139.742 644.919 138.221 645.867 136.862L645.517 137.199Z" fill="#1B2B36"/>
<path d="M597.871 136.351C605.914 133.62 613.67 134.917 621.177 138.309C622.319 139.023 623.317 139.945 624.119 141.027C624.208 141.178 624.255 141.351 624.255 141.526C624.255 141.701 624.208 141.873 624.119 142.025C623.718 142.521 623.233 142.943 622.685 143.272C622.525 143.344 622.35 143.381 622.174 143.381C621.998 143.381 621.824 143.344 621.663 143.272C615.252 140.572 608.472 138.848 601.549 138.159C600.302 138.009 599.155 136.912 597.958 136.214L597.871 136.351Z" fill="#1B2B36"/>
<path d="M703.551 120.714C704.091 121.034 704.608 121.393 705.098 121.786C705.018 122.111 704.839 122.403 704.586 122.622C704.038 123.037 703.444 123.388 702.816 123.669C696.194 126.562 689.585 129.443 682.939 132.248C682.632 132.308 682.315 132.29 682.017 132.196C681.719 132.103 681.448 131.936 681.231 131.712C680.931 131.313 681.093 130.465 681.231 129.892C681.341 129.559 681.561 129.273 681.854 129.081C688.239 124.168 695.695 121.749 703.551 120.714Z" fill="#1B2B36"/>
<path d="M902.505 411.257C902.829 411.183 903.191 410.971 903.477 411.046C910.411 412.916 916.508 416.033 919.937 422.767C920.03 423.079 920.046 423.409 919.983 423.728C919.92 424.047 919.78 424.347 919.576 424.6C919.313 424.748 919.017 424.825 918.715 424.825C918.414 424.825 918.118 424.748 917.855 424.6C913.628 419.276 907.879 416.058 902.106 412.779C901.966 412.671 901.855 412.531 901.783 412.37C901.711 412.208 901.681 412.032 901.694 411.856C901.819 411.607 902.218 411.457 902.505 411.257Z" fill="#1B2B36"/>
<path d="M188.28 332.885C188.285 333.233 188.23 333.579 188.117 333.908C187.831 334.431 187.419 335.292 187.058 335.292C186.729 335.271 186.41 335.174 186.126 335.007C185.842 334.84 185.602 334.609 185.424 334.332C184.85 332.711 184.738 330.915 184.077 329.344C183.369 327.823 182.463 326.401 181.384 325.116C180.698 324.256 178.192 324.219 180.137 322.398C180.636 321.924 182.207 322.124 183.017 322.535C187.083 324.568 188.192 326.875 188.28 332.885Z" fill="#1B2B36"/>
<path d="M1170.27 337.524C1170.41 335.996 1170.66 334.48 1171 332.985C1172.42 327.885 1176.33 326.538 1181.56 329.244C1181.81 329.369 1182.15 329.817 1182.09 329.967C1181.88 330.516 1181.43 331.463 1181.23 331.426C1175.7 330.341 1173.74 333.346 1173.33 338.16C1173.27 338.852 1173.06 339.523 1172.72 340.13C1172.34 340.653 1171.89 341.126 1171.39 341.539C1170.99 341.13 1170.67 340.658 1170.43 340.142C1170.29 339.277 1170.24 338.4 1170.27 337.524Z" fill="#1B2B36"/>
<path d="M908.677 692.36L906.807 690.727C907.306 690.328 907.73 689.729 908.303 689.555C909.276 689.255 910.361 689.318 911.358 689.068C914.725 688.22 917.992 687.273 920.299 684.268C921.035 683.307 921.845 680.29 923.766 682.834C924.289 683.532 923.13 686.101 922.107 687.273C918.715 691.213 913.952 692.123 908.677 692.36Z" fill="#1B2B36"/>
<path d="M436.376 439.139C436.638 434.712 436.975 430.223 440.367 426.744C440.626 426.546 440.93 426.416 441.252 426.363C441.574 426.311 441.904 426.339 442.212 426.445C442.479 426.616 442.698 426.853 442.849 427.132C442.999 427.411 443.076 427.724 443.072 428.041C441.713 432.655 440.254 437.244 438.77 441.758C438.696 441.995 438.122 442.319 437.96 442.244C437.448 442.029 437.013 441.664 436.713 441.197C436.508 440.529 436.395 439.837 436.376 439.139Z" fill="#1B2B36"/>
<path d="M436.825 679.779C437.112 679.929 437.586 680.003 437.661 680.228C438.558 682.772 439.39 685.336 440.154 687.922C440.154 688.109 439.805 688.558 439.531 688.682C439.376 688.741 439.21 688.762 439.045 688.745C438.881 688.728 438.723 688.672 438.583 688.583C435.977 686.563 434.443 684.069 435.241 680.627C435.324 680.288 435.534 679.993 435.828 679.804C436.114 679.667 436.501 679.779 436.825 679.779Z" fill="#1B2B36"/>
<path d="M453.509 418.564C452.898 418.115 452.462 417.953 452.387 417.704C452.225 417.093 451.963 416.295 452.213 415.833C452.76 414.754 453.561 413.824 454.547 413.122C455.533 412.421 456.675 411.969 457.874 411.805C458.447 411.718 459.557 412.055 459.644 412.379C459.844 413.227 459.969 414.674 459.495 415.023C457.564 416.309 455.566 417.491 453.509 418.564Z" fill="#1B2B36"/>
<path d="M998.496 127.41C998.33 128.288 998.014 129.132 997.561 129.903C996.065 131.612 996.314 134.642 993.272 135.178C990.778 135.615 992.112 131.2 995.466 127.696C996.002 127.285 996.64 127.026 997.312 126.948C997.561 126.873 997.91 127.16 998.496 127.41Z" fill="#1B2B36"/>
<path d="M1172.29 487.185C1172.29 486.505 1172.39 485.828 1172.59 485.177C1172.81 484.679 1173.42 484.055 1173.83 484.043C1174.24 484.03 1175.3 484.616 1175.34 485.003C1175.45 486.338 1175.36 487.681 1175.09 488.993C1174.97 489.292 1174.79 489.56 1174.55 489.777C1174.31 489.993 1174.03 490.151 1173.72 490.24C1173.4 490.327 1172.7 489.691 1172.47 489.23C1172.3 488.562 1172.24 487.872 1172.29 487.185Z" fill="#1B2B36"/>
<path d="M1029.01 531.091C1029.21 531.627 1029.71 532.338 1029.52 532.65C1029.33 532.961 1028.49 533.248 1027.92 533.535C1027.76 532.974 1027.31 532.288 1027.5 531.876C1027.69 531.465 1028.5 531.34 1029.01 531.091Z" fill="#1B2B36"/>
<path d="M597.983 136.164L598.257 136.687L597.871 136.351L597.983 136.164Z" fill="#1B2B36"/>
<path d="M373.729 105.863L372.731 107.346C371.384 105.987 372.295 105.75 373.554 105.688L373.729 105.863Z" fill="#1B2B36"/>
<path d="M636.44 274.689C636.279 268.695 637.589 262.753 640.255 257.382C641.339 255.187 642.742 253.166 644.42 251.384C645.239 250.464 646.267 249.755 647.418 249.317C648.569 248.879 649.808 248.724 651.031 248.866C652.254 249.008 653.425 249.442 654.445 250.132C655.464 250.822 656.303 251.748 656.89 252.83C660.107 258.392 661.254 264.639 662.202 270.886C662.464 273.292 662.577 275.711 662.539 278.131C662.539 278.331 662.115 278.692 661.865 278.717C661.616 278.742 660.967 278.543 660.93 278.356C660.07 274.253 659.396 270.101 658.436 266.035C657.687 262.632 656.661 259.296 655.368 256.06C653.735 252.219 649.707 251.833 646.902 255.087C645.518 256.664 644.348 258.417 643.423 260.299C640.679 266.073 638.958 272.133 639.594 278.617C639.781 280.525 638.884 283.53 641.639 283.792C644.133 284.042 647.064 283.668 648.51 280.363C649.632 277.869 650.293 277.769 652.326 280.151C653.91 282.009 655.768 282.246 657.813 282.72C658.498 282.87 659.06 283.855 659.596 284.453C659.037 284.856 658.419 285.167 657.763 285.376C654.645 285.9 651.528 286.236 648.398 286.773C644.981 287.371 641.589 288.119 638.185 288.805C637.276 284.865 636.688 280.857 636.427 276.822C636.415 276.086 636.44 275.388 636.44 274.689Z" fill="#1B2B36"/>
<path d="M729.201 277.033C729.201 281.173 729.339 282.932 729.201 284.665C729.193 285.018 729.105 285.365 728.943 285.679C728.78 285.993 728.548 286.266 728.264 286.476C727.98 286.687 727.652 286.83 727.304 286.894C726.957 286.958 726.599 286.942 726.259 286.847C719.767 285.391 713.134 284.663 706.482 284.677C706.083 284.677 705.322 283.268 705.372 282.545C705.596 279.103 706.195 275.674 706.357 272.22C706.595 264.472 708.81 256.913 712.791 250.261C713.87 248.461 715.304 246.9 717.006 245.672C717.612 245.407 718.267 245.277 718.928 245.29C719.589 245.303 720.239 245.459 720.834 245.747C722.073 246.399 723.057 247.448 723.627 248.727C725.111 252.256 726.82 255.835 727.368 259.551C728.491 266.097 728.79 272.769 729.201 277.033ZM725.997 270.936C726.355 264.261 725.007 257.605 722.081 251.595C720.685 248.889 718.029 248.503 716.283 250.86C710.123 259.127 708.078 268.454 709.387 278.58C709.624 280.475 712.18 281.51 714.375 280.051C715.996 279.004 717.018 278.131 718.714 279.627C719.74 280.539 720.86 281.337 722.056 282.009C722.373 282.126 722.711 282.174 723.048 282.151C723.385 282.128 723.713 282.034 724.011 281.875C724.309 281.716 724.57 281.495 724.777 281.228C724.984 280.961 725.132 280.654 725.211 280.325C725.573 277.195 725.785 274.066 725.997 270.936Z" fill="#1B2B36"/>
<path d="M682.453 347.949C668.861 347.113 656.491 341.876 649.321 327.847C648.576 326.351 648.151 324.716 648.074 323.047C648.074 321.974 648.934 322.348 651.129 325.703C651.932 327.255 652.898 328.718 654.009 330.067C656.901 333.076 660.047 335.829 663.412 338.297C666.063 339.99 668.993 341.202 672.065 341.876C676.467 342.961 681.006 343.435 685.483 344.233C686.73 344.457 688.7 344.582 688.189 346.427C687.977 347.188 686.007 347.487 684.822 347.936C684.034 348.015 683.241 348.02 682.453 347.949Z" fill="#1B2B36"/>
<path d="M648.049 308.283C648.871 308.618 649.656 309.036 650.393 309.53C650.86 310.012 651.198 310.604 651.378 311.251C651.184 311.528 650.896 311.727 650.568 311.812C645.792 311.737 643.173 314.867 640.679 318.284C640.442 318.595 639.295 318.583 638.834 318.284C638.558 318.095 638.331 317.845 638.171 317.552C638.01 317.26 637.921 316.934 637.911 316.6C638.859 310.44 642.063 307.747 648.049 308.283Z" fill="#1B2B36"/>
</svg>
