<svg width="1080" height="1080" viewBox="0 0 1080 1080" fill="none" xmlns="http://www.w3.org/2000/svg">
<path d="M212.556 319.08C212.733 342.393 212.813 365.663 212.796 388.892C212.796 435.454 212.556 481.927 212.556 528.628C212.556 538.592 211 558.508 211 576.87C211 591.886 212.037 605.916 215.819 612.521C231.529 640.14 319.019 673 344.101 673C358.179 673 360 656.81 360 642.691C360 622.965 356.345 597.038 356.345 585.294C356.345 539.136 357.609 492.573 357.609 446.378V445.91C357.609 433.635 359.709 419.504 359.709 405.903C359.709 367.726 345.353 365.718 312.087 357.535C281.63 350.046 231.706 340.827 215.958 310C215.022 310.24 214.238 310.455 213.34 310.631C212.92 313.263 212.712 315.923 212.72 318.588L212.556 319.08Z" fill="#F1FBFB"/>
<path d="M213.264 33.013C213.264 49.2839 213.264 65.5463 213.264 81.8003C213.264 110.452 213.264 139.094 213.264 167.729C213.264 183.312 212 189.566 212 201.579C212 211.453 213.112 221.023 217.422 227.922C224.524 239.315 278.93 268 304.623 268C318.664 268 322 256.404 322 242.302C322 231.96 316.136 193.287 316.136 158.26C316.136 128.183 320.446 121.018 320.446 104.295C320.446 51.2418 243.506 65.2425 218.332 27.6582C216.84 27.4557 215.374 27.2405 213.908 27C213.551 28.9864 213.336 30.9959 213.264 33.013V33.013Z" fill="#F1FBFB"/>
<path d="M568.27 255.807C565.668 254.622 562.86 253.953 560.002 253.837C558.206 253.85 556.434 254.25 554.806 255.008C553.179 255.766 551.734 256.865 550.57 258.23C521.819 256.122 508.847 242.388 485.684 233.173C463.824 224.476 442.064 219.124 421.127 207.927C406.714 200.201 395.84 188.538 379.657 183.88C376.18 179.373 371.186 177.366 365.509 177C362.26 181.33 360.452 184.056 359.036 189.345C356.559 188.86 354.035 188.657 351.513 188.74H351.184C347.952 192.122 346.103 196.588 346 201.262C345.982 203.932 346.709 206.555 348.099 208.836L347.922 208.987L355.129 212.597L348.921 210.212C385.068 235.458 421.873 262.977 461.282 284.322C477.036 292.856 516.483 313.747 521.225 321.687C536.144 346.643 548.559 375.879 548.559 405.518C548.559 418.002 543.654 416.437 541.593 423.859C536.789 441.242 537.699 459.356 531.541 476.776C528.267 486.079 521.313 498.715 521.313 509.596C521.313 532.76 581.837 542 603.014 542C621.979 542 640.603 537.822 657.178 527.294C655.914 504.282 648.012 502.363 634.888 488.313C632.145 485.372 631.272 480.424 628.326 478.101C628.01 475.577 627.315 473.279 627.062 470.805C627.302 470.578 627.568 470.288 627.77 470.086C627.896 468.76 627.998 467.447 628.073 466.134L625.696 466.198L623.016 468.609C622.384 473.229 620.917 475.488 619.223 479.54C612.823 482.24 605.942 483.619 598.994 483.592C592.465 483.41 585.961 482.696 579.548 481.459C578.747 479.42 578.155 477.305 577.778 475.147L579.839 472.269L578.84 469.909C575.818 468.861 572.847 467.675 569.75 466.867C569.482 466.04 569.018 465.291 568.397 464.683C568.397 464.304 568.397 463.938 568.397 463.597C568.452 461.954 568.677 460.322 569.067 458.725C570.483 457.462 571.849 456.2 573.214 454.875C573.315 453.764 573.429 452.653 573.543 451.542C573.543 451.883 573.543 452.236 573.454 452.577C572.342 451.088 570.989 448.02 569.383 446.783C569.257 445.698 569.13 444.612 569.016 443.526C570.424 442.33 571.533 440.821 572.253 439.121C569.485 435.976 566.878 432.694 564.44 429.287C566.677 422.105 567.676 417.649 575.692 415.112C576.392 413.966 576.795 412.665 576.868 411.325C576.825 410.344 576.677 409.37 576.425 408.421C573.577 406.774 570.305 406.001 567.019 406.2C566.612 403.544 566.439 400.857 566.5 398.171C576.413 392.024 588.841 387.088 600.903 387.088C605.967 387.035 610.989 388.019 615.658 389.979C613.732 392.099 611.574 393.996 609.222 395.634C612.838 397.351 616.909 397.49 621.056 397.49H623.484C626.454 397.39 629.426 397.649 632.334 398.26C632.884 401.269 633.126 404.327 633.055 407.386L630.021 409.166C629.781 410.219 629.604 411.286 629.489 412.36C635.558 419.934 643.182 425.639 644.902 435.826C643.871 437.482 643.059 439.264 642.487 441.128C643.683 441.539 644.94 441.744 646.204 441.734C647.974 441.734 649.681 441.406 651.691 441.305C660.289 430.966 652.956 427.924 685.348 346.631C691.783 330.41 710.078 316.335 711.52 298.864L712 298.41C711.861 297.514 711.709 296.617 711.583 295.734C708.664 294.216 705.402 293.476 702.113 293.588C698.092 293.588 693.945 294.32 689.672 294.434C688.408 293.462 687.143 292.439 685.993 291.366C685.993 290.887 685.929 290.419 685.929 289.965C685.929 284.398 688.976 280.056 689.153 274.401C680.619 265.564 672.477 259.518 659.77 259.518H659.682C660.476 257.18 661.55 254.947 662.881 252.865C661.857 247.097 659.846 243.019 657.747 237.718L654.688 235.925L652.918 237.591L653.246 237.288C653.599 239.162 653.789 241.063 653.815 242.969C653.815 251.692 648.24 252.045 640.249 259.215C625.444 260.869 609.905 274.363 602.433 286.986C593.936 278.326 595.011 263.785 590.51 252.903L588.323 252.525C582.81 255.819 579.928 257.852 576.109 257.852C573.387 257.691 570.723 256.996 568.27 255.807Z" fill="#E0D7B7"/>
<path d="M588.966 410.022L587.255 410.848C586.084 413.67 585.444 416.685 585.367 419.741V420.198C588.041 422.256 589.929 424.505 592.286 426.652C592.222 430.311 591.513 433.284 591.513 436.752C591.506 437.844 591.578 438.935 591.728 440.017C592.222 440.322 592.704 440.652 593.198 440.945C593.35 442.215 593.515 443.397 593.667 444.629L591.728 446.623H592.438C592.514 446.892 592.552 447.17 592.552 447.449C592.484 448.254 592.254 449.036 591.878 449.75C591.501 450.464 590.985 451.094 590.36 451.604C589.98 455.91 590.512 460.128 588.865 464.168C588.269 464.435 587.686 464.715 587.078 464.969C586.901 465.579 586.736 466.176 586.558 466.773L585.063 467.675C585.063 468.374 585 469.034 585 469.669C585 483.327 593.464 481.713 605.273 483.873L605.185 484C611.001 481.459 615.321 480.29 620.39 476.568C621.251 471.842 623 461.996 623 453.954C623 449.723 622.518 446.001 621.15 443.79C620.947 441.554 620.884 439.344 620.871 437.095C619.833 436.273 618.909 435.316 618.122 434.249C616.601 434.757 614.206 434.643 613.053 435.787L609.645 436.104C609.183 435.144 608.542 434.282 607.757 433.563C607.96 426.385 613.015 421.507 614.688 414.824C615.866 414.011 616.956 413.084 618.185 412.347C618.732 410.583 619.08 408.763 619.224 406.922C618.21 405.995 616.69 405.461 615.841 404.381C613.636 404.14 611.507 404.038 609.29 404C609.075 404.178 608.821 404.445 608.644 404.623C607.681 404.623 606.743 404.623 605.818 404.623H602.156C597.329 404.623 593.135 404.991 589.169 408.739L588.966 410.022Z" fill="#BCD4E0"/>
<path d="M721.685 203.867C719.283 209.958 718.068 216.453 718.105 223.001V223.001C719.54 223.28 720.936 223.47 722.383 223.635C722.04 224.181 720.136 226.439 720.136 227.365C720.136 227.365 720.136 227.429 720.136 227.454C710.502 232.745 703.711 252.298 697.288 261.713C698.238 264.42 699.423 267.04 700.829 269.542C698.912 273.183 697.021 278.423 694.089 281.266C694.025 281.913 694 282.534 694 283.017C694 285.554 694.673 287.064 695.625 289.843L698.849 290.769C699.166 291.201 699.496 291.632 699.814 292.038C707.887 292.825 713.193 293.446 714.691 302.62C716.183 303.559 717.428 304.843 718.321 306.363C719.464 306.621 720.621 306.816 721.786 306.947C722.104 307.302 722.446 307.645 722.764 308C724.909 307.289 727.524 307.543 729.111 305.957C730.206 306.264 731.337 306.426 732.474 306.439C737.234 306.439 740.091 303.09 744.026 299.258C759.753 298.065 764.45 293.091 769.527 278.538C790.446 268.006 783.896 260.381 797.059 248.441C797.145 247.7 797.188 246.954 797.186 246.208C797.186 243.378 796.691 240.625 796.653 237.719C801.388 231.591 803 228.837 803 225.982C803 225.982 800.081 201.874 785.902 201.874C780.177 201.874 773.475 204.818 766.861 208.752C765.313 208.244 763.828 203.067 762.228 202.801C757.24 197.801 753.571 199.172 747.529 199.172C739.557 199.21 721.685 204.996 721.685 203.867Z" fill="#BCD4E0"/>
<path d="M813.129 216.864C811.716 219.697 809.988 221.924 809.988 224.808C809.989 225.18 810.015 225.552 810.064 225.921C810.863 226.101 811.679 226.198 812.498 226.212C814.051 226.168 815.559 225.686 816.85 224.821L818.982 225.63C818.982 231.689 813.999 234.194 813.192 239.911C813.999 239.911 814.819 240 815.614 240C847.151 240 863.121 194.525 863.436 167.986C865.617 166.769 867.922 165.79 870.311 165.064C871.047 162.751 871.517 160.362 871.711 157.942C870.054 156.442 868.588 154.743 867.346 152.882C869.976 151.941 872.714 151.337 875.495 151.086C875.659 150.239 875.836 149.378 876 148.556C873.174 146.254 869.352 145.52 865.908 144.217C865.859 143.877 865.738 143.551 865.553 143.261C865.368 142.971 865.124 142.723 864.836 142.535C865.743 139.206 867.119 136.024 868.923 133.086L868.129 130.948C864.634 131.024 860.711 131.644 858.378 134.629C856.977 134.806 855.602 134.92 854.202 135.009C850.153 130.581 835.911 92 779.764 92C775.699 91.9985 771.638 92.2478 767.603 92.7463L767.136 93.227L763.693 93.5686C765.363 95.4711 767.413 97.0009 769.71 98.0591L770.353 100.349C768.095 104.738 764.046 111.43 759.782 114.111C759.517 114.87 759.252 115.617 759 116.376L760.009 117.982C765.433 118.665 771.211 117.868 776.408 119.766C776.257 120.499 776.118 121.233 775.967 121.954C786.361 126.761 795.141 131.328 804.261 138.12C804.261 138.626 804.261 139.12 804.261 139.588C804.261 150.137 795.671 153.73 793.69 163.533C796.503 165.949 799.556 168.176 802.52 170.427V170.946C802.52 174.298 801.36 176.98 801.032 180.332C804.307 181.8 807.787 182.755 811.35 183.165C815.16 189.43 817.204 196.612 817.267 203.949C817.204 208.996 816.094 213.689 813.129 216.864Z" fill="#BCD4E0"/>
<path d="M669.644 553.778C665.068 568.974 665.662 592.845 663.07 595.985C662.985 596.106 662.929 596.245 662.906 596.391C661.579 606.749 659.114 616.728 658.95 627.201C658.947 627.405 658.866 627.601 658.722 627.746L658.33 628.126C658.213 628.255 658.142 628.42 658.128 628.594C651.694 697.117 654.475 710.186 652.263 712.972C652.17 713.097 652.117 713.247 652.111 713.402C650.379 768.198 669.391 824.487 673.208 879.523C674.472 898.177 684.218 934.167 689.009 952.301C696.593 948.616 696.239 955.619 698.792 956.645C698.919 956.695 699.03 956.777 699.114 956.884C699.199 956.991 699.253 957.118 699.273 957.253L699.538 959.329C699.554 959.446 699.543 959.565 699.506 959.677C699.468 959.789 699.406 959.891 699.323 959.975C691.031 968.017 682.019 966.826 670.946 963.99C670.771 963.943 670.618 963.835 670.516 963.686C669.087 961.659 667.533 959.887 666.193 957.797C666.112 957.671 665.996 957.572 665.859 957.512C665.723 957.451 665.571 957.433 665.424 957.459C665.277 957.484 665.14 957.553 665.032 957.656C664.924 957.759 664.848 957.892 664.815 958.038C663.551 963.85 664.031 968.612 665.257 974.678C665.297 974.873 665.41 975.045 665.573 975.159C677.139 983.403 690.02 979.275 702.003 985.15C702.097 985.191 702.198 985.212 702.3 985.212C702.402 985.212 702.504 985.191 702.597 985.15L705.568 984.011C705.68 983.964 705.78 983.892 705.859 983.8C705.938 983.707 705.994 983.597 706.023 983.479C707.502 977.274 710.611 970.904 711.559 964.661C711.584 964.506 711.656 964.363 711.764 964.249C711.873 964.136 712.013 964.059 712.166 964.028C713.91 963.698 711.142 962.293 711.307 962.457C711.471 962.622 712.684 958.557 712.95 958.418C721.596 953.707 711.85 952.428 717.222 955.252C719.157 956.375 721.315 957.058 723.543 957.253C706.566 922.288 670.642 707.007 670.642 688.202C670.642 671.967 673.486 656.011 673.486 639.725C673.486 624.618 667.975 615.665 667.457 599.974C667.453 599.793 667.513 599.617 667.626 599.475C667.74 599.334 667.899 599.237 668.076 599.202L669.783 598.86C669.917 598.827 670.058 598.832 670.19 598.874C670.321 598.917 670.439 598.995 670.528 599.101C688.402 620.629 683.346 701.043 686.645 730.106C703.078 874.167 734.312 924.96 734.679 964.294C734.685 964.401 734.715 964.507 734.768 964.601C734.82 964.695 734.894 964.776 734.982 964.838C736.019 965.623 736.739 968.637 737.675 969.752C737.762 969.836 737.869 969.897 737.986 969.928C738.104 969.959 738.227 969.959 738.345 969.929C739.027 969.828 743.325 972.892 746.144 972.816C746.314 972.817 746.48 972.866 746.624 972.955C749.013 974.538 753.955 973.044 761.666 972.652C761.781 972.647 761.895 972.669 762 972.715C762.105 972.761 762.198 972.83 762.273 972.917C762.753 973.449 758.898 975.741 764.131 974.336C764.22 974.336 769.996 972.968 770.274 976.628C770.279 976.749 770.255 976.869 770.204 976.979C770.154 977.089 770.078 977.186 769.984 977.261C759.669 985.454 750.163 983.048 737.675 981.06C736.967 980.946 724.036 975.893 717.639 973.538C717.475 973.476 717.337 973.36 717.248 973.209C714.72 968.916 715.68 969.625 712.861 968.992C712.545 968.916 711.395 966.016 711.218 966.294C707.426 972.36 706.617 981.301 708.071 988.43C708.093 988.541 708.139 988.645 708.207 988.735C708.275 988.825 708.362 988.898 708.462 988.95C726.083 998.257 745.259 998.523 764.852 994.636C765.033 994.597 765.195 994.493 765.307 994.344C767.911 991.001 768.366 993.914 776.797 987.937C776.892 987.868 776.971 987.779 777.028 987.676C777.084 987.573 777.118 987.459 777.126 987.341C778.111 951.035 762.993 984.517 762.045 945.792C761.388 919.046 784.002 763.968 784.002 763.917C784.002 751.254 777.454 739.401 777.454 726.585C777.454 691.431 797.022 673.626 803.999 547.23C804.008 547.053 803.954 546.878 803.847 546.737L802.154 544.495C802.09 544.406 802.006 544.332 801.91 544.28C801.814 544.227 801.707 544.197 801.597 544.191C780.488 542.735 784.166 554.525 769.87 558.742C769.541 558.387 770.666 557.222 768.669 559.666C768.53 559.819 768.342 559.918 768.138 559.945C762.361 560.426 757.014 560.667 751.339 561.692C751.227 561.711 751.122 561.755 751.03 561.821C750.938 561.887 750.862 561.973 750.808 562.072C747.231 568.239 749.089 570.253 750.265 576.534C750.287 576.641 750.285 576.751 750.26 576.858C750.235 576.964 750.187 577.063 750.12 577.149C750.052 577.235 749.967 577.305 749.87 577.354C749.772 577.403 749.666 577.43 749.557 577.433C741.618 577.889 735.766 571.823 728.22 569.556C728.112 569.523 728.012 569.466 727.929 569.389C727.846 569.313 727.781 569.218 727.739 569.113C725.729 564.048 723.075 560.464 722.519 554.955C722.509 554.819 722.534 554.682 722.592 554.558C722.649 554.434 722.737 554.327 722.847 554.246C725.047 552.726 722.847 553.879 729.559 555.348C729.662 555.372 729.768 555.374 729.871 555.354C729.975 555.335 730.073 555.294 730.16 555.235C730.247 555.175 730.32 555.098 730.376 555.009C730.431 554.919 730.467 554.819 730.482 554.715C730.813 552.169 730.999 549.607 731.038 547.04C731.041 546.937 731.022 546.834 730.983 546.738C730.944 546.642 730.885 546.555 730.811 546.483L727.588 543.229C727.485 543.122 727.354 543.049 727.21 543.017C727.066 542.986 726.916 542.998 726.778 543.051C680.224 560.502 681.614 546.964 669.176 545.28C668.975 545.251 668.771 545.303 668.607 545.424C668.444 545.545 668.335 545.725 668.304 545.926C667.988 548.459 668.86 550.992 669.568 553.436C669.621 553.541 669.647 553.659 669.644 553.778V553.778Z" fill="#E0D7B7"/>
<path d="M324.861 114.401C323.659 114.604 319.864 108.474 316.36 104.054C311.3 97.722 299.636 93.2135 293.779 102.142C286.505 113.211 309.149 119.619 302.508 133.043C301.547 134.994 308.276 133.385 307.29 127.788C305.506 117.719 301.306 115.541 298.131 111.425C294.146 106.233 299.181 100.217 305 101.939C319.485 106.207 328.441 128.725 326.012 147.81C325.595 151.103 322.495 150.457 319.042 151.077C318.397 151.191 315.146 151.977 315.373 152.597C315.601 153.218 315.867 154.003 316.195 154.028C326.063 154.889 326.316 153.37 326.177 165.502C326.063 175.786 326.43 179.129 322.913 179.737C313.375 181.396 311.717 174.608 302.457 176.736C281.129 181.624 253.817 178.103 250.983 176.039C247.062 173.177 249.782 169.834 250.983 169.441C264.152 165.021 294.184 165.553 295.259 161.412C295.449 160.626 292.514 160.424 291.768 160.487C258.662 163.438 256.259 163.641 249.643 165.376C248.073 165.716 246.663 166.576 245.64 167.816C244.617 169.056 244.04 170.604 244.002 172.212C243.964 173.819 244.467 175.393 245.431 176.68C246.394 177.967 247.762 178.892 249.314 179.307C260.572 182.523 282.786 184.208 302.04 181.168C306.67 180.446 308.643 180.826 322.786 184.322C326.721 185.297 326.151 189.02 326.164 196.594C326.43 281.547 325.797 281.674 328.365 281.446C331.705 281.167 330.048 280.812 330.68 196.505C330.781 182.764 328.403 185.677 341.471 179.421C345.784 185.753 346.885 187.627 347.606 188.108C341.104 196.733 342.027 215.299 352.198 209.169C355.07 207.447 359.953 193.643 360.61 191.199C362.356 184.752 363.141 178.065 364.406 171.48C365.051 168.124 363.748 166.123 360.522 165.148C356.866 164.008 360.383 160.082 362.166 161.057C391.755 178.167 391.996 178.407 392.135 180.13C392.35 184.334 392.375 188.564 392.223 192.794C392.223 193.313 390.756 194.162 389.946 194.187C387.416 194.251 382.774 189.489 381.509 191.515C379.712 194.39 383.849 194.808 385.228 196.467C386.923 198.519 393.02 197.987 389.617 207.485C385.557 218.883 385.494 213.273 379.75 214.564C384.317 220.985 384.165 218.187 382.888 221.188C383.216 221.859 383.141 221.948 383.128 220.922C391.983 222.518 390.781 222.974 419.472 237.386C423.103 239.21 421.003 241.565 420.623 245.808C420.623 246.048 421.762 246.745 421.989 246.606C422.912 246.121 423.709 245.427 424.317 244.579C427.695 239.108 429.567 241.755 449.618 251.089C454.678 253.444 452.059 256.889 452.616 260.233C452.793 261.271 454.096 262.145 455.513 260.448C455.639 260.296 457.423 255.648 458.738 257.801C467.745 272.58 484.039 268.021 481.243 279.951C481.091 280.584 481.433 283.345 482.508 283.523C483.9 283.763 483.495 282.915 485.253 279.483C487.454 275.227 484.52 275.088 517.119 286.727C521.572 288.322 520.32 290.944 521.699 300.936C521.775 301.493 522.546 301.949 522.964 302.443C523.369 302.063 524.09 301.721 524.14 301.303C524.785 295.592 523.811 289.26 529.036 290.653C547.328 295.528 550.212 295.554 550.086 299.961C549.504 321.554 552.616 314.133 530.377 310.903C529.112 310.726 529.479 313.043 529.858 313.233C531.746 314.191 533.69 315.037 535.677 315.766C552.869 322.099 549.289 317.273 549.959 336.245C550.136 341.311 550.225 344.211 547.252 344.185C543.457 344.185 539.915 343.413 540.092 344.388C540.12 345.048 540.384 345.675 540.838 346.155C541.291 346.634 541.903 346.933 542.559 346.997C551.06 348.466 550.25 350.72 549.959 362.612C549.883 365.93 549.883 365.93 545.658 367.032C544.722 367.285 543.394 367.121 543.647 368.678C544.216 372.187 550.604 369.489 549.453 379.646C547.783 394.197 549.074 396.363 544.305 395.869C543.971 395.855 543.64 395.919 543.336 396.058C543.033 396.197 542.766 396.405 542.559 396.667C542.516 396.991 542.552 397.32 542.664 397.627C542.777 397.934 542.962 398.208 543.204 398.427C548.365 402.67 548.378 398.807 544.469 424.06C543.938 427.467 540.674 426.074 538.308 426.277C537.639 426.439 536.996 426.695 536.398 427.036C536.79 427.948 537.005 429.493 537.663 429.671C542.964 431.216 543.697 434.673 542.648 439.549C541.762 443.678 541.661 447.983 541.129 452.213C540.598 456.443 540.067 455.405 533.893 457.735C534.387 458.571 534.703 459.913 535.399 460.141C538.852 461.294 539.447 463.599 538.713 466.79C536.639 475.731 537.764 479.328 532.654 480.088C531.035 480.328 531.566 481.747 532.186 482.368C534.058 484.255 535.07 486.167 534.21 488.953C530.807 500.06 531.971 504.467 526.949 503.479C524.418 502.998 524.887 503.201 522.483 504.277C522.926 504.796 523.267 505.543 523.811 505.771C532.97 509.115 527.505 515.599 530.516 515.903C530.845 515.901 531.168 515.818 531.457 515.661C531.746 515.504 531.992 515.279 532.173 515.004C533.931 508.583 537.625 511.534 558.739 518.651C565.671 520.981 555.791 518.753 590.073 522.78C593.046 523.134 595.918 524.578 598.928 524.667C601.939 524.755 605.127 523.616 608.252 523.4C640.143 521.501 632.426 522.944 639.877 520.981C640.269 520.88 640.447 519.436 639.877 519.259C632.654 517.018 631.338 519.411 632.173 512.674C632.578 509.33 631.895 505.366 636.791 504.34C637.023 504.258 637.227 504.11 637.376 503.914C637.526 503.718 637.615 503.482 637.632 503.236C637.65 502.989 637.595 502.743 637.475 502.528C637.354 502.312 637.174 502.137 636.955 502.023C632.173 500.25 633.16 497.21 633.084 492.6C634.058 493.006 636.727 493.652 644.064 495.526C650.579 497.198 645.064 503.125 652.161 521.855C656.048 532.641 663.81 541.59 673.932 546.956C674.311 547.159 675.083 546.602 675.665 546.399C675.197 545.361 676.626 546.69 668.277 538.952C614.476 489.092 705.81 314.399 700.371 316.058C696.892 317.147 696.74 320.262 695.462 322.985C690.175 334.18 685.051 345.456 680.092 356.812C675.677 366.943 677.954 365.208 663.837 364.689C650.415 364.208 651.338 364.689 652.603 351.176C653.868 337.663 655.589 340.297 662.977 339.563C663.394 339.563 664.697 337.916 663.407 337.6C659.687 336.663 655.892 334.814 652.262 335.067C642.572 335.776 633.286 333.066 623.811 332.534C618.207 332.217 619.574 328.38 622.622 307.395C623.154 303.684 624.482 302.887 628.581 303.406C659.144 307.205 658.789 306.23 660.927 310.181C661.433 310.088 661.917 309.904 662.357 309.637C665.848 307.357 661.003 306.724 682.483 308.434C686.708 308.763 685.595 312.955 685.987 315.032C686.212 315.615 686.542 316.152 686.961 316.615C687.392 316.097 687.734 315.51 687.973 314.88C688.479 312.119 688.391 309.282 692.262 308.548C694.463 308.104 693.337 306.483 692.072 305.774C689.023 304.064 690.339 301.506 690.731 299.201C691.123 296.896 693.173 297.15 694.843 296.668C706.228 293.388 704.102 293.211 706 290.425C700.598 289.829 701.787 290.906 695.88 292.071C685.899 294.034 686.19 282.497 691.655 274.227C695.93 267.755 686.266 268.591 689.517 262.208C697.562 246.365 699.814 246.644 699.131 245.744L699.257 245.896C703.255 243.047 703.837 242.895 703.053 242.173C702.268 241.451 702.306 241.692 698.612 245.225C697.195 246.238 695.361 246.96 694.45 248.315C690.845 253.698 686.025 255.141 679.839 254.128C677.12 253.672 674.223 254.23 671.414 254.47C671.124 254.564 670.862 254.729 670.652 254.95C670.442 255.171 670.291 255.442 670.213 255.737C670.213 256.243 670.681 257.231 671.035 257.282C685.481 259.143 684.735 256.737 684.571 263.791C684.381 271.542 688.846 269.782 685.709 276.722C682.951 282.813 681.8 288.842 686.632 294.629C689.163 297.681 687.05 300.696 685.962 303.57C685.33 305.242 683.027 305.052 667.518 303.33C663.154 302.836 663.862 301.772 665.772 288.576C667.24 278.444 667.113 282.408 666.152 276.43C664.76 279.875 665.013 277.621 662.698 289.576C660.383 301.531 661.281 303.254 655.804 302.747C652.806 302.469 629.238 300.278 626.367 298.948C622.863 297.365 624.735 291.577 622.078 296.288C620.51 299.087 615.424 297.339 609.137 296.618C608.707 296.618 608.163 297.276 607.771 297.719C607.695 297.783 608.049 298.479 608.302 298.555C617.297 301.405 620.636 301.329 619.978 305.369C615.842 330.862 616.183 331.242 611.819 330.698C608.663 330.314 605.53 329.765 602.432 329.051C597.777 327.975 597.714 327.874 598.372 323.454C601.762 300.658 594.172 307.154 598.372 297.58C599.51 294.971 596.917 294.959 595.753 296.504C589.061 305.369 601.003 302.595 594.488 323.973C593.223 328.013 586 326.86 582.584 323.821C578.928 320.553 586.911 286.03 583.647 285.828C581.926 285.739 582.255 286.195 577.803 315.209C576.778 321.947 577.727 323.644 568.492 320.984C551.326 316.045 554.425 319.718 554.4 301.088C554.4 295.528 559.219 298.555 570.212 298.391C571.035 298.391 571.844 297.631 572.667 297.213C572.047 296.491 571.515 295.263 570.782 295.111C556.993 292.35 554.437 294.275 554.45 287.677C554.45 276.557 554.766 274.556 557.512 272.707C557.822 272.358 558.039 271.935 558.141 271.478C558.242 271.022 558.226 270.547 558.093 270.098C556.537 268.145 555.818 265.654 556.095 263.171C556.095 262.727 555.487 262.259 555.159 261.803C549.858 267.097 555.842 269.161 533.767 262.386C528.315 260.714 530.845 257.231 531.73 249.404C531.844 248.48 531.541 246.77 531.11 246.656C526.607 245.491 528.947 261.106 521.066 258.346C493.527 248.733 492.818 248.936 493.742 244.035C495.576 234.144 493.147 234.004 490.895 240.007C488.644 246.01 487.012 246.492 482.141 242.54C480.973 241.741 479.951 240.747 479.118 239.602C472.477 228.432 463.368 233.27 464.115 224.949C464.191 224.24 463.242 223.379 462.597 222.733C461.975 222.861 461.424 223.218 461.053 223.734C459.27 228.584 456.765 226.266 436.347 217.718C432.552 216.122 433.261 212.184 433.704 207.32C433.723 206.971 433.824 206.63 433.999 206.327C434.174 206.023 434.418 205.766 434.712 205.574C435.005 205.383 435.339 205.264 435.687 205.226C436.035 205.189 436.387 205.233 436.714 205.357C442.913 208.144 473.729 226.026 501.863 233.308C542.015 243.705 538.157 248.594 546.746 247.72C546.228 246.986 545.861 245.896 545.152 245.554C508.998 228.305 510.44 233.928 490.313 226.026C454.197 211.829 439.864 201.963 374.551 163.615C367.657 159.563 364.722 156.359 358.106 159.208C344.899 164.882 360.927 142.668 338.523 132.929C331.945 130.067 330.288 125.331 330.528 118.517C330.971 105.764 330.642 92.9982 330.591 80.2324C330.591 70.81 329.908 72.6337 326.91 71C325.152 100.61 327.948 113.882 324.861 114.401ZM562.774 501.225C560.548 511.078 560.712 514.117 557.119 513.041C531.452 505.341 534.172 507.747 536.436 497.033C539.093 484.457 539.093 486.825 549.327 490.283C561.926 494.525 563.369 492.765 562.774 501.225ZM598.334 515.042C597.55 519.272 593.679 518.474 586.696 518.474C565.494 515.181 562.761 517.41 565.114 506.316C567.265 496.184 565.987 495.235 577.006 497.907C600.725 503.644 601.547 497.654 598.334 515.042ZM628.834 513.016C628.454 517.727 627.859 518.411 623.154 518.664C617.069 518.993 614.716 518.309 614.716 518.968C598.612 518.968 600.421 519.563 603.331 505.67C603.584 505.074 603.986 504.553 604.497 504.156C605.009 503.76 605.613 503.5 606.253 503.403C611.528 503.568 616.791 504.011 622.028 504.556C629.365 505.303 629.453 505.493 628.834 512.99V513.016ZM647.379 488.877C647.29 495.209 641.509 491.207 634.248 486.635C633.59 486.217 633.413 485.014 632.983 484.103C644.368 475.934 646.999 463.776 648.163 450.909C648.366 449.863 648.258 448.78 647.854 447.794C647.449 446.809 646.765 445.963 645.886 445.362C645.519 445.121 645.646 443.323 646.126 442.829C646.524 442.522 646.982 442.303 647.469 442.183C647.957 442.064 648.464 442.048 648.958 442.136C649.452 442.224 649.923 442.415 650.339 442.695C650.756 442.976 651.109 443.341 651.376 443.766C653.35 448.921 647.834 455.785 647.379 488.852V488.877ZM624.178 453.29C623.748 441.271 623.963 435.446 626.873 430.418C627.057 429.943 627.117 429.428 627.048 428.923C626.98 428.419 626.784 427.939 626.481 427.53C624.823 426.58 624.292 428.214 623.52 429.329C614.893 441.917 606.847 436.522 608.796 432.647C614.615 421.021 616.917 419.387 615.475 416.576C624.229 413.245 625.899 410.991 636.702 426.707C645.443 439.372 627.316 447.831 630.124 449.263C634.21 451.352 633.805 444.779 642.951 450.022C643.359 450.314 643.698 450.692 643.943 451.13C644.188 451.568 644.333 452.055 644.368 452.555C643.609 468.259 640.295 466.689 635.235 464.447C633.299 463.586 630.592 463.181 629.656 461.674C628.391 459.584 626.253 459.546 624.912 458.318C623.938 457.418 624.242 455.012 624.178 453.265V453.29ZM617.537 349.53C618.802 333.94 614.45 335.51 648.024 339.272C651.465 339.652 650.554 341.944 648.732 354.621C647.328 364.221 650.668 364.841 621.484 360.434C616.044 359.585 616.803 357.356 617.537 349.504V349.53ZM579.827 336.865C580.257 329.533 580.927 329.077 588.163 330.672C591.376 331.382 591.566 331.686 591.136 335.953C590.883 338.486 590.364 336.865 591.452 339.917C592.717 339.322 592.869 340.209 594.754 335.358C596.171 331.698 598.65 332.661 611.414 335.004C615.905 335.827 614.83 339.056 614.273 344.882C613.122 359.155 615.209 359.965 600.497 356.635C577.069 351.366 578.675 356.457 579.827 336.878V336.865ZM558.397 323.074C564.241 325.176 570.946 324.847 575.994 329.216C575.778 348.605 577.006 351.632 572.198 350.606C558.093 347.592 554.362 347.465 554.298 342.64C554.109 325.239 553.008 321.136 558.397 323.086V323.074ZM563.356 353.139C567.923 354.469 573.4 353.836 576.601 358.648C576.874 358.816 577.185 358.913 577.505 358.931C577.825 358.948 578.145 358.886 578.435 358.75C580.763 357.116 580.32 357.344 609.58 362.878C613.185 363.562 612.426 366.678 613.147 374.96C613.147 375.403 614.83 375.454 614.931 375.112C617.461 366.564 612.692 363.79 624.811 364.98C646.999 367.121 647.493 366.703 646.987 372.731C645.722 387.928 646.708 388.448 638.764 387.928C618.916 384.699 594.222 381.229 562.104 371.376C557.739 370.034 554.096 369.502 554.071 365.867C553.919 350.1 553.843 350.404 563.356 353.152V353.139ZM558.802 400.796C552.085 397.857 550.857 400.416 552.793 382.508C554.564 366.044 552.527 380.216 623.748 389.55C639.447 391.601 645.785 388.84 645.949 396.211C645.949 396.426 646.696 396.642 647.088 396.844C646.987 393.666 649.542 391.335 649.302 387.827C648.935 382.584 649.82 377.252 650.314 371.971C650.31 371.439 650.414 370.912 650.621 370.422C650.828 369.932 651.132 369.49 651.516 369.122C651.9 368.755 652.355 368.469 652.853 368.284C653.351 368.099 653.882 368.018 654.412 368.045C655.114 367.956 655.824 367.956 656.525 368.045C662.23 369.312 668.378 366.943 673.856 370.135C670.579 380.836 670.314 382.508 660.206 412.46C658.65 417.082 656.942 415.233 646.025 413.979C645.582 413.979 644.621 414.676 644.634 415.005C644.661 415.343 644.766 415.671 644.942 415.961C645.118 416.251 645.359 416.496 645.646 416.677C656.563 419.78 658.296 417.285 656.651 424.719C651.478 447.705 653.944 431.608 640.965 441.183C640.965 441.385 640.965 441.588 640.877 441.791C640.105 440.435 646.885 430.253 633.868 417.475C625.595 409.369 624.659 410.395 629.428 408.344C633.514 406.596 633.464 406.343 633.223 405.646C632.831 404.595 631.212 404.278 630.693 404.38C597.423 409.445 568.112 401.492 571.983 406.811C575.083 411.054 574.513 416.082 575.513 420.818C576.778 427.15 592.92 421.477 589.858 431.988C588.479 436.725 585.911 438.865 581.458 438.168C577.006 437.472 572.072 437.839 568.884 433.584C566.063 429.785 567.113 425.453 566.936 421.261C566.936 420.945 565.355 419.742 564.811 420.856C563.607 423.419 563.123 426.263 563.41 429.08C563.698 431.898 564.746 434.585 566.443 436.851C567.493 438.206 568.783 439.473 567.973 441.537C566.278 445.818 567.644 449.364 569.959 452.669C568.353 453.594 565.722 457.115 567.189 457.165C564.52 459.698 565.026 466.182 569.529 468.652C575.601 471.995 576.677 468.956 578.498 474.541C578.903 475.807 580.687 475.909 580.674 475.035C580.674 472.097 582.863 470.843 584.608 469.272C586.86 468.133 589.668 465.967 589.757 463.738C589.895 463.582 590.002 463.402 590.073 463.206C590.463 462.021 590.516 460.751 590.228 459.537C589.94 458.323 589.322 457.213 588.441 456.329V456.329C592.236 452.695 597.524 449.237 593.982 442.056C589.415 432.824 602.407 425.187 583.445 420.527C577.537 419.058 576.917 418.197 577.423 412.029C577.689 408.66 577.208 409.091 615.019 410.408C617.676 410.497 619.156 412.029 616.285 415.005C615.889 415.476 615.541 415.985 615.247 416.525C614.64 416.74 613.856 416.841 613.577 417.272C605.886 429.379 602.559 433.343 605.987 437.953C609.782 443.019 615.412 440.081 618.701 439.65C622.496 439.156 621.408 443.45 621.142 450.529C620.08 479.037 620.004 474.427 621.041 476.605C621.433 476.073 622.066 475.592 622.18 475.022C624.71 462.269 624.71 462.231 635.386 469.222C640.307 472.451 637.347 475.161 633.489 479.353C632.224 480.696 632.591 482.266 632.768 483.811C631.901 482.965 631.235 481.935 630.82 480.797C630.048 475.731 632.527 470.843 629.403 470.539C627.126 470.324 623.976 483.203 631.313 490.105C633.236 491.929 631.895 492.144 632.818 492.638C626.594 499.87 635.69 503.302 607.695 498.971C601.724 498.059 605.165 491.499 599.46 496.729C598.195 497.881 595.589 497.375 571.541 491.967C568.087 491.195 567.644 488.408 567.505 485.382C567.505 484.685 566.367 484.027 565.759 483.355C563.027 489.016 563.229 489.586 559.675 488.624C542.812 484.052 539.839 483.444 540.699 478.657C543.444 463.371 541.433 463.168 551.047 464.498C551.768 464.587 556.942 464.916 556.854 464.004C556.651 462.231 554.906 463.143 546.734 459.014C543.988 457.634 544.203 456.101 546.544 437.877C547.176 433.014 550.769 434.61 559.283 435.344C560.472 435.433 560.042 433.483 559.536 433.077C552.186 427.214 545.62 435.826 549.82 413.739C550.465 410.383 549.39 406.571 552.35 403.835C564.039 405.773 561.737 405.709 564.532 404.734C563.533 402.797 565.064 403.594 558.802 400.808V400.796ZM583.824 467.018C572.73 468.133 567.176 467.816 569.264 456.177C569.984 455.629 570.62 454.976 571.148 454.24C576.575 456.773 582.357 456.469 588.125 456.304C588.125 458.406 588.125 460.509 588.125 462.636C586.51 463.912 585.065 465.389 583.824 467.031V467.018ZM572.894 449.782C571.721 448.105 571.03 446.138 570.895 444.095C570.351 440.296 575.74 441.461 581.016 441.74C587.632 441.74 589.415 441.36 590.288 443.956C593.438 453.568 577.334 454.721 572.894 449.782ZM528.454 268.882C529.251 264.589 535.007 268.68 544.811 270.643C552.11 272.112 552.009 274.164 551.389 280.002C550.276 292.388 551.389 292.337 538.448 288.702C524.33 284.726 525.051 287.335 528.454 268.882ZM490.579 258.08C492.274 251.747 492.641 253.014 519.573 263.069C524.052 264.741 523.761 265.767 522.647 272.416C521.534 283.497 521.737 284.092 510.427 280.015C484.975 270.782 486.177 274.619 490.579 258.08ZM460.661 242.046C462.369 232.725 464.836 233.663 472.046 238.5C474.867 240.413 476.626 243.832 479.169 246.251C481.528 248.296 483.994 250.216 486.556 252.001C483.394 268.464 483.912 266.78 481.294 268.388C475.449 267.185 464.709 261.309 460.054 252.178C458.194 248.645 459.965 245.77 460.661 242.046V242.046ZM436.183 223.303C460.762 233.067 455.551 230.902 458.435 234.131C455.816 244.402 455.677 249.404 450.845 247.163C428.011 236.512 428.416 237.563 429.58 232.915C431.452 225.469 431.692 221.517 436.183 223.303ZM396.196 188.298C396.499 183.068 396.12 180.94 400.902 183.802C429.668 201.052 430.946 200.646 430.111 205.788C428.327 216.895 432.755 216.692 400.484 200.57C395.057 197.847 396.196 194.631 396.196 188.298ZM395.879 203.888C432.565 222.442 424.975 218.022 428.77 222.024C425.279 231.902 424.899 235.119 421.699 233.587C389.858 218.326 388.314 219.073 390.87 214.045C392.565 210.664 392.641 206.472 395.879 203.876V203.888ZM355.31 196.201C353.678 200.558 354.994 198.379 348.985 206.776C345.949 204.699 347.075 204.116 347.72 188.235C348.34 188.463 348.846 187.754 351.515 188.539C356.36 189.957 357.068 191.502 355.31 196.201ZM330.528 145.239C331.06 139.122 329.605 131.726 333.64 133.841C341.23 137.78 347.555 143.01 347.302 152.306C346.721 170.036 361.559 166.68 360.762 171.961C360.029 176.824 358.915 181.637 357.802 186.437C356.993 189.919 348.555 180.104 341.521 179.18C341.772 178.598 341.88 177.964 341.838 177.331C340.876 173.988 340.13 175.685 334.703 177.825C329.276 179.965 330.68 174.481 330.629 161.07C330.629 155.763 335.487 158.79 336.094 156.511C336.891 153.598 329.693 155.206 330.528 145.239Z" fill="#1B2B36"/>
<path d="M582.324 578.573C582.477 584.481 584.868 601.624 590.364 602.485C590.573 601.547 590.573 600.575 590.364 599.638C583.469 582.622 586.547 565.479 589.575 548.336C590.364 543.756 591.572 543.806 602.003 543.578C617.574 543.262 644.364 537.101 645 533.052C644.744 532.834 644.421 532.709 644.084 532.698C619.342 536.494 588.112 550.6 524.596 522.273C485.836 504.991 534.9 494.25 532.331 376.627C532.092 373.11 531.582 369.616 530.804 366.177C530.715 365.709 529.799 365.392 529.265 365C528.922 365.708 528.693 365 528.782 370.061C530.677 482.547 491.776 502.802 509.955 517.415C528.133 532.028 517.587 513.252 499.651 602.611C491.878 641.376 487.909 679.698 488.571 682.456C492.578 698.992 487.986 713.769 486.027 757.594C484.831 784.277 479.73 887.641 486.256 930.517C486.256 930.77 487.362 930.948 487.973 930.998C492.247 931.416 480.34 860.022 492.934 698.992C494.206 682.658 490.924 686.239 492.502 675.814C501.241 617.616 505.159 585.848 521.327 534.457C522.269 531.471 523.019 528.017 525.818 528.27C528.616 528.523 551.972 539.846 582.388 543.085C583.1 543.05 583.81 543.198 584.448 543.515C589.181 547.589 581.828 557.445 582.324 578.573Z" fill="#1B2B36"/>
<path d="M772.472 964.998C771.495 964.467 769.935 964.998 768.666 964.998C769.098 965.821 769.339 966.947 770.024 967.402C775.097 970.831 776.29 975.676 775.554 981.319C774.996 985.608 776.112 989.302 770.125 991.604C755.169 997.536 738.66 998.342 723.194 993.894C718.501 992.566 714.189 989.833 709.8 987.569C705.411 985.304 706.768 983.027 714.455 961C715.901 956.838 721.596 957.205 723.055 959.216C724.044 960.558 724.691 962.734 722.623 963.771C720.556 964.808 719.973 966.301 722.053 967.339C734.534 973.272 747.167 978.017 761.982 975.17C762.832 975.006 763.529 974.069 764.303 973.487C759.103 970.767 758.329 973.981 732.111 967.351C726.403 965.909 672.636 761.435 672.636 656.465H672.991C672.991 616.258 673.968 626.494 668.754 601.697C668.266 600.413 667.534 599.236 666.598 598.23C666.319 597.838 665 597.939 665 598.597C665 614.411 671.266 618.055 668.513 675.771C667.321 700.796 680.081 771.923 683.887 791.229C717.157 960.76 727.139 952.296 717.284 954.991C714.366 955.788 711.804 956.939 710.662 959.76C700.059 986.088 699.589 986.531 707.771 991.959C722.7 1001.85 729.65 998.133 730.602 1003.83C730.995 1006.07 733.278 1008.37 730.335 1010.51C728.724 1011.68 729.333 1012.97 730.475 1013.97C744.694 1026.57 759.914 1030.56 761.183 1029.94C762.21 1029.42 763.225 1028.56 762.248 1027.95C739.836 1014.11 735.041 1015.11 736.03 1010.24C736.5 1007.91 735.066 1004.85 736.107 1003.07C737.705 1000.33 741.282 1001.99 743.996 1001.69C755.792 1000.42 753.839 1000.66 754.879 1011C754.879 1011.33 756.579 1011.38 756.667 1011.09C758.481 1005.14 758.342 1002.23 762.286 999.297C763.365 998.499 764.975 998.474 766.295 997.955C780.551 992.389 778.344 994.476 779.942 977.915C780.45 972.121 777.571 967.718 772.472 964.998Z" fill="#1B2B36"/>
<path d="M797.255 543.292C796.66 543.532 793.145 545.44 793.461 546.451C793.676 547.07 795.687 547.437 796.332 547.336C798.001 547.07 802.957 544.48 802.755 549.067C796.294 701.801 767.845 724.08 779.983 752.274C786.823 768.096 778.946 780.164 775.532 808.522C750.396 1016.87 762.977 995.743 775.216 856.114C782.739 770.32 792.918 771.445 784.775 751.453C777.189 732.85 786.811 726.178 797.912 656.901C814.349 554.362 798.645 548.928 811.074 539.551C831.305 524.311 826.677 503.194 826.247 481.95C826.247 479.006 824.654 476.971 822.884 475C822.96 475.96 823.035 478.134 823.301 482.709C824.199 497.267 830.533 529.757 797.255 543.292Z" fill="#1B2B36"/>
<path d="M663.917 544C663.139 544.532 661.796 544.938 661.657 545.609C652.957 586.978 656.887 577.057 653.773 599.154C643.114 674.619 633.309 717.496 644.759 742.102C648.136 749.362 648.011 757.129 650.17 788.26C654.1 826.538 653.66 820.468 653.221 823.193C652.417 822.736 651.187 822.47 650.886 821.786C646.692 812.005 642.989 802.058 642.223 791.276C641.67 783.674 641.884 785.181 639.448 783.306C632.983 793.151 650.007 831.251 654.388 841.755C661.155 857.985 660.666 886.101 676.911 945.475C677.527 947.717 676.585 948.642 674.576 949.276C673.691 949.702 672.881 950.271 672.178 950.961C672.924 951.63 673.772 952.174 674.689 952.57C682.586 954.509 690.558 955.712 698.694 954.534C700.263 954.306 702.171 954.534 703 952.519C694.375 949.428 700.703 951.43 685.562 949.985C678.619 949.314 681.431 948.085 678.669 935.719C646.152 790.326 656.435 758.599 648.726 741.722C644.711 732.989 643.015 723.352 643.805 713.758C652.656 595.112 666.541 552.046 663.917 544Z" fill="#1B2B36"/>
<path d="M764.543 1034.03C764 1034.03 762.963 1034.59 762.951 1034.92C762.685 1042.92 762.015 1045.18 669.416 1048.43C651.304 1049.69 622.219 1048.99 604.625 1045.09C603.879 1044.93 603.146 1043.9 602.805 1043.11C601.68 1040.59 619.793 1030.5 624.204 1028.37C674.649 1004.42 718.029 1013.66 720.885 1011.24C719.356 1007.46 715.615 1008.52 712.859 1008C692.901 1004.22 643.252 1009.99 609.327 1031.95C606.799 1033.55 604.486 1034.47 601.389 1033.43C596.915 1031.95 588.977 1033.43 588.484 1031.06C587.359 1025.81 635.074 1005.13 684.028 998.217C684.331 998.217 685.368 996.187 684.028 996.073C673.259 995.191 634.467 1002.3 603.323 1015.92C596.902 1018.72 591.05 1022.84 585.059 1026.54C583.653 1027.59 582.435 1028.87 581.456 1030.33C581.232 1030.7 581.086 1031.12 581.028 1031.56C580.97 1031.99 581.001 1032.44 581.12 1032.86C581.238 1033.28 581.44 1033.68 581.715 1034.02C581.991 1034.36 582.332 1034.65 582.72 1034.85C591.859 1038.63 601.44 1034.45 598.697 1039.54C596.725 1043.17 594.121 1044.59 602.122 1048.85C615.192 1055.82 689.653 1056.07 755.202 1047.42C763.633 1046.31 769.106 1043 766.224 1035.02C766.043 1034.73 765.796 1034.49 765.503 1034.32C765.211 1034.15 764.882 1034.05 764.543 1034.03V1034.03Z" fill="#1B2B36"/>
<path d="M527.903 942.296C518.445 939.098 503.388 933.743 492.984 937.029C497.158 941.864 498.129 941.154 496.515 950.861C496.237 952.219 495.508 953.441 494.447 954.326C484.131 962.587 487.12 963.031 466.047 960.975C458.743 960.701 451.433 961.332 444.281 962.853C428.581 966.026 416.727 975.137 407.71 988.233C403.498 994.401 401.96 1000.92 408.025 1005.16C433.978 1023.27 499.529 1009.46 515.645 999.933C516.768 999.273 520.147 993.322 513.262 996.126C487.549 1006.71 437.459 1016 411.115 1001.7C401.392 996.406 422.679 973.043 441.62 968.538C470.902 961.584 487.334 970.886 491.71 970.594C492.328 970.594 493.488 969.071 493.324 968.653C492.832 967.384 489.541 964.173 490.928 962.435C491.724 961.379 492.72 960.493 493.858 959.828C494.996 959.162 496.254 958.73 497.56 958.557C498.865 958.383 500.191 958.472 501.462 958.817C502.733 959.163 503.923 959.758 504.964 960.569C513.791 967.371 514.157 968.754 515.96 967.485C518.281 965.848 508.142 963.31 512.972 952.74C513.981 950.544 513.905 947.867 514.624 945.506C515.683 942.042 518.193 943.742 527.234 944.77C527.789 944.77 528.407 944.225 529 943.933C528.685 943.387 528.369 942.461 527.903 942.296ZM508.987 954.135C508.608 955.836 507.183 956.001 505.746 955.404C501.231 953.666 500.702 952.866 500.853 948.412C501.319 942.473 501.332 938.692 509.113 941.433C511.408 942.27 511.042 944.885 508.962 954.135H508.987Z" fill="#1B2B36"/>
<path d="M370.69 376C367.706 377.266 369.787 379.987 369.307 381.974C369.075 383.727 369.044 385.504 369.215 387.265C368.929 711.055 370.61 687.765 366.036 692.195C365.865 692.359 366.253 695.043 368.323 693.549C374.75 688.98 372.691 705.169 372.668 391.315C372.691 381.038 372.874 378.291 370.69 376Z" fill="#1B2B36"/>
<path d="M204.426 617C207.95 614.668 206.745 627.419 206.719 425.751C206.719 313.706 207.899 318.953 205.423 318.015C200.888 316.266 205.242 466.614 203.065 466.614C203.039 628.927 202.598 614.706 204.426 617Z" fill="#1B2B36"/>
<path d="M721.123 175.513C726.751 163.159 729.792 154.369 736.568 147.952C736.935 147.602 737.389 147.358 737.882 147.244C738.374 147.129 738.889 147.15 739.371 147.302C739.854 147.455 740.287 147.734 740.626 148.112C740.965 148.489 741.197 148.95 741.3 149.448C741.653 154.027 741.123 158.783 742.132 163.185C744.252 172.355 737.943 177.391 740 182.21C742.738 179.318 744.088 169.653 752.139 158.999C756.858 152.746 762.952 145.25 765.653 152.657C772.29 170.858 751.508 203.938 767.747 189.58C767.747 185.914 767.747 186.979 767.634 185.774C768.618 189.009 767.356 190.252 767.041 191.305C766.624 192.573 768.883 192.446 768.946 192.307C773.993 179.166 774.082 175.602 777.274 176.3C783.104 177.568 788.87 179.192 794.599 180.866C795.267 181.056 795.861 182.515 795.949 183.403C796.012 187.208 799.331 184.443 802.599 183.986C811.759 182.718 814.119 193.486 814.22 202.745C814.384 217.725 807.532 215.848 802.939 217.179C802.271 217.382 801.829 218.448 801.286 219.095C801.765 219.583 802.319 219.99 802.927 220.3C819.242 225.183 822.169 203.456 816.037 188.425C814.144 183.783 810.523 180.701 805.501 180.879C801.29 181.065 797.144 179.793 793.753 177.276C790.473 174.993 782.119 173.535 778.612 172.824C774.473 171.962 775.747 168.322 775.558 162.753C775.242 153.875 775.747 146.886 771.583 146.087C755.419 142.979 757.539 150.197 746.422 160.242C743.899 155.308 745.098 153.317 743.445 146.214C742.763 143.284 739.142 142.155 736.542 143.677C728.719 148.319 721.817 163.629 719.003 174.423C718.915 174.879 720.681 176.515 721.123 175.513ZM771.116 149.017C773.779 154.09 773.362 163.362 772.378 166.546C771.394 169.73 771.785 172.888 769.854 175.653C769.836 172.546 770.009 169.441 770.372 166.356C771.356 160.585 769.009 155.219 768.87 149.613C768.933 149.321 770.561 147.939 771.129 149.017H771.116Z" fill="#1B2B36"/>
<path d="M508.808 313.523C514.055 318.783 520.993 341.117 525.294 344C525.534 343.393 526.127 342.672 525.976 342.179C520.521 324.587 511.503 308.313 499.486 294.376C499.032 293.832 497.833 293.921 496.963 293.719C497.707 297.171 495.702 294.098 503.989 304.999C501.618 305.366 501.101 305.783 497.114 303.734C449.105 278.91 407.453 253.225 364.905 220.117C357.829 214.616 364.716 216.93 370.216 195.47C374 180.813 370.304 165.119 367.378 186.352C366.432 193.181 362.042 211.467 356.164 214.174C351.118 216.513 362.13 222.356 396.037 247.117C411.83 258.65 463.409 292.302 496.686 307.528C500.81 309.412 505.743 310.5 508.808 313.523Z" fill="#1B2B36"/>
<path d="M565.404 182.744C562.628 189.272 557.655 197.781 564.622 206.608C564.988 207.091 567.146 207.307 566.881 206.176C565.619 200.614 561.719 190.466 572.245 179.645C574.088 177.752 576.032 177.511 577.446 179.645C587 194.416 617.937 185.423 615.904 175.288C615.634 174.758 615.188 174.34 614.642 174.107C613.266 175.149 611.992 176.317 610.654 177.435C598.713 187.379 584.287 182.515 581.8 178.26C580.828 176.596 581.371 173.447 580.147 172.646C577.622 170.995 577.117 176.038 574.189 175.428C571.261 174.818 563.511 179.784 556.733 169.179C550.422 159.222 553.414 144.667 563.044 137.923C563.978 137.275 565.467 137.427 566.831 137.3C566.124 142.508 567.575 141.11 576.474 139.282C584.489 137.592 586.331 141.822 591.342 146.826C591.822 147.296 593.046 146.483 592.971 146.064C591.898 140.552 590.572 140.615 592.049 138.304C595.974 132.195 590.408 135.255 578.253 131.775C562.236 127.203 547.885 143.613 550.258 160.987C553.01 180.915 567.878 176.889 565.404 182.744Z" fill="#1B2B36"/>
<path d="M207.248 228.744C209.363 227.48 209.138 237.354 208.733 98.9426C208.508 23.9972 207.552 30.7989 206.303 30.015C204.052 28.5864 205.391 129.348 205.436 129.348C205.436 226.962 204.468 230.388 207.248 228.744Z" fill="#1B2B36"/>
<path d="M594.943 634.438C617.863 619.542 625.732 734.168 635.422 771.738C635.587 772.356 636.988 772.735 637.879 773C638.32 772.397 638.696 771.75 639 771.068C635.04 748.345 627.642 699.174 624.255 679.304C610.134 596.452 577.663 645.699 594.943 634.438Z" fill="#1B2B36"/>
<path d="M304.806 347.573C236.065 325.717 220.842 302.888 214.074 307.631C212.322 308.88 242.172 325.58 244.026 326.591C292.198 352.466 363.936 371.138 365.917 366.208C367.123 363.037 355.657 363.799 304.806 347.573Z" fill="#1B2B36"/>
<path d="M778.845 460.315C780.201 457.889 780.772 455.044 784.169 454.307C785.525 454.015 784.98 452.618 784.27 451.767C781.57 448.465 778.934 447.005 781.912 443.957C783.573 442.242 787.287 442.001 786.982 439.245C786.678 436.171 764.015 409.323 756.981 380.074C756.826 379.399 756.516 378.77 756.076 378.236C755.636 377.702 755.078 377.279 754.446 377C750.466 391.428 771.303 422.874 779.593 435.422C783.877 441.899 771.81 441.772 778.123 450.32C780.113 453.012 778.706 454.498 773.889 462.588C743.71 513.301 743.127 513.123 743 518C747.576 517.911 747.094 517.2 778.845 460.315Z" fill="#1B2B36"/>
<path d="M822.779 336.484C821.732 333.021 812.814 304.99 810.721 301.464C809.968 300.527 809.092 299.698 808.118 299C807.944 307.417 823.19 341.501 822.567 354.745C819.204 353.481 821.521 356.312 815.816 342.992C813.823 338.329 806.835 323.163 802.114 321.369C800.869 327.915 809.874 325.426 824.871 384.431C828.272 397.802 829.455 411.653 832.469 422.85C832.606 423.343 833.503 423.621 834.039 424C834.375 423.419 834.948 422.863 834.985 422.281C835.234 417.631 832.295 397.334 828.757 382.536C823.875 362.745 830.24 361.165 822.779 336.484ZM822.542 355.276C822.508 355.7 822.449 356.122 822.368 356.54C822.305 355.604 822.218 355.718 822.542 355.276Z" fill="#1B2B36"/>
<path d="M294.968 674.596C234.052 654.592 219.982 635.907 212 637.05C217.052 647.674 285.255 681.933 352.928 694.944C354.658 694.944 355.087 695.071 355.353 694.944C362.337 691.085 348.015 692.024 294.968 674.596Z" fill="#1B2B36"/>
<path d="M771 559.787C770.447 559.447 769.921 558.867 769.342 558.804C766.837 558.514 764.292 558.59 761.838 558.174C744.786 555.261 725.305 541.645 733.504 530.564C738.4 523.945 733.915 524.903 733.581 525.269C726.924 532.606 726.256 536.867 730.869 545.049C734.197 550.962 727.541 553.875 728.608 562.069C730.006 561.032 731.321 559.889 732.54 558.653C734.069 556.862 733.825 553.282 736.575 553.042C738.348 552.879 740.314 554.795 742.19 555.778C751.108 560.43 752.586 560.468 746.495 563.96C742.974 565.99 745.12 567.15 748.847 574.651C749.096 575.233 749.163 575.873 749.039 576.492C748.114 576.795 746.88 577.299 746.135 576.933C728.286 568.411 734.12 567.932 720.551 556.762C719.927 556.436 719.248 556.227 718.546 556.144C718.379 557.026 717.749 558.199 718.109 558.754C726.719 572.332 739.273 580.438 755.027 583.968C755.837 584.145 756.826 583.54 757.726 583.3C753.665 578.396 755.156 582.455 752.11 571.424C751.83 570.331 751.809 569.19 752.051 568.088C752.293 566.987 752.791 565.955 753.506 565.073C754.221 564.191 755.134 563.483 756.173 563.003C757.213 562.524 758.351 562.286 759.499 562.309C771.784 561.968 768.79 562.473 771 559.787Z" fill="#1B2B36"/>
<path d="M838.677 438.719C837.187 429.645 837.301 431.421 835.937 430C834.446 432.069 834.964 428.629 835.242 443.11C835.393 451.486 833.865 444.481 813.847 480.448C802.783 500.335 788.827 518.154 774.959 536.061C773.355 538.142 772.269 538.295 769.453 536.899C752.743 528.637 743.751 518.484 743.574 517.595C741.048 518.598 742.084 520.21 743.094 521.618C751.076 532.736 762.241 539.12 775.035 542.965C775.73 543.181 776.753 542.343 777.561 541.988C776.235 539.056 778.458 537.533 779.986 535.642C804.4 506.173 811.169 490.855 822.561 474.216C822.673 474.329 822.779 474.447 822.877 474.572C822.884 474.34 822.854 474.109 822.789 473.886V473.886C822.789 473.81 822.663 474.026 822.524 474.178C827.853 456.055 841.241 454.316 838.677 438.719Z" fill="#1B2B36"/>
<path d="M742.207 85.2478C757.882 82.8973 783.958 74.3002 815.587 94.1131C840.89 109.966 849.658 129.881 853.238 135.259C853.605 135.808 854.82 135.77 855.642 136C855.794 135.246 856.819 134.148 854.516 130.047C808.844 48.5728 725.38 87.7643 742.207 85.2478Z" fill="#1B2B36"/>
<path d="M584.975 689.067C599.438 654.48 602.393 652.021 600.477 647C600.577 647.837 598.649 649.536 588.443 671.571C573.742 703.267 567.857 714.183 572.34 731.464C574.156 738.488 573.141 740.06 564 782C564.819 781.753 565.552 781.274 566.113 780.621C566.674 779.968 567.04 779.166 567.168 778.311C576.322 742.24 578.864 739.299 576.322 729.79C573.279 718.405 575.984 710.582 584.975 689.067Z" fill="#1B2B36"/>
<path d="M717.482 232.028C724.858 228.039 725.984 222.42 730.451 225.362C734.588 228.089 741.838 230.652 743.622 226.031C747 217.56 752.238 223.771 763.435 222.105C779.694 219.681 767.408 194.797 748.645 197.158C748.143 197.255 747.675 197.479 747.285 197.808C746.896 198.138 746.597 198.561 746.418 199.039C745.709 202.107 761.727 196.122 765.7 212.712C767.446 219.996 755.755 219.378 748.632 216.36C744.71 214.707 744.179 215.098 742.091 218.986C741.85 219.428 739.75 226.284 735.41 223.519C729.185 219.567 727.68 215.502 724.276 219.984C719.367 226.448 720.569 225.766 716.444 228.354C716.06 228.576 715.624 228.692 715.18 228.692C714.736 228.693 714.3 228.576 713.915 228.355C713.531 228.134 713.211 227.815 712.989 227.432C712.766 227.048 712.649 226.613 712.649 226.17C712.206 221.044 714.585 216.575 715.761 211.815C715.875 211.361 715.331 210.692 714.977 210.199C714.807 210.166 714.631 210.17 714.463 210.212C714.295 210.253 714.138 210.331 714.003 210.439C705.69 221.991 708.347 236.977 717.482 232.028Z" fill="#1B2B36"/>
<path d="M316.727 70.1387C320.648 71.2153 326.249 70.6454 327 71C325.103 64.9078 313.086 68.4668 272.897 50.9374C213.333 25.0359 218.425 27.3284 214.021 26.0365C212.875 25.6945 212.849 27.8604 213.193 28.1011C217.445 31.0648 268.072 56.7764 316.727 70.1387Z" fill="#1B2B36"/>
<path d="M604.577 237.403C586.631 236.286 579.95 223.589 576.035 217.334C575.416 216.341 573.939 217.831 574.002 218.315C574.03 220.025 574.404 221.712 575.101 223.279C590.053 247.778 609.704 238.867 613.885 245.619C614.39 246.438 614.162 247.654 614.44 248.647C614.592 249.156 615.147 249.553 615.526 250C615.956 249.504 616.789 248.982 616.789 248.486C616.663 243.521 618.873 240.853 624.164 240.493C628.357 240.208 631.83 236.919 633.46 240.245C633.876 241.114 633.586 242.293 633.788 243.298C634.011 243.921 634.321 244.509 634.71 245.048C636.869 243.224 637.147 243.521 637.4 241.163C638.663 229.174 649.827 233.047 657 222.683C653.767 219.283 633.99 239.227 604.577 237.403Z" fill="#1B2B36"/>
<path d="M616.127 136.124C615.623 136.124 614.868 136.836 614.68 137.373C613.811 140.085 620.807 139.372 616.127 144.62C615.286 145.716 614.581 146.907 614.025 148.169C613.824 148.556 614.881 149.506 615.283 149.131C625.538 139.735 620.43 139.872 645.808 144.246C651.848 145.283 654.616 157.903 647.066 169.161C639.517 180.419 629.313 172.809 624.418 173.946C624.796 174.796 624.947 176.121 625.576 176.446C637.869 182.131 647.972 178.22 652.854 165.775C653.71 163.576 653.597 163.051 656 149.531C636.384 125.79 635.214 136.411 616.127 136.124Z" fill="#1B2B36"/>
<path d="M577.687 76.8281C578.179 76.3718 578.643 75.8857 579.077 75.3724C577.384 73.9037 578.433 74.5994 575.11 72.6283C575.805 71.9971 576.373 71.0953 577.207 70.7732C601.034 61.2271 595.728 63.5202 612.506 59.9903C612.506 60.1707 612.594 60.3639 612.632 60.5572C618.507 60.5572 617.976 61.0081 618.949 58.9339C619.202 58.4315 617.458 56.9242 615.74 54.8243C615.333 54.2502 614.965 53.6475 614.641 53.0208C615.609 52.7644 616.616 52.6945 617.61 52.8146C628.98 56.512 638.19 65.2336 638.936 62.9276C640.806 57.1561 601.287 40.0994 599.847 46.3604C599.405 48.3314 601.274 48.6406 609.221 54.1802C611.47 55.7519 608.956 57.7101 608.236 57.826C596.36 59.8615 584.699 62.7344 573.796 68.1322C569.842 70.0775 564.839 70.9536 563.07 75.9392C561.857 79.4691 576.828 77.5495 577.687 76.8281Z" fill="#1B2B36"/>
<path d="M206 238.652C209.491 245.283 270.655 278.847 315.458 288C317.789 287.85 316.847 288.212 319 286.951C317.496 285.702 318.694 285.89 313.355 284.454C262.908 271.08 232.428 251.039 208.867 238.09C208.204 237.753 206.968 238.453 206 238.652Z" fill="#1B2B36"/>
<path d="M573.921 278.506C587.634 271.482 589.206 269.22 591.053 273.48C592.901 277.74 592.976 277.602 593.881 277.501C594.786 277.401 594.573 276.245 595 273.09C588.854 248.713 588.564 250.158 589.759 248.499C593.052 243.95 584.454 246.627 583.323 248.587C576.41 260.499 564.946 249.416 556.638 250.422C556.303 250.418 555.976 250.518 555.701 250.708C555.425 250.898 555.216 251.168 555.1 251.482C554.984 251.796 554.969 252.138 555.055 252.461C555.141 252.784 555.325 253.072 555.582 253.287C560.006 255.863 559.353 255.347 571.721 257.157C577.717 258.037 571.985 261.53 569.119 275.491C568.541 278.28 571.281 279.864 573.921 278.506ZM583.147 254.631C583.425 254.445 583.74 254.321 584.071 254.267C584.401 254.213 584.739 254.231 585.062 254.319C585.385 254.408 585.685 254.564 585.943 254.778C586.2 254.992 586.408 255.259 586.553 255.561C591.217 270.012 592.398 267.951 575.241 272.915C572.312 273.769 575.882 261.555 583.16 254.644L583.147 254.631Z" fill="#1B2B36"/>
<path d="M864.091 171.034C860.245 171.567 863.089 194.32 851.965 209.722C822.177 251.02 809.65 234.199 804.013 256.256C803.901 256.712 804.527 257.397 804.903 257.891C805.504 258.689 807.483 254.874 807.821 253.923C812.018 241.716 822.127 246.989 837.961 230.701C855.836 212.32 865.882 201.774 865.97 178.234C866.02 172.239 866.233 170.743 864.091 171.034Z" fill="#1B2B36"/>
<path d="M813.212 262.744C792.851 266.011 792.522 268.159 795.463 259.49C798.721 250.068 794.588 249.013 795.831 245.244C797.251 240.972 809.472 234.578 798.924 227.303C798.627 227.134 798.295 227.033 797.952 227.007C797.61 226.981 797.267 227.031 796.946 227.153C794.322 228.409 802.246 235.042 792.915 240.432C789.745 242.266 789.859 244.641 790.823 247.606C794.512 258.912 782.658 271.237 773.162 271.815C772.473 271.919 771.812 272.163 771.222 272.531C771.02 272.644 770.982 273.159 771.007 273.486C771.146 275.446 777.79 275.998 783.368 272.091C792.078 266.061 799.976 272.305 813.796 265.106C814.341 264.817 814.607 264.013 815 263.435C814.404 263.196 813.707 262.669 813.212 262.744Z" fill="#1B2B36"/>
<path d="M687.559 430.569C683.096 427.29 681.136 423.809 679.378 424.852C677.013 426.259 686.004 438.108 698.991 439C719.666 438.648 719.881 427.239 733.967 372.973C734.119 372.395 733.702 371.716 733.55 371C733.057 371.427 732.286 371.754 732.083 372.256C715.644 419.399 720.437 415.366 713.545 428.006C708.513 437.228 695.918 436.751 687.559 430.569Z" fill="#1B2B36"/>
<path d="M790.287 291.736C758.528 302.777 755.967 313.299 751.644 306.748C751.568 306.647 750.148 307.077 750.122 307.33C749.94 308.713 749.962 310.114 750.186 311.491C750.249 311.923 750.409 312.336 750.652 312.699C750.896 313.062 751.218 313.366 751.595 313.589C751.971 313.812 752.393 313.948 752.829 313.988C753.266 314.028 753.705 313.969 754.116 313.818C755.082 313.387 756.015 312.884 756.905 312.313C789.945 290.711 807.415 292.381 816.315 287.625C820.296 285.513 819.586 285.513 825 261.307C823.098 260.914 827.155 252.378 817.216 254.275C816.899 254.338 816.328 254.667 816.353 254.781C816.48 255.375 816.658 256.399 816.987 256.463C824.201 257.968 819.726 264.14 818.014 278.406C816.848 288.018 809.33 285.121 790.287 291.736Z" fill="#1B2B36"/>
<path d="M641.44 287.624C645.676 291.218 652.182 268.196 661.517 254.562C667.351 246.029 673.097 250.641 677.257 251.194C677.751 251.194 678.411 250.428 677.663 249.649C668.784 240.55 662.443 251.785 662.709 241.631C662.899 233.752 663.711 232.835 652.423 231C652.113 231.032 651.815 231.143 651.562 231.324C651.308 231.505 651.107 231.749 650.977 232.03C650.648 234.745 657.826 234.544 658.143 237.057C658.854 242.561 659.906 248.178 657.332 253.481C656.558 255.065 641.097 287.586 641.097 282.384L641.009 282.258C641.009 282.384 641.009 282.51 641.009 282.635L641.148 282.384C640.375 284.106 638.865 285.475 641.44 287.624Z" fill="#1B2B36"/>
<path d="M656 149.22C657.967 149.648 665.149 151.172 665.238 152.432C665.822 160.53 684.578 149.384 687.864 163.301C689.946 172.117 680.06 184.384 670.01 181.072C668.373 180.53 666.685 180.127 665.01 179.737C664.846 179.775 664.693 179.848 664.561 179.951C664.429 180.054 664.321 180.184 664.245 180.333C664.168 180.482 664.126 180.645 664.12 180.812C664.114 180.979 664.145 181.145 664.21 181.298C666.076 186.538 678.423 189.308 686.735 179.145C696.798 166.865 690.91 154.333 681.824 152.482C666.787 149.409 662.307 143.905 656 149.22Z" fill="#1B2B36"/>
<path d="M717.226 305.902C726.088 307.446 731.253 311.862 737.253 306.193C745.405 298.475 750.874 301.436 760.204 296.526C765.66 293.667 770.331 285.404 766.736 280.634C766.521 280.368 766.179 279.976 765.939 280.001C765.369 280.077 764.571 280.204 764.306 280.596C762.242 283.671 761.774 295.628 746.836 296.374C744.751 296.379 742.695 296.863 740.827 297.789C738.959 298.715 737.329 300.058 736.063 301.714C732.721 305.7 728.29 306.484 723.784 303.131C718.809 299.424 714.998 305.75 712.922 299.335C712.289 297.349 712.213 295.185 711.77 293.135C711.509 292.522 711.14 291.961 710.682 291.478C710.188 291.845 709.34 292.161 709.277 292.591C707.998 302.334 711.239 304.865 717.226 305.902Z" fill="#1B2B36"/>
<path d="M671.567 943.385C671.678 943.083 671.705 942.756 671.645 942.44C671.585 942.123 671.44 941.829 671.226 941.589C671.012 941.349 670.736 941.173 670.43 941.078C670.123 940.983 669.796 940.975 669.485 941.053C661.994 942.646 662.705 947.655 660 962.924C660 972.344 662.133 975.836 670.64 979.494C683.592 985.013 690.423 982.681 695.502 981.406C696.086 981.253 696.505 980.514 697 980.042C696.518 979.66 696.073 979.022 695.565 978.946C658.032 974.064 665.092 970.024 666.158 952.881C666.298 948.713 667.403 945.22 671.567 943.385Z" fill="#1B2B36"/>
<path d="M644.153 41.7534C672.024 56.5655 675.482 81.9705 678.7 92.6525C678.966 93.5576 680.79 92.4741 680.904 91.9005C681.12 90.8934 680.904 89.7972 680.904 90.715C678.941 68.535 668.958 51.7344 649.018 40.1218C647.752 39.5097 646.387 39.1299 644.989 39C644.303 39.0285 643.629 39.1841 643 39.4589C643.405 40.2365 643.545 41.4347 644.153 41.7534Z" fill="#1B2B36"/>
<path d="M585.737 204.983L584 206.444C584.456 207.204 585.081 207.84 585.822 208.297C586.564 208.755 587.4 209.022 588.261 209.076C614.424 210.326 613.968 208.115 617.43 211.498C617.876 211.777 618.378 211.945 618.898 211.989C619.417 212.032 619.939 211.95 620.423 211.748C624.316 209.879 636.91 202.259 634.754 198.798C632.116 194.666 622.756 208.076 585.737 204.983Z" fill="#1B2B36"/>
<path d="M637.768 258.957C633.686 239.133 599.735 284.8 600.002 290.375C600.002 291.137 601.269 292.585 601.941 291.747C611.158 279.2 616.242 269.167 630.187 259.096C636.741 254.372 633.673 271.313 640.684 282.641C641.888 274.463 639.378 266.742 637.768 258.957Z" fill="#1B2B36"/>
<path d="M233.656 167.961C236.409 168.595 233.085 161.369 242.892 159.751C264.459 156.19 261.11 159.388 289.833 152.655C290.29 152.551 290.543 151.528 291 150.712C290.082 150.323 289.111 150.082 288.12 150C241.585 154.895 243.45 154.532 234.836 157.899C228.847 160.269 231.017 167.352 233.656 167.961Z" fill="#1B2B36"/>
<path d="M762.587 616.053C755.416 645.494 726.48 642.574 728.062 647.018C729.419 650.826 764.408 644.593 768 609.895C766.744 605.261 767.209 606.087 765.312 605.02C764.634 604.627 764.056 610.073 762.587 616.053Z" fill="#1B2B36"/>
<path d="M655 114.712C646.825 105.426 598.75 107.486 591.983 110.768C590.931 111.37 589.933 112.059 589 112.828C590.005 113.007 591.026 113.082 592.047 113.052C635.818 107.785 649.63 116.672 655 114.712Z" fill="#1B2B36"/>
<path d="M258.245 143.619C285.217 140.595 292.596 140.145 290.726 138.24C289.454 136.953 240.942 141.11 232.647 144.185C226.629 146.424 225.649 155.329 228.626 155.985C229.11 156.088 230.166 155.638 230.23 155.29C232.456 143.928 242.049 145.433 258.245 143.619Z" fill="#1B2B36"/>
<path d="M729.573 203.136C729.863 203.001 730.103 202.778 730.261 202.498C730.419 202.218 730.486 201.894 730.453 201.574C730.419 201.253 730.287 200.951 730.075 200.71C729.863 200.469 729.581 200.301 729.27 200.231C728.009 199.874 723.383 199.466 720.143 197.81C714.382 194.866 714.76 187.947 725.35 185.437C726.61 185.119 728.148 185.628 729.535 185.514C730.077 185.514 731.06 184.66 730.997 184.38C730.821 183.462 730.43 182.137 729.736 181.831C722.299 178.875 713.222 184.163 712.088 192.025C710.865 200.6 722.69 206.245 729.573 203.136Z" fill="#1B2B36"/>
<path d="M678.959 319.213C677.336 315.669 653.794 320.972 630.881 316C630.716 316.004 630.553 316.038 630.402 316.101C630.251 316.164 630.114 316.254 630 316.366C630.541 319.909 642.822 320.37 659.104 322C677.927 319.921 679.299 319.957 678.959 319.213Z" fill="#1B2B36"/>
<path d="M782.082 316.838C767.537 327.528 757.01 342.737 752.175 360.048C751.995 360.711 751.953 361.404 752.053 362.084C752.153 362.764 752.393 363.416 752.757 364C755.74 360.688 758.255 339.66 783.662 318.971L786 315.847C784.9 313.764 783.068 316.085 782.082 316.838Z" fill="#1B2B36"/>
<path d="M736.545 105.58C767.58 101.925 766.085 100.865 764.766 106.798C765.783 106.542 769.013 105.714 769 103.557C768.882 103.105 768.65 102.688 768.326 102.344C768.002 101.999 767.594 101.738 767.14 101.584C754.399 98.5012 740.264 103.021 735.162 102.546C732.813 102.327 734.358 100.706 734.672 99.622C734.672 99.3906 741.671 95.2604 745.604 92.8115C745.709 92.7614 745.789 92.673 745.827 92.5656C745.864 92.4582 745.857 92.3407 745.805 92.2389C745.753 92.1371 745.662 92.0594 745.551 92.0228C745.441 91.9863 745.319 91.9939 745.214 92.044C739.661 93.8837 734.383 95.3335 728.101 99.0616C725.249 100.755 724.457 102.01 723.075 105.507C721.869 108.747 735.627 105.726 736.545 105.58Z" fill="#1B2B36"/>
<path d="M628.981 325C628.285 325.079 627.612 325.293 627 325.629C627.294 326.209 627.447 327.153 627.92 327.341C638.85 331.71 666.767 332.239 667.956 328.537C669.081 325.05 648.603 329.242 628.981 325Z" fill="#1B2B36"/>
<path d="M559.234 104.701C574.343 82.4841 587.589 80.9045 590 77.1592C589.553 76.7516 589.105 76 588.646 76C582.433 76 566.838 88.2166 559.743 97.5032C555.866 102.599 557.059 103.732 557.631 106C558.223 105.648 558.763 105.21 559.234 104.701V104.701Z" fill="#1B2B36"/>
<path d="M698.2 554C706.975 553.545 715.251 550.343 723.616 547.543C724.564 547.221 723.527 545.386 722.963 545.292C719.1 544.691 715.156 545.021 711.433 546.257C695.65 551.187 696.662 548.226 691 550.41C694.382 553.879 692.486 553.129 698.2 554Z" fill="#1B2B36"/>
<path d="M629.471 156.069C629.149 155.025 627.466 154.308 626.368 156.069C623.683 160.522 626.189 164.949 622 167.163C623.695 169.805 620.675 168.874 633.935 171L636 170.308C635.606 169.553 635.355 168.333 634.806 168.132C631.465 166.962 630.032 164.824 630.474 161.012C630.472 159.308 630.131 157.624 629.471 156.069V156.069Z" fill="#1B2B36"/>
<path d="M589 100.366C589 96.5191 574.259 101.649 571.267 105.253C575.736 105.971 577.435 106.343 577.971 106.33C577.33 106.907 575.017 108.42 568.418 114.435C567.895 114.91 568.118 116.166 568 117C568.627 116.872 569.385 117 569.843 116.602C589.457 102.38 588.987 103.021 589 100.366ZM577.853 105.496C578.049 105.83 578.232 105.907 578.154 106.073C578.049 105.996 577.971 105.804 577.853 105.548V105.496Z" fill="#1B2B36"/>
<path d="M677.228 192C676.688 192.416 675.943 192.731 675.66 193.261C670.829 203.798 676.239 203.433 656 221.206L656.745 222C662.605 219.769 666.935 215.496 671.06 211.172C675.434 206.413 677.899 200.26 677.999 193.853C678.025 193.248 677.498 192.618 677.228 192Z" fill="#1B2B36"/>
<path d="M520.238 974.078C517.337 974.559 523.896 984.298 521.601 984.741C520.681 984.841 519.751 984.779 518.851 984.559C518.296 984.455 519.128 983.895 516.441 983.258C516.441 983.258 516.24 983.869 516 984.559C518.523 991.333 518.283 992.049 521.386 989.968C525.94 986.925 530.62 984.468 522.824 974.559C522.395 973.935 521.083 973.935 520.238 974.078Z" fill="#1B2B36"/>
<path d="M693.21 117C695.555 116.657 697.439 116.755 697.951 115.054C698.464 113.353 694.876 113.414 689.751 112.202C686.099 111.345 688.597 108.224 689.533 104.332C689.61 103.977 688.059 102.471 687.303 103.194C686.803 103.675 686.372 104.219 686.022 104.809C680.64 113.61 682.101 116.388 693.21 117Z" fill="#1B2B36"/>
<path d="M866.993 144.973C866.652 144.907 866.329 144.771 866.044 144.574C865.759 144.377 865.518 144.124 865.336 143.829C865.155 143.535 865.037 143.207 864.99 142.865C864.942 142.523 864.967 142.175 865.062 141.843C869.3 133.764 869.714 134.936 868.31 133.115C867.118 131.594 856.021 145.584 863.67 147.678C865.99 148.314 868.385 148.651 870.178 149C876.448 148.14 874.555 148.701 877 146.382C874.304 144.923 877.878 145.895 866.993 144.973Z" fill="#1B2B36"/>
<path d="M659.904 123.061C659.577 123.061 659.148 122.924 658.934 123.061C656.413 124.881 653.892 126.675 651.523 128.62C650.716 129.28 650.565 131.661 653.124 132.683C656.905 134.241 661.014 135.325 664.341 137.967C664.555 138.142 665.463 137.581 665.942 137.232C666.08 137.145 665.942 136.559 665.841 136.247C663.509 130.726 655.191 131.798 657.573 127.834C659.262 125.08 661.669 125.08 659.904 123.061Z" fill="#1B2B36"/>
<path d="M725.052 363.982C725.643 364.099 726.309 363.608 727 363.389C726.585 362.835 726.284 362.035 725.743 361.777C712.697 355.689 710.661 348.272 706.89 347.06C703.295 345.925 710.837 361.248 725.052 363.982Z" fill="#1B2B36"/>
<path d="M786.879 201.099C785.278 201.416 784.875 200.984 784.029 203.166C783.664 204.092 786.879 204.662 787.582 204.726C797.006 205.588 795.067 213.477 795.718 214.047C796.824 215.037 797.774 215.671 798.972 213.794C802.395 208.404 796.993 199.995 786.879 201.099Z" fill="#1B2B36"/>
<path d="M576.274 161.553C575.121 165.526 570.69 163.871 568.28 165.756C567.425 166.418 568.747 167.946 569.317 167.997C570.383 168.019 571.448 167.921 572.491 167.704C581.352 166.545 581.352 166.545 582 156.688C581.287 153.071 581.249 151.963 580.432 152.001C576.611 152.217 578.489 153.95 576.274 161.553Z" fill="#1B2B36"/>
<path d="M699.97 1003.99C700.43 1004.13 701.15 1002.99 700.973 1002.73C696.052 997.571 697.81 991.002 694.141 986.073C694.023 985.909 693.527 986.073 693.067 986.073C691.321 988.166 692.111 985.342 692.69 994.57C693.008 999.475 695.262 1002.49 699.97 1003.99Z" fill="#1B2B36"/>
<path d="M754.686 172.72C751.89 175.692 753.281 181.102 748.059 182.669C747.9 182.669 748.059 184.286 748.576 184.497C750.511 185.393 752.446 186.3 754.461 186.984C754.832 187.121 756.052 186.313 756.012 186.189C754.488 181.599 757.165 177.483 758 173.429C757.589 173.081 756.409 170.892 754.686 172.72Z" fill="#1B2B36"/>
<path d="M791.093 169.972C790.826 170.257 791.203 171.213 791.361 171.821C791.86 173.695 806.839 160.316 805.963 155.984C804.746 150.163 803.104 151.081 800.828 151.019C805.16 157.933 804.065 156.058 791.093 169.972Z" fill="#1B2B36"/>
<path d="M594.04 154.905C594.763 156.317 594.653 156.102 599.798 155.695C604.699 155.695 607.357 155.695 610.015 155.695C610.469 155.695 611.51 153.888 610.702 153.577C601.574 149.938 593.354 153.553 594.04 154.905Z" fill="#1B2B36"/>
<path d="M771.936 129.865C775.787 132.475 777.999 136.319 780.787 139.752C781.05 140.078 781.95 139.993 782.55 139.981C782.7 139.981 782.825 139.486 783 139.171C779.224 125.163 764.848 125.054 771.936 129.865Z" fill="#1B2B36"/>
<path d="M799.746 198.68C799.746 198.621 808.369 191.178 809 189.659C808.432 189.424 807.738 188.917 807.283 189.012C802.726 189.789 797.184 192.851 797.007 197.255C796.977 197.563 797.044 197.873 797.199 198.147C797.354 198.421 797.591 198.646 797.881 198.797C798.171 198.948 798.501 199.017 798.832 198.996C799.163 198.976 799.481 198.866 799.746 198.68V198.68Z" fill="#1B2B36"/>
<path d="M614.512 255.262C613.412 254.004 611.529 257.201 605.086 266.427C604.658 267.031 605.966 267.95 606.015 268C608.485 267.673 617.129 258.094 614.512 255.262Z" fill="#1B2B36"/>
<path d="M736 131.653C736.003 131.965 736.112 132.267 736.311 132.511C736.509 132.755 736.786 132.927 737.097 133C751.587 126.177 749.458 127.196 750 126.101C748.632 122.4 736.335 128.997 736 131.653Z" fill="#1B2B36"/>
<path d="M646.826 64.8831C646.158 62.3443 645.264 59.8054 644.423 57.2666C644.358 57.0762 643.884 57.0889 643.604 57C643.399 57.2158 642.979 57.457 643.001 57.622C645.113 74.848 647.699 68.3105 646.826 64.8831Z" fill="#1B2B36"/>
<path d="M670.746 170.428C671.97 168.816 675.972 163.171 677 161.461C673.61 159.407 669.118 164.659 668.029 168.533C667.846 169.222 668.568 170.255 669.082 170.993C669.383 171.017 669.685 170.979 669.971 170.881C670.257 170.784 670.521 170.63 670.746 170.428V170.428Z" fill="#1B2B36"/>
<path d="M203.606 623.225C201.723 624.571 204.576 633.242 207.396 631.849C207.607 631.675 207.772 631.447 207.876 631.187C207.98 630.927 208.02 630.644 207.991 630.363C207.076 627.345 205.556 621.82 203.606 623.225Z" fill="#1B2B36"/>
<path d="M692.877 120.196C686.158 118.587 678.227 127.53 690.143 124.285C691.417 123.882 692.658 123.367 693.854 122.743C694.349 122.475 693.471 120.343 692.877 120.196Z" fill="#1B2B36"/>
<path d="M687.286 130C686.842 130.447 685.956 130.931 686.002 131.342C687.225 140.618 687.698 143.194 688.616 142.989C690.755 142.517 690.282 142.517 691 138.151C688.554 129.371 689.471 131.693 687.286 130Z" fill="#1B2B36"/>
<path d="M729 173.104C729.862 173.992 730.272 174.762 730.866 174.919C732.66 175.389 733.466 173.9 734.992 168.39C735.091 168.037 734.229 167.084 733.678 167.084C731.53 166.588 731.261 168.246 729 173.104Z" fill="#1B2B36"/>
<path d="M866.013 155.866C866.236 157.627 867.709 157.933 873.12 158C873.43 158 874.024 156.933 873.999 156.4C873.801 153.24 865.629 153.346 866.013 155.866Z" fill="#1B2B36"/>
<path d="M758.527 110.846C758.241 111.224 758.063 111.678 758.014 112.155C757.965 112.632 758.046 113.114 758.248 113.547C758.45 113.979 758.765 114.344 759.157 114.601C759.55 114.858 760.004 114.996 760.469 115C762.871 115 763.307 112.17 765 107.077C764.29 106.884 762.124 106.73 758.527 110.846Z" fill="#1B2B36"/>
<path d="M649 244.819C647.484 243.42 648.659 242.92 638.045 250.902C637.792 251.094 638.664 252.095 639.182 251.993C643.655 251.107 647.863 247.411 649 244.819Z" fill="#1B2B36"/>
<path d="M783 549.596C781.906 547.497 782.33 546.357 776.472 553.483C775.596 554.533 776.034 556.075 777.012 555.997C779.227 555.764 778.493 556.256 783 549.596Z" fill="#1B2B36"/>
<path d="M783.319 184C782.928 184 782.144 184.922 782.014 185.494C781.635 189.14 789.142 187.994 788.998 187.073C788.828 185.536 789.755 184.587 783.319 184Z" fill="#1B2B36"/>
<path d="M576.22 119.475C576.021 121.054 575.957 122.641 576.028 124.227C576.028 124.607 578.634 125.546 578.722 124.571C579.285 118.632 579.107 119.82 577.109 119C576.827 119.143 576.22 119.285 576.22 119.475Z" fill="#1B2B36"/>
<path d="M710.839 365.93C710.581 365.398 708.517 364.845 708.375 365.04C707.413 366.177 706.62 367.408 706.014 368.707C705.885 368.967 706.71 369.553 707.097 369.998C707.695 370.017 708.29 369.917 708.833 369.704C709.375 369.491 709.849 369.172 710.215 368.774C710.582 368.376 710.829 367.91 710.938 367.416C711.046 366.921 711.013 366.411 710.839 365.93V365.93Z" fill="#1B2B36"/>
<path d="M558.69 812C553.794 812 532.233 922.116 533.021 938.299C533.021 938.563 534.752 939.635 535.127 938.463C540.501 921.41 529.585 952.667 559 812.088L558.69 812Z" fill="#1B2B36"/>
<path d="M208 307.101C207.64 306.64 207.24 305.939 207.11 306.004C206.426 306.273 205.795 306.683 205.251 307.211C205.121 307.402 205.039 307.626 205.011 307.862C204.983 308.099 205.01 308.339 205.091 308.56C206.241 309.766 207.03 308.231 208 307.101Z" fill="#1B2B36"/>
<path d="M592 603.414L590 603C590.16 603.473 589.76 604.737 592 603.414Z" fill="#1B2B36"/>
<path d="M574.576 399.792C577.716 401.253 576.197 400.85 601.533 404C606.041 403.672 622.843 403.269 627.275 399.439C628.123 398.721 628.541 395.659 626.73 395.357C620.792 394.513 616.512 395.004 608.864 394.865C608.484 394.865 608.105 394.072 607.725 393.606C608.022 393.449 608.337 393.327 608.662 393.24C624.16 390.468 594.645 387.029 577.817 390.393C570.752 391.829 570.701 398.003 574.576 399.792Z" fill="#1B2B36"/>
<path d="M612.169 484.858C612.936 484.54 613.406 483.42 614 482.669C613.384 482.392 612.728 482.224 612.057 482.172C608.346 482.592 596.406 486.959 585.839 481.166C585.539 481.007 585.194 480.96 584.864 481.035C584.535 481.109 584.24 481.3 584.033 481.574C583.402 483.012 591.889 492.955 612.169 484.858Z" fill="#1B2B36"/>
</svg>
