<svg width="640" height="1100" viewBox="0 0 640 1100" fill="none" xmlns="http://www.w3.org/2000/svg">
<path d="M354.386 955.93C352.956 938.31 349.496 921.31 349.496 903.39V902.83C349.502 902.866 349.502 902.904 349.496 902.94L350.076 902.42C350.206 901.22 350.316 900.01 350.486 898.81C351.566 898.18 352.596 897.59 353.716 897.04C361.296 914.62 362.106 942.11 367.556 948.94C368.096 952.5 369.096 956.94 371.506 959.63C371 961.018 370.683 962.468 370.566 963.94C369.116 964.66 367.726 965.39 366.256 966L368.196 964.18L365.676 966.8C362.826 967.62 359.896 968.7 357.166 969.8C354.706 965.86 354.756 960.54 354.386 955.93Z" fill="#BCD4E0"/>
<path d="M358.976 835.02C359.306 794.66 372.756 793.87 371.976 790.89C371.256 788.32 371.276 787.6 370.366 787.36C368.906 786.98 369.116 786.36 368.216 786.36C363.126 786.23 357.366 786.96 352.036 786.96C341.436 786.96 338.316 784.1 333.256 781.3C333.001 781.158 332.805 780.931 332.702 780.658C332.6 780.385 332.598 780.084 332.696 779.81C333.266 778.21 340.836 778.08 342.536 778.12C342.536 778.32 342.776 777.61 343.586 777.61C345.306 777.61 348.376 778.02 349.716 777.19C352.026 775.74 379.986 780.54 380.946 781.48C383.336 783.84 384.186 783.34 384.576 784.31C385.086 785.56 385.846 786.76 385.846 788.15C385.846 797.56 368.576 824.58 363.446 840.75C363.076 841.92 359.806 843.6 359.806 840.9C359.806 838.99 357.056 839.09 357.486 836.9C357.456 836.81 358.976 835.1 358.976 835.02Z" fill="#BCD4E0"/>
<path d="M357.636 130.93C356.311 131.043 354.997 131.26 353.706 131.58C351.766 133.88 330.076 172.49 329.396 189.35C330.766 189.35 331.866 189.84 333.226 189.94C334.455 188.905 335.444 187.615 336.126 186.16L337.906 185.5L339.406 186.01C340.776 189.73 341.536 193.54 342.686 197.34C343.426 197.62 344.096 197.89 344.826 198.12L346.556 197.51C346.986 196.37 347.336 194.63 348.316 193.82C348.666 188.75 349.606 183.93 350.206 178.91C350.786 179.05 351.346 179.2 351.916 179.32C352.306 179.88 352.656 180.45 353.036 181.01C353.766 180.854 354.504 180.738 355.246 180.66C355.866 180.1 356.456 179.53 357.096 179.01C357.532 177.363 357.743 175.664 357.726 173.96C357.726 169.2 356.376 164.42 356.376 159.65C356.376 152.74 359.656 148.65 365.916 142.52C366.116 141.08 366.386 139.02 367.416 137.99C367.217 135.658 366.856 133.342 366.336 131.06C365.088 130.143 363.602 129.608 362.056 129.52C360.488 129.614 358.969 130.098 357.636 130.93Z" fill="#BCD4E0"/>
<path d="M408.226 65.3C405.526 65.22 402.636 65 399.796 65C374.716 65 341.306 88.84 339.616 97.6L341.136 98.52C343.276 97.8425 345.471 97.3507 347.696 97.05C347.936 97.87 348.146 98.68 348.326 99.52C346.896 102.09 345.196 104.35 344.536 107.26C345.281 107.571 346.078 107.741 346.886 107.76C351.886 107.76 354.886 100.48 361.426 100.08C361.886 102.99 361.656 105.63 363.046 108.24C363.836 108.74 364.616 109.24 365.406 109.75C377.006 97.85 375.896 92.53 382.606 87.83C391.466 81.65 404.186 86.05 412.446 73.65C413.446 72.21 413.296 70.39 414.506 69.21C412.786 66.73 411.326 65.4 408.226 65.3Z" fill="#BCD4E0"/>
<path d="M195.186 526.54C189.716 526.71 186.186 529.92 181.266 531.75C180.995 532.694 180.818 533.662 180.736 534.64C182.265 536.02 184.068 537.062 186.026 537.7C186.416 539.16 185.476 540.88 183.966 540.89C149.666 541.01 131.366 598.58 130.916 575.19C129 577.684 127.683 580.586 127.066 583.67L125.266 584.38L125.586 584.25C124.21 583.969 122.885 583.48 121.656 582.8C119.486 583.55 117.386 584.02 115.276 584.94C115.486 585.65 115.696 586.37 115.916 587.09C118.003 587.957 120.179 588.587 122.406 588.97C122.536 589.65 122.636 590.25 122.786 590.89C121.236 593.02 119.346 596.5 117.276 598.11C117.076 600.07 116.976 602.04 116.976 604.01V604.8C117.856 605.52 118.726 606.24 119.606 606.94C122.606 604.49 124.386 601.62 126.866 598.76L129.316 598.25C130.006 598.76 130.686 599.25 131.386 599.76C133.316 607.55 132.906 612.07 135.776 622.76C143.116 650.04 157.776 716.23 171.196 704.76L173.286 703.99C173.955 700.69 174.406 697.349 174.636 693.99L176.116 692.07L178.766 691.76C180.307 692.668 182.049 693.177 183.836 693.24C190.536 693.24 214.236 673.56 215.486 661.24C213.354 660.154 210.989 659.601 208.596 659.63C208.432 659.435 208.255 659.252 208.066 659.08C199.786 658.08 188.966 653.44 183.296 646.97C181.746 646.8 180.226 646.67 178.666 646.58C178.466 647.28 178.266 647.93 178.096 648.58C180.718 652.44 183.771 655.99 187.196 659.16C187.276 660.16 187.316 661.16 187.316 662.01C187.236 665.402 186.691 668.767 185.696 672.01C184.479 672.617 183.318 673.33 182.226 674.14C180.929 673.635 179.591 673.244 178.226 672.97L177.096 669.11C179.236 665.31 181.416 662.63 181.656 658.11C181.656 658.11 161.386 636.01 161.386 628.94C161.386 622.05 167.826 616.4 174.136 616.4C175.609 616.395 177.064 616.718 178.396 617.346C179.728 617.974 180.903 618.891 181.836 620.03L185.056 620.42C186.296 618.17 187.416 616.95 187.416 612.89C187.416 602.24 179.876 602.28 177.136 583.97C181.386 582.64 185.556 582.43 189.846 581.37C191.006 579.58 192.246 578.51 192.746 576.37C191.373 575.169 189.912 574.073 188.376 573.09C195.266 568.3 201.536 566.81 209.676 565.77C209.006 561.59 208.116 558.95 205.196 555.77L205.766 553.69C208.089 553.097 210.48 552.818 212.876 552.86C215.576 552.86 218.256 553.09 221.006 553.09C223.64 553.139 226.269 552.822 228.816 552.15C229.346 551.48 229.866 550.81 230.396 550.15L230.236 547.72C229.506 547.05 228.776 546.39 228.056 545.72L228.246 544.26C233.456 541.44 238.566 541.92 244.246 540.54C245.113 538.697 245.635 536.711 245.786 534.68C241.786 530.33 225.046 527.68 225.006 527.68C224.534 527.67 224.064 527.741 223.616 527.89L223.776 528.1C217.851 525.956 211.616 524.791 205.316 524.65C201.85 524.625 198.411 525.267 195.186 526.54Z" fill="#BCD4E0"/>
<path d="M426.666 209.02L427.006 208.33C429.006 206.76 462.056 170.91 480.936 170.91C483.563 170.826 486.13 171.704 488.156 173.38C488.156 173.85 488.206 174.31 488.206 174.75C488.206 181.83 484.576 186.21 482.146 192.75C481.82 192.911 481.506 193.094 481.206 193.3C473.266 211.9 431.846 255.75 417.626 260.07C400.296 265.34 406.036 254.78 404.626 253.59C404.626 253.04 406.626 245.15 406.626 244.59C406.649 236.66 409.218 228.948 413.956 222.59C417.376 217.7 423.236 214.24 426.256 209.2L426.666 209.02Z" fill="#E0D7B7"/>
<path d="M359.546 254.2C368.546 235.15 378.226 216.52 387.836 197.8C406.836 160.8 394.316 157.31 472.296 139.41C479.296 137.79 485.766 135.13 493.086 134.89C493.306 134.64 493.596 134.36 493.806 134.15C494.536 134.44 495.266 134.75 495.996 135.03C496.156 135.708 496.233 136.403 496.226 137.1C496.226 142.56 491.996 149.91 487.816 152.85C485.606 157.36 481.526 158.05 477.136 158.05C475.196 158.05 473.196 157.92 471.266 157.92C425.056 157.92 412.896 180.23 406.696 186.51C398.466 194.86 398.466 216.27 398.466 218.93C398.466 221.82 396.976 234.93 396.976 237.85C396.976 256.3 379.206 254.21 360.596 254.21L359.546 254.2Z" fill="#E0D7B7"/>
<path d="M212.396 686.12C210.526 689.32 210.046 692.61 208.786 696.12L210.906 697.66C213.405 696.1 215.494 693.964 216.996 691.43L219.496 690.59C219.496 690.88 219.496 691.17 219.496 691.45C219.496 706.25 177.076 747.81 161.156 813.16C162.487 815.371 164.017 817.456 165.726 819.39C164.546 826.89 160.836 833.8 160.836 841.39C160.836 870.54 235.556 945.7 235.556 960.96C235.552 962.883 235.143 964.785 234.356 966.54C224.686 961.92 218.016 946.19 207.436 943.69C201.586 948.63 200.936 961.01 199.436 968.17C197.366 977.81 186.596 996.56 194.166 996.69C196.836 1000.91 200.866 1004.69 202.326 1009.6C206.816 1012.37 212.056 1017.14 217.396 1018.29C223.456 1019.6 229.646 1018.29 235.516 1020.29C237.436 1020.93 260.126 1034.29 289.306 1034.29C322.496 1034.29 310.086 1020.78 327.756 1020.78C338.636 1020.78 369.056 1028.78 379.476 1028.78C393.326 1028.78 391.676 1020.22 398.246 1016.91C405.026 1013.5 419.246 1017.25 419.246 1002.64C419.246 1001.64 384.246 886.23 371.246 864.43C369.981 865.13 368.753 865.894 367.566 866.72C362.766 875.91 358.566 880.37 356.966 891.42C354.276 909.42 369.086 947.87 369.816 949.3C369.186 950.44 368.506 956.3 367.976 957.52C363.976 958.98 355.306 957.76 355.586 964.52C355.586 964.52 351.956 972.81 336.526 972.81C323.246 972.81 307.656 969.58 307.656 956.19C307.656 954.25 334.956 907.96 330.126 886.83C329.126 882.6 321.616 881.64 317.736 876.67C313.856 871.7 319.116 862.81 310.266 862.81C294.326 862.81 288.696 864.41 284.976 865.63C284.806 864.27 284.736 859.47 284.736 858.11C284.848 854.031 285.269 849.965 285.996 845.95C292.066 843.35 298.356 847.19 304.776 847.19C307.326 847.19 312.946 847.19 317.946 839.41C322.656 832.08 322.136 827.88 334.686 826.95C335.476 825.27 335.796 819.33 335.796 817.58C335.796 817.58 327.436 792.58 325.886 776.58C338.016 773.99 342.006 773.68 351.366 773.68C356.656 773.68 361.776 773.24 365.946 774.68C373.016 765.83 376.256 748.2 376.256 735.45C376.256 719.12 370.726 716.24 370.716 706.84C383.576 677.59 408.886 638.24 423.716 638.24C425.716 638.24 423.826 642.08 429.796 643.03C440.206 637.8 442.386 607.57 442.386 596.03C442.386 583.3 441.036 581.3 441.036 567.8C441.036 555.33 442.256 542.72 442.256 530.25C442.256 521.93 438.006 461.8 438.006 452.98C438.006 452.84 438.006 452.7 438.006 452.55L436.376 451.86C428.466 459.55 424.846 470.39 419.196 479.72C415.836 472.83 415.716 463.95 415.696 456.29C412.476 459.29 409.976 464.04 408.416 468.23C407.723 468.504 406.99 468.659 406.246 468.69C406.006 468.69 405.746 468.69 405.436 468.64C399.906 477.29 409.436 477.35 394.026 506.46C346.616 596.18 344.026 596.46 342.406 600.36C344.193 601.145 346.115 601.576 348.066 601.63L350.676 603.78C350.606 604.78 350.526 605.72 350.456 606.7C344.606 611.62 338.536 614.46 333.366 620.44C338.016 623.08 344.066 622.71 349.266 623.87C350.052 624.875 350.646 626.018 351.016 627.24C333.876 635.46 320.656 629.07 308.646 638.24C308.586 639.06 304.376 643.8 304.326 644.61C312.506 652.28 317.326 655.12 324.006 664.17C324.006 664.96 331.456 670.85 328.796 675.29C324.006 680.14 321.646 674.72 320.796 675.43C308.056 674.43 323.046 656.69 288.796 643.79C284.586 642.21 278.566 638.59 274.436 638.59C268.776 638.59 261.916 644.59 259.706 648.88C259.876 649.67 250.916 662.97 258.326 657.64C260.736 658.64 265.016 656.43 267.426 656.43C271.506 656.43 269.316 654.51 273.536 653.97C286.046 665.64 293.356 676.85 299.216 692.67C300.916 697.25 307.346 703.57 304.736 707.67C304.524 708.038 304.261 708.374 303.956 708.67C296.576 704.05 290.956 703.58 285.486 700.67C261.966 688.19 242.156 679.67 226.856 679.67C219.256 679.83 213.366 676.48 212.396 686.12Z" fill="#E0D7B7"/>
<path d="M412.306 448.57C411.026 444.38 416.966 449.25 419.616 443.03C422.976 435.13 429.216 429.03 422.906 421.36C417.066 414.3 415.426 411.17 416.956 406.54C419.176 399.81 423.956 393.65 420.496 381.54C419.386 377.7 419.286 373.54 419.176 369.45C419.066 365.18 422.546 363.01 426.486 364.74C440.726 370.98 432.546 386.3 438.656 391.62C441.966 394.51 445.786 396.8 450.306 396.69C460.136 396.45 464.136 395.8 477.886 389.14C494.966 380.86 495.816 375.4 504.886 373.71C511.196 372.54 515.456 380.16 510.646 383C507.296 385 495.506 389.22 486.336 400.93C486.116 401.21 486.236 401.77 486.206 402.2C486.656 402.2 487.276 402.33 487.546 402.09C489.626 400.23 495.426 392.52 507.546 392.72C512.306 392.8 513.826 395.57 513.026 398.08C512.726 399.03 509.966 401.99 512.946 401.96C516.316 401.96 519.576 402.22 522.286 404.55C523.876 405.91 525.286 407.4 524.796 409.74C523.536 416.48 516.376 412.14 497.206 416.06C489.256 417.69 491.876 421.27 480.206 421.91C472.266 422.35 464.736 424.91 456.926 425.91C450.296 426.79 446.186 430.91 443.396 436.91C441.976 439.91 421.826 482.81 419.486 486.27C419.116 486.83 418.306 486.27 418.416 485.91C423.206 471.54 417.196 484.75 441.626 434.55C444.466 428.71 448.886 424.76 455.336 423.43C463.046 421.85 470.576 419.37 478.526 419.02C484.316 418.76 488.406 417.63 491.926 413.14C501.926 400.34 511.506 398.79 509.566 396.22C509.334 395.928 509.044 395.687 508.713 395.515C508.382 395.343 508.018 395.242 507.646 395.22C501.946 395.64 496.276 396.72 492.646 401.56C484.056 413.09 465.466 412.21 468.896 409.76C470.646 408.51 469.546 408.83 478.246 407.07C483.496 406 477.346 404.14 486.086 395.8C494.296 387.97 504.356 383.7 508.296 381.13C511.026 379.35 507.296 374.44 502.496 376.84C492.736 381.75 495.726 383.08 470.946 395.31C465.146 398.18 458.946 399.31 452.546 399.81C446.486 400.29 441.656 397.6 437.196 394.12C431.646 389.8 436.306 374.72 427.976 368.43C424.436 365.76 422.096 367.05 422.036 369.14C421.656 382.59 428.916 387.44 420.596 404.14C413.706 417.95 436.376 418.07 425.286 438.06C416.596 453.72 414.986 453.59 415.286 457.39C417.846 497.55 418.526 517.23 422.456 551C445.886 752.44 435.456 469.28 436.296 464.53C439.736 445.05 445.356 629.29 434.506 631.53C428.176 632.81 411.996 499.72 413.066 454.67C413.189 453.447 413.528 452.255 414.066 451.15C414.966 448.97 415.066 449 412.066 448.43L412.306 448.57ZM501.176 408.45C500.103 409.112 499.158 409.963 498.386 410.96C497.706 411.69 497.946 412.96 499.226 412.89C529.106 410.48 517.846 411.57 520.426 411.25C524.776 410.7 519.536 399.46 501.176 408.45Z" fill="#1B2B36"/>
<path d="M343.846 604.95C342.956 607.38 345.166 606.04 335.376 610.02C312.236 619.43 317.236 616.91 306.116 624.29C305.586 624.64 305.396 625.49 305.046 626.11C305.636 626.42 306.236 627.01 306.816 626.99C316.266 626.73 340.536 625.35 343.236 625.99C338.436 630.23 302.806 627.9 290.236 632.87C289.816 633.04 289.156 633.68 289.236 633.87C289.536 634.51 289.936 635.39 290.506 635.57C311.936 642.57 322.506 661.57 331.796 675.34C331.456 674.76 329.556 675.65 328.916 674.99C323.146 669.07 306.426 636.18 280.796 636.99C274.236 637.19 274.436 640.31 262.296 648.17C258.536 650.6 254.846 657.37 258.426 657.35C262.346 657.35 265.806 655.69 269.326 654.29C270.476 653.83 270.396 652.77 270.266 651.73C269.836 648.27 275.366 652.41 276.886 654.21C289.196 668.69 292.676 673.12 304.416 700.3C305.666 703.2 306.266 706.11 303.946 708.84C304.076 707.91 304.626 706.78 304.276 706.08C293.206 683.53 284.646 667.08 276.996 657.77C275.126 655.49 274.266 655.3 271.776 656.58C259.866 662.7 256.036 658.51 255.776 663.18C255.606 666.66 255.776 668.66 254.606 668.39C251.906 667.76 252.476 659.02 252.856 656.27C253.016 655.15 252.106 654.01 249.546 655.27C231.176 664.55 220.416 660.46 225.616 666.07C227.896 668.52 230.026 670.98 230.186 674.57C230.496 681.76 243.936 669.39 302.056 706.57C302.819 707.202 303.492 707.936 304.056 708.75C308.146 709.75 311.056 712.53 313.986 715.23C314.426 715.63 313.726 716.35 313.466 716.23C301.706 710.77 308.366 713.78 285.586 700.78C244.886 677.55 231.306 679.83 216.206 680.33L216.356 680.48C219.786 675.41 226.536 679.71 227.066 674.3C227.336 671.49 226.266 669.75 223.856 668.12C209.546 658.39 209.736 666.75 193.756 659.95C193.386 659.79 193.236 659.13 192.976 658.69C193.516 658.42 194.126 657.8 194.566 657.91C220.646 664.12 241.416 657.43 263.456 643.72C282.356 631.98 289.146 614.38 287.636 592.89C286.916 582.7 277.586 579.3 279.746 577.37C279.936 577.237 280.156 577.153 280.387 577.127C280.618 577.101 280.851 577.133 281.066 577.22C286.486 581.09 289.996 586.03 290.576 592.96C292.186 612.3 285.216 623.51 280.106 632.77C278.766 635.21 283.966 634.54 285.046 633.51C288.237 630.531 292.352 628.735 296.706 628.42C302.386 627.78 302.146 620.42 318.756 613.97C323.626 612.08 326.456 608.81 329.016 604.48C372.016 531.89 394.016 471.41 400.016 468.78C400.606 470.3 404.646 462.3 366.796 541.87C343.096 591.69 326.006 609.93 331.616 608.46C333.846 607.87 342.116 602.15 343.846 604.95Z" fill="#1B2B36"/>
<path d="M417.776 140.31C427.036 128.17 436.256 118.43 438.446 103.54C440.046 92.6499 436.276 78.6399 421.126 78.5399C415.126 78.5399 412.566 79.7199 412.266 78.6099C411.696 76.4799 433.316 69.6099 440.486 87.6599C445.316 99.8099 440.566 113.66 433.656 124.56C426.426 135.98 420.656 140.56 416.786 145.19C410.916 152.19 518.786 116.3 519.406 116.09C524.166 114.53 526.096 113.58 527.256 114.82C528.416 116.06 527.256 117.55 526.096 118.76C490.606 156.65 493.176 154.05 491.946 154.65C491.536 154.85 490.836 154.2 490.946 153.92C491.282 152.975 491.739 152.077 492.306 151.25C513.976 125.03 527.206 117.06 514.896 121.1C481.896 131.97 453.146 141.59 426.576 147.8C406.946 152.39 404.196 150.8 402.926 154.31C392.196 183.65 347.846 258.36 346.616 265.71C347.306 265.76 348.116 266.06 348.676 265.81C358.436 261.41 382.896 253.43 386.926 256.56C385.096 258.82 385.076 257.56 362.486 264.29C338.126 271.51 329.626 288.64 359.746 231.74C396.516 162.27 380.566 193.27 396.906 159.87C400.256 153.03 401.516 149.98 405.066 149.5C407.916 149.12 409.426 147.23 410.746 144.93C413.406 140.28 415.936 135.57 416.826 130.2C418.826 118.09 403.826 116.2 391.826 119.06C385.546 120.54 380.076 123.78 374.826 127.36C373.006 128.59 371.596 130.75 368.926 130.36C369.326 130.73 369.206 129.17 369.926 128.51C391.276 109.18 424.456 111.51 420.246 130.65C419.546 133.84 417.536 136.73 418.116 140.2C417.536 139.96 417.526 140.04 418.036 139.92L417.776 140.31Z" fill="#1B2B36"/>
<path d="M497.946 166.65C497.836 167.13 497.476 167.73 497.646 168.07C508.846 189.58 449.976 265.65 410.416 263.19C399.536 262.52 402.826 253.19 399.056 250.24C396.386 248.15 392.196 225.43 396.976 206.97C397.166 206.24 397.776 205.49 397.666 204.84C396.666 198.93 400.086 194.62 403.026 190.27C409.966 180 423.106 166.37 437.256 162.63C447.936 159.81 471.316 151.92 492.566 159.37C495.066 160.25 497.256 161.37 498.566 163.68C499.236 164.87 499.266 166.1 497.716 166.79C489.716 153.37 443.236 164.45 436.816 165.4C434.303 165.653 431.916 166.629 429.946 168.21C418.506 177.77 399.176 195.15 399.436 210.21C399.556 216.64 396.386 221.31 399.806 242.85C399.946 243.75 400.526 245.05 401.216 245.31C402.516 245.79 402.576 244.31 402.876 243.47C410.876 221.01 436.686 193.78 455.416 179.25C463.156 173.25 473.486 169.73 481.546 167.16C486.256 165.66 490.916 164.94 495.716 166.78C496.366 167.01 497.206 166.65 497.946 166.65ZM485.696 169.89C474.606 172.01 465.096 175.2 450.546 187.18C433.686 201.06 406.776 231.93 404.656 253.67C404.386 256.52 406.016 258.43 408.726 259.38C429.236 266.6 476.726 221.64 490.206 191.11C499.336 170.38 493.556 169.98 485.696 169.85V169.89Z" fill="#1B2B36"/>
<path d="M250.986 541.76C241.846 535.76 242.186 535.29 233.746 532.55C230.746 531.55 229.876 538.16 233.106 541.78C233.916 542.68 235.306 543.05 236.106 543.94C237.366 545.28 234.716 545.79 235.206 547.05C236.206 549.56 235.206 547.89 246.206 564.35C248.206 567.28 250.886 570.35 248.206 570.15C247.466 570.09 246.726 569.61 246.016 569.65C244.536 569.73 243.176 571.72 243.756 572.93C246.016 577.63 251.606 585.02 249.936 595.93C248.936 602.43 243.846 605.61 237.676 603.17C229.126 599.79 224.466 593.49 219.676 588.34C217.476 585.96 217.276 585.83 214.616 587.29C207.066 591.45 199.276 595.29 192.506 600.7C180.966 609.95 182.276 604.12 186.506 616.57C186.421 617.136 186.29 617.695 186.116 618.24C185.869 618.985 185.366 619.619 184.696 620.03C184.286 620.33 186.606 621.56 172.316 588.51C171.835 587.337 171.817 586.025 172.266 584.84C173.766 585.84 171.816 582.68 180.946 602.84C181.586 604.25 182.946 604.54 183.946 603.48C192.076 595.13 202.266 589.89 212.386 584.54C216.706 582.26 214.586 582.87 205.666 565.86C203.756 562.23 202.206 562.92 189.596 561.17C188.696 561.05 189.426 559.75 189.646 559.74C203.646 559.59 203.366 560.94 202.856 554.23C202.856 553.96 202.076 553.62 201.616 553.53C192.106 551.67 194.616 552.62 193.066 551.29C193.346 551 193.616 550.47 193.916 550.45C199.511 550.066 205.117 551.012 210.276 553.21C210.676 553.37 210.916 553.92 211.226 554.29C210.886 554.54 210.586 554.92 210.226 555C208.906 555.3 206.336 554 205.396 556C204.616 557.66 205.506 560 207.236 561.19C207.856 561.61 208.636 561.82 209.236 562.29C209.52 562.634 209.657 563.076 209.616 563.52C206.446 565.57 207.216 566.02 216.696 580C216.984 580.572 217.443 581.041 218.009 581.342C218.575 581.643 219.22 581.761 219.856 581.68C220.576 581.57 221.606 581.77 221.156 582.68C220.156 584.77 221.316 586.07 222.456 587.44C244.166 613.69 254.456 599.09 243.346 577.64C241.826 574.71 239.046 572.89 237.546 569.82C235.546 565.65 227.026 557.96 223.406 555.01C212.076 545.78 208.906 550.01 209.136 547.49C209.136 547.1 209.656 546.44 209.966 546.43C211.456 546.43 213.116 546.13 214.416 546.67C233.736 554.67 238.576 570.58 242.806 567.82C245.276 566.21 243.996 565.9 234.716 552.02C233.036 549.51 231.946 546.19 229.636 544.62C227.076 542.86 223.456 542.56 220.256 541.83C208.836 539.26 208.956 540.26 208.666 539.02C208.546 538.49 209.966 538.19 210.366 538.23C228.976 539.91 227.676 541.54 228.126 535.78C228.556 530.4 231.376 528.78 235.556 530.07C241.934 531.927 247.56 535.757 251.626 541.01L250.986 541.76Z" fill="#1B2B36"/>
<path d="M352.156 916.76C352.156 935.32 354.666 956.39 355.286 957.76C355.473 958.036 355.727 958.258 356.025 958.407C356.323 958.556 356.654 958.626 356.986 958.61C360.286 957.3 363.546 955.86 366.786 954.4C371.526 952.26 365.386 951.85 357.496 914.93C357.256 913.81 353.036 893.37 354.126 890.93C354.516 891.17 355.126 891.32 355.276 891.65C358.016 900.27 361.186 920.4 367.156 938.95C372.246 954.78 374.096 954.79 367.956 957.49C357.826 961.94 355.356 960.93 355.566 964.49C355.645 965.377 355.444 966.267 354.992 967.034C354.541 967.801 353.86 968.408 353.046 968.77C326.046 983.98 299.046 967.91 305.236 956.34C329.416 910.78 325.346 892.67 330.236 889.93C330.356 890.15 330.596 890.38 330.586 890.6C330.574 893.12 330.391 895.635 330.036 898.13C319.626 950.83 302.366 956.96 309.776 964.24C321.086 975.35 336.646 973.18 351.296 967.5C351.897 967.271 352.395 966.834 352.701 966.269C353.008 965.704 353.102 965.048 352.966 964.42C351.256 948.42 346.266 922.79 350.776 898.42C350.776 898.31 352.106 897 352.126 900.65C352.166 906.07 352.156 911.41 352.156 916.76Z" fill="#1B2B36"/>
<path d="M149.716 830.26C151.846 833.44 151.076 852.32 165.296 876.8C208.136 950.5 244.586 976.8 258.056 993.57C258.216 993.76 257.766 995.25 257.056 994.71C248.846 988.65 223.526 962.82 212.916 950.45C205.756 942.1 206.586 944.73 204.026 954.32C192.086 999.14 193.086 995.99 190.846 996.55C189.096 996.99 195.626 969.36 203.596 946.6C206.936 937.08 201.856 942.1 172.386 895.51C158.996 874.34 149.066 856.33 148.966 831.28C148.966 830.94 149.446 830.65 149.716 830.26Z" fill="#1B2B36"/>
<path d="M283.086 843.01C283.336 841.95 283.146 840.25 284.996 840.5C287.306 840.82 276.696 876.71 279.056 929.9C281.816 992 286.656 1001.9 287.686 1001.9C289.366 1001.9 290.006 1006.08 296.776 916.2C297.846 902.02 296.776 888.44 298.146 886.62C302.146 891.09 294.246 995.21 289.746 1007.85C284.036 1023.84 265.016 917.93 283.086 843.01Z" fill="#1B2B36"/>
<path d="M283.636 1013.54C278.366 1012.31 276.506 1012.54 274.206 1008.42C261.316 985.32 259.906 940.42 260.456 914.11C261.456 866.99 273.456 832.82 275.626 833.25C278.086 833.72 269.166 850.81 264.986 887.34C261.566 917.2 262.136 963.5 270.916 993.5C273.556 1002.5 274.916 1009.36 283.616 1010.5C284.976 1010.68 286.416 1010.86 286.616 1012.18C286.816 1013.5 284.586 1013.41 283.636 1013.54Z" fill="#1B2B36"/>
<path d="M349.686 772.65C363.076 772.92 373.626 773.27 385.116 779.78C390.936 783.08 385.686 791.92 365.686 830.33C365.456 830.77 363.266 834.56 362.546 834.26C362.366 834.19 365.636 830.47 365.686 830.33C366.166 828.88 363.096 830.78 363.746 829.41C383.426 787.32 387.406 783.65 382.746 781.41C369.186 774.8 359.866 772.97 331.396 778.02C326.636 778.87 334.766 782.91 348.166 784.29C355.166 785.01 359.946 784.42 366.356 785.29C367.006 785.38 366.546 786.84 366.276 786.92C360.956 788.41 334.066 787.92 324.886 780.7C324.597 780.456 324.368 780.149 324.217 779.802C324.066 779.455 323.998 779.078 324.017 778.7C324.037 778.322 324.143 777.954 324.329 777.625C324.514 777.295 324.773 777.013 325.086 776.8C328.846 774.89 326.926 775.46 349.686 772.65Z" fill="#1B2B36"/>
<path d="M418.556 1005.31C418.266 1006.87 418.186 1007.31 418.096 1007.82C417.576 1007.48 416.916 1007.25 416.596 1006.82C416.066 1006.05 414.226 999.58 413.916 998.11C403.686 950.85 387.296 908.71 375.576 876.11C375.306 875.36 376.986 875.18 377.116 875.37C379.996 879.96 380.916 879.54 389.276 903.16C408.696 957.99 413.736 983.65 418.556 1005.31Z" fill="#1B2B36"/>
<path d="M420.436 632.21C413.656 618.31 399.116 488.79 405.106 482.47C407.106 484.88 408.206 562.72 420.586 625.62C421.846 631.87 419.846 632.65 420.436 632.21Z" fill="#1B2B36"/>
<path d="M214.736 692.72C214.216 697.65 207.606 700.03 184.296 738.15C160.576 776.96 152.926 810.02 151.846 812.65C151.356 813.431 150.749 814.133 150.046 814.73C149.831 814.048 149.733 813.335 149.756 812.62C162.416 755.13 212.566 690.74 214.736 692.72Z" fill="#1B2B36"/>
<path d="M223.596 531.93C223.486 532.14 223.376 532.53 223.266 532.52C222.556 532.598 221.838 532.53 221.156 532.32C191.156 517.52 144.096 545.99 131.746 576.19C131.566 576.62 130.566 576.71 129.956 576.95C129.836 576.25 129.416 575.42 129.646 574.86C141.646 545.33 183.566 518.93 215.156 527.57C217.796 528.433 220.364 529.503 222.836 530.77C223.186 530.93 223.346 531.54 223.596 531.93Z" fill="#1B2B36"/>
<path d="M316.046 841.71C319.306 836.51 321.126 828.81 329.406 827.18C336.826 825.73 334.926 823.94 324.406 789.47C324.056 788.34 323.096 785.26 323.846 785.18C327.976 784.69 338.576 819.53 338.016 834.18C337.916 836.79 336.706 839.18 336.016 838.62C334.626 837.49 335.316 835.86 335.276 834.44C335.116 828.3 334.796 828.12 328.566 829.64C319.076 831.96 321.256 849.64 305.446 848.57C293.236 847.77 288.496 848.98 287.926 846.49C287.866 846.26 288.386 845.64 288.646 845.63C309.846 845.32 312.536 847.31 316.046 841.71Z" fill="#1B2B36"/>
<path d="M157.986 703.89C134.096 673.27 124.626 609.3 129.506 608.68C131.826 608.38 128.266 612.08 137.686 649.77C147.206 687.87 158.436 697.02 157.796 703.68L157.986 703.89Z" fill="#1B2B36"/>
<path d="M252.736 815.14C252.736 801.24 232.646 813.8 242.216 795.52C254.736 771.58 254.146 773.05 255.586 771.69C255.836 771.45 257.336 771.69 257.136 772.45C255.926 776.83 257.716 772.57 247.026 793.66C244.126 799.39 241.636 803.03 245.346 804.03C249.246 805.09 255.576 805.31 255.986 812.8C256.436 820.8 251.766 817.92 276.686 826.55C276.996 826.66 277.116 827.33 277.326 827.75C275.406 828.66 264.276 825.75 262.516 825.23C257.696 823.71 253.056 821.62 248.366 819.68C247.496 819.194 246.701 818.584 246.006 817.87C245.908 817.801 245.834 817.702 245.797 817.588C245.76 817.474 245.762 817.35 245.802 817.237C245.841 817.124 245.917 817.027 246.017 816.96C246.117 816.894 246.236 816.862 246.356 816.87C250.526 817.49 252.746 818.81 252.736 815.14Z" fill="#1B2B36"/>
<path d="M370.846 702.51C379.576 683.32 389.506 666.51 403.646 650.72C407.546 646.37 412.506 641.16 417.906 639.97C418.536 639.84 418.666 641.09 418.596 641.74C418.486 642.74 413.596 641.74 398.956 661.56C371.776 698.35 373.556 708.65 370.846 702.51Z" fill="#1B2B36"/>
<path d="M161.146 661.26C178.886 688.96 179.626 688.83 179.556 694.03C179.556 694.283 179.623 694.531 179.75 694.749C179.876 694.967 180.059 695.148 180.278 695.273C180.498 695.398 180.746 695.463 180.999 695.46C181.251 695.458 181.499 695.389 181.716 695.26C184.526 693.56 187.536 692.07 189.986 689.93C201.596 679.81 213.506 666.19 212.676 669.93C211.846 673.67 209.016 675.93 206.566 678.35C190.096 694.77 188.226 695.28 181.846 698.13C179.536 699.13 176.676 697.54 176.926 695.07C177.346 690.91 176.836 691.83 162.926 668.63C159.646 663.16 160.236 661.86 161.146 661.26Z" fill="#1B2B36"/>
<path d="M347.096 890.01C339.511 889.085 332.1 887.064 325.096 884.01C321.798 882.583 319.152 879.976 317.676 876.7C309.576 858.93 316.216 865.4 287.996 866.7C286.156 866.78 284.676 865.76 285.356 865.07C285.972 864.358 286.799 863.861 287.716 863.65C296.096 862.81 308.546 862 311.136 861.65C311.748 861.503 312.393 861.578 312.955 861.862C313.517 862.146 313.961 862.62 314.206 863.2C315.596 865.91 317.346 868.51 318.206 871.38C321.786 883.38 329.886 883.49 347.506 887.6C348.676 887.87 350.086 887.6 350.656 889.08L347.096 890.01Z" fill="#1B2B36"/>
<path d="M169.196 617.49C170.218 617.364 171.248 617.644 172.066 618.27C172.191 618.354 172.296 618.465 172.372 618.595C172.448 618.725 172.494 618.87 172.506 619.02C172.566 620.6 172.066 621.59 170.506 621.36C163.556 620.36 161.126 623.96 161.006 630.79C160.866 638.97 166.006 649.37 177.146 646.92C183.146 645.61 188.246 643 188.716 635.75C188.716 635.36 189.236 635 189.506 634.63C194.386 640.98 183.626 652 171.126 649.77C164.476 648.59 156.496 639.29 158.596 626.63C159.896 618.8 160.596 619.73 169.106 617.5L169.196 617.49Z" fill="#1B2B36"/>
<path d="M362.716 857.75C356.426 857.31 357.716 857.49 356.966 856.95C359.626 853.57 372.896 858.43 375.226 843.51C375.408 842.268 375.324 841.002 374.979 839.795C374.634 838.588 374.037 837.468 373.226 836.51C373.106 836.115 373.128 835.691 373.286 835.31C373.966 835.31 374.826 835.09 375.286 835.43C376.26 836.042 377.042 836.917 377.54 837.954C378.039 838.99 378.235 840.147 378.106 841.29C376.236 855.52 371.906 852.2 371.316 857.59C369.696 872.2 356.846 887.29 357.426 883.65C358.056 879.58 362.366 876.87 368.206 860.44C369.746 856.1 367.896 856.76 362.716 857.75Z" fill="#1B2B36"/>
<path d="M372.016 756.94C371.756 757.45 370.886 757.64 370.296 757.94C369.966 756.19 369.036 757.74 372.786 745.63C380.786 719.87 357.156 699.55 356.596 698.45C362.026 697.51 387.536 726.41 372.016 756.94Z" fill="#1B2B36"/>
<path d="M351.676 157.35C348.876 200.89 349.306 195.35 348.676 199.87C348.616 200.31 347.626 200.14 347.526 199.87C344.956 193.21 346.526 161.12 350.526 153.35C350.646 153.12 352.146 152.53 352.176 153.61C352.366 157.96 352.356 157.39 351.676 157.35Z" fill="#1B2B36"/>
<path d="M250.266 621.21C250.196 620.979 250.176 620.735 250.207 620.496C250.238 620.256 250.319 620.026 250.446 619.82C251.142 619.108 251.966 618.535 252.876 618.13C265.876 613.13 269.256 604.55 272.406 602.19C272.686 601.98 273.576 602.57 273.546 602.87C272.656 609.62 265.896 611.33 270.176 614.39C273.936 617.07 251.626 626.48 250.266 621.21Z" fill="#1B2B36"/>
<path d="M346.986 99.3998C356.736 87.0298 392.716 71.3198 392.846 74.6498C392.906 77.3798 365.786 85.8398 348.196 100.27C348.081 100.43 347.906 100.538 347.711 100.57C347.516 100.602 347.317 100.555 347.156 100.44C346.996 100.324 346.888 100.15 346.856 99.955C346.824 99.76 346.871 99.5603 346.986 99.3998Z" fill="#1B2B36"/>
<path d="M387.196 83.8999C386.656 84.9699 381.946 87.9899 381.266 88.3999C351.266 106.46 348.576 114.23 346.926 112.83C344.046 110.38 365.426 92.0399 385.836 83.5599C386.186 83.4199 386.736 83.7799 387.196 83.8999Z" fill="#1B2B36"/>
<path d="M382.556 979.85C385.266 987.96 393.556 1014.7 393.466 1023.29C393.466 1024.52 391.166 1024.69 390.596 1022.29C379.336 974.87 381.346 983.89 381.126 978.48C382.846 977.33 382.306 979.1 382.556 979.85Z" fill="#1B2B36"/>
<path d="M171.036 707.32C159.126 691.04 151.206 681.32 147.166 661.52C147.166 661.36 147.406 661.04 147.596 660.97C149.696 660.24 145.546 664.25 171.186 703.73C172.466 705.7 170.846 707.12 171.036 707.32Z" fill="#1B2B36"/>
<path d="M274.896 792.98C274.896 792.91 275.306 792.98 275.486 792.98C277.826 793.87 278.926 800.79 298.676 802.67C306.676 803.43 312.606 802.25 315.016 803.44C314.726 803.83 314.526 804.39 314.136 804.59C302.896 810.46 270.716 801.52 274.896 792.98Z" fill="#1B2B36"/>
<path d="M125.376 585.85C124.848 586.321 124.267 586.731 123.646 587.07C122.346 587.59 122.186 588.12 123.356 588.98C126.756 591.45 123.256 593.61 116.416 599.26C116.046 599.56 113.296 599.33 114.856 597.39C121.426 589.17 121.856 593.95 112.426 585.32C111.496 584.47 112.206 582.58 113.426 582.32C115.382 581.859 117.413 581.805 119.391 582.161C121.369 582.517 123.253 583.276 124.926 584.39C125.256 584.56 125.226 585.25 125.376 585.85Z" fill="#1B2B36"/>
<path d="M167.776 664.28C178.146 676.04 177.706 676.28 180.366 676.88C184.926 666.88 185.606 666.78 183.756 664.45C179.386 658.94 179.636 660.1 180.136 658.45C180.456 657.37 185.206 661.36 187.506 666.19C187.986 667.19 187.306 668.19 182.326 680.19C181.616 681.89 180.016 682.35 178.796 680.93C175.166 676.73 171.666 672.41 168.166 668.09C166.756 666.27 165.936 665.65 167.776 664.28Z" fill="#1B2B36"/>
<path d="M370.156 793.65C358.156 823.6 361.886 838.09 358.446 837.76C358.076 837.76 357.446 837.19 357.446 836.92C358.756 820.92 361.226 807.2 368.596 792.98C368.826 792.54 369.126 791.4 370.036 792.24C370.286 792.44 370.126 793.13 370.156 793.65Z" fill="#1B2B36"/>
<path d="M407.016 74.1199C405.735 74.1265 404.462 74.3185 403.236 74.6899C395.796 77.7699 391.776 85.0499 394.096 87.4999C397.156 90.7399 404.946 81.6399 406.636 83.7699C406.769 83.9655 406.854 84.1903 406.881 84.4253C406.909 84.6604 406.88 84.8987 406.796 85.1199C405.555 86.8891 403.91 88.3359 401.996 89.3397C400.083 90.3434 397.957 90.8749 395.796 90.8899C384.956 90.9899 393.886 72.1399 406.536 71.6899C407.406 71.6899 410.116 72.3099 409.966 73.7999C409.92 74.022 409.821 74.2293 409.676 74.4038C409.531 74.5782 409.346 74.7142 409.136 74.7999C408.646 74.8599 408.136 74.5099 407.016 74.1199Z" fill="#1B2B36"/>
<path d="M335.126 186.51C333.526 184.68 344.726 148.51 348.556 148.38C349.666 148.38 339.286 179.11 335.856 186.38C335.786 186.5 335.376 186.47 335.126 186.51Z" fill="#1B2B36"/>
<path d="M352.116 141.65C352.415 139.254 353.336 136.979 354.787 135.049C356.238 133.12 358.168 131.603 360.386 130.65C360.726 130.5 361.306 130.87 361.766 130.99C360.416 133.31 356.986 133.91 354.626 140.22C352.526 145.83 356.286 147.09 357.946 146.31C366.796 142.15 366.746 137.07 368.426 138.73C368.593 138.911 368.715 139.127 368.785 139.363C368.854 139.599 368.868 139.848 368.826 140.09C365.256 149.26 351.896 153.04 352.116 141.65Z" fill="#1B2B36"/>
<path d="M312.536 1008.06C312.536 994.97 312.436 997.72 312.956 995.94C313.546 996.76 314.566 997.08 314.956 1002.15C315.526 1008.87 317.606 1025.87 314.836 1025.04C312.066 1024.21 312.606 1023.04 312.606 1008.04L312.536 1008.06Z" fill="#1B2B36"/>
<path d="M272.656 579.75C272.276 585.39 268.726 589.58 263.546 590.36C262.8 590.327 262.066 590.164 261.376 589.88C263.376 587.05 262.186 588.77 265.206 586.94C268.226 585.11 270.426 580.22 268.396 577.94C264.326 573.32 258.906 580.94 257.746 578.8C257.63 578.589 257.563 578.354 257.551 578.113C257.539 577.872 257.582 577.632 257.676 577.41C262.926 569.48 273.076 573.27 272.656 579.75Z" fill="#1B2B36"/>
<path d="M220.656 1015.33C224.766 990.48 223.866 994.7 225.366 991.72C225.511 991.534 225.71 991.398 225.936 991.33C226.936 992.33 226.936 988.89 223.486 1020.05C223.486 1020.44 223.036 1020.8 222.796 1021.17C220.796 1019.55 221.076 1020.69 221.076 1015.4L220.656 1015.33Z" fill="#1B2B36"/>
<path d="M445.846 405.65C451.146 406.88 453.366 407.26 453.036 407.78C451.306 410.49 441.036 407.39 434.256 413.53C433.966 413.79 432.696 413.46 432.376 413.03C430.916 411.13 433.846 406.94 445.846 405.65Z" fill="#1B2B36"/>
<path d="M166.276 684.15C165.836 684.15 165.196 684.15 165.016 683.93C158.526 674.93 152.716 661.19 152.186 658.3C152.106 657.88 152.436 657.38 152.586 656.92C152.946 657.2 153.456 657.39 153.636 657.76C165.616 681.65 166.936 684.2 166.276 684.15Z" fill="#1B2B36"/>
<path d="M346.936 841.26C358.586 840.26 358.516 839.97 359.156 841.4C360.156 843.63 334.206 846.6 334.646 841.8C334.736 840.8 335.706 841.01 346.936 841.01V841.26Z" fill="#1B2B36"/>
<path d="M382.846 94.95C382.506 96.95 368.486 109.77 367.956 109.95C367.735 110.027 367.496 110.038 367.269 109.982C367.041 109.927 366.834 109.807 366.673 109.637C366.512 109.468 366.403 109.255 366.359 109.025C366.315 108.795 366.339 108.557 366.426 108.34C370.526 102.75 375.256 97.83 381.546 94.68C381.846 94.5 382.406 94.84 382.846 94.95Z" fill="#1B2B36"/>
<path d="M359.846 165.92C359.846 174.31 360.066 176.7 359.056 176.52C358.626 176.44 358.056 176.11 357.916 175.76C356.546 170.86 354.916 165.22 356.996 155.76C357.106 155.26 357.996 154.94 358.546 154.53C359.936 156.53 359.676 153.64 359.676 165.91L359.846 165.92Z" fill="#1B2B36"/>
<path d="M228.096 570.16C230.096 570.83 229.986 569.7 234.886 576.09C235.706 577.16 234.536 579.26 231.356 584.84C231.186 585.15 230.356 585.45 230.146 585.3C226.416 582.3 233.806 580.87 228.546 575.7C227.546 574.75 227.236 573.07 226.866 571.7C226.776 571.29 227.656 570.65 228.096 570.16Z" fill="#1B2B36"/>
<path d="M172.446 614.21C172.766 610.91 167.686 607.5 167.076 602.73L167.606 602.27C168.407 602.848 169.135 603.519 169.776 604.27C182.546 623.39 180.466 620.33 180.126 622.43C176.126 620.43 176.966 617.17 173.476 616.43L172.446 614.21Z" fill="#1B2B36"/>
<path d="M424.396 640.46C426.396 641.29 427.396 642.54 429.066 641.01C433.386 637.18 433.746 635.39 435.216 636.71C436.216 637.63 429.016 648.95 423.846 642.12C423.626 641.83 423.756 641.23 423.846 640.79C423.846 640.65 424.196 640.57 424.396 640.46Z" fill="#1B2B36"/>
<path d="M257.426 563.38C253.086 567.01 252.686 565.82 251.576 563.38C249.736 559.46 249.296 558.9 250.286 557.96C252.236 556.1 256.086 561.15 257.356 562.37C257.496 562.55 257.406 562.91 257.426 563.38Z" fill="#1B2B36"/>
<path d="M194.126 573.35C181.126 569.77 182.256 570.35 182.326 568.93C182.326 567.93 189.536 568.39 195.816 571.53C196.196 571.72 196.366 572.31 196.636 572.72C195.106 573.58 195.776 573.35 194.126 573.35Z" fill="#1B2B36"/>
<path d="M412.106 448.41C408.439 452.569 405.307 457.171 402.786 462.11C402.606 462.44 402.026 462.56 401.626 462.78C401.486 462.31 401.126 461.78 401.226 461.39C402.467 456.73 405.13 452.573 408.846 449.5C409.966 448.54 412.716 448.91 412.106 448.41Z" fill="#1B2B36"/>
<path d="M349.186 779.2C360.606 781.26 357.766 780.53 359.886 782.14C357.886 782.91 360.996 783.29 342.886 781.39C342.506 781.39 342.166 780.82 341.816 780.52C343.416 779.65 341.466 779.92 349.186 779.2Z" fill="#1B2B36"/>
<path d="M120.536 607.65C117.816 607.27 121.596 599.75 124.176 596.96C124.486 596.63 125.526 596.83 126.176 597.02C127.326 597.36 125.716 599.7 121.176 607.3C121.026 607.5 120.746 607.57 120.536 607.65Z" fill="#1B2B36"/>
<path d="M170.736 631.5C170.166 631.19 169.826 631.12 169.786 630.97C169.686 630.56 169.516 629.97 169.706 629.7C172.246 626.02 174.806 625.28 178.546 627.14C178.746 627.267 178.918 627.433 179.05 627.63C179.183 627.826 179.273 628.047 179.316 628.28C179.846 631.42 176.596 627.14 170.736 631.5Z" fill="#1B2B36"/>
<path d="M256.286 545.65C259.946 548.05 262.136 551.76 264.586 555.21C264.896 555.64 264.586 556.53 264.536 557.21C262.976 556.21 264.906 558.59 255.626 546.21L256.286 545.65Z" fill="#1B2B36"/>
<path d="M206.946 691.65C209.126 686.4 209.886 683.74 211.406 684.03C212.926 684.32 212.336 684.03 209.786 692.45C209.476 693.45 208.136 694.61 207.856 694.09C207.503 693.296 207.199 692.481 206.946 691.65Z" fill="#1B2B36"/>
<path d="M294.446 838.34C294.296 838.47 293.936 838.57 293.846 838.49C288.116 833.29 286.746 832.1 287.336 831.88C287.776 831.71 288.336 831.41 288.686 831.55C292.026 832.85 295.516 837.41 294.446 838.34Z" fill="#1B2B36"/>
<path d="M138.756 620.57C137.506 617.57 135.756 612.76 137.416 609.94C139.586 612.7 138.506 617.25 140.816 621.17C140.846 620.99 138.956 621.06 138.756 620.57Z" fill="#1B2B36"/>
<path d="M181.226 578.97C180.806 579.46 181.076 579.78 174.306 577.05C174.066 576.95 174.016 576.23 173.996 575.79C173.916 574.05 182.346 577.65 181.226 578.97Z" fill="#1B2B36"/>
<path d="M174.466 662.26C174.756 662.64 174.626 664.81 168.466 657.12C167.606 655.98 172.336 659.44 174.466 662.26Z" fill="#1B2B36"/>
<path d="M214.576 692.57C214.506 690.57 216.106 689.57 217.356 688.41C217.565 688.282 217.795 688.194 218.036 688.15C218.176 688.53 218.526 689.15 218.396 689.27C218.046 689.65 215.696 693.65 214.576 692.57Z" fill="#1B2B36"/>
<path d="M354.936 865.43C355.456 863.15 355.176 863.22 356.616 862.79C357.436 862.54 356.816 866.42 356.706 866.95C356.646 867.26 355.966 867.47 355.546 867.67C355.126 867.87 354.936 865.47 354.936 865.43Z" fill="#1B2B36"/>
<path d="M354.256 877.74C353.936 878.61 353.616 880.51 352.376 880.07C351.136 879.63 352.166 876.07 353.486 876.56C353.846 876.65 353.966 877.26 354.256 877.74Z" fill="#1B2B36"/>
<path d="M251.676 541.04C253.761 541.924 255.416 543.59 256.286 545.68L255.626 546.28C250.286 541.07 250.766 542 251.676 541.04Z" fill="#1B2B36"/>
<path d="M157.846 703.65C158.316 703.88 158.286 703.83 158.036 703.86L157.846 703.65Z" fill="#1B2B36"/>
<path d="M331.706 675.33C331.156 675.19 331.166 675.25 331.576 675.12L331.706 675.33Z" fill="#1B2B36"/>
<path d="M368.896 130.36C368.746 130.76 368.596 131.16 368.436 131.56C366.846 130.03 369.356 130.79 368.896 130.36Z" fill="#1B2B36"/>
<path d="M420.306 632.31C420.756 631.73 420.606 631.86 420.856 631.85C420.687 632.019 420.503 632.173 420.306 632.31Z" fill="#1B2B36"/>
<path d="M170.956 707.25C171.616 706.99 171.626 706.95 171.036 707.32L170.956 707.25Z" fill="#1B2B36"/>
</svg>
