<svg width="480" height="360" viewBox="0 0 480 360" fill="none" xmlns="http://www.w3.org/2000/svg">
<path d="M346.33 195.57C346.33 197.342 346.383 199.06 346.33 200.805C346.382 201.594 346.131 202.372 345.63 202.983C345.129 203.593 344.415 203.989 343.632 204.091C342.317 204.414 340.97 204.592 339.616 204.623C330.284 204.756 321.121 206.394 311.93 207.705C310.78 207.874 309.63 208.086 308.472 208.175C302.722 208.653 303.359 208.547 300.634 213.596C297.786 218.91 295.071 224.225 292.276 229.54C291.892 230.204 291.454 230.835 290.966 231.426C290.904 231.506 290.568 231.426 290.418 231.364C290.108 231.17 289.586 230.904 289.595 230.691C289.589 229.927 289.73 229.169 290.011 228.459C291.152 225.997 292.284 223.525 293.602 221.16C299.142 210.968 304.132 200.486 308.551 189.759C313.018 179.236 317.565 168.74 322.102 158.243C322.562 157.18 323.12 156.153 323.677 155.143C324.152 154.183 324.859 153.356 325.733 152.738C326.607 152.119 327.621 151.728 328.683 151.6C333.478 151.095 337.485 148.65 341.492 146.365C346.034 143.683 349.604 139.619 351.68 134.764C353.756 129.91 354.231 124.519 353.035 119.375C352.906 119.072 352.73 118.791 352.513 118.543C352.383 118.902 352.273 119.269 352.186 119.641C352.106 120.013 352.097 120.412 352.053 120.793C350.381 134.15 342.031 143.593 329.055 146.799C327.958 147.182 326.816 147.42 325.658 147.508C323.137 147.437 321.925 148.615 320.952 150.883C314.301 166.375 307.41 181.77 300.785 197.28C296.592 207.076 292.727 217.015 288.693 226.882C288.168 228.123 287.577 229.336 286.924 230.514C286.818 230.709 286.287 230.718 285.96 230.727C285.863 230.727 285.65 230.399 285.677 230.248C285.835 228.728 286.131 227.224 286.561 225.757C288.826 219.557 290.984 213.356 293.638 207.298C301.201 189.874 308.958 172.531 316.636 155.17C317.52 153.221 318.405 151.299 319.29 149.341C319.381 149.17 319.43 148.98 319.433 148.786C319.435 148.592 319.391 148.4 319.305 148.226C319.218 148.053 319.091 147.903 318.935 147.788C318.778 147.674 318.596 147.599 318.405 147.57C314.645 146.646 311.047 145.152 307.737 143.141C307.57 143.039 307.382 142.978 307.187 142.961C306.992 142.944 306.796 142.972 306.614 143.043C306.432 143.114 306.269 143.226 306.137 143.371C306.005 143.515 305.908 143.688 305.853 143.876C305.429 144.958 305.08 146.067 304.81 147.198C302.228 156.945 298.953 166.494 295.009 175.773C288.888 190.441 282.696 205.083 276.433 219.699C275.451 222.011 274.187 224.198 273.001 226.422C272.497 227.361 271.4 227.804 271.312 227.254C271.19 226.718 271.211 226.159 271.374 225.633C275.655 215.24 279.96 204.856 284.288 194.481C291.046 178.182 297.786 161.893 303.323 145.125C304.314 142.113 304.314 139.996 302.377 137.153C297.565 130.129 295.964 122.192 298.582 113.875C300.953 106.354 306.021 100.836 312.558 96.6197C313.089 96.1859 313.753 95.9489 314.438 95.9489C315.123 95.9489 315.787 96.1859 316.317 96.6197C317.839 97.8067 319.537 98.7722 321.067 99.9591C321.397 100.173 321.678 100.454 321.892 100.784C322.106 101.114 322.248 101.485 322.309 101.874C322.37 102.263 322.348 102.66 322.246 103.04C322.143 103.419 321.962 103.773 321.713 104.078C320.183 106.31 318.476 108.427 316.831 110.58C315.999 111.66 315.212 112.767 314.301 113.777C312.912 115.31 313.018 116.895 313.903 118.587C314.354 119.473 314.743 120.359 315.229 121.174C316.388 123.158 316.353 126.107 318.52 127.153C321.262 128.481 324.376 129.084 327.365 129.81C328.123 129.894 328.884 129.681 329.488 129.216C332.142 127.285 334.734 125.248 337.361 123.246C337.839 122.91 338.211 122.443 338.434 121.902C338.656 121.36 338.72 120.767 338.617 120.19C338.29 118.082 337.856 115.992 337.511 113.892C337.316 112.955 337.23 111.998 337.255 111.04C337.312 110.775 337.432 110.527 337.604 110.317C337.776 110.108 337.996 109.943 338.245 109.836C338.505 109.791 338.772 109.814 339.021 109.901C339.27 109.987 339.493 110.136 339.669 110.332C341.582 114.165 342.276 118.492 341.66 122.732C341.517 123.491 341.117 124.176 340.527 124.672C337.246 127.392 333.893 129.987 330.559 132.644C330.024 133.065 329.392 133.345 328.721 133.456C328.05 133.568 327.362 133.508 326.72 133.282C323.933 132.485 321.121 131.75 318.334 130.935C317.395 130.694 316.526 130.234 315.798 129.592C315.071 128.95 314.506 128.144 314.15 127.241C313.027 124.584 311.789 121.926 310.568 119.269C309.4 116.762 309.453 114.521 311.452 112.316C313.92 109.579 316.194 106.673 318.529 103.795C319.466 102.625 319.307 102.023 318.069 100.889C314.69 97.9041 314.248 97.8155 310.931 101.049C308.705 103.207 306.661 105.544 304.818 108.037C297.884 117.506 300.652 129.526 305.305 135.877C310.816 143.38 318.449 146.037 327.348 144.115C337.007 142.042 344.198 136.604 347.763 126.993C349.107 123.129 349.382 118.972 348.559 114.964C348.391 114.016 348.143 113.077 348.064 112.13C348.064 111.855 348.444 111.421 348.745 111.288C348.911 111.232 349.089 111.218 349.261 111.248C349.434 111.277 349.597 111.349 349.736 111.457C350.24 112.023 350.567 112.759 351.08 113.317C351.407 113.671 352.142 114.149 352.354 114.016C354.123 112.927 354.786 114.132 355.299 115.469C360.315 128.481 353.583 142.671 343.65 148.349C340.6 150.041 337.438 151.521 334.185 152.778C332.728 153.288 331.19 153.526 329.648 153.478C328.575 153.45 327.519 153.753 326.625 154.348C325.73 154.942 325.041 155.798 324.65 156.8C324.075 158.022 323.641 159.315 323.173 160.591C322.359 162.77 321.404 164.913 320.811 167.145C320.298 169.068 318.423 170.689 319.449 172.974C321.351 172.797 323.261 172.664 325.163 172.442C328.816 172.017 332.46 171.441 336.122 171.114C341.545 170.618 343.066 171.583 344.154 177.084C345.101 181.823 345.454 186.677 345.994 191.487C346.069 192.841 346.069 194.198 345.994 195.552L346.33 195.57ZM342.703 193.798C342.12 189.21 341.5 183.453 340.607 177.73C340.165 174.949 339.245 174.497 336.653 174.799C330.904 175.454 325.154 176.225 319.405 176.703C317.299 176.871 316.362 177.828 315.636 179.608C313.454 184.964 311.202 190.297 308.878 195.605C308.217 197 308.004 198.566 308.268 200.088C308.372 200.661 308.257 201.252 307.946 201.745C307.635 202.237 307.15 202.594 306.587 202.745C306.42 202.823 306.271 202.934 306.149 203.073C306.027 203.212 305.935 203.375 305.88 203.551C305.809 203.843 306.083 204.499 306.198 204.499C307.724 204.521 309.25 204.433 310.763 204.233C319.502 202.807 328.259 201.274 337.193 201.088C338.157 201.088 339.13 201.009 340.085 200.894C342.199 200.619 342.739 200.008 342.739 197.917C342.712 196.952 342.703 195.96 342.703 193.834V193.798Z" fill="#1B2B36" stroke="#1B2B36"/>
<path d="M203.518 225.26C203.212 217.532 202.889 205.869 202.26 194.171C201.901 187.385 201.218 180.598 200.401 173.839C198.845 160.11 198.373 146.282 198.991 132.481C199.108 129.372 199.35 126.263 199.521 123.163C199.656 120.596 199.647 120.596 202.305 121.387C202.485 121.44 202.674 121.573 202.844 121.556C206.94 121.147 211.036 120.765 215.114 120.214C215.563 120.152 216.147 119.077 216.165 118.438C216.21 117.505 215.689 116.555 215.662 115.604C215.662 115.347 216.659 114.716 216.964 114.831C219.057 115.658 219.713 117.434 219.767 119.513C219.82 120.305 219.574 121.09 219.076 121.713C218.578 122.337 217.864 122.756 217.072 122.888C214.795 123.473 212.477 123.892 210.138 124.14C207.991 124.354 205.808 124.247 203.653 124.265C202.422 124.265 201.919 125.002 201.856 126.041C201.793 127.081 201.739 128.377 201.739 129.541C201.739 137.322 201.874 145.103 201.802 152.885C201.73 160.666 202.772 168.402 203.545 176.139C204.129 181.948 205 187.731 205.341 193.549C206.401 214.53 207.47 235.519 206.599 256.544C206.266 264.539 205.701 272.462 205.171 280.421C205.006 282.554 204.706 284.676 204.272 286.772C204.15 287.016 203.968 287.226 203.742 287.381C203.515 287.537 203.253 287.632 202.979 287.66C201.425 287.553 199.88 287.251 198.335 286.994C194.66 286.288 190.882 286.288 187.206 286.994C186.775 287.083 186.416 287.696 186.119 288.14C186.301 288.461 186.577 288.721 186.91 288.886C188.191 289.36 189.498 289.761 190.826 290.085C193.126 290.609 195.443 290.973 197.742 291.506C197.913 291.506 198.021 292.039 198.057 292.332C198.057 292.457 197.859 292.688 197.706 292.741C197.193 293.007 196.631 293.167 196.054 293.212C193.709 293.016 191.383 292.714 189.048 292.466C183.73 291.897 180.47 287.927 179.814 282.055C178.601 270.846 178.301 259.558 178.916 248.301C179.473 237.42 180.191 226.557 180.91 215.684C181.125 212.389 181.584 209.111 181.898 205.816C184.018 183.343 185.102 160.817 185.149 138.237C185.149 132.019 184.727 125.801 184.503 119.584C184.413 117.212 184.943 116.475 187.323 115.933C191.608 114.947 195.874 114.529 199.988 116.599C200.142 116.706 200.271 116.845 200.365 117.006C200.46 117.167 200.518 117.346 200.536 117.532C200.536 117.816 200.257 118.331 200.042 118.376C198.308 118.678 196.575 118.935 194.823 119.113C192.676 119.335 190.503 119.362 188.383 119.69C188.038 119.807 187.727 120.007 187.479 120.272C187.232 120.538 187.054 120.859 186.964 121.209C186.786 123.144 186.756 125.088 186.874 127.027C187.988 147.066 187.314 167.079 185.868 187.074C184.619 204.341 183.218 221.6 182.167 238.868C181.323 250.905 181.26 262.984 181.979 275.029C182.122 277.161 182.23 279.31 182.545 281.416C183.039 284.684 183.335 284.498 186.227 284.374C190.718 284.178 195.209 284.516 199.763 284.667C201.326 284.72 202 284.302 202.081 282.792C202.593 273.466 203.239 264.139 203.5 254.821C203.706 246.329 203.518 237.767 203.518 225.26Z" fill="#1B2B36" stroke="#1B2B36"/>
<path d="M269.265 231.478C280.221 231.269 291.47 239.085 293.303 255.162C293.772 258.735 293.521 262.373 292.567 265.836C291.614 269.299 289.978 272.51 287.769 275.257C285.208 278.726 282.084 281.684 278.543 283.993C277.91 284.434 277.163 284.658 276.405 284.633C275.648 284.609 274.915 284.337 274.309 283.856C267.372 278.883 267.234 278.782 272.355 272.242C273.921 270.238 275.471 268.225 277.071 266.266C277.577 265.688 277.897 264.956 277.986 264.175C278.076 263.393 277.931 262.601 277.571 261.912C276.477 259.371 275.453 256.811 274.42 254.242C274.229 253.678 273.907 253.175 273.482 252.778C273.058 252.381 272.546 252.105 271.993 251.974C271.623 251.883 271.279 251.71 270.909 251.61L263.8 249.606C261.941 250.926 260.065 252.238 258.206 253.55C257.919 253.814 257.608 254.046 257.276 254.242C253.197 255.927 253.076 259.316 253.833 263.124C254.177 264.87 254.419 266.638 254.556 268.416C254.556 268.835 254.074 269.473 253.653 269.728C253.486 269.824 253.301 269.879 253.111 269.889C252.921 269.898 252.732 269.861 252.558 269.781C252.383 269.701 252.228 269.58 252.105 269.427C251.982 269.274 251.893 269.094 251.845 268.899C250.441 265.175 249.947 261.137 250.408 257.157C250.62 255.999 251.211 254.957 252.078 254.215C254.995 251.701 258.102 249.378 261.054 246.928C261.65 246.421 262.354 246.078 263.105 245.931C263.856 245.783 264.63 245.834 265.358 246.08C268.258 246.991 271.15 247.902 274.016 248.813C274.822 249.109 275.553 249.598 276.15 250.243C276.748 250.888 277.195 251.671 277.459 252.53C278.491 255.308 279.61 258.059 280.729 260.801C281.848 263.543 281.719 265.72 279.705 267.915C277.467 270.347 275.402 272.953 273.336 275.54C271.563 277.744 271.615 278.126 273.474 279.894C276.323 282.626 276.546 282.626 279.541 279.894C281.392 278.197 283.118 276.355 284.705 274.383C291.78 265.574 292.021 255.855 287.468 245.871C283.638 237.472 274.343 232.899 265.642 234.548C260.596 235.454 255.872 237.779 251.966 241.28C245.227 247.31 242.387 254.889 243.703 264.171C243.871 265.144 243.983 266.127 244.039 267.114C244.039 267.387 243.617 267.797 243.316 267.906C243.155 267.945 242.988 267.942 242.829 267.896C242.669 267.849 242.523 267.762 242.404 267.642C241.935 267.033 241.552 266.355 241.268 265.629C240.236 262.399 240.078 258.928 240.812 255.609C242.937 244.113 249.935 237.163 259.858 233.045C262.868 231.883 266.063 231.351 269.265 231.478V231.478Z" fill="#1B2B36" stroke="#1B2B36"/>
<path d="M142.71 82.7112C145.254 82.7112 147.807 82.7808 150.351 82.7112C151.236 82.667 152.117 82.8644 152.892 83.281C153.668 83.6976 154.308 84.3169 154.74 85.0686C155.329 86.0521 155.843 87.0754 156.281 88.1306C157.329 90.3923 159.085 91.1926 161.396 90.401C163.263 89.7554 164.871 88.5526 165.991 86.9649C167.944 84.2422 170.712 83.1722 173.954 82.7286C186.97 80.8715 200.133 80.1785 213.279 80.6582C222.881 81.011 232.428 82.2253 241.8 84.2857C249.101 85.9298 255.882 88.9657 262.456 92.4018C263.433 92.9063 264.615 93.4978 264.329 94.9593C264.123 96.0205 262.609 96.2815 260.817 95.4812C259.214 94.7592 257.628 94.0111 256.097 93.1673C247.757 88.5829 238.629 86.4952 229.295 85.086C224.449 84.3465 219.603 83.4593 214.73 83.1635C209.637 82.9301 204.536 82.9708 199.448 83.2853C191.386 83.6594 183.369 83.7202 175.397 84.9381C172.351 85.3991 169.744 86.182 167.926 88.8265C167.074 89.87 166.058 90.7771 164.916 91.5145C163.818 92.331 162.526 92.8651 161.159 93.0673C159.792 93.2696 158.394 93.1334 157.096 92.6714C155.403 92.1669 153.728 91.4449 153.952 89.1919C153.952 88.6208 153.814 88.0577 153.549 87.5478C153.002 86.269 152.214 85.2339 150.584 85.1904C149.607 85.1904 148.631 85.0686 147.646 85.0512L130.626 84.8337C130.24 84.8645 129.852 84.8141 129.488 84.6858C129.334 84.6146 129.199 84.5115 129.09 84.3838C128.982 84.256 128.904 84.1067 128.861 83.9464C128.861 83.7748 128.905 83.6059 128.988 83.4542C129.07 83.3026 129.19 83.1729 129.336 83.0765C132.543 81.9891 135.884 82.05 139.19 82.137C140.363 82.137 141.536 82.311 142.71 82.398V82.7112Z" fill="#1B2B36" stroke="#1B2B36"/>
<path d="M164.256 103.546C165.347 103.869 166.397 104.323 167.383 104.898C172.446 108.442 178.028 109.712 184.095 109.52C190.367 109.329 196.639 109.402 202.912 109.274C204.704 109.274 206.415 108.872 208.172 108.717C208.958 108.665 209.723 108.433 210.409 108.037C211.094 107.642 211.684 107.093 212.132 106.433C213.443 104.687 214.64 102.856 215.716 100.952C216.336 99.6989 217.219 98.6011 218.303 97.7372C219.388 96.8733 220.646 96.2647 221.989 95.9551C231.361 93.4248 240.591 93.5527 249.677 97.2158C250.249 97.3317 250.789 97.5786 251.254 97.9378C251.72 98.2969 252.1 98.7591 252.365 99.2894C251.908 99.4812 251.415 99.8923 251.003 99.8192C248.315 99.3533 245.627 98.7778 242.938 98.248C236.373 96.9255 229.599 97.141 223.127 98.8783C222.268 99.074 221.461 99.4549 220.76 99.9954C220.058 100.536 219.478 101.223 219.059 102.012C218.001 103.921 216.845 105.775 215.645 107.611C213.664 110.644 210.94 112.023 207.276 112.279C196.906 113.028 186.494 112.937 176.138 112.005C175.757 111.908 175.366 111.859 174.973 111.859C174.474 111.934 173.996 112.111 173.566 112.38C173.476 112.444 173.629 113.156 173.844 113.403C175.69 115.458 177.598 117.459 179.417 119.532C179.707 120.021 179.907 120.56 180.009 121.122C179.365 121.438 178.669 121.627 177.957 121.679C177.182 121.572 176.46 121.217 175.896 120.665C173.136 117.842 170.457 114.956 169.373 110.927C168.817 108.863 165.69 106.314 163.826 106.296C163.047 106.32 162.283 106.516 161.586 106.871C160.358 107.465 159.22 108.287 158.002 108.863C157.75 108.946 157.482 108.966 157.221 108.92C156.96 108.874 156.714 108.763 156.505 108.598C156.375 108.361 156.307 108.093 156.307 107.821C156.307 107.549 156.375 107.282 156.505 107.045C157.464 105.915 158.656 105.016 159.996 104.411C161.336 103.806 162.791 103.511 164.256 103.546V103.546Z" fill="#1B2B36" stroke="#1B2B36"/>
<path d="M212.152 186.861C211.491 186.716 210.544 186.571 209.634 186.271C209.509 186.271 209.42 185.442 209.536 185.111C209.608 184.906 209.716 184.722 209.852 184.568C209.989 184.415 210.152 184.296 210.33 184.22C212.192 183.587 214.085 183.085 216 182.717C230.285 180.5 244.57 178.335 258.855 176.222C263.113 175.59 267.39 175.186 271.667 174.854C273.59 174.844 275.51 175.024 277.407 175.393C277.675 175.393 277.898 176.025 278.095 176.429C278.095 176.491 277.907 176.833 277.756 176.885C276.351 177.6 274.888 178.151 273.39 178.532C267.399 179.506 261.399 180.314 255.399 181.143C242.823 182.876 230.243 184.586 217.66 186.271C215.955 186.457 214.205 186.623 212.152 186.861Z" fill="#1B2B36" stroke="#1B2B36"/>
<path d="M123.715 209.061C123.787 207.081 123.959 205.105 124.231 203.141C124.541 202.216 125.061 201.377 125.752 200.69C125.897 200.499 126.476 200.608 126.847 200.69C127.001 200.69 127.164 200.926 127.254 201.098C127.346 201.258 127.378 201.444 127.345 201.625C125.67 208.48 127.39 215.027 129.236 221.537C129.978 224.161 130.675 224.551 133.617 224.388C135.789 224.27 137.934 223.87 140.097 223.625C145.811 222.99 151.519 222.363 157.221 221.746C157.814 221.7 158.411 221.755 158.986 221.909C159.154 221.955 159.308 222.038 159.439 222.153C159.569 222.268 159.671 222.411 159.737 222.572C159.737 222.89 159.574 223.48 159.339 223.562C157.894 224.178 156.394 224.656 154.859 224.987C148.605 226.013 142.333 226.939 136.061 227.847C134.878 227.996 133.686 228.054 132.495 228.02C128.467 227.956 127.58 227.239 126.159 223.153C124.595 218.618 123.77 213.86 123.715 209.061V209.061Z" fill="#1B2B36" stroke="#1B2B36"/>
<path d="M256.153 209.231C258.08 209.231 260.015 209.231 261.941 209.231C262.18 209.231 262.418 209.547 262.657 209.713C262.418 209.946 262.206 210.312 261.923 210.386C259.344 211.126 256.725 211.736 254.077 212.215C242.837 213.819 231.561 215.174 220.215 215.905C219.447 215.955 218.678 216.03 217.909 216.021C217.14 216.013 216.389 215.747 216.345 214.833C216.301 213.919 216.999 213.619 217.741 213.395C218.462 213.143 219.208 212.96 219.968 212.846C231.067 211.605 242.168 210.389 253.273 209.198C254.232 209.148 255.194 209.148 256.153 209.198V209.231Z" fill="#1B2B36" stroke="#1B2B36"/>
<path d="M240.207 102.828C244.947 103.049 249.627 103.977 254.094 105.58C256.64 106.572 258.937 106.841 261.126 104.83C261.502 104.481 262.288 104.276 262.538 105.053C262.699 105.554 262.726 106.394 262.431 106.662C261.81 107.361 260.974 107.833 260.054 108.002C257.531 107.963 255.012 107.772 252.512 107.43C249.617 107.064 246.757 106.367 243.862 106.126C240.765 105.858 237.654 105.804 234.55 105.965C233.475 105.968 232.425 106.294 231.538 106.901C230.65 107.508 229.965 108.368 229.573 109.37C228.658 111.076 227.499 112.638 226.132 114.008C225.292 115 224.229 115.036 223.612 114.357C223.35 114.07 223.204 113.695 223.204 113.307C223.204 112.918 223.35 112.543 223.612 112.256C224.14 111.434 224.694 110.639 225.221 109.826C229.099 103.855 229.984 103.319 236.9 102.837C237.678 102.783 238.464 102.828 240.207 102.828Z" fill="#1B2B36" stroke="#1B2B36"/>
<path d="M202.617 73.2402C202.502 73.7019 202.344 74.1529 202.146 74.5879C201.959 74.9065 201.653 75.1434 201.289 75.2493C201.136 75.2487 200.986 75.2104 200.853 75.138C200.719 75.0657 200.607 74.9617 200.527 74.8359C200.297 73.9666 199.984 73.1196 199.593 72.3059C199.13 71.5606 198.417 70.9914 197.571 70.6937C191.505 69.3874 185.396 68.8417 179.279 70.4374C177.608 70.8673 177.385 71.2642 178.028 72.6532C178.614 73.771 179.129 74.9224 179.57 76.1009C179.693 76.7934 179.631 77.5048 179.39 78.1678C179.33 78.4241 178.885 78.6225 178.576 78.7879C178.49 78.8292 178.225 78.6969 178.139 78.5812C176.623 76.3406 175.106 74.0918 173.624 71.8264C173.443 71.4106 173.411 70.9487 173.532 70.5132C173.653 70.0777 173.92 69.6933 174.292 69.4205C174.885 68.9901 175.548 68.6576 176.254 68.4366C179.132 67.6977 182.066 67.1753 185.028 66.874C189.7 66.5712 194.391 67.0723 198.882 68.3539C201.615 69.1477 202.686 70.5449 202.617 73.2402Z" fill="#1B2B36" stroke="#1B2B36"/>
<path d="M300.394 259.905C299.636 267.481 297.988 274.624 291.032 279.594C290.037 280.233 288.966 280.765 287.84 281.178C287.639 281.217 287.432 281.213 287.233 281.164C287.035 281.116 286.852 281.026 286.698 280.901C286.62 280.444 286.716 279.976 286.969 279.576C287.405 279.176 287.899 278.835 288.439 278.563C297.735 272.503 299.589 264.052 297.389 254.424C295.978 248.896 293.863 243.542 291.088 238.475C290.651 237.636 290.282 236.768 289.984 235.878C289.899 235.601 290.246 235.22 290.386 234.891C290.754 235.032 291.11 235.197 291.453 235.384C291.622 235.493 291.755 235.643 291.837 235.817C295.753 242.493 298.538 249.685 300.095 257.143C300.272 258.043 300.301 259.004 300.394 259.905Z" fill="#1B2B36" stroke="#1B2B36"/>
<path d="M138.925 195.433C135.677 195.488 133.623 195.06 134.068 194.177C134.948 192.41 136.785 192.683 138.347 192.428C144.881 191.399 151.405 190.289 157.957 189.405C161.631 188.914 165.371 188.804 169.082 188.577C169.385 188.577 169.717 188.941 170.029 189.141C169.821 189.442 169.679 189.915 169.385 190.052C168.237 190.498 167.048 190.842 165.835 191.081C156.877 192.547 147.901 193.976 138.925 195.433Z" fill="#1B2B36" stroke="#1B2B36"/>
<path d="M122 98.911C122.52 95.4336 123.004 91.9561 123.595 88.4977C123.755 87.6854 124.11 86.9314 124.626 86.31C124.94 85.9183 125.863 85.5266 126.069 85.6986C126.58 86.1476 127.27 87.0838 127.127 87.5424C124.321 96.3125 124.958 105.111 126.625 113.958C126.679 114.206 126.374 114.521 126.239 114.818C125.944 114.55 125.549 114.34 125.343 114.005C123.61 110.277 122.596 106.217 122.359 102.064C122.309 101.026 122.309 99.9867 122.359 98.9492L122 98.911Z" fill="#1B2B36" stroke="#1B2B36"/>
<path d="M256.817 272.628C256.423 272.319 256.085 271.95 255.817 271.535C255.779 271.343 255.792 271.145 255.855 270.959C255.918 270.773 256.029 270.605 256.177 270.472C256.885 269.99 257.646 269.585 258.446 269.264C260.156 268.574 260.556 267.223 260.446 265.68C260.336 264.137 259.946 262.374 259.706 260.726C259.567 259.891 259.694 259.036 260.07 258.272C260.446 257.508 261.055 256.87 261.815 256.443C263.815 255.168 265.744 253.75 268.303 253.759C268.729 253.752 269.141 253.904 269.453 254.181C269.518 254.358 269.535 254.547 269.502 254.732C269.468 254.916 269.386 255.09 269.263 255.235C267.923 256.289 266.534 257.295 265.124 258.254C264.57 258.591 264.141 259.088 263.9 259.673C263.66 260.259 263.619 260.903 263.785 261.512C264.025 262.738 264.375 263.965 264.484 265.201C264.834 270.06 262.305 272.551 256.817 272.628Z" fill="#1B2B36" stroke="#1B2B36"/>
<path d="M323.538 125.109C320.226 124.504 318.278 120.848 319.774 117.529C321.259 114.309 322.935 111.223 324.79 108.293C325.768 106.709 325.642 105.624 324.708 104.227C324.662 103.991 324.665 103.745 324.717 103.511C324.768 103.276 324.867 103.061 325.005 102.883C325.228 102.806 325.464 102.79 325.693 102.836C325.923 102.882 326.141 102.99 326.331 103.15C328.013 105.143 328.265 106.611 327.205 108.809C325.834 111.656 324.323 114.415 322.893 117.226C321.567 119.833 321.589 119.94 323.16 122.271C323.56 122.864 323.945 123.458 324.316 124.051C324.397 124.184 324.427 124.531 324.368 124.585C324.104 124.788 323.827 124.964 323.538 125.109V125.109Z" fill="#1B2B36" stroke="#1B2B36"/>
<path d="M139.521 118.248C136.788 117.946 134.103 117.729 131.427 117.281C131.074 117.221 130.72 116.073 130.577 115.445C130.577 115.203 131.064 114.502 131.389 114.43C137.321 112.891 143.396 112.431 149.431 113.064C151.686 113.342 153.463 113.149 155.164 111.481C155.403 111.264 155.919 111.481 156.301 111.554C156.329 112.244 156.248 112.934 156.062 113.584C155.674 114.365 155.144 115.017 154.515 115.486C153.887 115.955 153.179 116.227 152.45 116.278C148.169 116.871 143.85 117.584 139.521 118.248Z" fill="#1B2B36" stroke="#1B2B36"/>
<path d="M146.015 96.064C146.507 93.8793 146.98 91.7678 147.483 89.6654C147.55 89.4095 148.216 89.0164 148.371 89.0987C148.835 89.3364 149.549 89.8208 149.511 90.1407C148.767 95.7623 149.781 101.219 151.056 106.667C151.196 107.442 151.196 108.233 151.056 109.007C150.992 109.173 150.885 109.32 150.745 109.435C150.605 109.55 150.436 109.629 150.254 109.665C150.06 109.684 149.864 109.66 149.681 109.595C149.499 109.53 149.335 109.426 149.201 109.291C148.588 108.492 148.127 107.598 147.84 106.649C147.154 103.166 146.623 99.638 146.015 96.064Z" fill="#1B2B36" stroke="#1B2B36"/>
<path d="M260.831 102.81C259.746 102.531 258.584 102.268 257.437 101.939C256.29 101.611 255.447 100.616 255.939 100.386C256.509 100.055 257.165 99.9222 257.811 100.008C260.363 100.74 262.82 100.945 265.192 99.4004C265.34 99.3018 265.894 99.5729 266.011 99.8112C266.075 99.9708 266.099 100.145 266.083 100.317C266.066 100.489 266.01 100.654 265.918 100.797C265.374 101.462 264.704 101.999 263.952 102.375C262.929 102.636 261.883 102.782 260.831 102.81V102.81Z" fill="#1B2B36" stroke="#1B2B36"/>
<path d="M342.817 109.672C341.696 109.276 340.127 108.747 338.549 108.131C338.405 108.035 338.292 107.909 338.22 107.763C338.147 107.618 338.119 107.459 338.136 107.301C338.361 106.89 338.791 106.313 339.186 106.281C340.23 106.169 341.289 106.292 342.265 106.639C343.24 106.986 344.1 107.545 344.763 108.265C344.937 108.556 345.015 108.885 344.987 109.213C344.987 109.284 344.682 109.411 344.503 109.442C344.135 109.513 343.75 109.545 342.817 109.672Z" fill="#1B2B36" stroke="#1B2B36"/>
<path d="M144.299 216.533C143.8 216.969 143.387 217.666 142.871 217.724C141.761 217.855 141.339 216.998 141.038 216.272C140.934 216.094 140.876 215.899 140.869 215.7C140.862 215.502 140.906 215.304 140.997 215.121C141.089 214.938 141.226 214.774 141.399 214.639C141.572 214.505 141.778 214.403 142.002 214.341C142.255 214.292 142.518 214.295 142.769 214.352C143.02 214.409 143.25 214.518 143.439 214.668C143.823 215.255 144.112 215.882 144.299 216.533V216.533Z" fill="#1B2B36" stroke="#1B2B36"/>
<path d="M151.772 214.321C151.874 214.321 152.001 214.288 152.077 214.321C152.276 214.494 152.446 214.715 152.578 214.973C152.71 215.23 152.8 215.519 152.845 215.822C152.889 216.125 152.886 216.436 152.836 216.737C152.786 217.039 152.69 217.325 152.554 217.578C152.476 217.657 152.382 217.709 152.284 217.729C152.185 217.748 152.084 217.734 151.991 217.689C151.786 217.519 151.611 217.298 151.474 217.039C151.337 216.78 151.243 216.488 151.195 216.182C151.148 215.875 151.149 215.559 151.199 215.253C151.248 214.947 151.345 214.657 151.483 214.399C151.544 214.367 151.691 214.36 151.772 214.321Z" fill="#1B2B36" stroke="#1B2B36"/>
<path d="M236.413 209.075C236.303 209.075 236.178 209.221 236.095 209.131C235.753 208.744 235.484 208.108 235.336 207.336C235.189 206.563 235.172 205.703 235.288 204.905C235.368 204.628 235.481 204.4 235.614 204.244C235.747 204.088 235.897 204.009 236.048 204.015C236.245 204.208 236.421 204.491 236.563 204.846C236.704 205.2 236.809 205.616 236.869 206.067C236.929 206.517 236.943 206.99 236.91 207.453C236.877 207.916 236.798 208.358 236.678 208.748C236.6 208.892 236.51 209.003 236.413 209.075V209.075Z" fill="#1B2B36" stroke="#1B2B36"/>
<path d="M246.741 202.299C247.458 202.741 248.33 202.962 248.496 203.403C248.827 204.498 248.972 205.64 248.926 206.782C248.926 207.025 247.745 207.588 247.436 207.412C246.796 207.103 246.267 206.602 245.925 205.979C245.582 205.355 245.444 204.64 245.528 203.933C245.583 203.426 246.245 202.951 246.741 202.299Z" fill="#1B2B36" stroke="#1B2B36"/>
<path d="M178.606 213.988C177.877 214.697 177.077 215.365 176.212 215.989C176 216.13 174.714 215.79 174.583 215.498C173.957 214.401 173.578 213.24 173.46 212.058C173.46 211.648 174.811 211.087 175.691 210.888C176.049 210.794 176.961 211.274 177.319 211.648C177.841 212.4 178.271 213.183 178.606 213.988V213.988Z" fill="#1B2B36" stroke="#1B2B36"/>
<path d="M212.592 210.876C212.089 210.853 211.61 210.805 211.183 210.734C210.756 210.663 210.391 210.571 210.109 210.463C209.827 210.356 209.634 210.235 209.543 210.108C209.451 209.981 209.463 209.851 209.576 209.726C209.625 209.566 209.921 209.417 210.399 209.312C210.878 209.206 211.501 209.152 212.136 209.162C213.813 209.162 215.078 209.755 214.475 210.275C214.151 210.516 213.107 210.713 212.592 210.876Z" fill="#1B2B36" stroke="#1B2B36"/>
<path d="M262.072 204.015C261.193 203.98 260.406 203.863 259.881 203.691C259.355 203.518 259.133 203.303 259.262 203.092C259.394 202.814 260.684 202.573 261.444 202.299C262.254 202.446 263.378 202.549 263.791 202.743C264.263 202.929 264.456 203.148 264.339 203.364C264.222 203.58 263.801 203.78 263.146 203.931C262.931 203.991 262.469 203.987 262.072 204.015Z" fill="#1B2B36" stroke="#1B2B36"/>
<path d="M163.874 214.307C164.065 214.421 164.322 214.451 164.446 214.65C164.681 214.994 164.831 215.445 164.872 215.93C164.913 216.415 164.843 216.906 164.673 217.326C164.576 217.485 164.453 217.605 164.316 217.673C164.178 217.741 164.031 217.755 163.889 217.715C163.724 217.576 163.579 217.39 163.463 217.166C163.347 216.943 163.262 216.688 163.214 216.416C163.166 216.143 163.155 215.86 163.183 215.581C163.21 215.303 163.275 215.035 163.373 214.795C163.435 214.558 163.693 214.497 163.874 214.307Z" fill="#1B2B36" stroke="#1B2B36"/>
<path d="M226.635 208.269C226.083 208.663 225.871 208.985 225.425 209.105C224.458 209.365 222.997 208.659 223.229 208.034C223.326 207.799 224.197 207.409 224.371 207.448C225.176 207.685 225.935 207.96 226.635 208.269V208.269Z" fill="#1B2B36" stroke="#1B2B36"/>
<path d="M276.38 202.483C275.618 203.194 275.208 203.883 274.693 203.994C273.65 204.205 272.655 202.783 273.03 201.505C273.158 201.083 274.283 200.461 274.517 200.605C275.226 201.147 275.853 201.779 276.38 202.483V202.483Z" fill="#1B2B36" stroke="#1B2B36"/>
<path d="M319.972 198.869C320.149 198.922 320.315 199.036 320.461 199.201C320.607 199.366 320.728 199.578 320.817 199.824C320.905 200.07 320.959 200.344 320.974 200.625C320.989 200.907 320.965 201.191 320.904 201.456C320.833 201.684 320.728 201.881 320.597 202.028C320.466 202.175 320.314 202.268 320.154 202.299C319.517 202.207 319.084 200.824 319.335 199.771C319.437 199.324 319.801 199.113 319.972 198.869Z" fill="#1B2B36" stroke="#1B2B36"/>
<path d="M332.985 198.734C332.714 199.486 332.566 200.47 332.317 200.513C331.668 200.687 330.992 200.537 330.426 200.094C329.894 199.458 329.58 198.579 329.555 197.649C329.566 197.213 329.658 196.786 329.823 196.404C329.989 196.022 330.223 195.695 330.506 195.451C330.838 195.409 331.174 195.469 331.484 195.625C331.795 195.781 332.073 196.028 332.295 196.347C332.645 197.078 332.88 197.888 332.985 198.734V198.734Z" fill="#1B2B36" stroke="#1B2B36"/>
</svg>
