<svg width="40" height="40" viewBox="0 0 40 40" fill="none" xmlns="http://www.w3.org/2000/svg">
<path d="M20 21.6667C21.841 21.6667 23.3334 20.1743 23.3334 18.3333C23.3334 16.4924 21.841 15 20 15C18.1591 15 16.6667 16.4924 16.6667 18.3333C16.6667 20.1743 18.1591 21.6667 20 21.6667Z" stroke="#2FABE1" stroke-width="2" stroke-miterlimit="10" stroke-linecap="round" stroke-linejoin="round"/>
<path d="M31.6667 34.1417C34.579 31.7391 36.6786 28.496 37.6786 24.8554C38.6786 21.2149 38.5302 17.3543 37.2538 13.8012C35.9773 10.2481 33.6351 7.1757 30.5469 5.00375C27.4588 2.83179 23.7755 1.6662 20 1.6662C16.2246 1.6662 12.5412 2.83179 9.4531 5.00375C6.36498 7.1757 4.02271 10.2481 2.74627 13.8012C1.46984 17.3543 1.32148 21.2149 2.32147 24.8554C3.32146 28.496 5.42103 31.7391 8.33336 34.1417" stroke="#2FABE1" stroke-width="2" stroke-miterlimit="10" stroke-linecap="round" stroke-linejoin="round"/>
<path d="M18.3333 26.6667H21.6667C22.5507 26.6667 23.3986 27.0178 24.0237 27.643C24.6488 28.2681 25 29.1159 25 30V38.3333H15V30C15 29.1159 15.3512 28.2681 15.9763 27.643C16.6014 27.0178 17.4493 26.6667 18.3333 26.6667Z" stroke="#2FABE1" stroke-width="2" stroke-miterlimit="10" stroke-linecap="round" stroke-linejoin="round"/>
<path d="M30.4334 25.1967C31.3234 23.418 31.744 21.4412 31.655 19.4542C31.5661 17.4673 30.9707 15.536 29.9253 13.8439C28.8799 12.1518 27.4192 10.7551 25.6821 9.7864C23.945 8.8177 21.989 8.3092 20 8.3092C18.0111 8.3092 16.0551 8.8177 14.318 9.7864C12.5808 10.7551 11.1202 12.1518 10.0748 13.8439C9.02942 15.536 8.43397 17.4673 8.34504 19.4542C8.25611 21.4412 8.67665 23.418 9.56671 25.1967" stroke="#2FABE1" stroke-width="2" stroke-miterlimit="10" stroke-linecap="round" stroke-linejoin="round"/>
</svg>
