<svg width="40" height="40" viewBox="0 0 40 40" fill="none" xmlns="http://www.w3.org/2000/svg">
<path d="M25 18.3333C29.6024 18.3333 33.3333 14.6024 33.3333 10C33.3333 5.39762 29.6024 1.66666 25 1.66666C20.3976 1.66666 16.6667 5.39762 16.6667 10C16.6667 14.6024 20.3976 18.3333 25 18.3333Z" stroke="#2FABE1" stroke-width="2" stroke-miterlimit="10" stroke-linecap="round" stroke-linejoin="round"/>
<path d="M28.3333 26.6667H31.3967C32.446 26.6666 33.4687 26.9968 34.3201 27.6103C35.1714 28.2238 35.8081 29.0896 36.14 30.085L36.6667 31.6667L17.5533 37.5483C15.9147 38.0521 14.1449 37.9053 12.6117 37.1383L1.66667 31.6667V20H3.33334C5.17501 20 9.84334 20.73 11.6667 23.3333H16.6667C18.4348 23.3333 20.1305 24.0357 21.3807 25.286C22.631 26.5362 23.3333 28.2319 23.3333 30H13.3333" stroke="#2FABE1" stroke-width="2" stroke-miterlimit="10" stroke-linecap="round" stroke-linejoin="round"/>
<path d="M25 8.33333V11.6667" stroke="#2FABE1" stroke-width="2" stroke-miterlimit="10" stroke-linecap="round" stroke-linejoin="round"/>
</svg>
