<svg width="40" height="40" viewBox="0 0 40 40" fill="none" xmlns="http://www.w3.org/2000/svg">
<path d="M1.66667 16.6667L20 1.66666L38.3333 16.6667" stroke="#2FABE1" stroke-width="2" stroke-miterlimit="10" stroke-linecap="round" stroke-linejoin="round"/>
<path d="M6.66667 20V36.6667H33.3333V20" stroke="#2FABE1" stroke-width="2" stroke-miterlimit="10" stroke-linecap="round" stroke-linejoin="round"/>
<path d="M20 21.6667C21.841 21.6667 23.3333 20.1743 23.3333 18.3333C23.3333 16.4924 21.841 15 20 15C18.1591 15 16.6667 16.4924 16.6667 18.3333C16.6667 20.1743 18.1591 21.6667 20 21.6667Z" fill="#2FABE1"/>
<path d="M20 23.3333C17.7899 23.3333 15.6703 24.2113 14.1074 25.7741C12.5446 27.3369 11.6667 29.4565 11.6667 31.6666H28.3333C28.3333 29.4565 27.4554 27.3369 25.8926 25.7741C24.3298 24.2113 22.2101 23.3333 20 23.3333V23.3333Z" fill="#2FABE1"/>
</svg>
