<svg width="40" height="40" viewBox="0 0 40 40" fill="none" xmlns="http://www.w3.org/2000/svg">
<path d="M36.075 16.665C37.46 17.8867 38.3333 19.675 38.3333 21.6667V28.3333C38.3333 32.015 35.3483 35 31.6667 35H16.6667C12.985 35 10 32.015 10 28.3333V21.6667C10 17.985 12.985 15 16.6667 15H23.3333" stroke="#2FABE1" stroke-width="2" stroke-miterlimit="10" stroke-linecap="round" stroke-linejoin="round"/>
<path d="M3.92502 23.335C2.54002 22.1133 1.66669 20.325 1.66669 18.3333V11.6667C1.66669 7.985 4.65169 5 8.33335 5H23.3334C27.015 5 30 7.985 30 11.6667V18.3333C30 22.015 27.015 25 23.3334 25H16.6667" stroke="#2FABE1" stroke-width="2" stroke-miterlimit="10" stroke-linecap="round" stroke-linejoin="round"/>
</svg>
