<svg width="36" height="36" viewBox="0 0 36 36" fill="none" xmlns="http://www.w3.org/2000/svg">
<path d="M31.6803 29.29L34.1062 26.8255L25.2867 17.9617L22.8608 20.4262L31.6803 29.29ZM35.4631 14.3789L35.0519 10.9618L22.6758 12.3701L23.0664 15.8079L35.4631 14.3789ZM26.253 2.09801L23.3337 0.275541L16.7139 10.879L19.6332 12.7014L26.253 2.09801ZM10.9781 1.68381L7.75048 2.84356L11.8416 14.6896L15.0692 13.5298L10.9781 1.68381ZM1.13071 13.447L0 16.7191L11.7388 20.8818L12.8695 17.6097L1.13071 13.447ZM4.11166 28.5445L5.94135 31.4645L16.5083 24.8167L14.6786 21.8966L4.11166 28.5445ZM17.6801 35.6272L21.0928 36L22.5319 23.5327L19.1192 23.1599L17.6801 35.6272ZM27.2192 9.01509C26.0268 8.14528 25.7801 6.46778 26.6436 5.28732C27.507 4.08615 29.1722 3.83763 30.3441 4.70745C31.5364 5.57726 31.7831 7.25475 30.9197 8.43521C30.0768 9.63638 28.4116 9.90561 27.2192 9.01509ZM16.9606 5.2459C15.5421 5.63939 14.0824 4.79028 13.7124 3.36131C13.3423 1.93233 14.1647 0.46193 15.5832 0.0891527C17.0017 -0.283624 18.4614 0.544769 18.8314 1.97375C19.2015 3.40273 18.3791 4.85241 16.9606 5.2459ZM7.60657 10.9618C7.03094 12.308 5.46851 12.9292 4.11166 12.3494C2.75481 11.7695 2.15862 10.1956 2.73425 8.8287C3.30989 7.46185 4.87232 6.86127 6.22917 7.44114C7.58601 8.02102 8.20276 9.59497 7.60657 10.9618ZM6.22917 21.8759C6.90759 23.1806 6.43475 24.796 5.13958 25.5001C3.8444 26.2043 2.24086 25.7072 1.54187 24.4025C0.842891 23.0978 1.33629 21.4824 2.63146 20.7783C3.92664 20.0949 5.53018 20.5712 6.22917 21.8759ZM13.8357 29.7871C15.2748 30.0563 16.2205 31.4645 15.9532 32.9142C15.686 34.3639 14.288 35.3166 12.8489 35.0473C11.4099 34.7781 10.4642 33.3699 10.7314 31.9202C10.9987 30.4705 12.3967 29.5178 13.8357 29.7871ZM24.7522 28.7101C25.8623 27.7368 27.5276 27.861 28.4938 28.9794C29.4601 30.0977 29.3367 31.7752 28.2266 32.7486C27.1164 33.7219 25.4512 33.5977 24.4849 32.4793C23.5393 31.3817 23.6421 29.6835 24.7522 28.7101ZM30.6936 19.4736C30.6319 18.0032 31.7626 16.7606 33.2428 16.6984C34.7024 16.6363 35.9359 17.7754 35.9976 19.2665C36.0593 20.7576 34.9286 21.9794 33.4484 22.0416C31.9887 22.083 30.7552 20.944 30.6936 19.4736Z" fill="#2FABE1"/>
</svg>
