<svg width="141" height="40" viewBox="0 0 141 40" fill="none" xmlns="http://www.w3.org/2000/svg">
<path d="M62.3447 8.98026C63.5579 9.64758 64.479 10.568 65.153 11.7646C65.827 12.9612 66.164 14.3418 66.164 15.9296C66.164 17.4943 65.827 18.898 65.1305 20.0715C64.434 21.2681 63.4905 22.1885 62.2997 22.8328C61.0865 23.4771 59.7385 23.8223 58.2557 23.8223H52.392V32.0142H48.2806V8.0138H58.2557C59.7835 8.0138 61.1539 8.33596 62.3447 8.98026ZM57.8289 20.0025C59.1319 20.0025 60.1654 19.6343 60.9068 18.921C61.6707 18.1846 62.0526 17.1952 62.0526 15.9296C62.0526 14.664 61.6707 13.6745 60.9068 12.9381C60.1429 12.2018 59.1095 11.8336 57.8289 11.8336H52.392V20.0025H57.8289ZM67.9388 18.0696C68.7252 16.6429 69.8036 15.5384 71.1965 14.756C72.5894 13.9736 74.1396 13.5824 75.892 13.5824C77.6444 13.5824 79.1946 13.9736 80.5875 14.756C81.958 15.5384 83.0363 16.6429 83.8227 18.0696C84.609 19.4963 84.9909 21.153 84.9909 23.0399C84.9909 24.9498 84.609 26.6296 83.8227 28.0563C83.0363 29.483 81.958 30.5875 80.5875 31.3699C79.217 32.1523 77.6444 32.5434 75.892 32.5434C74.1396 32.5434 72.5669 32.1523 71.1965 31.3699C69.826 30.5875 68.7252 29.483 67.9388 28.0333C67.1525 26.5836 66.7706 24.9268 66.7706 23.0399C66.7706 21.153 67.1525 19.4963 67.9388 18.0696ZM72.1176 27.412C73.0837 28.4935 74.3418 29.0228 75.892 29.0228C77.4197 29.0228 78.6778 28.4935 79.6439 27.412C80.61 26.3305 81.0818 24.8808 81.0818 23.0399C81.0818 21.1991 80.61 19.7494 79.6439 18.6679C78.6778 17.6094 77.4422 17.0801 75.892 17.0801C74.3193 17.0801 73.0612 17.6094 72.1176 18.6909C71.1515 19.7724 70.6797 21.2221 70.6797 23.0399C70.6797 24.8808 71.1515 26.3535 72.1176 27.412ZM91.3714 14.0887V16.7119H91.8882C93.2361 14.6179 95.1009 13.5824 97.7969 13.5824C99.2347 13.5824 100.56 13.9736 101.796 14.756C103.009 15.5384 103.998 16.6429 104.717 18.0696C105.458 19.4963 105.817 21.153 105.817 23.0399C105.817 24.9268 105.458 26.6066 104.717 28.0333C103.975 29.483 103.009 30.5875 101.796 31.3699C100.583 32.1523 99.2572 32.5434 97.7969 32.5434C95.1009 32.5434 93.1912 31.531 91.8882 29.483H91.4388V37.859H87.5746V14.0887H91.3714ZM100.448 27.458C101.414 26.3765 101.908 24.9038 101.908 23.0399C101.908 21.1761 101.414 19.7034 100.448 18.6218C99.4818 17.5403 98.2013 17.0111 96.6511 17.0111C95.1233 17.0111 93.8427 17.5633 92.8767 18.6448C91.8882 19.7264 91.3939 21.1991 91.3939 23.0399C91.3939 24.8808 91.8882 26.3535 92.8767 27.435C93.8652 28.5165 95.1233 29.0688 96.6511 29.0688C98.2237 29.0688 99.4818 28.5395 100.448 27.458ZM121.274 29.2299H120.825C119.837 31.3009 118.017 32.3133 115.231 32.3133C113.905 32.3133 112.715 32.0142 111.681 31.3929C110.648 30.7716 109.839 29.8972 109.255 28.7697C108.671 27.6421 108.379 26.3305 108.379 24.8578V14.0887H112.288V24.6277C112.288 26.0774 112.647 27.1819 113.344 27.9183C114.063 28.6546 115.074 29.0228 116.399 29.0228C117.859 29.0228 119.028 28.5165 119.904 27.5041C120.758 26.4916 121.207 25.0879 121.207 23.27V14.0657H125.071V31.9912H121.274V29.2299ZM132.642 32.0142H128.778V8.0138H132.642V32.0142ZM140.191 32.0142H136.327V15.5384H140.191V32.0142ZM138.282 13.2833C136.776 13.2833 135.541 12.0407 135.541 10.499C135.541 8.95725 136.754 7.69165 138.259 7.69165C139.764 7.69165 141 8.93424 141 10.476C141 12.0177 139.787 13.2833 138.282 13.2833Z" fill="#1B2B36"/>
<path d="M34.621 32.5445L37.272 29.8062L27.6339 19.9575L24.9828 22.6958L34.621 32.5445ZM38.7548 15.9766L38.3055 12.1798L24.7806 13.7445L25.2075 17.5644L38.7548 15.9766ZM28.6898 2.33112L25.4995 0.306157L18.2653 12.0877L21.4556 14.1127L28.6898 2.33112ZM11.9971 1.8709L8.46989 3.15951L12.9407 16.3218L16.468 15.0331L11.9971 1.8709ZM1.23566 14.9411L0 18.5768L12.8284 23.202L14.0641 19.5663L1.23566 14.9411ZM4.49331 31.7161L6.49283 34.9606L18.0406 27.5741L16.0411 24.3296L4.49331 31.7161ZM19.3212 39.5858L23.0507 40L24.6233 26.1474L20.8939 25.7332L19.3212 39.5858ZM29.7457 10.0168C28.4426 9.05031 28.1731 7.18642 29.1166 5.8748C30.0602 4.54017 31.88 4.26404 33.1606 5.23049C34.4637 6.19695 34.7333 8.06084 33.7897 9.37246C32.8686 10.7071 31.0488 11.0062 29.7457 10.0168ZM18.5349 5.82878C16.9847 6.26599 15.3896 5.32254 14.9852 3.73478C14.5808 2.14703 15.4795 0.513255 17.0296 0.0990586C18.5798 -0.315138 20.175 0.605299 20.5794 2.19305C20.9838 3.78081 20.0851 5.39157 18.5349 5.82878ZM8.31262 12.1798C7.68356 13.6755 5.9761 14.3658 4.49331 13.7215C3.01052 13.0772 2.35899 11.3284 2.98805 9.80967C3.61711 8.29095 5.32457 7.62363 6.80736 8.26794C8.29016 8.91224 8.96415 10.6611 8.31262 12.1798ZM6.80736 24.3066C7.54876 25.7562 7.03203 27.5511 5.61664 28.3335C4.20124 29.1158 2.44885 28.5636 1.68499 27.1139C0.921128 25.6642 1.46033 23.8693 2.87572 23.087C4.29111 22.3276 6.0435 22.8569 6.80736 24.3066ZM15.12 33.0967C16.6926 33.3959 17.7261 34.9606 17.434 36.5714C17.142 38.1821 15.6143 39.2406 14.0416 38.9415C12.4689 38.6424 11.4355 37.0776 11.7275 35.4668C12.0196 33.8561 13.5473 32.7976 15.12 33.0967ZM27.0497 31.9002C28.2629 30.8186 30.0827 30.9567 31.1386 32.1993C32.1946 33.4419 32.0598 35.3058 30.8466 36.3873C29.6334 37.4688 27.8136 37.3307 26.7577 36.0881C25.7242 34.8686 25.8365 32.9817 27.0497 31.9002ZM33.5426 21.6373C33.4752 20.0035 34.7108 18.6229 36.3284 18.5538C37.9235 18.4848 39.2715 19.7504 39.3389 21.4072C39.4063 23.064 38.1707 24.4216 36.5531 24.4906C34.9579 24.5367 33.61 23.2711 33.5426 21.6373Z" fill="#2FABE1"/>
</svg>
